%TF.GenerationSoftware,Altium Limited,Altium Designer,25.4.2 (15)*%
G04 Layer_Color=0*
%FSLAX45Y45*%
%MOMM*%
%TF.SameCoordinates,81630B90-A891-4B4D-9F54-97E9C8775566*%
%TF.FilePolarity,Positive*%
%TF.FileFunction,Plated,1,4,PTH,Drill*%
%TF.Part,Single*%
G01*
G75*
%TA.AperFunction,ComponentDrill*%
%ADD145C,0.30000*%
%ADD146C,0.95000*%
%ADD147O,1.00000X0.50000*%
%TA.AperFunction,ViaDrill,NotFilled*%
%ADD148C,0.30000*%
%ADD149C,0.40000*%
%ADD150C,0.90000*%
D145*
X1521080Y2295480D02*
D03*
X1381080D02*
D03*
X1731080Y2225480D02*
D03*
X1661080Y2295480D02*
D03*
Y2155480D02*
D03*
X1591080Y2225480D02*
D03*
Y2085480D02*
D03*
X1731080D02*
D03*
X1661080Y2015480D02*
D03*
X1731080Y1945480D02*
D03*
X1661080Y1875480D02*
D03*
X1591080Y1945480D02*
D03*
X1451080Y2225480D02*
D03*
X1381080Y2155480D02*
D03*
X1521080D02*
D03*
X1451080Y2085480D02*
D03*
X1311080Y2225480D02*
D03*
Y2085480D02*
D03*
X1521080Y2015480D02*
D03*
X1381080D02*
D03*
X1521080Y1875480D02*
D03*
X1451080Y1945480D02*
D03*
X1311080D02*
D03*
X1381080Y1875480D02*
D03*
D146*
X1520000Y163496D02*
D03*
Y417496D02*
D03*
X1774000D02*
D03*
X1266000Y163496D02*
D03*
X1774000D02*
D03*
X1266000Y417496D02*
D03*
D147*
X3240000Y3787200D02*
D03*
X2760000Y3784700D02*
D03*
X3240000Y3359700D02*
D03*
X2760000D02*
D03*
D148*
X4230583Y1308162D02*
D03*
X3799372Y2267908D02*
D03*
X1794100Y3978437D02*
D03*
X588454Y2910289D02*
D03*
X1110613Y4382221D02*
D03*
X952480Y4472909D02*
D03*
Y4390410D02*
D03*
X957368Y4555410D02*
D03*
X952480Y4901196D02*
D03*
Y4818697D02*
D03*
X957368Y4983697D02*
D03*
X1050700Y4783697D02*
D03*
X952480Y5341659D02*
D03*
Y5259160D02*
D03*
X957368Y5424159D02*
D03*
X1050700Y5224159D02*
D03*
Y5656200D02*
D03*
X957368Y5856200D02*
D03*
X952480Y5691200D02*
D03*
Y5773699D02*
D03*
X4875000Y4215331D02*
D03*
X4837781Y4340331D02*
D03*
X5540000Y5111294D02*
D03*
X448417Y4555599D02*
D03*
X5135000Y4427830D02*
D03*
Y4883617D02*
D03*
Y5324080D02*
D03*
Y5756120D02*
D03*
Y5673621D02*
D03*
Y5241581D02*
D03*
Y4801118D02*
D03*
Y4345331D02*
D03*
X5130112Y5591121D02*
D03*
Y5159080D02*
D03*
Y4718618D02*
D03*
X5036780Y4490331D02*
D03*
Y4918618D02*
D03*
Y5359080D02*
D03*
Y5791120D02*
D03*
X5330037Y6157311D02*
D03*
X5478413Y6265966D02*
D03*
X5345537Y6511415D02*
D03*
X4981841Y7220770D02*
D03*
X4931025Y7052041D02*
D03*
X4873869Y7464545D02*
D03*
X4792500Y7379632D02*
D03*
X1337165Y7309487D02*
D03*
X1766437Y2581397D02*
D03*
X1360752Y2663246D02*
D03*
X995992Y2956838D02*
D03*
X1300256Y3022674D02*
D03*
X985320Y3353614D02*
D03*
X791370Y3291345D02*
D03*
X862547Y3520872D02*
D03*
X612903Y3562203D02*
D03*
X686389Y3818024D02*
D03*
X387465Y4052890D02*
D03*
X523568Y5542411D02*
D03*
X585739Y6024686D02*
D03*
X931822Y6359519D02*
D03*
X1342383Y4492298D02*
D03*
X1257616Y5443567D02*
D03*
X4477093Y7129631D02*
D03*
X4514660Y7270806D02*
D03*
X4270625Y7419467D02*
D03*
X4010033Y7538965D02*
D03*
X3739875Y7630917D02*
D03*
X3460231Y7694779D02*
D03*
X3179701Y7643629D02*
D03*
X2888223Y7727112D02*
D03*
X2606612Y7701647D02*
D03*
X2325562Y7645653D02*
D03*
X2062491Y7539428D02*
D03*
X1826804Y7375609D02*
D03*
X1658205Y7104637D02*
D03*
X1578306Y7237303D02*
D03*
X1352535Y7089617D02*
D03*
X1222503Y6924537D02*
D03*
X1052896Y6895886D02*
D03*
X925506Y6846508D02*
D03*
X940202Y6711592D02*
D03*
X714414Y6534287D02*
D03*
X751193Y6347043D02*
D03*
X600736Y6418374D02*
D03*
X530518Y6231137D02*
D03*
X374509Y5994881D02*
D03*
X538345Y5855567D02*
D03*
X348873Y5748570D02*
D03*
X329927Y5106555D02*
D03*
X353319Y4890343D02*
D03*
X381182Y4615055D02*
D03*
X4981655Y6923131D02*
D03*
X5155269Y6698351D02*
D03*
X5125813Y6522412D02*
D03*
X5275896Y6296487D02*
D03*
X5562424Y6115151D02*
D03*
X5645932Y5912406D02*
D03*
X5729772Y5602924D02*
D03*
X5730398Y5450484D02*
D03*
X5733535Y5111294D02*
D03*
X5731674Y4824595D02*
D03*
X5720920Y4539010D02*
D03*
X5547753Y4049346D02*
D03*
X5370018Y3915462D02*
D03*
X5301890Y3467626D02*
D03*
X5099876Y3255436D02*
D03*
X4917484Y3031648D02*
D03*
X4453887Y2722320D02*
D03*
X3357298Y2398160D02*
D03*
X3146059Y2292894D02*
D03*
X2972966Y2380497D02*
D03*
X2830904Y2414903D02*
D03*
X2310688Y2440124D02*
D03*
X2036157Y2495533D02*
D03*
X1829917Y2688232D02*
D03*
X1530652Y2689703D02*
D03*
X1242896Y2685419D02*
D03*
X2815477Y1146740D02*
D03*
X1709719Y4100000D02*
D03*
X5530075Y4408962D02*
D03*
X5470492Y5653189D02*
D03*
X5570273Y6267573D02*
D03*
X5406718Y6430782D02*
D03*
X5044868Y6579518D02*
D03*
X4844007Y6825782D02*
D03*
X425415Y6105031D02*
D03*
X530111Y5758982D02*
D03*
X2061305Y2972035D02*
D03*
X2177803Y2981108D02*
D03*
X5692500Y4261189D02*
D03*
X5313887Y3828224D02*
D03*
X4673011Y2767256D02*
D03*
X4995000Y3342500D02*
D03*
X695211Y3938353D02*
D03*
X859596Y3622773D02*
D03*
X921052Y3436406D02*
D03*
X4449417Y1308162D02*
D03*
X3665276Y1570176D02*
D03*
X1359574Y3414891D02*
D03*
X1660993Y3415509D02*
D03*
X1509974Y3321687D02*
D03*
X1509283Y3498845D02*
D03*
X1878482Y4100000D02*
D03*
X1794100Y4221563D02*
D03*
X1291599Y3829890D02*
D03*
X1209425D02*
D03*
X1125374Y3921300D02*
D03*
X1683621Y7945170D02*
D03*
X1376878Y7944471D02*
D03*
X4763995Y1984977D02*
D03*
X3574584Y2841046D02*
D03*
X2100000Y6427501D02*
D03*
X1621726Y6684999D02*
D03*
X1976237D02*
D03*
X4226953Y6685000D02*
D03*
X4574117D02*
D03*
X4570386Y4185000D02*
D03*
X4230180D02*
D03*
X4412004Y7005069D02*
D03*
X4700000Y6437500D02*
D03*
X4520000Y2542500D02*
D03*
X2553480Y1116450D02*
D03*
X2678480Y1363980D02*
D03*
Y1490980D02*
D03*
X5249430Y2452422D02*
D03*
Y2116215D02*
D03*
X1821923Y7122748D02*
D03*
X1461328Y7092234D02*
D03*
X1009466Y6657998D02*
D03*
X540325Y6334644D02*
D03*
X3632500Y1422500D02*
D03*
X244131Y3295000D02*
D03*
X306237Y3395000D02*
D03*
X749080Y2698684D02*
D03*
Y2922555D02*
D03*
X596076Y3155000D02*
D03*
X513392Y3036598D02*
D03*
X1003080Y1215000D02*
D03*
X876080D02*
D03*
X1071997Y7614612D02*
D03*
X1921202Y7901124D02*
D03*
X1632500Y7715000D02*
D03*
X1195000Y7575000D02*
D03*
X1274953Y7361189D02*
D03*
X747500Y3035000D02*
D03*
X2804212Y1064600D02*
D03*
X2900149Y1150000D02*
D03*
X3414701Y3017209D02*
D03*
X3493522Y2940281D02*
D03*
X3657993Y2958309D02*
D03*
X3866664Y2919790D02*
D03*
X3746337Y2862919D02*
D03*
X3966760Y3008922D02*
D03*
X4077065Y3038800D02*
D03*
X4187175Y3107856D02*
D03*
X4288889Y3161972D02*
D03*
X4398072Y3219429D02*
D03*
X4569269Y3174402D02*
D03*
X3245018Y1292402D02*
D03*
X2077715Y1218827D02*
D03*
X2119794Y222221D02*
D03*
X2590000Y627500D02*
D03*
X2485692Y525290D02*
D03*
X2237593Y316879D02*
D03*
X2386734Y430306D02*
D03*
X4333733Y5481029D02*
D03*
X4200402D02*
D03*
X4067072D02*
D03*
X3933742D02*
D03*
X3800413D02*
D03*
X3667083D02*
D03*
X3533753D02*
D03*
X3400423D02*
D03*
X3267093D02*
D03*
X3133763D02*
D03*
X4665930Y4496752D02*
D03*
X4532600D02*
D03*
X4399270D02*
D03*
X4265940D02*
D03*
X4132611D02*
D03*
X3999281D02*
D03*
X3865951D02*
D03*
X3732621D02*
D03*
X3599291D02*
D03*
X3465961D02*
D03*
X3332631D02*
D03*
X3199301D02*
D03*
X3065971D02*
D03*
X2932641D02*
D03*
X1466011D02*
D03*
X1599341D02*
D03*
X1732671D02*
D03*
X1866001D02*
D03*
X1999331D02*
D03*
X2132661D02*
D03*
X2265991D02*
D03*
X2399321D02*
D03*
X2532651D02*
D03*
X2665981D02*
D03*
X2799311D02*
D03*
X4100000Y837500D02*
D03*
X3990000D02*
D03*
X4100000Y947500D02*
D03*
X3990000D02*
D03*
X3990000Y1057500D02*
D03*
X4100000D02*
D03*
X432917Y3884730D02*
D03*
X310851Y5460367D02*
D03*
X548684Y4129399D02*
D03*
X278753Y4404727D02*
D03*
X357904Y6207452D02*
D03*
X1245000Y6620000D02*
D03*
X5374269Y4140047D02*
D03*
X5432669Y5917242D02*
D03*
X5455000Y3630000D02*
D03*
X4267573Y2616042D02*
D03*
X1514100Y4279422D02*
D03*
X5097500Y2912500D02*
D03*
X1571503Y7138523D02*
D03*
X3000000Y3802499D02*
D03*
X1376354Y7005037D02*
D03*
X1045000Y7082500D02*
D03*
X5030000Y7290000D02*
D03*
X5238408Y6509821D02*
D03*
X4792501Y7290000D02*
D03*
X4467063Y5481029D02*
D03*
X3000003Y5480705D02*
D03*
X4664630Y5552570D02*
D03*
X4542743Y5660014D02*
D03*
X4409566Y5745015D02*
D03*
X4276389Y5830016D02*
D03*
X4143212Y5915017D02*
D03*
X3477175Y6340021D02*
D03*
X3134558Y6536005D02*
D03*
X3267888Y6451004D02*
D03*
X3401065Y6366004D02*
D03*
X3343998Y6425022D02*
D03*
X3210668Y6510023D02*
D03*
X4599963Y5603497D02*
D03*
X4466632Y5685997D02*
D03*
X4333456Y5770998D02*
D03*
X4200279Y5855998D02*
D03*
X3534242Y6281003D02*
D03*
X3667419Y6196002D02*
D03*
X3800595Y6111001D02*
D03*
X3933926Y6026000D02*
D03*
X4067102Y5940999D02*
D03*
X4010036Y6000018D02*
D03*
X3876705Y6085019D02*
D03*
X3743529Y6170019D02*
D03*
X3610352Y6255020D02*
D03*
X3750000Y1635000D02*
D03*
X4377501Y1358642D02*
D03*
X4302501D02*
D03*
X4082500Y1388858D02*
D03*
X3832500Y1567500D02*
D03*
X2725000Y3572200D02*
D03*
X3275000D02*
D03*
X3220000Y3482200D02*
D03*
X3330000D02*
D03*
X3220000Y3662200D02*
D03*
X3330000D02*
D03*
X2670000Y3482200D02*
D03*
X2780001D02*
D03*
Y3662200D02*
D03*
X2670000D02*
D03*
X3443059Y646271D02*
D03*
X3199441Y1116714D02*
D03*
X3199441Y859198D02*
D03*
X3443059Y1141714D02*
D03*
X3443060Y894432D02*
D03*
X3199441Y611270D02*
D03*
X3199441Y362187D02*
D03*
X3345559D02*
D03*
X3296941Y1390985D02*
D03*
X3443059D02*
D03*
X4857392Y237188D02*
D03*
X4756118Y1265985D02*
D03*
X4853619Y991715D02*
D03*
X4853645Y734198D02*
D03*
X4853619Y486271D02*
D03*
X4711273Y237188D02*
D03*
X4610002Y521271D02*
D03*
X4608210Y769432D02*
D03*
X4610000Y1016715D02*
D03*
X4609999Y1265985D02*
D03*
X4819993Y5332489D02*
D03*
X1933363Y5399990D02*
D03*
X3666653D02*
D03*
Y5266660D02*
D03*
X1933363D02*
D03*
X3666653Y5133330D02*
D03*
X1933363D02*
D03*
X3666653Y5000000D02*
D03*
X1933363D02*
D03*
X3666653Y4866670D02*
D03*
X1933363D02*
D03*
X3666653Y4733340D02*
D03*
X1933363D02*
D03*
X3666653Y4600010D02*
D03*
X1933363D02*
D03*
X4430782Y7289729D02*
D03*
X1267510Y5359990D02*
D03*
X1124423Y6942217D02*
D03*
X1267510Y5226660D02*
D03*
X4819994Y5199159D02*
D03*
X1267510Y5093330D02*
D03*
X5673730Y5375767D02*
D03*
X4819993Y5065829D02*
D03*
X1267510Y4960000D02*
D03*
X306577Y5188342D02*
D03*
X4819992Y4932499D02*
D03*
X1267510Y4826670D02*
D03*
X4819993Y4799169D02*
D03*
X1267510Y4693340D02*
D03*
X4819993Y4665839D02*
D03*
X1267510Y4560010D02*
D03*
X1057783Y3124423D02*
D03*
X4819993Y4532509D02*
D03*
X5118070Y3598080D02*
D03*
X1400043Y5399990D02*
D03*
X3133333D02*
D03*
Y5266660D02*
D03*
X1400043D02*
D03*
X3133333Y5133330D02*
D03*
X1400043D02*
D03*
X3133333Y5000000D02*
D03*
X1400043D02*
D03*
X3133333Y4866670D02*
D03*
X1400043D02*
D03*
X3133333Y4733340D02*
D03*
X1400043D02*
D03*
X3133333Y4600010D02*
D03*
X1400043D02*
D03*
X3375767Y7673723D02*
D03*
X1533374Y5399990D02*
D03*
X3266663D02*
D03*
Y5266660D02*
D03*
X1533374D02*
D03*
X3266663Y5133330D02*
D03*
X1533374D02*
D03*
X3266663Y5000000D02*
D03*
X1533374D02*
D03*
X3266663Y4866670D02*
D03*
X1533374D02*
D03*
X3266663Y4733340D02*
D03*
X1533374D02*
D03*
X3266663Y4600010D02*
D03*
X1533374D02*
D03*
X3653189Y7619798D02*
D03*
X1666704Y5399990D02*
D03*
X3399993D02*
D03*
Y5266660D02*
D03*
X1666704D02*
D03*
X3399993Y5133330D02*
D03*
X1666704D02*
D03*
X3399993Y5000000D02*
D03*
X1666704D02*
D03*
X3399993Y4866670D02*
D03*
X1666704D02*
D03*
X3399993Y4733340D02*
D03*
X1666704D02*
D03*
X3399993Y4600010D02*
D03*
X1666704D02*
D03*
X3923454Y7537170D02*
D03*
X1800033Y5399990D02*
D03*
X3533323D02*
D03*
Y5266660D02*
D03*
X1800033D02*
D03*
X3533323Y5133330D02*
D03*
X1800033D02*
D03*
X3533323Y5000000D02*
D03*
X1800033D02*
D03*
X3533323Y4866670D02*
D03*
X1800033D02*
D03*
X3533323Y4733340D02*
D03*
X1800033D02*
D03*
X3533323Y4600010D02*
D03*
X1800033D02*
D03*
X4183602Y7426744D02*
D03*
X2066694Y5399990D02*
D03*
X3799983D02*
D03*
Y5266660D02*
D03*
X2066694D02*
D03*
X3799983Y5133330D02*
D03*
X2066694D02*
D03*
X3799983Y5000000D02*
D03*
X2066694D02*
D03*
X3799983Y4866670D02*
D03*
X2066694D02*
D03*
X3799983Y4733340D02*
D03*
X2066694D02*
D03*
X3799983Y4600010D02*
D03*
X2066694D02*
D03*
X4364741Y7142214D02*
D03*
X2200024Y5399990D02*
D03*
X3933313D02*
D03*
Y5266660D02*
D03*
X2200024D02*
D03*
X3933313Y5133330D02*
D03*
X2200024D02*
D03*
X3933313Y5000000D02*
D03*
X2200024D02*
D03*
X3933313Y4866670D02*
D03*
X2200024D02*
D03*
X3933313Y4733340D02*
D03*
X2200024D02*
D03*
X3933313Y4600010D02*
D03*
X2200024D02*
D03*
X2333353Y5399990D02*
D03*
X4066643D02*
D03*
Y5266660D02*
D03*
X2333353D02*
D03*
X4066643Y5133330D02*
D03*
X2333353D02*
D03*
X4066643Y5000000D02*
D03*
X2333353D02*
D03*
X4066643Y4866670D02*
D03*
X2333353D02*
D03*
X4066643Y4733340D02*
D03*
X2333353D02*
D03*
X4066643Y4600010D02*
D03*
X2333353D02*
D03*
X2255779Y7595406D02*
D03*
X2466683Y5399990D02*
D03*
X4199973D02*
D03*
Y5266660D02*
D03*
X2466683D02*
D03*
X4199973Y5133330D02*
D03*
X2466683D02*
D03*
X4199973Y5000000D02*
D03*
X2466683D02*
D03*
X4199973Y4866670D02*
D03*
X2466683D02*
D03*
X4199973Y4733340D02*
D03*
X2466683D02*
D03*
X4199973Y4600010D02*
D03*
X2466683D02*
D03*
X1988562Y7503396D02*
D03*
X2600014Y5399990D02*
D03*
X4333303D02*
D03*
Y5266660D02*
D03*
X2600014D02*
D03*
X4333303Y5133330D02*
D03*
X2600014D02*
D03*
X4333303Y5000000D02*
D03*
X2600014D02*
D03*
X4333303Y4866670D02*
D03*
X2600014D02*
D03*
X4333303Y4733340D02*
D03*
X2600014D02*
D03*
X4333303Y4600010D02*
D03*
X2600014D02*
D03*
X2531150Y7658981D02*
D03*
X2733344Y5399990D02*
D03*
X4466633D02*
D03*
Y5266660D02*
D03*
X2733344D02*
D03*
X4466633Y5133330D02*
D03*
X2733344D02*
D03*
X4466633Y5000000D02*
D03*
X2733344D02*
D03*
X4466633Y4866670D02*
D03*
X2733344D02*
D03*
X4466633Y4733340D02*
D03*
X2733344D02*
D03*
X4466633Y4600010D02*
D03*
X2733344D02*
D03*
X2811658Y7693423D02*
D03*
X2866673Y5399990D02*
D03*
X4599963D02*
D03*
Y5266660D02*
D03*
X2866673D02*
D03*
X4599963Y5133330D02*
D03*
X2866673D02*
D03*
X4599963Y5000000D02*
D03*
X2866673D02*
D03*
X4599963Y4866670D02*
D03*
X2866673D02*
D03*
X4599963Y4733340D02*
D03*
X2866673D02*
D03*
X4599963Y4600010D02*
D03*
X2866673D02*
D03*
X3117773Y7697430D02*
D03*
X3000003Y5399990D02*
D03*
Y5266660D02*
D03*
Y5133330D02*
D03*
Y5000000D02*
D03*
Y4866670D02*
D03*
Y4733340D02*
D03*
Y4600010D02*
D03*
X4733293Y5399990D02*
D03*
Y5266660D02*
D03*
Y5133330D02*
D03*
X4733292Y5000000D02*
D03*
Y4866670D02*
D03*
Y4733340D02*
D03*
Y4600010D02*
D03*
X3110793Y7537582D02*
D03*
X872371Y6662286D02*
D03*
X5127635Y3337714D02*
D03*
X5426750Y3816398D02*
D03*
X5673730Y4624233D02*
D03*
X5693429Y5188342D02*
D03*
X5503403Y6011438D02*
D03*
X1732427Y7383958D02*
D03*
X5068326Y6735526D02*
D03*
X1264474Y7068320D02*
D03*
X710271Y6430782D02*
D03*
X462830Y5923454D02*
D03*
X326277Y5375767D02*
D03*
X306577Y4811657D02*
D03*
X496604Y3988562D02*
D03*
X761599Y3490179D02*
D03*
X4875584Y6942217D02*
D03*
X1490179Y7238401D02*
D03*
X5582931Y4569921D02*
D03*
X1933363Y5480705D02*
D03*
X1800033D02*
D03*
X2200024D02*
D03*
X2066694D02*
D03*
X2866673D02*
D03*
X2466683D02*
D03*
X2333353D02*
D03*
X2733344D02*
D03*
X2600014D02*
D03*
X1666704D02*
D03*
X1533374D02*
D03*
X1400043D02*
D03*
D149*
X2958457Y2952866D02*
D03*
X2891535Y2999070D02*
D03*
X2840662Y2936322D02*
D03*
X2790098Y2998867D02*
D03*
X2739794Y2936216D02*
D03*
X2683150Y2993210D02*
D03*
X2632488Y2930592D02*
D03*
X2581968Y2997323D02*
D03*
X1649999Y3215000D02*
D03*
X1700519Y3148268D02*
D03*
X1751181Y3210886D02*
D03*
X1807825Y3153893D02*
D03*
X1858129Y3216543D02*
D03*
X1908694Y3153999D02*
D03*
X1959567Y3216747D02*
D03*
X2011488Y3155543D02*
D03*
D150*
X5588000Y2413000D02*
D03*
Y2159000D02*
D03*
Y1143000D02*
D03*
Y1905000D02*
D03*
Y1651000D02*
D03*
Y1397000D02*
D03*
%TF.MD5,31661c1de74caf381bf3554a86c4593a*%
M02*
