%TF.GenerationSoftware,Altium Limited,Altium Designer,25.4.2 (15)*%
G04 Layer_Color=16711935*
%FSLAX45Y45*%
%MOMM*%
%TF.SameCoordinates,3DBBBAEC-02AD-422C-8702-2F9BCD6D44F6*%
%TF.FilePolarity,Negative*%
%TF.FileFunction,Soldermask,Bot*%
%TF.Part,Single*%
G01*
G75*
%TA.AperFunction,ComponentPad*%
%ADD45C,0.32500*%
%ADD46O,1.60000X1.10000*%
%TA.AperFunction,WasherPad*%
%ADD50C,6.00000*%
%TA.AperFunction,ViaPad*%
%ADD51C,0.70000*%
%TA.AperFunction,SMDPad,CuDef*%
G04:AMPARAMS|DCode=58|XSize=0.35mm|YSize=0.85mm|CornerRadius=0.0175mm|HoleSize=0mm|Usage=FLASHONLY|Rotation=180.000|XOffset=0mm|YOffset=0mm|HoleType=Round|Shape=RoundedRectangle|*
%AMROUNDEDRECTD58*
21,1,0.35000,0.81500,0,0,180.0*
21,1,0.31500,0.85000,0,0,180.0*
1,1,0.03500,-0.15750,0.40750*
1,1,0.03500,0.15750,0.40750*
1,1,0.03500,0.15750,-0.40750*
1,1,0.03500,-0.15750,-0.40750*
%
%ADD58ROUNDEDRECTD58*%
G04:AMPARAMS|DCode=59|XSize=0.25mm|YSize=0.85mm|CornerRadius=0.0125mm|HoleSize=0mm|Usage=FLASHONLY|Rotation=180.000|XOffset=0mm|YOffset=0mm|HoleType=Round|Shape=RoundedRectangle|*
%AMROUNDEDRECTD59*
21,1,0.25000,0.82500,0,0,180.0*
21,1,0.22500,0.85000,0,0,180.0*
1,1,0.02500,-0.11250,0.41250*
1,1,0.02500,0.11250,0.41250*
1,1,0.02500,0.11250,-0.41250*
1,1,0.02500,-0.11250,-0.41250*
%
%ADD59ROUNDEDRECTD59*%
G04:AMPARAMS|DCode=60|XSize=0.24mm|YSize=0.85mm|CornerRadius=0.012mm|HoleSize=0mm|Usage=FLASHONLY|Rotation=180.000|XOffset=0mm|YOffset=0mm|HoleType=Round|Shape=RoundedRectangle|*
%AMROUNDEDRECTD60*
21,1,0.24000,0.82600,0,0,180.0*
21,1,0.21600,0.85000,0,0,180.0*
1,1,0.02400,-0.10800,0.41300*
1,1,0.02400,0.10800,0.41300*
1,1,0.02400,0.10800,-0.41300*
1,1,0.02400,-0.10800,-0.41300*
%
%ADD60ROUNDEDRECTD60*%
%ADD62C,0.60000*%
%TA.AperFunction,BGAPad,CuDef*%
%ADD64R,0.90000X0.90000*%
%TA.AperFunction,ConnectorPad*%
G04:AMPARAMS|DCode=71|XSize=0.3mm|YSize=0.65mm|CornerRadius=0.015mm|HoleSize=0mm|Usage=FLASHONLY|Rotation=90.000|XOffset=0mm|YOffset=0mm|HoleType=Round|Shape=RoundedRectangle|*
%AMROUNDEDRECTD71*
21,1,0.30000,0.62000,0,0,90.0*
21,1,0.27000,0.65000,0,0,90.0*
1,1,0.03000,0.31000,0.13500*
1,1,0.03000,0.31000,-0.13500*
1,1,0.03000,-0.31000,-0.13500*
1,1,0.03000,-0.31000,0.13500*
%
%ADD71ROUNDEDRECTD71*%
%TA.AperFunction,SMDPad,CuDef*%
G04:AMPARAMS|DCode=87|XSize=1.726mm|YSize=1.026mm|CornerRadius=0.0855mm|HoleSize=0mm|Usage=FLASHONLY|Rotation=90.000|XOffset=0mm|YOffset=0mm|HoleType=Round|Shape=RoundedRectangle|*
%AMROUNDEDRECTD87*
21,1,1.72600,0.85500,0,0,90.0*
21,1,1.55500,1.02600,0,0,90.0*
1,1,0.17100,0.42750,0.77750*
1,1,0.17100,0.42750,-0.77750*
1,1,0.17100,-0.42750,-0.77750*
1,1,0.17100,-0.42750,0.77750*
%
%ADD87ROUNDEDRECTD87*%
%ADD88C,1.57600*%
G04:AMPARAMS|DCode=89|XSize=0.926mm|YSize=0.676mm|CornerRadius=0.068mm|HoleSize=0mm|Usage=FLASHONLY|Rotation=180.000|XOffset=0mm|YOffset=0mm|HoleType=Round|Shape=RoundedRectangle|*
%AMROUNDEDRECTD89*
21,1,0.92600,0.54000,0,0,180.0*
21,1,0.79000,0.67600,0,0,180.0*
1,1,0.13600,-0.39500,0.27000*
1,1,0.13600,0.39500,0.27000*
1,1,0.13600,0.39500,-0.27000*
1,1,0.13600,-0.39500,-0.27000*
%
%ADD89ROUNDEDRECTD89*%
G04:AMPARAMS|DCode=90|XSize=1.376mm|YSize=0.976mm|CornerRadius=0.083mm|HoleSize=0mm|Usage=FLASHONLY|Rotation=0.000|XOffset=0mm|YOffset=0mm|HoleType=Round|Shape=RoundedRectangle|*
%AMROUNDEDRECTD90*
21,1,1.37600,0.81000,0,0,0.0*
21,1,1.21000,0.97600,0,0,0.0*
1,1,0.16600,0.60500,-0.40500*
1,1,0.16600,-0.60500,-0.40500*
1,1,0.16600,-0.60500,0.40500*
1,1,0.16600,0.60500,0.40500*
%
%ADD90ROUNDEDRECTD90*%
%ADD91O,1.32600X0.47600*%
G04:AMPARAMS|DCode=92|XSize=1.376mm|YSize=0.976mm|CornerRadius=0.083mm|HoleSize=0mm|Usage=FLASHONLY|Rotation=270.000|XOffset=0mm|YOffset=0mm|HoleType=Round|Shape=RoundedRectangle|*
%AMROUNDEDRECTD92*
21,1,1.37600,0.81000,0,0,270.0*
21,1,1.21000,0.97600,0,0,270.0*
1,1,0.16600,-0.40500,-0.60500*
1,1,0.16600,-0.40500,0.60500*
1,1,0.16600,0.40500,0.60500*
1,1,0.16600,0.40500,-0.60500*
%
%ADD92ROUNDEDRECTD92*%
G04:AMPARAMS|DCode=93|XSize=0.576mm|YSize=0.626mm|CornerRadius=0.063mm|HoleSize=0mm|Usage=FLASHONLY|Rotation=0.000|XOffset=0mm|YOffset=0mm|HoleType=Round|Shape=RoundedRectangle|*
%AMROUNDEDRECTD93*
21,1,0.57600,0.50000,0,0,0.0*
21,1,0.45000,0.62600,0,0,0.0*
1,1,0.12600,0.22500,-0.25000*
1,1,0.12600,-0.22500,-0.25000*
1,1,0.12600,-0.22500,0.25000*
1,1,0.12600,0.22500,0.25000*
%
%ADD93ROUNDEDRECTD93*%
%TA.AperFunction,ConnectorPad*%
G04:AMPARAMS|DCode=94|XSize=0.976mm|YSize=1.576mm|CornerRadius=0.263mm|HoleSize=0mm|Usage=FLASHONLY|Rotation=270.000|XOffset=0mm|YOffset=0mm|HoleType=Round|Shape=RoundedRectangle|*
%AMROUNDEDRECTD94*
21,1,0.97600,1.05000,0,0,270.0*
21,1,0.45000,1.57600,0,0,270.0*
1,1,0.52600,-0.52500,-0.22500*
1,1,0.52600,-0.52500,0.22500*
1,1,0.52600,0.52500,0.22500*
1,1,0.52600,0.52500,-0.22500*
%
%ADD94ROUNDEDRECTD94*%
G04:AMPARAMS|DCode=95|XSize=1.576mm|YSize=0.976mm|CornerRadius=0.263mm|HoleSize=0mm|Usage=FLASHONLY|Rotation=270.000|XOffset=0mm|YOffset=0mm|HoleType=Round|Shape=RoundedRectangle|*
%AMROUNDEDRECTD95*
21,1,1.57600,0.45000,0,0,270.0*
21,1,1.05000,0.97600,0,0,270.0*
1,1,0.52600,-0.22500,-0.52500*
1,1,0.52600,-0.22500,0.52500*
1,1,0.52600,0.22500,0.52500*
1,1,0.52600,0.22500,-0.52500*
%
%ADD95ROUNDEDRECTD95*%
%TA.AperFunction,SMDPad,CuDef*%
%ADD96O,0.67600X0.27600*%
G04:AMPARAMS|DCode=97|XSize=1.076mm|YSize=2.226mm|CornerRadius=0.088mm|HoleSize=0mm|Usage=FLASHONLY|Rotation=270.000|XOffset=0mm|YOffset=0mm|HoleType=Round|Shape=RoundedRectangle|*
%AMROUNDEDRECTD97*
21,1,1.07600,2.05000,0,0,270.0*
21,1,0.90000,2.22600,0,0,270.0*
1,1,0.17600,-1.02500,-0.45000*
1,1,0.17600,-1.02500,0.45000*
1,1,0.17600,1.02500,0.45000*
1,1,0.17600,1.02500,-0.45000*
%
%ADD97ROUNDEDRECTD97*%
G04:AMPARAMS|DCode=98|XSize=3.326mm|YSize=2.226mm|CornerRadius=0.1455mm|HoleSize=0mm|Usage=FLASHONLY|Rotation=270.000|XOffset=0mm|YOffset=0mm|HoleType=Round|Shape=RoundedRectangle|*
%AMROUNDEDRECTD98*
21,1,3.32600,1.93500,0,0,270.0*
21,1,3.03500,2.22600,0,0,270.0*
1,1,0.29100,-0.96750,-1.51750*
1,1,0.29100,-0.96750,1.51750*
1,1,0.29100,0.96750,1.51750*
1,1,0.29100,0.96750,-1.51750*
%
%ADD98ROUNDEDRECTD98*%
G04:AMPARAMS|DCode=99|XSize=0.576mm|YSize=0.626mm|CornerRadius=0.063mm|HoleSize=0mm|Usage=FLASHONLY|Rotation=270.000|XOffset=0mm|YOffset=0mm|HoleType=Round|Shape=RoundedRectangle|*
%AMROUNDEDRECTD99*
21,1,0.57600,0.50000,0,0,270.0*
21,1,0.45000,0.62600,0,0,270.0*
1,1,0.12600,-0.25000,-0.22500*
1,1,0.12600,-0.25000,0.22500*
1,1,0.12600,0.25000,0.22500*
1,1,0.12600,0.25000,-0.22500*
%
%ADD99ROUNDEDRECTD99*%
%TA.AperFunction,ComponentPad*%
G04:AMPARAMS|DCode=100|XSize=1.576mm|YSize=1.526mm|CornerRadius=0.4005mm|HoleSize=0mm|Usage=FLASHONLY|Rotation=180.000|XOffset=0mm|YOffset=0mm|HoleType=Round|Shape=RoundedRectangle|*
%AMROUNDEDRECTD100*
21,1,1.57600,0.72500,0,0,180.0*
21,1,0.77500,1.52600,0,0,180.0*
1,1,0.80100,-0.38750,0.36250*
1,1,0.80100,0.38750,0.36250*
1,1,0.80100,0.38750,-0.36250*
1,1,0.80100,-0.38750,-0.36250*
%
%ADD100ROUNDEDRECTD100*%
%ADD101O,1.57600X1.52600*%
%TA.AperFunction,ViaPad*%
%ADD102C,1.57600*%
D45*
X2625000Y3572200D02*
D03*
X3375000D02*
D03*
D46*
X2760000Y3359700D02*
D03*
X3240000D02*
D03*
X2760000Y3784700D02*
D03*
X3240000Y3787200D02*
D03*
D50*
X500000Y500000D02*
D03*
X5500000D02*
D03*
Y7500000D02*
D03*
X500000D02*
D03*
D51*
X2958457Y2952866D02*
D03*
X2891535Y2999070D02*
D03*
X2840662Y2936322D02*
D03*
X2790098Y2998867D02*
D03*
X2739794Y2936216D02*
D03*
X2683150Y2993210D02*
D03*
X2632488Y2930592D02*
D03*
X2581968Y2997323D02*
D03*
X1500139Y3222620D02*
D03*
X1550659Y3155888D02*
D03*
X1601321Y3218506D02*
D03*
X1657965Y3161513D02*
D03*
X1708269Y3224163D02*
D03*
X1758834Y3161619D02*
D03*
X1809707Y3224367D02*
D03*
X1861628Y3163163D02*
D03*
D58*
X3275000Y3662200D02*
D03*
X2725000D02*
D03*
Y3482200D02*
D03*
X3275000D02*
D03*
D59*
X3125000Y3662200D02*
D03*
X2875001D02*
D03*
Y3482200D02*
D03*
X3125000D02*
D03*
D60*
X3075000Y3662200D02*
D03*
X3025000D02*
D03*
X2975000D02*
D03*
X2925000D02*
D03*
Y3482200D02*
D03*
X2975000D02*
D03*
X3025000D02*
D03*
X3075000D02*
D03*
D62*
X5390761Y4514399D02*
D03*
X5364570Y5056739D02*
D03*
X5372164Y5839565D02*
D03*
X2384145Y733355D02*
D03*
X2285750Y614250D02*
D03*
X2156909Y500591D02*
D03*
X2065076Y407385D02*
D03*
X3599838Y1995588D02*
D03*
X4623412Y1912982D02*
D03*
X4511950D02*
D03*
X4400488D02*
D03*
X4289026D02*
D03*
X4177565D02*
D03*
X4066103D02*
D03*
X3954641D02*
D03*
X4892858Y4046223D02*
D03*
X5223137Y4170860D02*
D03*
X5445000Y4880000D02*
D03*
X5379784Y5450508D02*
D03*
X4905988Y6024776D02*
D03*
X1060442Y4097942D02*
D03*
X695211Y4585211D02*
D03*
X624502Y4731684D02*
D03*
X606658Y5188342D02*
D03*
X585650Y5607354D02*
D03*
X658885Y5871561D02*
D03*
X1011536Y6134036D02*
D03*
X1193490D02*
D03*
X5097500Y1665386D02*
D03*
X2801887Y981758D02*
D03*
X2892529Y911870D02*
D03*
X3492329Y2064193D02*
D03*
X3359032Y1995588D02*
D03*
X3241978Y2064193D02*
D03*
X3154289Y1995588D02*
D03*
X3060248Y2064193D02*
D03*
D64*
X1381080Y2225480D02*
D03*
Y2085480D02*
D03*
Y1945480D02*
D03*
X1521080Y2085480D02*
D03*
Y2225480D02*
D03*
Y1945480D02*
D03*
X1661080Y2225480D02*
D03*
Y2085480D02*
D03*
Y1945480D02*
D03*
D71*
X1610000Y7965000D02*
D03*
X1790000D02*
D03*
Y7835000D02*
D03*
X1610000D02*
D03*
X1790000Y7900000D02*
D03*
X1610000D02*
D03*
D87*
X1794100Y4100000D02*
D03*
X1514100D02*
D03*
X974600Y3641300D02*
D03*
X1254600D02*
D03*
X876078Y3035000D02*
D03*
X596078D02*
D03*
D88*
X4466071Y2262853D02*
D03*
X1102827Y7850202D02*
D03*
X5735320Y2974340D02*
D03*
Y3578860D02*
D03*
X220183Y6803682D02*
D03*
X5771932Y6815215D02*
D03*
X4895026Y7818601D02*
D03*
X4560470Y5948397D02*
D03*
X1483656Y6005976D02*
D03*
X215900Y3147060D02*
D03*
X4289840Y3318347D02*
D03*
X4376420Y271780D02*
D03*
X2613660Y853440D02*
D03*
D89*
X3750000Y1422500D02*
D03*
Y1567500D02*
D03*
X1462400Y7802580D02*
D03*
Y7947580D02*
D03*
D90*
X2105000Y6315000D02*
D03*
Y6684999D02*
D03*
X1495000Y6315000D02*
D03*
Y6684999D02*
D03*
X3305003Y7165000D02*
D03*
Y7535000D02*
D03*
X2695003Y7165000D02*
D03*
Y7535000D02*
D03*
X4710000Y6315000D02*
D03*
Y6685000D02*
D03*
X4100000Y6315000D02*
D03*
Y6685000D02*
D03*
X3305003Y5593080D02*
D03*
Y5963080D02*
D03*
X2695003Y5593080D02*
D03*
Y5963080D02*
D03*
D91*
X3750000Y1296750D02*
D03*
Y1233250D02*
D03*
Y1169750D02*
D03*
Y1106250D02*
D03*
Y1042750D02*
D03*
Y979250D02*
D03*
Y915750D02*
D03*
Y852250D02*
D03*
Y788750D02*
D03*
Y725250D02*
D03*
Y661750D02*
D03*
Y598250D02*
D03*
X4340000Y1296750D02*
D03*
Y1233250D02*
D03*
Y1169750D02*
D03*
Y1106250D02*
D03*
Y1042750D02*
D03*
Y979250D02*
D03*
Y915750D02*
D03*
Y852250D02*
D03*
Y788750D02*
D03*
Y725250D02*
D03*
Y661750D02*
D03*
Y598250D02*
D03*
D92*
X4215000Y3695000D02*
D03*
X4585000D02*
D03*
X4215000Y4305000D02*
D03*
X4585000D02*
D03*
X4879430Y1979977D02*
D03*
X5249430D02*
D03*
X4879430Y2589977D02*
D03*
X5249430D02*
D03*
D93*
X1187389Y7481866D02*
D03*
X1287389D02*
D03*
X1187389Y7581866D02*
D03*
X1287389D02*
D03*
X4082500Y1465000D02*
D03*
X3218367Y3221045D02*
D03*
X2789443Y3221041D02*
D03*
X3982500Y1465000D02*
D03*
X2889443Y3221041D02*
D03*
X3118367Y3221045D02*
D03*
D94*
X2525080Y1236980D02*
D03*
Y1363980D02*
D03*
Y1490980D02*
D03*
Y1617980D02*
D03*
Y1744980D02*
D03*
Y1871980D02*
D03*
Y1998980D02*
D03*
Y2125980D02*
D03*
Y2252980D02*
D03*
Y2379980D02*
D03*
Y2506980D02*
D03*
Y2633980D02*
D03*
D95*
X749080Y1060480D02*
D03*
X876080D02*
D03*
X1003080D02*
D03*
X1130080D02*
D03*
X1257080D02*
D03*
X1384080D02*
D03*
X1511080D02*
D03*
X1638080D02*
D03*
X1765080D02*
D03*
X1892080D02*
D03*
X2019080D02*
D03*
X2146080D02*
D03*
X2273080D02*
D03*
X2400080D02*
D03*
Y2810480D02*
D03*
X2273080D02*
D03*
X2146080D02*
D03*
X2019080D02*
D03*
X1892080D02*
D03*
X1765080D02*
D03*
X1638080D02*
D03*
X1511080D02*
D03*
X1384080D02*
D03*
X1257080D02*
D03*
X1130080D02*
D03*
X1003080D02*
D03*
X876080D02*
D03*
X749080D02*
D03*
D96*
X5036780Y5641121D02*
D03*
Y5591121D02*
D03*
Y5691121D02*
D03*
Y5741121D02*
D03*
X5226781D02*
D03*
Y5691121D02*
D03*
Y5641121D02*
D03*
Y5591121D02*
D03*
X5036780Y4768618D02*
D03*
Y4718618D02*
D03*
Y4818618D02*
D03*
Y4868618D02*
D03*
X5226781D02*
D03*
Y4818618D02*
D03*
Y4768618D02*
D03*
Y4718618D02*
D03*
X5036780Y4340331D02*
D03*
Y4290331D02*
D03*
Y4390331D02*
D03*
Y4440331D02*
D03*
X5226781D02*
D03*
Y4390331D02*
D03*
Y4340331D02*
D03*
Y4290331D02*
D03*
X1050700Y4505410D02*
D03*
Y4555410D02*
D03*
Y4455410D02*
D03*
Y4405410D02*
D03*
X860700D02*
D03*
Y4455410D02*
D03*
Y4505410D02*
D03*
Y4555410D02*
D03*
X1050700Y4933697D02*
D03*
Y4983697D02*
D03*
Y4883697D02*
D03*
Y4833697D02*
D03*
X860700D02*
D03*
Y4883697D02*
D03*
Y4933697D02*
D03*
Y4983697D02*
D03*
X1050700Y5374159D02*
D03*
Y5424159D02*
D03*
Y5324159D02*
D03*
Y5274159D02*
D03*
X860700D02*
D03*
Y5324159D02*
D03*
Y5374159D02*
D03*
Y5424159D02*
D03*
X1050700Y5806200D02*
D03*
Y5856200D02*
D03*
Y5756200D02*
D03*
Y5706200D02*
D03*
X860700D02*
D03*
Y5756200D02*
D03*
Y5806200D02*
D03*
Y5856200D02*
D03*
X5036780Y5209080D02*
D03*
Y5159080D02*
D03*
Y5259080D02*
D03*
Y5309080D02*
D03*
X5226781D02*
D03*
Y5259080D02*
D03*
Y5209080D02*
D03*
Y5159080D02*
D03*
D97*
X1514101Y3641300D02*
D03*
X1514100Y3411300D02*
D03*
Y3871300D02*
D03*
D98*
X2099100Y3641300D02*
D03*
D99*
X4681269Y769432D02*
D03*
Y669432D02*
D03*
X4780585Y734198D02*
D03*
Y834198D02*
D03*
X4683060Y1016715D02*
D03*
Y916715D02*
D03*
X4683059Y1265985D02*
D03*
X4683059Y1165985D02*
D03*
X4780560Y991715D02*
D03*
Y1091714D02*
D03*
X3272500Y959198D02*
D03*
Y462187D02*
D03*
X3370000Y546271D02*
D03*
X3272500Y711270D02*
D03*
X3370000Y794432D02*
D03*
X3370000Y1041714D02*
D03*
X3272500Y1216714D02*
D03*
X3370000Y1290985D02*
D03*
X4683061Y421272D02*
D03*
X4780560Y586271D02*
D03*
X4784332Y337188D02*
D03*
X4683061Y521271D02*
D03*
X4784332Y237188D02*
D03*
X4780560Y486271D02*
D03*
X3272500Y611270D02*
D03*
X3272500Y859198D02*
D03*
X3370000Y646271D02*
D03*
X3272500Y362187D02*
D03*
X3370000Y1390985D02*
D03*
X3272500Y1116714D02*
D03*
X3370000Y1141715D02*
D03*
X3370000Y894432D02*
D03*
D100*
X1520000Y163496D02*
D03*
D101*
Y417496D02*
D03*
X1774000D02*
D03*
X1266000Y163496D02*
D03*
X1774000D02*
D03*
X1266000Y417496D02*
D03*
D102*
X5588000Y2413000D02*
D03*
Y2159000D02*
D03*
Y1143000D02*
D03*
Y1905000D02*
D03*
Y1651000D02*
D03*
Y1397000D02*
D03*
%TF.MD5,dd879692d758dcebbea2356eed4d520d*%
M02*
