%TF.GenerationSoftware,Altium Limited,Altium Designer,25.4.2 (15)*%
G04 Layer_Color=128*
%FSLAX45Y45*%
%MOMM*%
%TF.SameCoordinates,3DBBBAEC-02AD-422C-8702-2F9BCD6D44F6*%
%TF.FilePolarity,Positive*%
%TF.FileFunction,Paste,Bot*%
%TF.Part,Single*%
G01*
G75*
%TA.AperFunction,SMDPad,CuDef*%
G04:AMPARAMS|DCode=53|XSize=1.65mm|YSize=0.95mm|CornerRadius=0.0475mm|HoleSize=0mm|Usage=FLASHONLY|Rotation=90.000|XOffset=0mm|YOffset=0mm|HoleType=Round|Shape=RoundedRectangle|*
%AMROUNDEDRECTD53*
21,1,1.65000,0.85500,0,0,90.0*
21,1,1.55500,0.95000,0,0,90.0*
1,1,0.09500,0.42750,0.77750*
1,1,0.09500,0.42750,-0.77750*
1,1,0.09500,-0.42750,-0.77750*
1,1,0.09500,-0.42750,0.77750*
%
%ADD53ROUNDEDRECTD53*%
G04:AMPARAMS|DCode=55|XSize=0.85mm|YSize=0.6mm|CornerRadius=0.03mm|HoleSize=0mm|Usage=FLASHONLY|Rotation=180.000|XOffset=0mm|YOffset=0mm|HoleType=Round|Shape=RoundedRectangle|*
%AMROUNDEDRECTD55*
21,1,0.85000,0.54000,0,0,180.0*
21,1,0.79000,0.60000,0,0,180.0*
1,1,0.06000,-0.39500,0.27000*
1,1,0.06000,0.39500,0.27000*
1,1,0.06000,0.39500,-0.27000*
1,1,0.06000,-0.39500,-0.27000*
%
%ADD55ROUNDEDRECTD55*%
G04:AMPARAMS|DCode=56|XSize=1.3mm|YSize=0.9mm|CornerRadius=0.045mm|HoleSize=0mm|Usage=FLASHONLY|Rotation=0.000|XOffset=0mm|YOffset=0mm|HoleType=Round|Shape=RoundedRectangle|*
%AMROUNDEDRECTD56*
21,1,1.30000,0.81000,0,0,0.0*
21,1,1.21000,0.90000,0,0,0.0*
1,1,0.09000,0.60500,-0.40500*
1,1,0.09000,-0.60500,-0.40500*
1,1,0.09000,-0.60500,0.40500*
1,1,0.09000,0.60500,0.40500*
%
%ADD56ROUNDEDRECTD56*%
%ADD57O,1.25000X0.40000*%
G04:AMPARAMS|DCode=58|XSize=0.35mm|YSize=0.85mm|CornerRadius=0.0175mm|HoleSize=0mm|Usage=FLASHONLY|Rotation=180.000|XOffset=0mm|YOffset=0mm|HoleType=Round|Shape=RoundedRectangle|*
%AMROUNDEDRECTD58*
21,1,0.35000,0.81500,0,0,180.0*
21,1,0.31500,0.85000,0,0,180.0*
1,1,0.03500,-0.15750,0.40750*
1,1,0.03500,0.15750,0.40750*
1,1,0.03500,0.15750,-0.40750*
1,1,0.03500,-0.15750,-0.40750*
%
%ADD58ROUNDEDRECTD58*%
G04:AMPARAMS|DCode=59|XSize=0.25mm|YSize=0.85mm|CornerRadius=0.0125mm|HoleSize=0mm|Usage=FLASHONLY|Rotation=180.000|XOffset=0mm|YOffset=0mm|HoleType=Round|Shape=RoundedRectangle|*
%AMROUNDEDRECTD59*
21,1,0.25000,0.82500,0,0,180.0*
21,1,0.22500,0.85000,0,0,180.0*
1,1,0.02500,-0.11250,0.41250*
1,1,0.02500,0.11250,0.41250*
1,1,0.02500,0.11250,-0.41250*
1,1,0.02500,-0.11250,-0.41250*
%
%ADD59ROUNDEDRECTD59*%
G04:AMPARAMS|DCode=60|XSize=0.24mm|YSize=0.85mm|CornerRadius=0.012mm|HoleSize=0mm|Usage=FLASHONLY|Rotation=180.000|XOffset=0mm|YOffset=0mm|HoleType=Round|Shape=RoundedRectangle|*
%AMROUNDEDRECTD60*
21,1,0.24000,0.82600,0,0,180.0*
21,1,0.21600,0.85000,0,0,180.0*
1,1,0.02400,-0.10800,0.41300*
1,1,0.02400,0.10800,0.41300*
1,1,0.02400,0.10800,-0.41300*
1,1,0.02400,-0.10800,-0.41300*
%
%ADD60ROUNDEDRECTD60*%
G04:AMPARAMS|DCode=61|XSize=1.3mm|YSize=0.9mm|CornerRadius=0.045mm|HoleSize=0mm|Usage=FLASHONLY|Rotation=270.000|XOffset=0mm|YOffset=0mm|HoleType=Round|Shape=RoundedRectangle|*
%AMROUNDEDRECTD61*
21,1,1.30000,0.81000,0,0,270.0*
21,1,1.21000,0.90000,0,0,270.0*
1,1,0.09000,-0.40500,-0.60500*
1,1,0.09000,-0.40500,0.60500*
1,1,0.09000,0.40500,0.60500*
1,1,0.09000,0.40500,-0.60500*
%
%ADD61ROUNDEDRECTD61*%
G04:AMPARAMS|DCode=63|XSize=0.5mm|YSize=0.55mm|CornerRadius=0.025mm|HoleSize=0mm|Usage=FLASHONLY|Rotation=0.000|XOffset=0mm|YOffset=0mm|HoleType=Round|Shape=RoundedRectangle|*
%AMROUNDEDRECTD63*
21,1,0.50000,0.50000,0,0,0.0*
21,1,0.45000,0.55000,0,0,0.0*
1,1,0.05000,0.22500,-0.25000*
1,1,0.05000,-0.22500,-0.25000*
1,1,0.05000,-0.22500,0.25000*
1,1,0.05000,0.22500,0.25000*
%
%ADD63ROUNDEDRECTD63*%
%TA.AperFunction,BGAPad,CuDef*%
%ADD64R,0.90000X0.90000*%
%TA.AperFunction,ConnectorPad*%
G04:AMPARAMS|DCode=65|XSize=0.9mm|YSize=1.5mm|CornerRadius=0.225mm|HoleSize=0mm|Usage=FLASHONLY|Rotation=270.000|XOffset=0mm|YOffset=0mm|HoleType=Round|Shape=RoundedRectangle|*
%AMROUNDEDRECTD65*
21,1,0.90000,1.05000,0,0,270.0*
21,1,0.45000,1.50000,0,0,270.0*
1,1,0.45000,-0.52500,-0.22500*
1,1,0.45000,-0.52500,0.22500*
1,1,0.45000,0.52500,0.22500*
1,1,0.45000,0.52500,-0.22500*
%
%ADD65ROUNDEDRECTD65*%
G04:AMPARAMS|DCode=66|XSize=1.5mm|YSize=0.9mm|CornerRadius=0.225mm|HoleSize=0mm|Usage=FLASHONLY|Rotation=270.000|XOffset=0mm|YOffset=0mm|HoleType=Round|Shape=RoundedRectangle|*
%AMROUNDEDRECTD66*
21,1,1.50000,0.45000,0,0,270.0*
21,1,1.05000,0.90000,0,0,270.0*
1,1,0.45000,-0.22500,-0.52500*
1,1,0.45000,-0.22500,0.52500*
1,1,0.45000,0.22500,0.52500*
1,1,0.45000,0.22500,-0.52500*
%
%ADD66ROUNDEDRECTD66*%
%TA.AperFunction,SMDPad,CuDef*%
%ADD67O,0.60000X0.20000*%
G04:AMPARAMS|DCode=68|XSize=1mm|YSize=2.15mm|CornerRadius=0.05mm|HoleSize=0mm|Usage=FLASHONLY|Rotation=270.000|XOffset=0mm|YOffset=0mm|HoleType=Round|Shape=RoundedRectangle|*
%AMROUNDEDRECTD68*
21,1,1.00000,2.05000,0,0,270.0*
21,1,0.90000,2.15000,0,0,270.0*
1,1,0.10000,-1.02500,-0.45000*
1,1,0.10000,-1.02500,0.45000*
1,1,0.10000,1.02500,0.45000*
1,1,0.10000,1.02500,-0.45000*
%
%ADD68ROUNDEDRECTD68*%
G04:AMPARAMS|DCode=69|XSize=3.25mm|YSize=2.15mm|CornerRadius=0.1075mm|HoleSize=0mm|Usage=FLASHONLY|Rotation=270.000|XOffset=0mm|YOffset=0mm|HoleType=Round|Shape=RoundedRectangle|*
%AMROUNDEDRECTD69*
21,1,3.25000,1.93500,0,0,270.0*
21,1,3.03500,2.15000,0,0,270.0*
1,1,0.21500,-0.96750,-1.51750*
1,1,0.21500,-0.96750,1.51750*
1,1,0.21500,0.96750,1.51750*
1,1,0.21500,0.96750,-1.51750*
%
%ADD69ROUNDEDRECTD69*%
G04:AMPARAMS|DCode=70|XSize=0.5mm|YSize=0.55mm|CornerRadius=0.025mm|HoleSize=0mm|Usage=FLASHONLY|Rotation=270.000|XOffset=0mm|YOffset=0mm|HoleType=Round|Shape=RoundedRectangle|*
%AMROUNDEDRECTD70*
21,1,0.50000,0.50000,0,0,270.0*
21,1,0.45000,0.55000,0,0,270.0*
1,1,0.05000,-0.25000,-0.22500*
1,1,0.05000,-0.25000,0.22500*
1,1,0.05000,0.25000,0.22500*
1,1,0.05000,0.25000,-0.22500*
%
%ADD70ROUNDEDRECTD70*%
%TA.AperFunction,ConnectorPad*%
G04:AMPARAMS|DCode=71|XSize=0.3mm|YSize=0.65mm|CornerRadius=0.015mm|HoleSize=0mm|Usage=FLASHONLY|Rotation=90.000|XOffset=0mm|YOffset=0mm|HoleType=Round|Shape=RoundedRectangle|*
%AMROUNDEDRECTD71*
21,1,0.30000,0.62000,0,0,90.0*
21,1,0.27000,0.65000,0,0,90.0*
1,1,0.03000,0.31000,0.13500*
1,1,0.03000,0.31000,-0.13500*
1,1,0.03000,-0.31000,-0.13500*
1,1,0.03000,-0.31000,0.13500*
%
%ADD71ROUNDEDRECTD71*%
D53*
X1794100Y4100000D02*
D03*
X1514100D02*
D03*
X974600Y3641300D02*
D03*
X1254600D02*
D03*
X876078Y3035000D02*
D03*
X596078D02*
D03*
D55*
X3750000Y1422500D02*
D03*
Y1567500D02*
D03*
X1462400Y7802580D02*
D03*
Y7947580D02*
D03*
D56*
X2105000Y6315000D02*
D03*
Y6684999D02*
D03*
X1495000Y6315000D02*
D03*
Y6684999D02*
D03*
X3305003Y7165000D02*
D03*
Y7535000D02*
D03*
X2695003Y7165000D02*
D03*
Y7535000D02*
D03*
X4710000Y6315000D02*
D03*
Y6685000D02*
D03*
X4100000Y6315000D02*
D03*
Y6685000D02*
D03*
X3305003Y5593080D02*
D03*
Y5963080D02*
D03*
X2695003Y5593080D02*
D03*
Y5963080D02*
D03*
D57*
X3750000Y1296750D02*
D03*
Y1233250D02*
D03*
Y1169750D02*
D03*
Y1106250D02*
D03*
Y1042750D02*
D03*
Y979250D02*
D03*
Y915750D02*
D03*
Y852250D02*
D03*
Y788750D02*
D03*
Y725250D02*
D03*
Y661750D02*
D03*
Y598250D02*
D03*
X4340000Y1296750D02*
D03*
Y1233250D02*
D03*
Y1169750D02*
D03*
Y1106250D02*
D03*
Y1042750D02*
D03*
Y979250D02*
D03*
Y915750D02*
D03*
Y852250D02*
D03*
Y788750D02*
D03*
Y725250D02*
D03*
Y661750D02*
D03*
Y598250D02*
D03*
D58*
X3275000Y3662200D02*
D03*
X2725000D02*
D03*
Y3482200D02*
D03*
X3275000D02*
D03*
D59*
X3125000Y3662200D02*
D03*
X2875001D02*
D03*
Y3482200D02*
D03*
X3125000D02*
D03*
D60*
X3075000Y3662200D02*
D03*
X3025000D02*
D03*
X2975000D02*
D03*
X2925000D02*
D03*
Y3482200D02*
D03*
X2975000D02*
D03*
X3025000D02*
D03*
X3075000D02*
D03*
D61*
X4215000Y3695000D02*
D03*
X4585000D02*
D03*
X4215000Y4305000D02*
D03*
X4585000D02*
D03*
X4879430Y1979977D02*
D03*
X5249430D02*
D03*
X4879430Y2589977D02*
D03*
X5249430D02*
D03*
D63*
X1187389Y7481866D02*
D03*
X1287389D02*
D03*
X1187389Y7581866D02*
D03*
X1287389D02*
D03*
X4082500Y1465000D02*
D03*
X3218367Y3221045D02*
D03*
X2789443Y3221041D02*
D03*
X3982500Y1465000D02*
D03*
X2889443Y3221041D02*
D03*
X3118367Y3221045D02*
D03*
D64*
X1381080Y2225480D02*
D03*
Y2085480D02*
D03*
Y1945480D02*
D03*
X1521080Y2085480D02*
D03*
Y2225480D02*
D03*
Y1945480D02*
D03*
X1661080Y2225480D02*
D03*
Y2085480D02*
D03*
Y1945480D02*
D03*
D65*
X2525080Y1236980D02*
D03*
Y1363980D02*
D03*
Y1490980D02*
D03*
Y1617980D02*
D03*
Y1744980D02*
D03*
Y1871980D02*
D03*
Y1998980D02*
D03*
Y2125980D02*
D03*
Y2252980D02*
D03*
Y2379980D02*
D03*
Y2506980D02*
D03*
Y2633980D02*
D03*
D66*
X749080Y1060480D02*
D03*
X876080D02*
D03*
X1003080D02*
D03*
X1130080D02*
D03*
X1257080D02*
D03*
X1384080D02*
D03*
X1511080D02*
D03*
X1638080D02*
D03*
X1765080D02*
D03*
X1892080D02*
D03*
X2019080D02*
D03*
X2146080D02*
D03*
X2273080D02*
D03*
X2400080D02*
D03*
Y2810480D02*
D03*
X2273080D02*
D03*
X2146080D02*
D03*
X2019080D02*
D03*
X1892080D02*
D03*
X1765080D02*
D03*
X1638080D02*
D03*
X1511080D02*
D03*
X1384080D02*
D03*
X1257080D02*
D03*
X1130080D02*
D03*
X1003080D02*
D03*
X876080D02*
D03*
X749080D02*
D03*
D67*
X5036780Y5641121D02*
D03*
Y5591121D02*
D03*
Y5691121D02*
D03*
Y5741121D02*
D03*
X5226781D02*
D03*
Y5691121D02*
D03*
Y5641121D02*
D03*
Y5591121D02*
D03*
X5036780Y4768618D02*
D03*
Y4718618D02*
D03*
Y4818618D02*
D03*
Y4868618D02*
D03*
X5226781D02*
D03*
Y4818618D02*
D03*
Y4768618D02*
D03*
Y4718618D02*
D03*
X5036780Y4340331D02*
D03*
Y4290331D02*
D03*
Y4390331D02*
D03*
Y4440331D02*
D03*
X5226781D02*
D03*
Y4390331D02*
D03*
Y4340331D02*
D03*
Y4290331D02*
D03*
X1050700Y4505410D02*
D03*
Y4555410D02*
D03*
Y4455410D02*
D03*
Y4405410D02*
D03*
X860700D02*
D03*
Y4455410D02*
D03*
Y4505410D02*
D03*
Y4555410D02*
D03*
X1050700Y4933697D02*
D03*
Y4983697D02*
D03*
Y4883697D02*
D03*
Y4833697D02*
D03*
X860700D02*
D03*
Y4883697D02*
D03*
Y4933697D02*
D03*
Y4983697D02*
D03*
X1050700Y5374159D02*
D03*
Y5424159D02*
D03*
Y5324159D02*
D03*
Y5274159D02*
D03*
X860700D02*
D03*
Y5324159D02*
D03*
Y5374159D02*
D03*
Y5424159D02*
D03*
X1050700Y5806200D02*
D03*
Y5856200D02*
D03*
Y5756200D02*
D03*
Y5706200D02*
D03*
X860700D02*
D03*
Y5756200D02*
D03*
Y5806200D02*
D03*
Y5856200D02*
D03*
X5036780Y5209080D02*
D03*
Y5159080D02*
D03*
Y5259080D02*
D03*
Y5309080D02*
D03*
X5226781D02*
D03*
Y5259080D02*
D03*
Y5209080D02*
D03*
Y5159080D02*
D03*
D68*
X1514101Y3641300D02*
D03*
X1514100Y3411300D02*
D03*
Y3871300D02*
D03*
D69*
X2099100Y3641300D02*
D03*
D70*
X4681269Y769432D02*
D03*
Y669432D02*
D03*
X4780585Y734198D02*
D03*
Y834198D02*
D03*
X4683060Y1016715D02*
D03*
Y916715D02*
D03*
X4683059Y1265985D02*
D03*
X4683059Y1165985D02*
D03*
X4780560Y991715D02*
D03*
Y1091714D02*
D03*
X3272500Y959198D02*
D03*
Y462187D02*
D03*
X3370000Y546271D02*
D03*
X3272500Y711270D02*
D03*
X3370000Y794432D02*
D03*
X3370000Y1041714D02*
D03*
X3272500Y1216714D02*
D03*
X3370000Y1290985D02*
D03*
X4683061Y421272D02*
D03*
X4780560Y586271D02*
D03*
X4784332Y337188D02*
D03*
X4683061Y521271D02*
D03*
X4784332Y237188D02*
D03*
X4780560Y486271D02*
D03*
X3272500Y611270D02*
D03*
X3272500Y859198D02*
D03*
X3370000Y646271D02*
D03*
X3272500Y362187D02*
D03*
X3370000Y1390985D02*
D03*
X3272500Y1116714D02*
D03*
X3370000Y1141715D02*
D03*
X3370000Y894432D02*
D03*
D71*
X1610000Y7965000D02*
D03*
X1790000D02*
D03*
Y7835000D02*
D03*
X1610000D02*
D03*
X1790000Y7900000D02*
D03*
X1610000D02*
D03*
%TF.MD5,79e94c9984c391fce0a30af00b4ca372*%
M02*
