%TF.GenerationSoftware,Altium Limited,Altium Designer,25.4.2 (15)*%
G04 Layer_Color=0*
%FSLAX45Y45*%
%MOMM*%
%TF.SameCoordinates,3DBBBAEC-02AD-422C-8702-2F9BCD6D44F6*%
%TF.FilePolarity,Positive*%
%TF.FileFunction,Plated,1,4,PTH,Drill*%
%TF.Part,Single*%
G01*
G75*
%TA.AperFunction,ComponentDrill*%
%ADD140O,1.00000X0.50000*%
%ADD141C,0.30000*%
%ADD142C,0.95000*%
%TA.AperFunction,ViaDrill,NotFilled*%
%ADD143C,0.30000*%
%ADD144C,0.90000*%
D140*
X2760000Y3359700D02*
D03*
X3240000D02*
D03*
X2760000Y3784700D02*
D03*
X3240000Y3787200D02*
D03*
D141*
X1451080Y1945480D02*
D03*
X1591080D02*
D03*
Y2225480D02*
D03*
X1451080D02*
D03*
X1661080Y2295480D02*
D03*
X1521080D02*
D03*
X1381080D02*
D03*
X1731080Y1945480D02*
D03*
Y2085480D02*
D03*
Y2225480D02*
D03*
X1381080Y1875480D02*
D03*
X1661080D02*
D03*
X1521080D02*
D03*
X1311080Y1945480D02*
D03*
Y2225480D02*
D03*
Y2085480D02*
D03*
X1661080Y2015480D02*
D03*
Y2155480D02*
D03*
X1521080Y2015480D02*
D03*
Y2155480D02*
D03*
X1381080Y2015480D02*
D03*
Y2155480D02*
D03*
X1591080Y2085480D02*
D03*
X1451080D02*
D03*
D142*
X1520000Y163496D02*
D03*
Y417496D02*
D03*
X1774000D02*
D03*
X1266000Y163496D02*
D03*
X1774000D02*
D03*
X1266000Y417496D02*
D03*
D143*
X753745Y3835832D02*
D03*
X890572Y3641300D02*
D03*
X974600Y3519229D02*
D03*
X939593Y3436406D02*
D03*
X4551516Y2364247D02*
D03*
X2713883Y3221041D02*
D03*
X3339799Y3293036D02*
D03*
X3328769Y2876850D02*
D03*
X3209686Y6507005D02*
D03*
X716535Y6440759D02*
D03*
X879645Y6671553D02*
D03*
X1273515Y7075873D02*
D03*
X1499961Y7244967D02*
D03*
X1742841Y7389466D02*
D03*
X1999495Y7507785D02*
D03*
X2267111Y7598629D02*
D03*
X369377Y5896938D02*
D03*
X327942Y5387430D02*
D03*
X305781Y5176588D02*
D03*
Y4823411D02*
D03*
X492215Y3999495D02*
D03*
X755033Y3499960D02*
D03*
X4257159Y2610534D02*
D03*
X5120356Y3328446D02*
D03*
X5421556Y3805821D02*
D03*
X5672059Y4612570D02*
D03*
X5694219Y5176588D02*
D03*
X5672059Y5387430D02*
D03*
X5507786Y6000505D02*
D03*
X5244968Y6500039D02*
D03*
X5075873Y6726485D02*
D03*
X4884034Y6934015D02*
D03*
X4440759Y7283465D02*
D03*
X4194179Y7421556D02*
D03*
X3934516Y7533116D02*
D03*
X3664614Y7616923D02*
D03*
X2542756Y7661001D02*
D03*
X2823412Y7694219D02*
D03*
X3387430Y7672058D02*
D03*
X4905988Y6571782D02*
D03*
X3132738Y1037020D02*
D03*
X3141077Y518104D02*
D03*
X3128657Y782061D02*
D03*
X3544559Y518210D02*
D03*
X2722479Y6507005D02*
D03*
X3342863Y6422004D02*
D03*
X3476040Y6337004D02*
D03*
X3609217Y6252003D02*
D03*
X3742393Y6167002D02*
D03*
X3875570Y6082001D02*
D03*
X4008900Y5997000D02*
D03*
X4142077Y5911999D02*
D03*
X4275254Y5826999D02*
D03*
X4408354Y5741921D02*
D03*
X4542100Y5658973D02*
D03*
X3914518Y2954566D02*
D03*
X1858576Y2991638D02*
D03*
X4744512Y6809128D02*
D03*
X4559300Y6315000D02*
D03*
X3307522Y2390510D02*
D03*
X3190468Y2435613D02*
D03*
X3102306Y2333201D02*
D03*
X4220140Y1036690D02*
D03*
X5135000Y4345491D02*
D03*
X3000000Y3800415D02*
D03*
X4494950Y202819D02*
D03*
X1612900Y6068060D02*
D03*
X4704080Y5897880D02*
D03*
X236220Y3014980D02*
D03*
X4405989Y3210261D02*
D03*
X5820765Y3075734D02*
D03*
X5769705Y3703793D02*
D03*
X305567Y6895675D02*
D03*
X1022221Y7756706D02*
D03*
X5034280Y7780020D02*
D03*
X5857240Y6703060D02*
D03*
X4265940Y4496752D02*
D03*
X2999740Y6550660D02*
D03*
X1968500Y6315000D02*
D03*
X3164803Y7165000D02*
D03*
X2932174Y1870296D02*
D03*
Y1739058D02*
D03*
Y1607820D02*
D03*
Y2132772D02*
D03*
X2260600Y2132773D02*
D03*
X2808650Y7536754D02*
D03*
X3199339Y7539729D02*
D03*
X2798466Y5595357D02*
D03*
X2647504Y6536005D02*
D03*
X1222997Y5293325D02*
D03*
Y5159995D02*
D03*
X1222996Y5026665D02*
D03*
X1222997Y4893335D02*
D03*
X1222996Y4760005D02*
D03*
X1222997Y4626675D02*
D03*
X1095373Y4783793D02*
D03*
X3858275Y1158656D02*
D03*
X1211143Y2694508D02*
D03*
X2892529Y1384643D02*
D03*
X2932174Y2001534D02*
D03*
X4116055Y289708D02*
D03*
X4054697Y385585D02*
D03*
X3857950Y497711D02*
D03*
X3971482Y468093D02*
D03*
X3863711Y1056010D02*
D03*
X4082373Y1183123D02*
D03*
X4160860Y1119510D02*
D03*
X4585000Y2542500D02*
D03*
X3359032Y2801231D02*
D03*
X1063316Y4354935D02*
D03*
X4078649Y2853372D02*
D03*
X3829600Y2793237D02*
D03*
X3882131Y2723499D02*
D03*
X4215000Y3830474D02*
D03*
X4007018Y2626825D02*
D03*
X3777914Y2259390D02*
D03*
X3411536Y2440043D02*
D03*
X3674331Y2662230D02*
D03*
X4255168Y2961895D02*
D03*
X4091387Y2943739D02*
D03*
X3966028Y2893147D02*
D03*
X3954641Y2763749D02*
D03*
X3492329Y2819296D02*
D03*
X3599838Y2694982D02*
D03*
X3545144Y2609390D02*
D03*
X3431466Y2682916D02*
D03*
X3301833Y2723914D02*
D03*
X3241978Y2864731D02*
D03*
X3154289Y2943301D02*
D03*
X3140101Y3022195D02*
D03*
X3060248Y3015189D02*
D03*
X1574438Y2917230D02*
D03*
X2016024Y2937517D02*
D03*
X1996777Y3099972D02*
D03*
X2827401Y2275923D02*
D03*
X2405297Y2223347D02*
D03*
X5080304Y4489169D02*
D03*
X5084157Y4947117D02*
D03*
X5097121Y5396473D02*
D03*
X5060334Y5789340D02*
D03*
X1025578Y4783557D02*
D03*
X999398Y5194143D02*
D03*
X1094845Y5657268D02*
D03*
X3671868Y2370264D02*
D03*
X3899923Y2518234D02*
D03*
X3184415Y7729695D02*
D03*
X3108253Y7699999D02*
D03*
X408240Y5135914D02*
D03*
X5358932Y5522815D02*
D03*
X5346187Y5361336D02*
D03*
X5371514Y5150243D02*
D03*
X5391452Y4969404D02*
D03*
X5589019Y5278170D02*
D03*
X1094894Y6962861D02*
D03*
X1207491Y7172742D02*
D03*
X1456858Y7581866D02*
D03*
X3633504Y1096883D02*
D03*
X3236890Y2946434D02*
D03*
X994874Y3026965D02*
D03*
X5157772Y3512931D02*
D03*
X4766872Y5473673D02*
D03*
X4871577Y5395197D02*
D03*
X4864806Y5132516D02*
D03*
X4865188Y4999567D02*
D03*
X4865042Y4866137D02*
D03*
X4864823Y4732537D02*
D03*
X4866253Y4599523D02*
D03*
X4238666Y2699700D02*
D03*
X4688217Y2857798D02*
D03*
X5540609Y3802686D02*
D03*
X5728967Y4015087D02*
D03*
X5623653Y4326893D02*
D03*
X5542617Y4862390D02*
D03*
X4957498Y6752313D02*
D03*
X393789Y5269863D02*
D03*
X403754Y4303525D02*
D03*
X1114824Y3238375D02*
D03*
X4691306Y2978637D02*
D03*
X4637491Y6866015D02*
D03*
X4628664Y7336740D02*
D03*
X2439110Y2929251D02*
D03*
X1592067Y7581866D02*
D03*
X5372164Y6011438D02*
D03*
X448417Y4692364D02*
D03*
X1964443Y3025375D02*
D03*
X2892529Y1269380D02*
D03*
X749080Y1178330D02*
D03*
Y942630D02*
D03*
X3777955Y2692182D02*
D03*
X4171626Y2951522D02*
D03*
X1181100Y6830060D02*
D03*
X4230583Y1308162D02*
D03*
X2958457Y2952866D02*
D03*
X2891535Y2999070D02*
D03*
X2840662Y2936322D02*
D03*
X2790098Y2998867D02*
D03*
X2739794Y2936216D02*
D03*
X2683150Y2993210D02*
D03*
X2632488Y2930592D02*
D03*
X2581968Y2997323D02*
D03*
X1500139Y3222620D02*
D03*
X1550659Y3155888D02*
D03*
X1601321Y3218506D02*
D03*
X1657965Y3161513D02*
D03*
X1708269Y3224163D02*
D03*
X1758834Y3161619D02*
D03*
X1809707Y3224367D02*
D03*
X1861628Y3163163D02*
D03*
X3658717Y2198934D02*
D03*
X1794100Y3978437D02*
D03*
X588454Y2910289D02*
D03*
X1119578Y4403028D02*
D03*
X952480Y4472909D02*
D03*
Y4390410D02*
D03*
X957368Y4555410D02*
D03*
X952480Y4901196D02*
D03*
Y4818697D02*
D03*
X957368Y4983697D02*
D03*
X952480Y5341659D02*
D03*
Y5259160D02*
D03*
X957368Y5424159D02*
D03*
X1065178Y5217543D02*
D03*
X1023944Y5653521D02*
D03*
X957368Y5856200D02*
D03*
X952480Y5691200D02*
D03*
Y5773699D02*
D03*
X4875000Y4215331D02*
D03*
X5540000Y5129074D02*
D03*
X5135000Y4427830D02*
D03*
Y4883617D02*
D03*
Y5324080D02*
D03*
Y5756120D02*
D03*
Y5673621D02*
D03*
Y5241581D02*
D03*
Y4801118D02*
D03*
X5130112Y5591121D02*
D03*
Y5159080D02*
D03*
Y4718618D02*
D03*
X5010086Y4486267D02*
D03*
X5020661Y4915133D02*
D03*
X5036780Y5359080D02*
D03*
X4989230Y5788007D02*
D03*
X5311903Y6078339D02*
D03*
X5397532Y6440507D02*
D03*
X4968642Y7285615D02*
D03*
X4962529Y7016587D02*
D03*
X4774935Y7274594D02*
D03*
X1302621Y7179781D02*
D03*
X1766437Y2581397D02*
D03*
X1357583Y2684875D02*
D03*
X1065991Y2917644D02*
D03*
X1300256Y3022674D02*
D03*
X905219Y3343584D02*
D03*
X661891Y3536917D02*
D03*
X551180Y3761740D02*
D03*
X310176Y3928426D02*
D03*
X532631Y5551929D02*
D03*
X585739Y6024686D02*
D03*
X931822Y6359519D02*
D03*
X1342383Y4492298D02*
D03*
X1257616Y5443567D02*
D03*
X4477093Y7129631D02*
D03*
X4522431Y7271757D02*
D03*
X4276989Y7418671D02*
D03*
X4017991Y7539420D02*
D03*
X3746637Y7631421D02*
D03*
X3464978Y7694901D02*
D03*
X2896067Y7730989D02*
D03*
X2610571Y7706760D02*
D03*
X2330854Y7652334D02*
D03*
X2057582Y7568006D02*
D03*
X1833119Y7372162D02*
D03*
X1658205Y7104637D02*
D03*
X1595709Y7239928D02*
D03*
X1369246Y7084886D02*
D03*
X1254528Y6906282D02*
D03*
X1094479Y6858326D02*
D03*
X796149Y6690979D02*
D03*
X714414Y6534287D02*
D03*
X751193Y6347043D02*
D03*
X600736Y6418374D02*
D03*
X530518Y6231137D02*
D03*
X538345Y5855567D02*
D03*
X385262Y5705451D02*
D03*
X270503Y5103507D02*
D03*
X356197Y4901015D02*
D03*
X343931Y4582828D02*
D03*
X4907690Y6856863D02*
D03*
X5083710Y6631076D02*
D03*
X5282642Y6597003D02*
D03*
X5391233Y6193578D02*
D03*
X5562424Y6115151D02*
D03*
X5645932Y5912406D02*
D03*
X5570861Y5701070D02*
D03*
X5561587Y5447761D02*
D03*
X5735738Y5102833D02*
D03*
X5688165Y4871266D02*
D03*
X5722717Y4527842D02*
D03*
X5547753Y4049346D02*
D03*
X5370018Y3915462D02*
D03*
X5301890Y3467626D02*
D03*
X5036649Y3363945D02*
D03*
X4903609Y3104743D02*
D03*
X4453887Y2722320D02*
D03*
X2972966Y2380497D02*
D03*
X2830904Y2414903D02*
D03*
X2298700Y2382520D02*
D03*
X2036157Y2495533D02*
D03*
X1954373Y2647876D02*
D03*
X1547274Y2691361D02*
D03*
X1709719Y4100000D02*
D03*
X5530075Y4408962D02*
D03*
X425415Y6105031D02*
D03*
X530111Y5758982D02*
D03*
X5313887Y3828224D02*
D03*
X4673011Y2767256D02*
D03*
X695211Y3938353D02*
D03*
X4449417Y1308162D02*
D03*
X3665276Y1570176D02*
D03*
X1359574Y3414891D02*
D03*
X1509974Y3321687D02*
D03*
X1509283Y3498845D02*
D03*
X1878482Y4100000D02*
D03*
X974600Y3763371D02*
D03*
X1683621Y7945170D02*
D03*
X1376878Y7944471D02*
D03*
X4763995Y1984977D02*
D03*
X1621726Y6684999D02*
D03*
X1976237D02*
D03*
X4092126Y6591281D02*
D03*
X4711577Y6588501D02*
D03*
X4215000Y4170680D02*
D03*
X4412004Y7005069D02*
D03*
X5249430Y2452422D02*
D03*
Y2116215D02*
D03*
X1461328Y7092234D02*
D03*
X1009466Y6657998D02*
D03*
X540325Y6334644D02*
D03*
X3632500Y1422500D02*
D03*
X749080Y2698684D02*
D03*
Y2922555D02*
D03*
X596076Y3155000D02*
D03*
X513392Y3036598D02*
D03*
X1003080Y1215000D02*
D03*
X876080D02*
D03*
X3726366Y2754922D02*
D03*
X3245018Y1292402D02*
D03*
X2119794Y222221D02*
D03*
X2563591Y747233D02*
D03*
X2485692Y525290D02*
D03*
X2246079Y323398D02*
D03*
X2386734Y430306D02*
D03*
X4333733Y5481029D02*
D03*
X4200402D02*
D03*
X4067072D02*
D03*
X3933742D02*
D03*
X3800413D02*
D03*
X3667083D02*
D03*
X3533753D02*
D03*
X3400423D02*
D03*
X3267093D02*
D03*
X3133763D02*
D03*
X4665930Y4496752D02*
D03*
X4532600D02*
D03*
X4399270D02*
D03*
X4132611D02*
D03*
X3999281D02*
D03*
X3865951D02*
D03*
X3732621D02*
D03*
X3599291D02*
D03*
X3465961D02*
D03*
X3332631D02*
D03*
X3199301D02*
D03*
X3065971D02*
D03*
X2932641D02*
D03*
X1466011D02*
D03*
X1599341D02*
D03*
X1732671D02*
D03*
X1866001D02*
D03*
X1999331D02*
D03*
X2132661D02*
D03*
X2265991D02*
D03*
X2399321D02*
D03*
X2532651D02*
D03*
X2665981D02*
D03*
X2799311D02*
D03*
X432917Y3884730D02*
D03*
X296789Y5471665D02*
D03*
X548684Y4129399D02*
D03*
X278753Y4404727D02*
D03*
X373192Y6225228D02*
D03*
X1245000Y6620000D02*
D03*
X5374269Y4140047D02*
D03*
X5432669Y5917242D02*
D03*
X5455000Y3630000D02*
D03*
X1514100Y4251482D02*
D03*
X5097500Y2912500D02*
D03*
X1571503Y7138523D02*
D03*
X1376354Y7005037D02*
D03*
X4467063Y5481029D02*
D03*
X3000003Y5480705D02*
D03*
X4664630Y5552570D02*
D03*
X3267888Y6451004D02*
D03*
X3401065Y6366004D02*
D03*
X4599963Y5603497D02*
D03*
X4466632Y5685997D02*
D03*
X4333456Y5770998D02*
D03*
X4200279Y5855998D02*
D03*
X3534242Y6281003D02*
D03*
X3667419Y6196002D02*
D03*
X3800595Y6111001D02*
D03*
X3933926Y6026000D02*
D03*
X4067102Y5940999D02*
D03*
X3750000Y1635000D02*
D03*
X4377501Y1358642D02*
D03*
X4302501D02*
D03*
X4158069Y1465756D02*
D03*
X3832500Y1567500D02*
D03*
X2725000Y3572200D02*
D03*
X3275000D02*
D03*
X3220000Y3482200D02*
D03*
X3330000D02*
D03*
X3220000Y3662200D02*
D03*
X3330000D02*
D03*
X2670000Y3482200D02*
D03*
X2780001D02*
D03*
Y3662200D02*
D03*
X2670000D02*
D03*
X3443059Y646271D02*
D03*
X3199441Y1116714D02*
D03*
X3199441Y859198D02*
D03*
X3443059Y1141714D02*
D03*
X3443060Y894432D02*
D03*
X3199441Y611270D02*
D03*
X3199441Y362187D02*
D03*
X3345559D02*
D03*
X3296941Y1390985D02*
D03*
X3443059D02*
D03*
X4857392Y237188D02*
D03*
X4756118Y1265985D02*
D03*
X4853619Y991715D02*
D03*
X4853645Y734198D02*
D03*
X4853619Y486271D02*
D03*
X4711273Y237188D02*
D03*
X4610002Y521271D02*
D03*
X4608210Y769432D02*
D03*
X4610000Y1016715D02*
D03*
X4609999Y1265985D02*
D03*
X4819993Y5332489D02*
D03*
X1933363Y5399990D02*
D03*
X3666653D02*
D03*
Y5266660D02*
D03*
X1933363D02*
D03*
X3666653Y5133330D02*
D03*
X1933363D02*
D03*
X3666653Y5000000D02*
D03*
X1933363D02*
D03*
X3666653Y4866670D02*
D03*
X1933363D02*
D03*
X3666653Y4733340D02*
D03*
X1933363D02*
D03*
X3666653Y4600010D02*
D03*
X1933363D02*
D03*
X1267510Y5359990D02*
D03*
Y5226660D02*
D03*
X4819994Y5199159D02*
D03*
X1267510Y5093330D02*
D03*
X4819993Y5065829D02*
D03*
X1267510Y4960000D02*
D03*
X4819992Y4932499D02*
D03*
X1267510Y4826670D02*
D03*
X4819993Y4799169D02*
D03*
X1267510Y4693340D02*
D03*
X4819993Y4665839D02*
D03*
X1267510Y4560010D02*
D03*
X4819993Y4532509D02*
D03*
X5118070Y3598080D02*
D03*
X1400043Y5399990D02*
D03*
X3133333D02*
D03*
Y5266660D02*
D03*
X1400043D02*
D03*
X3133333Y5133330D02*
D03*
X1400043D02*
D03*
X3133333Y5000000D02*
D03*
X1400043D02*
D03*
X3133333Y4866670D02*
D03*
X1400043D02*
D03*
X3133333Y4733340D02*
D03*
X1400043D02*
D03*
X3133333Y4600010D02*
D03*
X1400043D02*
D03*
X1533374Y5399990D02*
D03*
X3266663D02*
D03*
Y5266660D02*
D03*
X1533374D02*
D03*
X3266663Y5133330D02*
D03*
X1533374D02*
D03*
X3266663Y5000000D02*
D03*
X1533374D02*
D03*
X3266663Y4866670D02*
D03*
X1533374D02*
D03*
X3266663Y4733340D02*
D03*
X1533374D02*
D03*
X3266663Y4600010D02*
D03*
X1533374D02*
D03*
X1666704Y5399990D02*
D03*
X3399993D02*
D03*
Y5266660D02*
D03*
X1666704D02*
D03*
X3399993Y5133330D02*
D03*
X1666704D02*
D03*
X3399993Y5000000D02*
D03*
X1666704D02*
D03*
X3399993Y4866670D02*
D03*
X1666704D02*
D03*
X3399993Y4733340D02*
D03*
X1666704D02*
D03*
X3399993Y4600010D02*
D03*
X1666704D02*
D03*
X1800033Y5399990D02*
D03*
X3533323D02*
D03*
Y5266660D02*
D03*
X1800033D02*
D03*
X3533323Y5133330D02*
D03*
X1800033D02*
D03*
X3533323Y5000000D02*
D03*
X1800033D02*
D03*
X3533323Y4866670D02*
D03*
X1800033D02*
D03*
X3533323Y4733340D02*
D03*
X1800033D02*
D03*
X3533323Y4600010D02*
D03*
X1800033D02*
D03*
X2066694Y5399990D02*
D03*
X3799983D02*
D03*
Y5266660D02*
D03*
X2066694D02*
D03*
X3799983Y5133330D02*
D03*
X2066694D02*
D03*
X3799983Y5000000D02*
D03*
X2066694D02*
D03*
X3799983Y4866670D02*
D03*
X2066694D02*
D03*
X3799983Y4733340D02*
D03*
X2066694D02*
D03*
X3799983Y4600010D02*
D03*
X2066694D02*
D03*
X4364741Y7142214D02*
D03*
X2200024Y5399990D02*
D03*
X3933313D02*
D03*
Y5266660D02*
D03*
X2200024D02*
D03*
X3933313Y5133330D02*
D03*
X2200024D02*
D03*
X3933313Y5000000D02*
D03*
X2200024D02*
D03*
X3933313Y4866670D02*
D03*
X2200024D02*
D03*
X3933313Y4733340D02*
D03*
X2200024D02*
D03*
X3933313Y4600010D02*
D03*
X2200024D02*
D03*
X2333353Y5399990D02*
D03*
X4066643D02*
D03*
Y5266660D02*
D03*
X2333353D02*
D03*
X4066643Y5133330D02*
D03*
X2333353D02*
D03*
X4066643Y5000000D02*
D03*
X2333353D02*
D03*
X4066643Y4866670D02*
D03*
X2333353D02*
D03*
X4066643Y4733340D02*
D03*
X2333353D02*
D03*
X4066643Y4600010D02*
D03*
X2333353D02*
D03*
X2466683Y5399990D02*
D03*
X4199973D02*
D03*
Y5266660D02*
D03*
X2466683D02*
D03*
X4199973Y5133330D02*
D03*
X2466683D02*
D03*
X4199973Y5000000D02*
D03*
X2466683D02*
D03*
X4199973Y4866670D02*
D03*
X2466683D02*
D03*
X4199973Y4733340D02*
D03*
X2466683D02*
D03*
X4199973Y4600010D02*
D03*
X2466683D02*
D03*
X2600014Y5399990D02*
D03*
X4333303D02*
D03*
Y5266660D02*
D03*
X2600014D02*
D03*
X4333303Y5133330D02*
D03*
X2600014D02*
D03*
X4333303Y5000000D02*
D03*
X2600014D02*
D03*
X4333303Y4866670D02*
D03*
X2600014D02*
D03*
X4333303Y4733340D02*
D03*
X2600014D02*
D03*
X4333303Y4600010D02*
D03*
X2600014D02*
D03*
X2733344Y5399990D02*
D03*
X4466633D02*
D03*
Y5266660D02*
D03*
X2733344D02*
D03*
X4466633Y5133330D02*
D03*
X2733344D02*
D03*
X4466633Y5000000D02*
D03*
X2733344D02*
D03*
X4466633Y4866670D02*
D03*
X2733344D02*
D03*
X4466633Y4733340D02*
D03*
X2733344D02*
D03*
X4466633Y4600010D02*
D03*
X2733344D02*
D03*
X2866673Y5399990D02*
D03*
X4599963D02*
D03*
Y5266660D02*
D03*
X2866673D02*
D03*
X4599963Y5133330D02*
D03*
X2866673D02*
D03*
X4599963Y5000000D02*
D03*
X2866673D02*
D03*
X4599963Y4866670D02*
D03*
X2866673D02*
D03*
X4599963Y4733340D02*
D03*
X2866673D02*
D03*
X4599963Y4600010D02*
D03*
X2866673D02*
D03*
X3000003Y5399990D02*
D03*
Y5266660D02*
D03*
Y5133330D02*
D03*
Y5000000D02*
D03*
Y4866670D02*
D03*
Y4733340D02*
D03*
Y4600010D02*
D03*
X4733293Y5399990D02*
D03*
Y5266660D02*
D03*
Y5133330D02*
D03*
X4733292Y5000000D02*
D03*
Y4866670D02*
D03*
Y4733340D02*
D03*
Y4600010D02*
D03*
X3110793Y7537582D02*
D03*
X5582931Y4569921D02*
D03*
X1933363Y5480705D02*
D03*
X1800033D02*
D03*
X2200024D02*
D03*
X2066694D02*
D03*
X2866673D02*
D03*
X2466683D02*
D03*
X2333353D02*
D03*
X2733344D02*
D03*
X2600014D02*
D03*
X1666704D02*
D03*
X1533374D02*
D03*
X1400043D02*
D03*
D144*
X5588000Y2413000D02*
D03*
Y2159000D02*
D03*
Y1143000D02*
D03*
Y1905000D02*
D03*
Y1651000D02*
D03*
Y1397000D02*
D03*
%TF.MD5,9cf4c6ed66d33437bee6fb58201d068b*%
M02*
