%TF.GenerationSoftware,Altium Limited,Altium Designer,25.4.2 (15)*%
G04 Layer_Color=32896*
%FSLAX45Y45*%
%MOMM*%
%TF.SameCoordinates,3DBBBAEC-02AD-422C-8702-2F9BCD6D44F6*%
%TF.FilePolarity,Positive*%
%TF.FileFunction,Legend,Bot*%
%TF.Part,Single*%
G01*
G75*
%TA.AperFunction,NonConductor*%
%ADD78C,0.60000*%
%ADD79C,0.25000*%
%ADD80C,0.20000*%
%ADD81C,0.10000*%
%ADD82C,0.10160*%
%ADD83C,0.25400*%
%ADD84C,0.15240*%
%ADD85C,0.12700*%
%ADD86C,0.10200*%
G36*
X2366334Y6455983D02*
X2344906D01*
X2325453Y6528864D01*
X2306281Y6455983D01*
X2284994D01*
X2261452Y6553534D01*
X2281329D01*
X2296272Y6485305D01*
X2313188Y6553534D01*
X2336871D01*
X2354633Y6486432D01*
X2369294Y6553534D01*
X2389453D01*
X2366334Y6455983D01*
D02*
G37*
G36*
X2258633Y6491789D02*
Y6475578D01*
X2218597D01*
Y6455983D01*
X2200553D01*
Y6475578D01*
X2188430D01*
Y6491930D01*
X2200553D01*
Y6553957D01*
X2216342D01*
X2258633Y6491789D01*
D02*
G37*
G36*
X2440907Y6555226D02*
X2444572Y6554803D01*
X2447815Y6554239D01*
X2450634Y6553675D01*
X2451903Y6553252D01*
X2453030Y6552970D01*
X2453876Y6552688D01*
X2454722Y6552406D01*
X2455286Y6552124D01*
X2455709Y6551983D01*
X2455991Y6551842D01*
X2456132D01*
X2458951Y6550433D01*
X2461348Y6548882D01*
X2463462Y6547190D01*
X2465154Y6545640D01*
X2466564Y6544230D01*
X2467409Y6543102D01*
X2468114Y6542256D01*
X2468255Y6542115D01*
Y6541974D01*
X2469665Y6539578D01*
X2470652Y6537041D01*
X2471356Y6534644D01*
X2471779Y6532529D01*
X2472061Y6530697D01*
X2472343Y6529287D01*
Y6528723D01*
Y6528300D01*
Y6528159D01*
Y6528018D01*
X2472202Y6525904D01*
X2471920Y6523789D01*
X2471497Y6521957D01*
X2470934Y6520124D01*
X2469524Y6516741D01*
X2467832Y6513780D01*
X2467127Y6512512D01*
X2466282Y6511525D01*
X2465577Y6510538D01*
X2464872Y6509692D01*
X2464308Y6509128D01*
X2463885Y6508706D01*
X2463603Y6508424D01*
X2463462Y6508283D01*
X2462193Y6507296D01*
X2460643Y6506309D01*
X2459092Y6505322D01*
X2457259Y6504476D01*
X2453735Y6502785D01*
X2450070Y6501375D01*
X2448237Y6500811D01*
X2446687Y6500247D01*
X2445136Y6499824D01*
X2443867Y6499402D01*
X2442881Y6499120D01*
X2442035Y6498838D01*
X2441471Y6498697D01*
X2441330D01*
X2439074Y6498133D01*
X2437101Y6497569D01*
X2435268Y6497146D01*
X2433577Y6496723D01*
X2432167Y6496300D01*
X2430898Y6496018D01*
X2429770Y6495595D01*
X2428784Y6495313D01*
X2427938Y6495172D01*
X2427233Y6494890D01*
X2426246Y6494609D01*
X2425682Y6494327D01*
X2425541D01*
X2423709Y6493622D01*
X2422299Y6492917D01*
X2421030Y6492212D01*
X2420043Y6491507D01*
X2419339Y6490943D01*
X2418916Y6490520D01*
X2418634Y6490238D01*
X2418493Y6490098D01*
X2417788Y6489111D01*
X2417224Y6488124D01*
X2416942Y6487137D01*
X2416660Y6486291D01*
X2416519Y6485445D01*
X2416378Y6484741D01*
Y6484318D01*
Y6484177D01*
X2416519Y6482203D01*
X2417083Y6480512D01*
X2417929Y6478820D01*
X2418775Y6477410D01*
X2419761Y6476282D01*
X2420466Y6475437D01*
X2421030Y6474873D01*
X2421312Y6474732D01*
X2423286Y6473463D01*
X2425541Y6472476D01*
X2427938Y6471771D01*
X2430193Y6471348D01*
X2432308Y6471067D01*
X2433999Y6470785D01*
X2435550D01*
X2438792Y6470926D01*
X2441612Y6471489D01*
X2444008Y6472194D01*
X2446123Y6473040D01*
X2447815Y6473886D01*
X2448942Y6474591D01*
X2449647Y6475155D01*
X2449929Y6475296D01*
X2451762Y6477269D01*
X2453171Y6479384D01*
X2454440Y6481780D01*
X2455286Y6484177D01*
X2455991Y6486291D01*
X2456555Y6487983D01*
X2456696Y6488547D01*
Y6489111D01*
X2456837Y6489393D01*
Y6489534D01*
X2476009Y6487701D01*
X2475586Y6484741D01*
X2475022Y6481921D01*
X2474176Y6479243D01*
X2473471Y6476846D01*
X2472484Y6474591D01*
X2471497Y6472476D01*
X2470511Y6470644D01*
X2469524Y6468952D01*
X2468537Y6467542D01*
X2467550Y6466274D01*
X2466704Y6465146D01*
X2465859Y6464159D01*
X2465295Y6463454D01*
X2464731Y6463031D01*
X2464449Y6462749D01*
X2464308Y6462608D01*
X2462334Y6461058D01*
X2460220Y6459789D01*
X2457964Y6458661D01*
X2455568Y6457674D01*
X2453312Y6456970D01*
X2450916Y6456265D01*
X2446264Y6455278D01*
X2444149Y6454855D01*
X2442176Y6454573D01*
X2440484Y6454432D01*
X2438933Y6454291D01*
X2437665Y6454150D01*
X2435832D01*
X2431321Y6454291D01*
X2427233Y6454714D01*
X2423568Y6455278D01*
X2422017Y6455560D01*
X2420466Y6455983D01*
X2419198Y6456265D01*
X2418070Y6456547D01*
X2417083Y6456829D01*
X2416237Y6457111D01*
X2415532Y6457392D01*
X2415109Y6457533D01*
X2414828Y6457674D01*
X2414687D01*
X2411585Y6459225D01*
X2409048Y6460917D01*
X2406651Y6462608D01*
X2404819Y6464441D01*
X2403409Y6465992D01*
X2402281Y6467401D01*
X2401717Y6468247D01*
X2401435Y6468388D01*
Y6468529D01*
X2399885Y6471348D01*
X2398616Y6474027D01*
X2397770Y6476705D01*
X2397206Y6479243D01*
X2396924Y6481216D01*
X2396783Y6482203D01*
X2396642Y6482908D01*
Y6483472D01*
Y6483895D01*
Y6484177D01*
Y6484318D01*
X2396783Y6487701D01*
X2397206Y6490661D01*
X2397911Y6493340D01*
X2398616Y6495595D01*
X2399321Y6497428D01*
X2400026Y6498697D01*
X2400449Y6499542D01*
X2400590Y6499824D01*
X2402140Y6502080D01*
X2403973Y6504054D01*
X2405805Y6505745D01*
X2407497Y6507155D01*
X2409048Y6508283D01*
X2410316Y6509128D01*
X2411162Y6509692D01*
X2411303Y6509833D01*
X2411444D01*
X2412854Y6510538D01*
X2414264Y6511243D01*
X2417647Y6512512D01*
X2421171Y6513639D01*
X2424554Y6514767D01*
X2426105Y6515190D01*
X2427656Y6515613D01*
X2429065Y6516036D01*
X2430193Y6516318D01*
X2431180Y6516600D01*
X2431885Y6516741D01*
X2432449Y6516882D01*
X2432590D01*
X2435127Y6517587D01*
X2437383Y6518151D01*
X2439497Y6518714D01*
X2441471Y6519278D01*
X2443022Y6519842D01*
X2444572Y6520406D01*
X2445841Y6520970D01*
X2446969Y6521393D01*
X2447955Y6521816D01*
X2448660Y6522239D01*
X2449365Y6522521D01*
X2449788Y6522803D01*
X2450493Y6523225D01*
X2450634Y6523366D01*
X2451621Y6524353D01*
X2452326Y6525340D01*
X2452748Y6526327D01*
X2453030Y6527314D01*
X2453312Y6528018D01*
X2453453Y6528723D01*
Y6529146D01*
Y6529287D01*
X2453312Y6530697D01*
X2453030Y6531825D01*
X2452467Y6532952D01*
X2451903Y6533798D01*
X2451339Y6534503D01*
X2450775Y6534926D01*
X2450493Y6535208D01*
X2450352Y6535349D01*
X2448378Y6536618D01*
X2446264Y6537463D01*
X2444008Y6538168D01*
X2441894Y6538591D01*
X2440061Y6538873D01*
X2438510Y6539014D01*
X2437101D01*
X2434140Y6538873D01*
X2431603Y6538450D01*
X2429488Y6537886D01*
X2427797Y6537322D01*
X2426387Y6536759D01*
X2425400Y6536195D01*
X2424836Y6535772D01*
X2424695Y6535631D01*
X2423286Y6534221D01*
X2422017Y6532529D01*
X2421030Y6530838D01*
X2420325Y6529005D01*
X2419761Y6527455D01*
X2419480Y6526186D01*
X2419198Y6525199D01*
Y6525058D01*
Y6524917D01*
X2399462Y6525622D01*
X2399603Y6528159D01*
X2400026Y6530415D01*
X2400590Y6532670D01*
X2401294Y6534644D01*
X2401999Y6536618D01*
X2402845Y6538450D01*
X2403691Y6540001D01*
X2404537Y6541552D01*
X2405524Y6542820D01*
X2406369Y6543948D01*
X2407215Y6544935D01*
X2407920Y6545781D01*
X2408484Y6546345D01*
X2408907Y6546767D01*
X2409189Y6547049D01*
X2409330Y6547190D01*
X2411162Y6548600D01*
X2413136Y6549869D01*
X2415250Y6550997D01*
X2417506Y6551983D01*
X2419761Y6552688D01*
X2422017Y6553393D01*
X2426528Y6554380D01*
X2428643Y6554662D01*
X2430475Y6554944D01*
X2432308Y6555085D01*
X2433858Y6555226D01*
X2435127Y6555367D01*
X2436819D01*
X2440907Y6555226D01*
D02*
G37*
G36*
X3189354Y6925187D02*
X3147063D01*
X3144667Y6925328D01*
X3140438D01*
X3138746Y6925468D01*
X3136068D01*
X3135081Y6925609D01*
X3133671D01*
X3133107Y6925750D01*
X3132543D01*
X3129724Y6926173D01*
X3127187Y6926878D01*
X3124931Y6927583D01*
X3122957Y6928429D01*
X3121407Y6929134D01*
X3120279Y6929839D01*
X3119574Y6930261D01*
X3119292Y6930402D01*
X3117319Y6931953D01*
X3115768Y6933645D01*
X3114217Y6935195D01*
X3113090Y6936887D01*
X3112103Y6938297D01*
X3111398Y6939425D01*
X3110975Y6940129D01*
X3110834Y6940411D01*
X3109847Y6942808D01*
X3109001Y6945063D01*
X3108438Y6947319D01*
X3108156Y6949292D01*
X3107874Y6950984D01*
X3107733Y6952253D01*
Y6953099D01*
Y6953240D01*
Y6953381D01*
X3107874Y6956482D01*
X3108438Y6959301D01*
X3109283Y6961698D01*
X3110129Y6963953D01*
X3110975Y6965645D01*
X3111821Y6966914D01*
X3112385Y6967759D01*
X3112526Y6968041D01*
X3114499Y6970297D01*
X3116614Y6972130D01*
X3119010Y6973680D01*
X3121125Y6974808D01*
X3123098Y6975795D01*
X3124790Y6976500D01*
X3125354Y6976641D01*
X3125777Y6976782D01*
X3126059Y6976923D01*
X3126200D01*
X3123944Y6978191D01*
X3121971Y6979460D01*
X3120279Y6981011D01*
X3118869Y6982279D01*
X3117883Y6983548D01*
X3117037Y6984535D01*
X3116473Y6985240D01*
X3116332Y6985522D01*
X3115063Y6987777D01*
X3114076Y6989892D01*
X3113512Y6992006D01*
X3112949Y6993980D01*
X3112667Y6995672D01*
X3112526Y6996940D01*
Y6997786D01*
Y6997927D01*
Y6998068D01*
X3112667Y7000324D01*
X3112949Y7002579D01*
X3113512Y7004412D01*
X3114076Y7006103D01*
X3114640Y7007513D01*
X3115204Y7008641D01*
X3115486Y7009205D01*
X3115627Y7009487D01*
X3116755Y7011319D01*
X3118023Y7012870D01*
X3119292Y7014280D01*
X3120420Y7015548D01*
X3121548Y7016394D01*
X3122394Y7017099D01*
X3122957Y7017522D01*
X3123098Y7017663D01*
X3124790Y7018791D01*
X3126623Y7019636D01*
X3128314Y7020341D01*
X3129865Y7020905D01*
X3131275Y7021328D01*
X3132261Y7021610D01*
X3132966Y7021751D01*
X3133248D01*
X3135645Y7022033D01*
X3138323Y7022315D01*
X3141143Y7022456D01*
X3143962Y7022597D01*
X3146499Y7022738D01*
X3189354D01*
Y6925187D01*
D02*
G37*
G36*
X2885846Y7006244D02*
X2856947D01*
Y6925187D01*
X2837211D01*
Y7006244D01*
X2808453D01*
Y7022738D01*
X2885846D01*
Y7006244D01*
D02*
G37*
G36*
X3052190Y7024429D02*
X3056279Y7024007D01*
X3059803Y7023302D01*
X3062904Y7022597D01*
X3064173Y7022174D01*
X3065442Y7021892D01*
X3066428Y7021610D01*
X3067274Y7021187D01*
X3067979Y7021046D01*
X3068543Y7020764D01*
X3068825Y7020623D01*
X3068966D01*
X3071503Y7019495D01*
X3073900Y7018086D01*
X3076014Y7016535D01*
X3077847Y7015125D01*
X3079398Y7013857D01*
X3080666Y7012729D01*
X3081371Y7012024D01*
X3081512Y7011883D01*
X3081653Y7011742D01*
X3083627Y7009487D01*
X3085459Y7007090D01*
X3087010Y7004976D01*
X3088279Y7002861D01*
X3089266Y7001028D01*
X3090111Y6999619D01*
X3090252Y6999055D01*
X3090534Y6998632D01*
X3090675Y6998491D01*
Y6998350D01*
X3092085Y6994403D01*
X3093213Y6990174D01*
X3093918Y6985945D01*
X3094481Y6981997D01*
X3094622Y6980165D01*
X3094763Y6978473D01*
X3094904Y6977064D01*
Y6975795D01*
X3095045Y6974667D01*
Y6973962D01*
Y6973398D01*
Y6973257D01*
X3094904Y6969028D01*
X3094481Y6964940D01*
X3093918Y6961134D01*
X3093072Y6957610D01*
X3092085Y6954367D01*
X3090957Y6951407D01*
X3089829Y6948588D01*
X3088561Y6946191D01*
X3087433Y6943936D01*
X3086305Y6942103D01*
X3085177Y6940411D01*
X3084191Y6939002D01*
X3083345Y6938015D01*
X3082781Y6937169D01*
X3082358Y6936746D01*
X3082217Y6936605D01*
X3079680Y6934209D01*
X3077001Y6932235D01*
X3074323Y6930402D01*
X3071362Y6928993D01*
X3068543Y6927724D01*
X3065583Y6926596D01*
X3062904Y6925750D01*
X3060085Y6925046D01*
X3057547Y6924482D01*
X3055151Y6924059D01*
X3053036Y6923777D01*
X3051204Y6923636D01*
X3049794Y6923495D01*
X3048666Y6923354D01*
X3047679D01*
X3043732Y6923495D01*
X3040067Y6923918D01*
X3036543Y6924623D01*
X3033301Y6925468D01*
X3030199Y6926455D01*
X3027380Y6927583D01*
X3024842Y6928711D01*
X3022446Y6929980D01*
X3020472Y6931248D01*
X3018640Y6932376D01*
X3017089Y6933504D01*
X3015820Y6934491D01*
X3014692Y6935336D01*
X3013988Y6936041D01*
X3013565Y6936464D01*
X3013424Y6936605D01*
X3011168Y6939284D01*
X3009195Y6942103D01*
X3007362Y6945063D01*
X3005952Y6948024D01*
X3004684Y6951125D01*
X3003556Y6954226D01*
X3002710Y6957328D01*
X3002005Y6960288D01*
X3001582Y6962967D01*
X3001159Y6965645D01*
X3000877Y6967900D01*
X3000595Y6969874D01*
Y6971566D01*
X3000455Y6972834D01*
Y6973539D01*
Y6973821D01*
X3000595Y6978191D01*
X3001018Y6982279D01*
X3001582Y6986086D01*
X3002428Y6989751D01*
X3003415Y6992993D01*
X3004543Y6996094D01*
X3005670Y6998914D01*
X3006939Y7001310D01*
X3008208Y7003566D01*
X3009336Y7005539D01*
X3010463Y7007231D01*
X3011450Y7008641D01*
X3012155Y7009628D01*
X3012860Y7010473D01*
X3013283Y7010896D01*
X3013424Y7011037D01*
X3015961Y7013434D01*
X3018640Y7015548D01*
X3021459Y7017381D01*
X3024278Y7018932D01*
X3027239Y7020200D01*
X3030058Y7021328D01*
X3032878Y7022174D01*
X3035556Y7022879D01*
X3038093Y7023443D01*
X3040490Y7023866D01*
X3042605Y7024147D01*
X3044437Y7024429D01*
X3045847D01*
X3046975Y7024570D01*
X3047961D01*
X3052190Y7024429D01*
D02*
G37*
G36*
X2946181D02*
X2950269Y7024007D01*
X2953793Y7023302D01*
X2956895Y7022597D01*
X2958164Y7022174D01*
X2959432Y7021892D01*
X2960419Y7021610D01*
X2961265Y7021187D01*
X2961970Y7021046D01*
X2962534Y7020764D01*
X2962816Y7020623D01*
X2962956D01*
X2965494Y7019495D01*
X2967890Y7018086D01*
X2970005Y7016535D01*
X2971838Y7015125D01*
X2973388Y7013857D01*
X2974657Y7012729D01*
X2975362Y7012024D01*
X2975503Y7011883D01*
X2975644Y7011742D01*
X2977617Y7009487D01*
X2979450Y7007090D01*
X2981001Y7004976D01*
X2982269Y7002861D01*
X2983256Y7001028D01*
X2984102Y6999619D01*
X2984243Y6999055D01*
X2984525Y6998632D01*
X2984666Y6998491D01*
Y6998350D01*
X2986076Y6994403D01*
X2987203Y6990174D01*
X2987908Y6985945D01*
X2988472Y6981997D01*
X2988613Y6980165D01*
X2988754Y6978473D01*
X2988895Y6977064D01*
Y6975795D01*
X2989036Y6974667D01*
Y6973962D01*
Y6973398D01*
Y6973257D01*
X2988895Y6969028D01*
X2988472Y6964940D01*
X2987908Y6961134D01*
X2987062Y6957610D01*
X2986076Y6954367D01*
X2984948Y6951407D01*
X2983820Y6948588D01*
X2982551Y6946191D01*
X2981424Y6943936D01*
X2980296Y6942103D01*
X2979168Y6940411D01*
X2978181Y6939002D01*
X2977335Y6938015D01*
X2976772Y6937169D01*
X2976349Y6936746D01*
X2976208Y6936605D01*
X2973670Y6934209D01*
X2970992Y6932235D01*
X2968313Y6930402D01*
X2965353Y6928993D01*
X2962534Y6927724D01*
X2959573Y6926596D01*
X2956895Y6925750D01*
X2954075Y6925046D01*
X2951538Y6924482D01*
X2949141Y6924059D01*
X2947027Y6923777D01*
X2945194Y6923636D01*
X2943785Y6923495D01*
X2942657Y6923354D01*
X2941670D01*
X2937723Y6923495D01*
X2934058Y6923918D01*
X2930533Y6924623D01*
X2927291Y6925468D01*
X2924190Y6926455D01*
X2921370Y6927583D01*
X2918833Y6928711D01*
X2916436Y6929980D01*
X2914463Y6931248D01*
X2912630Y6932376D01*
X2911080Y6933504D01*
X2909811Y6934491D01*
X2908683Y6935336D01*
X2907978Y6936041D01*
X2907555Y6936464D01*
X2907414Y6936605D01*
X2905159Y6939284D01*
X2903185Y6942103D01*
X2901353Y6945063D01*
X2899943Y6948024D01*
X2898674Y6951125D01*
X2897546Y6954226D01*
X2896701Y6957328D01*
X2895996Y6960288D01*
X2895573Y6962967D01*
X2895150Y6965645D01*
X2894868Y6967900D01*
X2894586Y6969874D01*
Y6971566D01*
X2894445Y6972834D01*
Y6973539D01*
Y6973821D01*
X2894586Y6978191D01*
X2895009Y6982279D01*
X2895573Y6986086D01*
X2896419Y6989751D01*
X2897405Y6992993D01*
X2898533Y6996094D01*
X2899661Y6998914D01*
X2900930Y7001310D01*
X2902198Y7003566D01*
X2903326Y7005539D01*
X2904454Y7007231D01*
X2905441Y7008641D01*
X2906146Y7009628D01*
X2906850Y7010473D01*
X2907273Y7010896D01*
X2907414Y7011037D01*
X2909952Y7013434D01*
X2912630Y7015548D01*
X2915450Y7017381D01*
X2918269Y7018932D01*
X2921229Y7020200D01*
X2924049Y7021328D01*
X2926868Y7022174D01*
X2929547Y7022879D01*
X2932084Y7023443D01*
X2934481Y7023866D01*
X2936595Y7024147D01*
X2938428Y7024429D01*
X2939837D01*
X2940965Y7024570D01*
X2941952D01*
X2946181Y7024429D01*
D02*
G37*
G36*
X3747137Y6585575D02*
X3749816Y6585293D01*
X3752353Y6584729D01*
X3754468Y6584165D01*
X3756159Y6583601D01*
X3757569Y6583037D01*
X3758415Y6582755D01*
X3758556Y6582614D01*
X3758697D01*
X3760952Y6581346D01*
X3763067Y6579936D01*
X3764759Y6578526D01*
X3766168Y6577258D01*
X3767296Y6575989D01*
X3768142Y6575002D01*
X3768706Y6574438D01*
X3768847Y6574156D01*
X3770115Y6572042D01*
X3771243Y6569786D01*
X3772089Y6567390D01*
X3772935Y6565134D01*
X3773499Y6563020D01*
X3773922Y6561469D01*
X3774063Y6560764D01*
Y6560341D01*
X3774204Y6560059D01*
Y6559918D01*
X3757005Y6557099D01*
X3756582Y6559354D01*
X3756018Y6561328D01*
X3755455Y6563020D01*
X3754750Y6564288D01*
X3754045Y6565416D01*
X3753481Y6566262D01*
X3753058Y6566685D01*
X3752917Y6566826D01*
X3751648Y6567954D01*
X3750239Y6568799D01*
X3748829Y6569363D01*
X3747560Y6569786D01*
X3746432Y6570068D01*
X3745587Y6570209D01*
X3744741D01*
X3743049Y6570068D01*
X3741358Y6569786D01*
X3740089Y6569222D01*
X3738961Y6568799D01*
X3737974Y6568236D01*
X3737410Y6567672D01*
X3736987Y6567390D01*
X3736846Y6567249D01*
X3735860Y6566121D01*
X3735155Y6564711D01*
X3734591Y6563443D01*
X3734309Y6562174D01*
X3734027Y6561046D01*
X3733886Y6560200D01*
Y6559636D01*
Y6559354D01*
X3734027Y6557240D01*
X3734450Y6555407D01*
X3735155Y6553857D01*
X3735860Y6552588D01*
X3736706Y6551460D01*
X3737269Y6550755D01*
X3737833Y6550191D01*
X3737974Y6550050D01*
X3739666Y6548923D01*
X3741498Y6548077D01*
X3743472Y6547513D01*
X3745305Y6547090D01*
X3746996Y6546949D01*
X3748406Y6546808D01*
X3749675D01*
X3751648Y6531724D01*
X3749816Y6532147D01*
X3748265Y6532570D01*
X3746714Y6532852D01*
X3745446Y6532993D01*
X3744459Y6533134D01*
X3743049D01*
X3741076Y6532993D01*
X3739384Y6532429D01*
X3737833Y6531865D01*
X3736424Y6531019D01*
X3735437Y6530315D01*
X3734591Y6529610D01*
X3734027Y6529046D01*
X3733886Y6528905D01*
X3732617Y6527213D01*
X3731631Y6525381D01*
X3730926Y6523548D01*
X3730362Y6521715D01*
X3730080Y6520024D01*
X3729939Y6518755D01*
Y6517909D01*
Y6517768D01*
Y6517627D01*
X3730080Y6514949D01*
X3730503Y6512552D01*
X3731208Y6510438D01*
X3731913Y6508746D01*
X3732758Y6507477D01*
X3733322Y6506491D01*
X3733886Y6505786D01*
X3734027Y6505645D01*
X3735578Y6504235D01*
X3737269Y6503107D01*
X3738820Y6502403D01*
X3740371Y6501839D01*
X3741780Y6501557D01*
X3742767Y6501416D01*
X3743472Y6501275D01*
X3743754D01*
X3745728Y6501416D01*
X3747419Y6501839D01*
X3748970Y6502403D01*
X3750380Y6503107D01*
X3751366Y6503671D01*
X3752212Y6504235D01*
X3752776Y6504658D01*
X3752917Y6504799D01*
X3754186Y6506350D01*
X3755314Y6508041D01*
X3756018Y6509874D01*
X3756723Y6511566D01*
X3757146Y6513116D01*
X3757428Y6514385D01*
X3757569Y6515231D01*
Y6515372D01*
Y6515513D01*
X3775613Y6513257D01*
X3775331Y6511002D01*
X3774767Y6508887D01*
X3773499Y6504940D01*
X3771948Y6501557D01*
X3770961Y6500147D01*
X3770115Y6498737D01*
X3769270Y6497469D01*
X3768424Y6496482D01*
X3767719Y6495495D01*
X3767014Y6494790D01*
X3766450Y6494226D01*
X3766027Y6493803D01*
X3765745Y6493521D01*
X3765604Y6493380D01*
X3763913Y6492112D01*
X3762080Y6490843D01*
X3760388Y6489856D01*
X3758415Y6489010D01*
X3754750Y6487601D01*
X3751366Y6486755D01*
X3749675Y6486473D01*
X3748265Y6486191D01*
X3746996Y6486050D01*
X3745869Y6485909D01*
X3744882Y6485768D01*
X3743613D01*
X3741076Y6485909D01*
X3738538Y6486191D01*
X3736283Y6486614D01*
X3734027Y6487178D01*
X3732053Y6487883D01*
X3730080Y6488587D01*
X3728247Y6489433D01*
X3726697Y6490279D01*
X3725287Y6491125D01*
X3723877Y6491971D01*
X3722890Y6492676D01*
X3721904Y6493380D01*
X3721199Y6493944D01*
X3720635Y6494367D01*
X3720353Y6494649D01*
X3720212Y6494790D01*
X3718520Y6496482D01*
X3717111Y6498314D01*
X3715842Y6500147D01*
X3714714Y6501980D01*
X3713868Y6503953D01*
X3713023Y6505786D01*
X3711895Y6509169D01*
X3711613Y6510720D01*
X3711331Y6512270D01*
X3711049Y6513539D01*
X3710908Y6514667D01*
X3710767Y6515513D01*
Y6516218D01*
Y6516641D01*
Y6516781D01*
X3711049Y6520024D01*
X3711613Y6522843D01*
X3712318Y6525522D01*
X3713304Y6527636D01*
X3714291Y6529469D01*
X3714996Y6530738D01*
X3715560Y6531583D01*
X3715842Y6531865D01*
X3717816Y6533980D01*
X3720071Y6535812D01*
X3722327Y6537222D01*
X3724441Y6538350D01*
X3726274Y6539196D01*
X3727824Y6539619D01*
X3728388Y6539901D01*
X3728811D01*
X3729093Y6540042D01*
X3729234D01*
X3726697Y6541592D01*
X3724582Y6543143D01*
X3722749Y6544835D01*
X3721058Y6546526D01*
X3719648Y6548218D01*
X3718520Y6549909D01*
X3717675Y6551601D01*
X3716829Y6553152D01*
X3716265Y6554702D01*
X3715842Y6556112D01*
X3715560Y6557381D01*
X3715419Y6558509D01*
X3715278Y6559354D01*
X3715137Y6560059D01*
Y6560482D01*
Y6560623D01*
X3715278Y6562315D01*
X3715419Y6563865D01*
X3716265Y6566967D01*
X3717252Y6569786D01*
X3718520Y6572183D01*
X3719789Y6574156D01*
X3720917Y6575566D01*
X3721340Y6576130D01*
X3721763Y6576553D01*
X3721904Y6576694D01*
X3722045Y6576835D01*
X3723595Y6578385D01*
X3725428Y6579795D01*
X3727120Y6580923D01*
X3728952Y6581910D01*
X3730926Y6582896D01*
X3732758Y6583601D01*
X3736283Y6584588D01*
X3737833Y6585011D01*
X3739384Y6585293D01*
X3740653Y6585434D01*
X3741921Y6585575D01*
X3742908Y6585716D01*
X3744177D01*
X3747137Y6585575D01*
D02*
G37*
G36*
X3885852Y6487601D02*
X3864424D01*
X3844970Y6560482D01*
X3825799Y6487601D01*
X3804512D01*
X3780970Y6585152D01*
X3800847D01*
X3815790Y6516922D01*
X3832706Y6585152D01*
X3856389D01*
X3874151Y6518050D01*
X3888812Y6585152D01*
X3908971D01*
X3885852Y6487601D01*
D02*
G37*
G36*
X3960425Y6586844D02*
X3964090Y6586421D01*
X3967332Y6585857D01*
X3970152Y6585293D01*
X3971421Y6584870D01*
X3972548Y6584588D01*
X3973394Y6584306D01*
X3974240Y6584024D01*
X3974804Y6583742D01*
X3975227Y6583601D01*
X3975509Y6583460D01*
X3975650D01*
X3978469Y6582051D01*
X3980866Y6580500D01*
X3982980Y6578808D01*
X3984672Y6577258D01*
X3986081Y6575848D01*
X3986927Y6574720D01*
X3987632Y6573874D01*
X3987773Y6573733D01*
Y6573592D01*
X3989183Y6571196D01*
X3990170Y6568658D01*
X3990874Y6566262D01*
X3991297Y6564147D01*
X3991579Y6562315D01*
X3991861Y6560905D01*
Y6560341D01*
Y6559918D01*
Y6559777D01*
Y6559636D01*
X3991720Y6557522D01*
X3991438Y6555407D01*
X3991015Y6553575D01*
X3990452Y6551742D01*
X3989042Y6548359D01*
X3987350Y6545398D01*
X3986645Y6544130D01*
X3985799Y6543143D01*
X3985095Y6542156D01*
X3984390Y6541310D01*
X3983826Y6540746D01*
X3983403Y6540323D01*
X3983121Y6540042D01*
X3982980Y6539901D01*
X3981711Y6538914D01*
X3980161Y6537927D01*
X3978610Y6536940D01*
X3976777Y6536094D01*
X3973253Y6534403D01*
X3969588Y6532993D01*
X3967755Y6532429D01*
X3966205Y6531865D01*
X3964654Y6531442D01*
X3963385Y6531019D01*
X3962398Y6530738D01*
X3961553Y6530456D01*
X3960989Y6530315D01*
X3960848D01*
X3958592Y6529751D01*
X3956619Y6529187D01*
X3954786Y6528764D01*
X3953094Y6528341D01*
X3951685Y6527918D01*
X3950416Y6527636D01*
X3949288Y6527213D01*
X3948301Y6526931D01*
X3947456Y6526790D01*
X3946751Y6526508D01*
X3945764Y6526226D01*
X3945200Y6525945D01*
X3945059D01*
X3943227Y6525240D01*
X3941817Y6524535D01*
X3940548Y6523830D01*
X3939561Y6523125D01*
X3938856Y6522561D01*
X3938434Y6522138D01*
X3938152Y6521856D01*
X3938011Y6521715D01*
X3937306Y6520729D01*
X3936742Y6519742D01*
X3936460Y6518755D01*
X3936178Y6517909D01*
X3936037Y6517063D01*
X3935896Y6516359D01*
Y6515936D01*
Y6515795D01*
X3936037Y6513821D01*
X3936601Y6512129D01*
X3937447Y6510438D01*
X3938293Y6509028D01*
X3939279Y6507900D01*
X3939984Y6507055D01*
X3940548Y6506491D01*
X3940830Y6506350D01*
X3942804Y6505081D01*
X3945059Y6504094D01*
X3947456Y6503389D01*
X3949711Y6502966D01*
X3951826Y6502684D01*
X3953517Y6502403D01*
X3955068D01*
X3958310Y6502544D01*
X3961130Y6503107D01*
X3963526Y6503812D01*
X3965641Y6504658D01*
X3967332Y6505504D01*
X3968460Y6506209D01*
X3969165Y6506773D01*
X3969447Y6506914D01*
X3971280Y6508887D01*
X3972689Y6511002D01*
X3973958Y6513398D01*
X3974804Y6515795D01*
X3975509Y6517909D01*
X3976073Y6519601D01*
X3976214Y6520165D01*
Y6520729D01*
X3976355Y6521011D01*
Y6521152D01*
X3995526Y6519319D01*
X3995104Y6516359D01*
X3994540Y6513539D01*
X3993694Y6510861D01*
X3992989Y6508464D01*
X3992002Y6506209D01*
X3991015Y6504094D01*
X3990029Y6502262D01*
X3989042Y6500570D01*
X3988055Y6499160D01*
X3987068Y6497892D01*
X3986222Y6496764D01*
X3985377Y6495777D01*
X3984813Y6495072D01*
X3984249Y6494649D01*
X3983967Y6494367D01*
X3983826Y6494226D01*
X3981852Y6492676D01*
X3979738Y6491407D01*
X3977482Y6490279D01*
X3975086Y6489292D01*
X3972830Y6488587D01*
X3970434Y6487883D01*
X3965782Y6486896D01*
X3963667Y6486473D01*
X3961694Y6486191D01*
X3960002Y6486050D01*
X3958451Y6485909D01*
X3957183Y6485768D01*
X3955350D01*
X3950839Y6485909D01*
X3946751Y6486332D01*
X3943086Y6486896D01*
X3941535Y6487178D01*
X3939984Y6487601D01*
X3938716Y6487883D01*
X3937588Y6488165D01*
X3936601Y6488447D01*
X3935755Y6488728D01*
X3935050Y6489010D01*
X3934627Y6489151D01*
X3934345Y6489292D01*
X3934204D01*
X3931103Y6490843D01*
X3928566Y6492535D01*
X3926169Y6494226D01*
X3924337Y6496059D01*
X3922927Y6497610D01*
X3921799Y6499019D01*
X3921235Y6499865D01*
X3920953Y6500006D01*
Y6500147D01*
X3919403Y6502966D01*
X3918134Y6505645D01*
X3917288Y6508323D01*
X3916724Y6510861D01*
X3916442Y6512834D01*
X3916301Y6513821D01*
X3916160Y6514526D01*
Y6515090D01*
Y6515513D01*
Y6515795D01*
Y6515936D01*
X3916301Y6519319D01*
X3916724Y6522279D01*
X3917429Y6524958D01*
X3918134Y6527213D01*
X3918839Y6529046D01*
X3919544Y6530315D01*
X3919967Y6531160D01*
X3920107Y6531442D01*
X3921658Y6533698D01*
X3923491Y6535671D01*
X3925323Y6537363D01*
X3927015Y6538773D01*
X3928566Y6539901D01*
X3929834Y6540746D01*
X3930680Y6541310D01*
X3930821Y6541451D01*
X3930962D01*
X3932372Y6542156D01*
X3933782Y6542861D01*
X3937165Y6544130D01*
X3940689Y6545257D01*
X3944072Y6546385D01*
X3945623Y6546808D01*
X3947174Y6547231D01*
X3948583Y6547654D01*
X3949711Y6547936D01*
X3950698Y6548218D01*
X3951403Y6548359D01*
X3951967Y6548500D01*
X3952108D01*
X3954645Y6549205D01*
X3956901Y6549768D01*
X3959015Y6550332D01*
X3960989Y6550896D01*
X3962539Y6551460D01*
X3964090Y6552024D01*
X3965359Y6552588D01*
X3966487Y6553011D01*
X3967473Y6553434D01*
X3968178Y6553857D01*
X3968883Y6554139D01*
X3969306Y6554420D01*
X3970011Y6554843D01*
X3970152Y6554984D01*
X3971139Y6555971D01*
X3971843Y6556958D01*
X3972266Y6557945D01*
X3972548Y6558932D01*
X3972830Y6559636D01*
X3972971Y6560341D01*
Y6560764D01*
Y6560905D01*
X3972830Y6562315D01*
X3972548Y6563443D01*
X3971984Y6564570D01*
X3971421Y6565416D01*
X3970857Y6566121D01*
X3970293Y6566544D01*
X3970011Y6566826D01*
X3969870Y6566967D01*
X3967896Y6568236D01*
X3965782Y6569081D01*
X3963526Y6569786D01*
X3961412Y6570209D01*
X3959579Y6570491D01*
X3958028Y6570632D01*
X3956619D01*
X3953658Y6570491D01*
X3951121Y6570068D01*
X3949006Y6569504D01*
X3947315Y6568940D01*
X3945905Y6568377D01*
X3944918Y6567813D01*
X3944354Y6567390D01*
X3944213Y6567249D01*
X3942804Y6565839D01*
X3941535Y6564147D01*
X3940548Y6562456D01*
X3939843Y6560623D01*
X3939279Y6559072D01*
X3938997Y6557804D01*
X3938716Y6556817D01*
Y6556676D01*
Y6556535D01*
X3918980Y6557240D01*
X3919121Y6559777D01*
X3919544Y6562033D01*
X3920107Y6564288D01*
X3920812Y6566262D01*
X3921517Y6568236D01*
X3922363Y6570068D01*
X3923209Y6571619D01*
X3924055Y6573169D01*
X3925041Y6574438D01*
X3925887Y6575566D01*
X3926733Y6576553D01*
X3927438Y6577399D01*
X3928002Y6577962D01*
X3928425Y6578385D01*
X3928707Y6578667D01*
X3928848Y6578808D01*
X3930680Y6580218D01*
X3932654Y6581487D01*
X3934768Y6582614D01*
X3937024Y6583601D01*
X3939279Y6584306D01*
X3941535Y6585011D01*
X3946046Y6585998D01*
X3948161Y6586280D01*
X3949993Y6586562D01*
X3951826Y6586703D01*
X3953376Y6586844D01*
X3954645Y6586985D01*
X3956337D01*
X3960425Y6586844D01*
D02*
G37*
G36*
X2887768Y6248848D02*
X2890023Y6248707D01*
X2894393Y6248002D01*
X2898058Y6246874D01*
X2899750Y6246311D01*
X2901301Y6245606D01*
X2902710Y6245042D01*
X2903838Y6244337D01*
X2904966Y6243773D01*
X2905812Y6243350D01*
X2906517Y6242786D01*
X2906940Y6242504D01*
X2907222Y6242363D01*
X2907362Y6242222D01*
X2908913Y6240813D01*
X2910323Y6239403D01*
X2911592Y6237711D01*
X2912719Y6235879D01*
X2914411Y6232214D01*
X2915821Y6228689D01*
X2916244Y6226857D01*
X2916667Y6225306D01*
X2917089Y6223896D01*
X2917230Y6222628D01*
X2917512Y6221500D01*
Y6220795D01*
X2917653Y6220231D01*
Y6220090D01*
X2899045Y6218258D01*
X2898763Y6221077D01*
X2898199Y6223473D01*
X2897636Y6225588D01*
X2896931Y6227139D01*
X2896367Y6228407D01*
X2895803Y6229253D01*
X2895380Y6229817D01*
X2895239Y6229958D01*
X2893829Y6231086D01*
X2892279Y6231932D01*
X2890728Y6232637D01*
X2889177Y6233059D01*
X2887909Y6233341D01*
X2886781Y6233482D01*
X2885794D01*
X2883680Y6233341D01*
X2881847Y6232918D01*
X2880296Y6232355D01*
X2878887Y6231791D01*
X2877900Y6231227D01*
X2877054Y6230663D01*
X2876631Y6230240D01*
X2876490Y6230099D01*
X2875362Y6228689D01*
X2874516Y6227139D01*
X2873953Y6225588D01*
X2873530Y6224037D01*
X2873248Y6222628D01*
X2873107Y6221359D01*
Y6220654D01*
Y6220513D01*
Y6220372D01*
X2873248Y6218258D01*
X2873671Y6216284D01*
X2874376Y6214310D01*
X2875080Y6212619D01*
X2875785Y6211068D01*
X2876490Y6209940D01*
X2876913Y6209235D01*
X2877054Y6208954D01*
X2877618Y6208108D01*
X2878464Y6207121D01*
X2879591Y6205852D01*
X2880719Y6204724D01*
X2883257Y6202046D01*
X2885794Y6199368D01*
X2888332Y6196830D01*
X2889459Y6195702D01*
X2890587Y6194857D01*
X2891433Y6194011D01*
X2891997Y6193447D01*
X2892420Y6193024D01*
X2892561Y6192883D01*
X2895380Y6190205D01*
X2897917Y6187667D01*
X2900314Y6185271D01*
X2902429Y6183156D01*
X2904402Y6181041D01*
X2906094Y6179068D01*
X2907644Y6177376D01*
X2908913Y6175685D01*
X2910041Y6174275D01*
X2911028Y6173006D01*
X2911874Y6172019D01*
X2912437Y6171033D01*
X2913001Y6170469D01*
X2913283Y6169905D01*
X2913565Y6169623D01*
Y6169482D01*
X2915398Y6166240D01*
X2916807Y6162856D01*
X2917935Y6159755D01*
X2918781Y6156936D01*
X2919345Y6154398D01*
X2919486Y6153411D01*
X2919627Y6152566D01*
X2919768Y6151861D01*
X2919909Y6151297D01*
Y6151015D01*
Y6150874D01*
X2854358D01*
Y6168213D01*
X2891574D01*
X2890446Y6170046D01*
X2889177Y6171596D01*
X2888613Y6172301D01*
X2888191Y6172865D01*
X2887909Y6173147D01*
X2887768Y6173288D01*
X2887204Y6173852D01*
X2886640Y6174557D01*
X2884948Y6176108D01*
X2883116Y6177940D01*
X2881283Y6179773D01*
X2879450Y6181464D01*
X2877900Y6182874D01*
X2877336Y6183438D01*
X2876913Y6183861D01*
X2876631Y6184002D01*
X2876490Y6184143D01*
X2873389Y6187103D01*
X2870851Y6189500D01*
X2868737Y6191755D01*
X2867045Y6193447D01*
X2865776Y6194857D01*
X2864931Y6195843D01*
X2864367Y6196548D01*
X2864226Y6196689D01*
X2862393Y6199086D01*
X2860842Y6201341D01*
X2859574Y6203456D01*
X2858587Y6205288D01*
X2857741Y6206839D01*
X2857177Y6208108D01*
X2856895Y6208813D01*
X2856754Y6209095D01*
X2855908Y6211350D01*
X2855345Y6213606D01*
X2854922Y6215720D01*
X2854640Y6217694D01*
X2854499Y6219244D01*
X2854358Y6220513D01*
Y6221359D01*
Y6221641D01*
X2854499Y6223755D01*
X2854781Y6225870D01*
X2855063Y6227844D01*
X2855626Y6229676D01*
X2857036Y6232918D01*
X2858446Y6235738D01*
X2859292Y6237007D01*
X2859997Y6237993D01*
X2860701Y6238980D01*
X2861406Y6239685D01*
X2861970Y6240249D01*
X2862252Y6240813D01*
X2862534Y6240954D01*
X2862675Y6241095D01*
X2864226Y6242504D01*
X2866058Y6243773D01*
X2867750Y6244760D01*
X2869723Y6245606D01*
X2873389Y6247015D01*
X2877054Y6248002D01*
X2878746Y6248284D01*
X2880296Y6248566D01*
X2881706Y6248707D01*
X2882975Y6248848D01*
X2883961Y6248989D01*
X2885371D01*
X2887768Y6248848D01*
D02*
G37*
G36*
X3028456Y6150874D02*
X3007028D01*
X2987574Y6223755D01*
X2968402Y6150874D01*
X2947116D01*
X2923574Y6248425D01*
X2943451D01*
X2958394Y6180196D01*
X2975310Y6248425D01*
X2998993D01*
X3016755Y6181323D01*
X3031416Y6248425D01*
X3051575D01*
X3028456Y6150874D01*
D02*
G37*
G36*
X3103029Y6250117D02*
X3106694Y6249694D01*
X3109936Y6249130D01*
X3112756Y6248566D01*
X3114025Y6248143D01*
X3115152Y6247861D01*
X3115998Y6247579D01*
X3116844Y6247297D01*
X3117408Y6247015D01*
X3117831Y6246874D01*
X3118113Y6246734D01*
X3118254D01*
X3121073Y6245324D01*
X3123469Y6243773D01*
X3125584Y6242081D01*
X3127276Y6240531D01*
X3128685Y6239121D01*
X3129531Y6237993D01*
X3130236Y6237148D01*
X3130377Y6237007D01*
Y6236866D01*
X3131787Y6234469D01*
X3132774Y6231932D01*
X3133478Y6229535D01*
X3133901Y6227421D01*
X3134183Y6225588D01*
X3134465Y6224178D01*
Y6223614D01*
Y6223192D01*
Y6223051D01*
Y6222910D01*
X3134324Y6220795D01*
X3134042Y6218680D01*
X3133619Y6216848D01*
X3133055Y6215015D01*
X3131646Y6211632D01*
X3129954Y6208672D01*
X3129249Y6207403D01*
X3128403Y6206416D01*
X3127699Y6205429D01*
X3126994Y6204583D01*
X3126430Y6204020D01*
X3126007Y6203597D01*
X3125725Y6203315D01*
X3125584Y6203174D01*
X3124315Y6202187D01*
X3122765Y6201200D01*
X3121214Y6200213D01*
X3119381Y6199368D01*
X3115857Y6197676D01*
X3112192Y6196266D01*
X3110359Y6195702D01*
X3108809Y6195138D01*
X3107258Y6194716D01*
X3105989Y6194293D01*
X3105002Y6194011D01*
X3104157Y6193729D01*
X3103593Y6193588D01*
X3103452D01*
X3101196Y6193024D01*
X3099223Y6192460D01*
X3097390Y6192037D01*
X3095698Y6191614D01*
X3094289Y6191191D01*
X3093020Y6190909D01*
X3091892Y6190486D01*
X3090905Y6190205D01*
X3090060Y6190064D01*
X3089355Y6189782D01*
X3088368Y6189500D01*
X3087804Y6189218D01*
X3087663D01*
X3085831Y6188513D01*
X3084421Y6187808D01*
X3083152Y6187103D01*
X3082165Y6186398D01*
X3081460Y6185834D01*
X3081038Y6185412D01*
X3080756Y6185130D01*
X3080615Y6184989D01*
X3079910Y6184002D01*
X3079346Y6183015D01*
X3079064Y6182028D01*
X3078782Y6181182D01*
X3078641Y6180337D01*
X3078500Y6179632D01*
Y6179209D01*
Y6179068D01*
X3078641Y6177094D01*
X3079205Y6175403D01*
X3080051Y6173711D01*
X3080897Y6172301D01*
X3081883Y6171174D01*
X3082588Y6170328D01*
X3083152Y6169764D01*
X3083434Y6169623D01*
X3085408Y6168354D01*
X3087663Y6167367D01*
X3090060Y6166663D01*
X3092315Y6166240D01*
X3094430Y6165958D01*
X3096121Y6165676D01*
X3097672D01*
X3100914Y6165817D01*
X3103734Y6166381D01*
X3106130Y6167085D01*
X3108245Y6167931D01*
X3109936Y6168777D01*
X3111064Y6169482D01*
X3111769Y6170046D01*
X3112051Y6170187D01*
X3113884Y6172160D01*
X3115293Y6174275D01*
X3116562Y6176671D01*
X3117408Y6179068D01*
X3118113Y6181182D01*
X3118677Y6182874D01*
X3118817Y6183438D01*
Y6184002D01*
X3118958Y6184284D01*
Y6184425D01*
X3138130Y6182592D01*
X3137707Y6179632D01*
X3137144Y6176812D01*
X3136298Y6174134D01*
X3135593Y6171737D01*
X3134606Y6169482D01*
X3133619Y6167367D01*
X3132633Y6165535D01*
X3131646Y6163843D01*
X3130659Y6162433D01*
X3129672Y6161165D01*
X3128826Y6160037D01*
X3127981Y6159050D01*
X3127417Y6158345D01*
X3126853Y6157922D01*
X3126571Y6157640D01*
X3126430Y6157499D01*
X3124456Y6155949D01*
X3122342Y6154680D01*
X3120086Y6153552D01*
X3117690Y6152566D01*
X3115434Y6151861D01*
X3113038Y6151156D01*
X3108386Y6150169D01*
X3106271Y6149746D01*
X3104298Y6149464D01*
X3102606Y6149323D01*
X3101055Y6149182D01*
X3099787Y6149041D01*
X3097954D01*
X3093443Y6149182D01*
X3089355Y6149605D01*
X3085690Y6150169D01*
X3084139Y6150451D01*
X3082588Y6150874D01*
X3081319Y6151156D01*
X3080192Y6151438D01*
X3079205Y6151720D01*
X3078359Y6152002D01*
X3077654Y6152284D01*
X3077231Y6152425D01*
X3076949Y6152566D01*
X3076808D01*
X3073707Y6154116D01*
X3071170Y6155808D01*
X3068773Y6157499D01*
X3066941Y6159332D01*
X3065531Y6160883D01*
X3064403Y6162292D01*
X3063839Y6163138D01*
X3063557Y6163279D01*
Y6163420D01*
X3062007Y6166240D01*
X3060738Y6168918D01*
X3059892Y6171596D01*
X3059328Y6174134D01*
X3059046Y6176108D01*
X3058905Y6177094D01*
X3058764Y6177799D01*
Y6178363D01*
Y6178786D01*
Y6179068D01*
Y6179209D01*
X3058905Y6182592D01*
X3059328Y6185553D01*
X3060033Y6188231D01*
X3060738Y6190486D01*
X3061443Y6192319D01*
X3062148Y6193588D01*
X3062570Y6194434D01*
X3062711Y6194716D01*
X3064262Y6196971D01*
X3066095Y6198945D01*
X3067927Y6200636D01*
X3069619Y6202046D01*
X3071170Y6203174D01*
X3072438Y6204020D01*
X3073284Y6204583D01*
X3073425Y6204724D01*
X3073566D01*
X3074976Y6205429D01*
X3076386Y6206134D01*
X3079769Y6207403D01*
X3083293Y6208531D01*
X3086676Y6209658D01*
X3088227Y6210081D01*
X3089778Y6210504D01*
X3091187Y6210927D01*
X3092315Y6211209D01*
X3093302Y6211491D01*
X3094007Y6211632D01*
X3094571Y6211773D01*
X3094712D01*
X3097249Y6212478D01*
X3099505Y6213042D01*
X3101619Y6213606D01*
X3103593Y6214169D01*
X3105143Y6214733D01*
X3106694Y6215297D01*
X3107963Y6215861D01*
X3109091Y6216284D01*
X3110077Y6216707D01*
X3110782Y6217130D01*
X3111487Y6217412D01*
X3111910Y6217694D01*
X3112615Y6218117D01*
X3112756Y6218258D01*
X3113743Y6219244D01*
X3114447Y6220231D01*
X3114870Y6221218D01*
X3115152Y6222205D01*
X3115434Y6222910D01*
X3115575Y6223614D01*
Y6224037D01*
Y6224178D01*
X3115434Y6225588D01*
X3115152Y6226716D01*
X3114588Y6227844D01*
X3114025Y6228689D01*
X3113461Y6229394D01*
X3112897Y6229817D01*
X3112615Y6230099D01*
X3112474Y6230240D01*
X3110500Y6231509D01*
X3108386Y6232355D01*
X3106130Y6233059D01*
X3104016Y6233482D01*
X3102183Y6233764D01*
X3100632Y6233905D01*
X3099223D01*
X3096262Y6233764D01*
X3093725Y6233341D01*
X3091610Y6232777D01*
X3089919Y6232214D01*
X3088509Y6231650D01*
X3087522Y6231086D01*
X3086958Y6230663D01*
X3086817Y6230522D01*
X3085408Y6229112D01*
X3084139Y6227421D01*
X3083152Y6225729D01*
X3082447Y6223896D01*
X3081883Y6222346D01*
X3081601Y6221077D01*
X3081319Y6220090D01*
Y6219949D01*
Y6219808D01*
X3061584Y6220513D01*
X3061725Y6223051D01*
X3062148Y6225306D01*
X3062711Y6227562D01*
X3063416Y6229535D01*
X3064121Y6231509D01*
X3064967Y6233341D01*
X3065813Y6234892D01*
X3066659Y6236443D01*
X3067645Y6237711D01*
X3068491Y6238839D01*
X3069337Y6239826D01*
X3070042Y6240672D01*
X3070606Y6241236D01*
X3071029Y6241659D01*
X3071311Y6241941D01*
X3071452Y6242081D01*
X3073284Y6243491D01*
X3075258Y6244760D01*
X3077372Y6245888D01*
X3079628Y6246874D01*
X3081883Y6247579D01*
X3084139Y6248284D01*
X3088650Y6249271D01*
X3090764Y6249553D01*
X3092597Y6249835D01*
X3094430Y6249976D01*
X3095980Y6250117D01*
X3097249Y6250258D01*
X3098941D01*
X3103029Y6250117D01*
D02*
G37*
G36*
X4292655Y3577129D02*
X4294487Y3574169D01*
X4296461Y3571349D01*
X4298434Y3569094D01*
X4300126Y3567261D01*
X4301677Y3565852D01*
X4302241Y3565288D01*
X4302663Y3564865D01*
X4302945Y3564724D01*
X4303086Y3564583D01*
X4306188Y3562327D01*
X4309148Y3560354D01*
X4311827Y3558803D01*
X4314223Y3557675D01*
X4316197Y3556830D01*
X4317606Y3556125D01*
X4318170Y3555984D01*
X4318593Y3555843D01*
X4318734Y3555702D01*
X4318875D01*
Y3538785D01*
X4313800Y3540759D01*
X4309289Y3542874D01*
X4307175Y3544001D01*
X4305201Y3545270D01*
X4303368Y3546398D01*
X4301677Y3547526D01*
X4300126Y3548653D01*
X4298716Y3549640D01*
X4297589Y3550486D01*
X4296602Y3551332D01*
X4295756Y3552037D01*
X4295192Y3552459D01*
X4294910Y3552741D01*
X4294769Y3552882D01*
Y3482256D01*
X4276020D01*
Y3580372D01*
X4291245D01*
X4292655Y3577129D01*
D02*
G37*
G36*
X4434752Y3482256D02*
X4413325D01*
X4393871Y3555138D01*
X4374699Y3482256D01*
X4353413D01*
X4329871Y3579808D01*
X4349747D01*
X4364690Y3511578D01*
X4381607Y3579808D01*
X4405290D01*
X4423052Y3512706D01*
X4437713Y3579808D01*
X4457871D01*
X4434752Y3482256D01*
D02*
G37*
G36*
X4509325Y3581499D02*
X4512991Y3581076D01*
X4516233Y3580513D01*
X4519052Y3579949D01*
X4520321Y3579526D01*
X4521449Y3579244D01*
X4522295Y3578962D01*
X4523141Y3578680D01*
X4523704Y3578398D01*
X4524127Y3578257D01*
X4524409Y3578116D01*
X4524550D01*
X4527370Y3576706D01*
X4529766Y3575156D01*
X4531881Y3573464D01*
X4533572Y3571913D01*
X4534982Y3570504D01*
X4535828Y3569376D01*
X4536533Y3568530D01*
X4536674Y3568389D01*
Y3568248D01*
X4538083Y3565852D01*
X4539070Y3563314D01*
X4539775Y3560918D01*
X4540198Y3558803D01*
X4540480Y3556971D01*
X4540762Y3555561D01*
Y3554997D01*
Y3554574D01*
Y3554433D01*
Y3554292D01*
X4540621Y3552178D01*
X4540339Y3550063D01*
X4539916Y3548230D01*
X4539352Y3546398D01*
X4537942Y3543015D01*
X4536251Y3540054D01*
X4535546Y3538785D01*
X4534700Y3537799D01*
X4533995Y3536812D01*
X4533290Y3535966D01*
X4532727Y3535402D01*
X4532304Y3534979D01*
X4532022Y3534697D01*
X4531881Y3534556D01*
X4530612Y3533570D01*
X4529061Y3532583D01*
X4527511Y3531596D01*
X4525678Y3530750D01*
X4522154Y3529058D01*
X4518489Y3527649D01*
X4516656Y3527085D01*
X4515105Y3526521D01*
X4513555Y3526098D01*
X4512286Y3525675D01*
X4511299Y3525393D01*
X4510453Y3525111D01*
X4509889Y3524970D01*
X4509748D01*
X4507493Y3524406D01*
X4505519Y3523843D01*
X4503687Y3523420D01*
X4501995Y3522997D01*
X4500585Y3522574D01*
X4499317Y3522292D01*
X4498189Y3521869D01*
X4497202Y3521587D01*
X4496356Y3521446D01*
X4495651Y3521164D01*
X4494665Y3520882D01*
X4494101Y3520600D01*
X4493960D01*
X4492127Y3519895D01*
X4490717Y3519191D01*
X4489449Y3518486D01*
X4488462Y3517781D01*
X4487757Y3517217D01*
X4487334Y3516794D01*
X4487052Y3516512D01*
X4486911Y3516371D01*
X4486206Y3515384D01*
X4485643Y3514398D01*
X4485361Y3513411D01*
X4485079Y3512565D01*
X4484938Y3511719D01*
X4484797Y3511014D01*
Y3510591D01*
Y3510450D01*
X4484938Y3508477D01*
X4485502Y3506785D01*
X4486347Y3505094D01*
X4487193Y3503684D01*
X4488180Y3502556D01*
X4488885Y3501710D01*
X4489449Y3501146D01*
X4489731Y3501005D01*
X4491704Y3499737D01*
X4493960Y3498750D01*
X4496356Y3498045D01*
X4498612Y3497622D01*
X4500726Y3497340D01*
X4502418Y3497058D01*
X4503969D01*
X4507211Y3497199D01*
X4510030Y3497763D01*
X4512427Y3498468D01*
X4514541Y3499314D01*
X4516233Y3500160D01*
X4517361Y3500864D01*
X4518066Y3501428D01*
X4518348Y3501569D01*
X4520180Y3503543D01*
X4521590Y3505657D01*
X4522859Y3508054D01*
X4523704Y3510450D01*
X4524409Y3512565D01*
X4524973Y3514257D01*
X4525114Y3514821D01*
Y3515384D01*
X4525255Y3515666D01*
Y3515807D01*
X4544427Y3513975D01*
X4544004Y3511014D01*
X4543440Y3508195D01*
X4542594Y3505516D01*
X4541890Y3503120D01*
X4540903Y3500864D01*
X4539916Y3498750D01*
X4538929Y3496917D01*
X4537942Y3495226D01*
X4536956Y3493816D01*
X4535969Y3492547D01*
X4535123Y3491419D01*
X4534277Y3490433D01*
X4533713Y3489728D01*
X4533149Y3489305D01*
X4532867Y3489023D01*
X4532727Y3488882D01*
X4530753Y3487331D01*
X4528638Y3486063D01*
X4526383Y3484935D01*
X4523986Y3483948D01*
X4521731Y3483243D01*
X4519334Y3482538D01*
X4514682Y3481552D01*
X4512568Y3481129D01*
X4510594Y3480847D01*
X4508903Y3480706D01*
X4507352Y3480565D01*
X4506083Y3480424D01*
X4504251D01*
X4499740Y3480565D01*
X4495651Y3480988D01*
X4491986Y3481552D01*
X4490436Y3481834D01*
X4488885Y3482256D01*
X4487616Y3482538D01*
X4486488Y3482820D01*
X4485502Y3483102D01*
X4484656Y3483384D01*
X4483951Y3483666D01*
X4483528Y3483807D01*
X4483246Y3483948D01*
X4483105D01*
X4480004Y3485499D01*
X4477466Y3487190D01*
X4475070Y3488882D01*
X4473237Y3490715D01*
X4471827Y3492265D01*
X4470700Y3493675D01*
X4470136Y3494521D01*
X4469854Y3494662D01*
Y3494803D01*
X4468303Y3497622D01*
X4467034Y3500301D01*
X4466189Y3502979D01*
X4465625Y3505516D01*
X4465343Y3507490D01*
X4465202Y3508477D01*
X4465061Y3509182D01*
Y3509746D01*
Y3510168D01*
Y3510450D01*
Y3510591D01*
X4465202Y3513975D01*
X4465625Y3516935D01*
X4466330Y3519613D01*
X4467034Y3521869D01*
X4467739Y3523702D01*
X4468444Y3524970D01*
X4468867Y3525816D01*
X4469008Y3526098D01*
X4470559Y3528354D01*
X4472391Y3530327D01*
X4474224Y3532019D01*
X4475916Y3533429D01*
X4477466Y3534556D01*
X4478735Y3535402D01*
X4479581Y3535966D01*
X4479722Y3536107D01*
X4479863D01*
X4481272Y3536812D01*
X4482682Y3537517D01*
X4486065Y3538785D01*
X4489590Y3539913D01*
X4492973Y3541041D01*
X4494524Y3541464D01*
X4496074Y3541887D01*
X4497484Y3542310D01*
X4498612Y3542592D01*
X4499599Y3542874D01*
X4500303Y3543015D01*
X4500867Y3543155D01*
X4501008D01*
X4503546Y3543860D01*
X4505801Y3544424D01*
X4507916Y3544988D01*
X4509889Y3545552D01*
X4511440Y3546116D01*
X4512991Y3546680D01*
X4514259Y3547244D01*
X4515387Y3547667D01*
X4516374Y3548089D01*
X4517079Y3548512D01*
X4517784Y3548794D01*
X4518207Y3549076D01*
X4518911Y3549499D01*
X4519052Y3549640D01*
X4520039Y3550627D01*
X4520744Y3551614D01*
X4521167Y3552600D01*
X4521449Y3553587D01*
X4521731Y3554292D01*
X4521872Y3554997D01*
Y3555420D01*
Y3555561D01*
X4521731Y3556971D01*
X4521449Y3558098D01*
X4520885Y3559226D01*
X4520321Y3560072D01*
X4519757Y3560777D01*
X4519193Y3561200D01*
X4518911Y3561482D01*
X4518770Y3561623D01*
X4516797Y3562891D01*
X4514682Y3563737D01*
X4512427Y3564442D01*
X4510312Y3564865D01*
X4508480Y3565147D01*
X4506929Y3565288D01*
X4505519D01*
X4502559Y3565147D01*
X4500021Y3564724D01*
X4497907Y3564160D01*
X4496215Y3563596D01*
X4494806Y3563032D01*
X4493819Y3562468D01*
X4493255Y3562045D01*
X4493114Y3561904D01*
X4491704Y3560495D01*
X4490436Y3558803D01*
X4489449Y3557112D01*
X4488744Y3555279D01*
X4488180Y3553728D01*
X4487898Y3552459D01*
X4487616Y3551473D01*
Y3551332D01*
Y3551191D01*
X4467880Y3551896D01*
X4468021Y3554433D01*
X4468444Y3556689D01*
X4469008Y3558944D01*
X4469713Y3560918D01*
X4470418Y3562891D01*
X4471264Y3564724D01*
X4472109Y3566275D01*
X4472955Y3567825D01*
X4473942Y3569094D01*
X4474788Y3570222D01*
X4475634Y3571209D01*
X4476339Y3572054D01*
X4476902Y3572618D01*
X4477325Y3573041D01*
X4477607Y3573323D01*
X4477748Y3573464D01*
X4479581Y3574874D01*
X4481554Y3576142D01*
X4483669Y3577270D01*
X4485924Y3578257D01*
X4488180Y3578962D01*
X4490436Y3579667D01*
X4494947Y3580653D01*
X4497061Y3580935D01*
X4498894Y3581217D01*
X4500726Y3581358D01*
X4502277Y3581499D01*
X4503546Y3581640D01*
X4505237D01*
X4509325Y3581499D01*
D02*
G37*
G36*
X1978723Y674637D02*
X1954476D01*
Y598138D01*
X1978723D01*
Y581033D01*
X1908990D01*
Y598138D01*
X1933236D01*
Y674637D01*
X1908990D01*
Y691554D01*
X1978723D01*
Y674637D01*
D02*
G37*
G36*
X1851286Y693246D02*
X1854669Y692870D01*
X1857676Y692306D01*
X1860308Y691742D01*
X1862375Y691178D01*
X1864067Y690614D01*
X1865195Y690238D01*
X1865383Y690050D01*
X1865571D01*
X1868578Y688547D01*
X1871398Y687043D01*
X1873841Y685163D01*
X1875909Y683472D01*
X1877600Y681968D01*
X1878916Y680652D01*
X1879668Y679900D01*
X1880044Y679524D01*
X1882111Y676705D01*
X1883991Y673886D01*
X1885683Y670878D01*
X1886998Y668059D01*
X1888126Y665427D01*
X1888878Y663548D01*
X1889254Y662796D01*
X1889442Y662232D01*
X1889630Y661856D01*
Y661668D01*
X1890757Y657345D01*
X1891509Y653022D01*
X1892261Y648699D01*
X1892637Y644564D01*
X1892825Y640993D01*
Y639489D01*
X1893013Y638173D01*
Y637233D01*
Y636482D01*
Y635918D01*
Y635730D01*
X1892825Y630655D01*
X1892449Y625956D01*
X1892073Y621633D01*
X1891321Y617498D01*
X1890569Y613738D01*
X1889630Y610355D01*
X1888502Y607160D01*
X1887562Y604340D01*
X1886622Y601897D01*
X1885495Y599641D01*
X1884555Y597762D01*
X1883803Y596258D01*
X1883051Y595130D01*
X1882487Y594379D01*
X1882299Y593815D01*
X1882111Y593627D01*
X1879856Y590995D01*
X1877600Y588928D01*
X1874969Y586860D01*
X1872337Y585356D01*
X1869518Y583853D01*
X1866887Y582725D01*
X1864067Y581785D01*
X1861436Y581033D01*
X1858992Y580282D01*
X1856737Y579906D01*
X1854669Y579530D01*
X1852790Y579342D01*
X1851286D01*
X1850158Y579154D01*
X1849218D01*
X1845835Y579342D01*
X1842452Y579718D01*
X1839444Y580094D01*
X1836813Y580845D01*
X1834745Y581409D01*
X1833054Y581785D01*
X1831926Y582161D01*
X1831550Y582349D01*
X1828543Y583853D01*
X1825911Y585356D01*
X1823468Y587048D01*
X1821212Y588740D01*
X1819521Y590243D01*
X1818393Y591559D01*
X1817453Y592311D01*
X1817265Y592687D01*
X1815010Y595506D01*
X1813130Y598514D01*
X1811438Y601521D01*
X1810123Y604340D01*
X1808995Y606972D01*
X1808055Y608851D01*
X1807867Y609603D01*
X1807679Y610167D01*
X1807491Y610543D01*
Y610731D01*
X1806363Y615054D01*
X1805424Y619377D01*
X1804860Y623700D01*
X1804296Y627835D01*
X1804108Y631407D01*
Y632910D01*
X1803920Y634226D01*
Y635166D01*
Y635918D01*
Y636482D01*
Y636670D01*
X1804108Y641744D01*
X1804484Y646443D01*
X1804860Y650955D01*
X1805612Y655090D01*
X1806551Y658849D01*
X1807491Y662232D01*
X1808431Y665427D01*
X1809371Y668247D01*
X1810499Y670690D01*
X1811438Y672946D01*
X1812378Y674825D01*
X1813318Y676329D01*
X1814070Y677457D01*
X1814446Y678209D01*
X1814822Y678773D01*
X1815010Y678961D01*
X1817265Y681592D01*
X1819521Y683660D01*
X1822152Y685727D01*
X1824783Y687419D01*
X1827603Y688734D01*
X1830234Y689862D01*
X1833054Y690802D01*
X1835685Y691554D01*
X1838129Y692306D01*
X1840384Y692682D01*
X1842452Y693058D01*
X1844331Y693246D01*
X1845835Y693433D01*
X1847903D01*
X1851286Y693246D01*
D02*
G37*
G36*
X1755802D02*
X1759373Y692870D01*
X1762569Y692118D01*
X1765388Y691554D01*
X1767644Y690802D01*
X1769335Y690050D01*
X1770463Y689674D01*
X1770651Y689486D01*
X1770839D01*
X1773846Y687795D01*
X1776478Y686103D01*
X1778921Y684223D01*
X1780989Y682344D01*
X1782680Y680652D01*
X1783808Y679336D01*
X1784748Y678397D01*
X1784936Y678021D01*
X1787004Y675201D01*
X1788695Y672194D01*
X1790199Y669187D01*
X1791327Y666179D01*
X1792266Y663736D01*
X1793018Y661856D01*
X1793206Y661104D01*
X1793394Y660540D01*
X1793582Y660165D01*
Y659977D01*
X1794522Y655841D01*
X1795274Y651706D01*
X1795650Y647571D01*
X1796026Y643812D01*
X1796214Y640617D01*
X1796402Y639113D01*
Y637985D01*
Y637045D01*
Y636294D01*
Y635918D01*
Y635730D01*
X1796214Y630279D01*
X1795838Y625392D01*
X1795462Y621069D01*
X1794898Y617310D01*
X1794522Y615618D01*
X1794334Y614114D01*
X1794146Y612987D01*
X1793770Y611859D01*
X1793582Y611107D01*
Y610543D01*
X1793394Y610167D01*
Y609979D01*
X1792078Y606220D01*
X1790763Y602649D01*
X1789259Y599641D01*
X1787943Y597198D01*
X1786628Y595130D01*
X1785688Y593627D01*
X1784936Y592687D01*
X1784748Y592311D01*
X1782492Y589868D01*
X1780237Y587988D01*
X1777981Y586108D01*
X1775914Y584793D01*
X1774222Y583665D01*
X1772719Y582913D01*
X1771779Y582537D01*
X1771403Y582349D01*
X1768395Y581221D01*
X1765576Y580470D01*
X1762569Y579906D01*
X1760125Y579530D01*
X1757870Y579342D01*
X1755990Y579154D01*
X1754486D01*
X1750727Y579342D01*
X1747156Y579718D01*
X1743961Y580282D01*
X1741141Y581033D01*
X1739074Y581785D01*
X1737382Y582349D01*
X1736254Y582725D01*
X1735878Y582913D01*
X1732871Y584605D01*
X1730240Y586296D01*
X1727796Y588176D01*
X1725729Y590055D01*
X1724225Y591747D01*
X1722909Y593063D01*
X1722157Y593815D01*
X1721969Y594191D01*
X1719902Y597198D01*
X1718210Y600205D01*
X1716519Y603213D01*
X1715391Y606220D01*
X1714451Y608664D01*
X1713699Y610731D01*
X1713511Y611483D01*
X1713323Y612047D01*
X1713135Y612235D01*
Y612423D01*
X1712195Y616558D01*
X1711444Y620693D01*
X1710880Y624828D01*
X1710504Y628587D01*
X1710316Y631783D01*
X1710128Y633286D01*
Y634414D01*
Y635354D01*
Y636106D01*
Y636482D01*
Y636670D01*
X1710316Y642120D01*
X1710692Y647007D01*
X1711068Y651518D01*
X1711632Y655278D01*
X1712007Y656781D01*
X1712383Y658285D01*
X1712571Y659413D01*
X1712759Y660540D01*
X1712947Y661292D01*
X1713135Y661856D01*
X1713323Y662232D01*
Y662420D01*
X1714639Y666179D01*
X1715955Y669751D01*
X1717458Y672758D01*
X1718962Y675201D01*
X1720278Y677269D01*
X1721218Y678773D01*
X1721969Y679524D01*
X1722157Y679900D01*
X1724225Y682344D01*
X1726480Y684411D01*
X1728736Y686103D01*
X1730803Y687607D01*
X1732495Y688734D01*
X1733999Y689486D01*
X1734939Y689862D01*
X1735315Y690050D01*
X1738322Y691178D01*
X1741141Y691930D01*
X1743961Y692682D01*
X1746592Y693058D01*
X1748848Y693246D01*
X1750539Y693433D01*
X1752043D01*
X1755802Y693246D01*
D02*
G37*
G36*
X1556485Y578189D02*
X1537501D01*
Y612397D01*
Y658260D01*
X1531486Y643975D01*
X1501976Y578189D01*
X1476414D01*
Y688709D01*
X1495398D01*
Y658072D01*
Y609390D01*
X1500849Y622171D01*
X1530922Y688709D01*
X1556485D01*
Y578189D01*
D02*
G37*
G36*
X1606670Y690401D02*
X1610993Y690025D01*
X1614752Y689273D01*
X1618136Y688521D01*
X1620955Y687769D01*
X1622083Y687393D01*
X1623023Y687017D01*
X1623962Y686829D01*
X1624526Y686642D01*
X1624714Y686454D01*
X1624902D01*
X1628474Y684762D01*
X1631669Y683070D01*
X1634676Y681191D01*
X1637120Y679311D01*
X1638999Y677619D01*
X1640503Y676304D01*
X1641443Y675364D01*
X1641819Y674988D01*
X1644262Y671981D01*
X1646330Y668973D01*
X1648021Y665778D01*
X1649525Y662959D01*
X1650653Y660327D01*
X1651405Y658448D01*
X1651781Y657696D01*
X1651969Y657132D01*
X1652156Y656756D01*
Y656568D01*
X1653284Y652433D01*
X1654224Y648110D01*
X1654788Y643975D01*
X1655352Y640027D01*
X1655540Y636832D01*
Y635328D01*
X1655728Y634201D01*
Y633073D01*
Y632321D01*
Y631945D01*
Y631757D01*
X1655540Y626870D01*
X1655164Y622359D01*
X1654600Y618224D01*
X1654036Y614653D01*
X1653472Y611833D01*
X1653096Y610518D01*
X1652908Y609578D01*
X1652720Y608826D01*
X1652532Y608262D01*
X1652344Y607886D01*
Y607698D01*
X1651029Y603939D01*
X1649337Y600556D01*
X1647833Y597548D01*
X1646142Y595105D01*
X1644826Y593037D01*
X1643698Y591534D01*
X1642758Y590594D01*
X1642571Y590218D01*
X1640127Y587775D01*
X1637496Y585707D01*
X1634864Y583827D01*
X1632421Y582324D01*
X1630165Y581196D01*
X1628474Y580444D01*
X1627346Y579880D01*
X1627158Y579692D01*
X1626970D01*
X1623399Y578565D01*
X1619827Y577813D01*
X1616444Y577061D01*
X1613249Y576685D01*
X1610429Y576497D01*
X1609302D01*
X1608174Y576309D01*
X1602723D01*
X1599340Y576497D01*
X1596332Y576873D01*
X1593513Y577249D01*
X1591445Y577437D01*
X1589754Y577813D01*
X1588626Y578001D01*
X1588250D01*
X1585243Y578565D01*
X1582235Y579504D01*
X1579604Y580256D01*
X1577160Y581196D01*
X1575093Y581948D01*
X1573589Y582512D01*
X1572649Y582888D01*
X1572273Y583076D01*
Y642095D01*
X1611557D01*
Y624991D01*
X1592761D01*
Y596609D01*
X1593701Y596421D01*
X1594453Y596045D01*
X1595017Y595857D01*
X1595205D01*
X1596144Y595669D01*
X1596896Y595481D01*
X1597460Y595293D01*
X1597648D01*
X1598588Y595105D01*
X1599528D01*
X1600280Y594917D01*
X1603851D01*
X1606670Y595105D01*
X1609490Y595293D01*
X1611745Y595669D01*
X1613813Y596233D01*
X1615316Y596609D01*
X1616632Y596985D01*
X1617384Y597173D01*
X1617572Y597361D01*
X1619639Y598488D01*
X1621331Y599616D01*
X1623023Y600932D01*
X1624338Y602060D01*
X1625278Y603187D01*
X1626218Y604127D01*
X1626594Y604691D01*
X1626782Y604879D01*
X1629037Y608826D01*
X1629977Y610894D01*
X1630729Y612773D01*
X1631293Y614465D01*
X1631669Y615781D01*
X1632045Y616532D01*
Y616908D01*
X1632985Y622359D01*
X1633173Y625179D01*
X1633360Y627622D01*
X1633548Y629690D01*
Y631381D01*
Y632509D01*
Y632697D01*
Y632885D01*
X1633360Y636268D01*
X1633173Y639276D01*
X1632797Y642095D01*
X1632421Y644538D01*
X1632045Y646418D01*
X1631857Y647922D01*
X1631481Y648862D01*
Y649237D01*
X1630541Y651869D01*
X1629601Y654312D01*
X1628661Y656380D01*
X1627722Y658072D01*
X1626782Y659575D01*
X1626030Y660515D01*
X1625654Y661267D01*
X1625466Y661455D01*
X1623962Y663334D01*
X1622271Y664838D01*
X1620579Y666154D01*
X1619076Y667282D01*
X1617572Y668033D01*
X1616444Y668597D01*
X1615692Y668973D01*
X1615504Y669161D01*
X1613249Y670101D01*
X1610805Y670853D01*
X1608550Y671229D01*
X1606294Y671605D01*
X1604603Y671793D01*
X1603099Y671981D01*
X1598964D01*
X1596144Y671605D01*
X1593513Y671417D01*
X1591257Y671041D01*
X1589378Y670665D01*
X1587874Y670289D01*
X1586934Y670101D01*
X1586558Y669913D01*
X1583739Y669161D01*
X1581296Y668409D01*
X1578852Y667658D01*
X1576785Y666906D01*
X1575093Y666154D01*
X1573777Y665778D01*
X1573025Y665402D01*
X1572649Y665214D01*
Y685702D01*
X1578100Y687017D01*
X1580544Y687769D01*
X1582799Y688145D01*
X1584679Y688521D01*
X1585995Y688897D01*
X1586934Y689085D01*
X1587310D01*
X1592573Y690025D01*
X1595017Y690213D01*
X1597272Y690401D01*
X1599152Y690589D01*
X1601971D01*
X1606670Y690401D01*
D02*
G37*
G36*
X1461753Y578189D02*
X1433747D01*
X1428484Y578377D01*
X1423597Y578752D01*
X1419462Y579504D01*
X1415703Y580256D01*
X1414199Y580444D01*
X1412695Y580820D01*
X1411568Y581196D01*
X1410628Y581572D01*
X1409876Y581760D01*
X1409124Y581948D01*
X1408936Y582136D01*
X1408748D01*
X1404989Y583827D01*
X1401606Y585519D01*
X1398598Y587399D01*
X1396155Y589278D01*
X1394087Y590970D01*
X1392584Y592286D01*
X1391832Y593037D01*
X1391456Y593413D01*
X1389012Y596421D01*
X1386945Y599428D01*
X1385253Y602435D01*
X1383938Y605255D01*
X1382810Y607698D01*
X1382058Y609766D01*
X1381870Y610518D01*
X1381682Y611082D01*
X1381494Y611270D01*
Y611458D01*
X1380366Y615405D01*
X1379614Y619540D01*
X1379051Y623487D01*
X1378675Y627058D01*
X1378487Y630254D01*
X1378299Y631569D01*
Y632697D01*
Y633449D01*
Y634201D01*
Y634577D01*
Y634765D01*
X1378487Y639839D01*
X1378863Y644538D01*
X1379239Y648674D01*
X1379802Y652245D01*
X1380554Y655064D01*
X1380742Y656192D01*
X1380930Y657132D01*
X1381118Y658072D01*
X1381306Y658635D01*
X1381494Y658823D01*
Y659011D01*
X1382810Y662583D01*
X1384313Y665966D01*
X1386005Y668785D01*
X1387509Y671229D01*
X1388825Y673108D01*
X1389952Y674612D01*
X1390704Y675364D01*
X1391080Y675740D01*
X1393524Y677995D01*
X1396343Y680063D01*
X1398974Y681755D01*
X1401418Y683070D01*
X1403673Y684198D01*
X1405365Y684950D01*
X1406681Y685326D01*
X1406869Y685514D01*
X1407057D01*
X1410628Y686642D01*
X1414387Y687393D01*
X1418146Y687957D01*
X1421530Y688333D01*
X1424537Y688521D01*
X1425853Y688709D01*
X1461753D01*
Y578189D01*
D02*
G37*
G36*
X1299233Y582841D02*
X1271790D01*
X1237770Y693362D01*
X1259949D01*
X1278557Y627952D01*
X1284760Y604833D01*
X1290774Y626636D01*
X1309382Y693362D01*
X1333065D01*
X1299233Y582841D01*
D02*
G37*
G36*
X1184389Y694866D02*
X1188336Y694490D01*
X1191907Y693738D01*
X1194915Y693174D01*
X1197546Y692422D01*
X1199426Y691670D01*
X1200178Y691482D01*
X1200742Y691294D01*
X1200930Y691106D01*
X1201117D01*
X1204501Y689415D01*
X1207508Y687723D01*
X1210328Y685843D01*
X1212771Y683964D01*
X1214651Y682272D01*
X1216154Y680956D01*
X1216906Y680017D01*
X1217282Y679641D01*
X1219538Y676633D01*
X1221605Y673626D01*
X1223297Y670431D01*
X1224800Y667611D01*
X1225928Y664980D01*
X1226680Y663100D01*
X1227056Y662348D01*
X1227244Y661785D01*
X1227432Y661409D01*
Y661221D01*
X1228560Y657086D01*
X1229311Y652762D01*
X1230063Y648627D01*
X1230439Y644680D01*
X1230627Y641485D01*
Y639981D01*
X1230815Y638853D01*
Y637726D01*
Y636974D01*
Y636598D01*
Y636410D01*
X1230627Y631523D01*
X1230251Y626824D01*
X1229875Y622689D01*
X1229124Y619306D01*
X1228560Y616298D01*
X1228372Y615170D01*
X1228184Y614231D01*
X1227996Y613479D01*
X1227808Y612915D01*
X1227620Y612539D01*
Y612351D01*
X1226304Y608780D01*
X1224800Y605397D01*
X1223297Y602577D01*
X1221793Y599946D01*
X1220289Y598066D01*
X1219162Y596562D01*
X1218410Y595623D01*
X1218222Y595247D01*
X1215778Y592803D01*
X1213147Y590736D01*
X1210515Y588856D01*
X1208072Y587352D01*
X1205816Y586225D01*
X1204125Y585473D01*
X1202997Y584909D01*
X1202809Y584721D01*
X1202621D01*
X1199050Y583593D01*
X1195479Y582841D01*
X1191907Y582090D01*
X1188712Y581714D01*
X1185705Y581526D01*
X1184577D01*
X1183637Y581338D01*
X1178750D01*
X1176119Y581526D01*
X1173675Y581902D01*
X1171608Y582090D01*
X1169728Y582465D01*
X1168412Y582653D01*
X1167661Y582841D01*
X1167285D01*
X1162022Y584157D01*
X1159578Y584721D01*
X1157511Y585473D01*
X1155631Y586225D01*
X1154127Y586601D01*
X1153188Y586976D01*
X1152812Y587164D01*
Y606712D01*
X1154879Y605772D01*
X1156947Y604833D01*
X1157699Y604645D01*
X1158451Y604269D01*
X1158826Y604081D01*
X1159014D01*
X1161458Y603329D01*
X1163525Y602577D01*
X1164277Y602389D01*
X1165029Y602201D01*
X1165405Y602013D01*
X1165593D01*
X1168037Y601449D01*
X1170104Y600886D01*
X1170856Y600698D01*
X1171608D01*
X1171984Y600510D01*
X1172172D01*
X1174427Y600322D01*
X1176307Y600134D01*
X1178186D01*
X1181006Y600322D01*
X1183449Y600510D01*
X1185705Y600886D01*
X1187772Y601449D01*
X1189276Y601825D01*
X1190592Y602201D01*
X1191344Y602389D01*
X1191532Y602577D01*
X1193599Y603705D01*
X1195291Y604833D01*
X1196982Y606148D01*
X1198298Y607276D01*
X1199426Y608404D01*
X1200178Y609344D01*
X1200742Y609908D01*
X1200930Y610096D01*
X1202245Y611975D01*
X1203185Y614043D01*
X1204125Y615922D01*
X1204877Y617802D01*
X1205441Y619494D01*
X1205816Y620809D01*
X1206192Y621561D01*
Y621937D01*
X1207132Y627576D01*
X1207508Y630207D01*
X1207696Y632651D01*
Y634906D01*
X1207884Y636598D01*
Y637726D01*
Y637914D01*
Y638102D01*
Y641109D01*
X1207696Y644116D01*
X1207320Y646748D01*
X1207132Y649003D01*
X1206756Y650883D01*
X1206568Y652387D01*
X1206380Y653138D01*
Y653514D01*
X1205629Y656146D01*
X1204877Y658401D01*
X1203937Y660469D01*
X1203185Y662348D01*
X1202245Y663664D01*
X1201681Y664792D01*
X1201305Y665544D01*
X1201117Y665732D01*
X1199614Y667611D01*
X1198110Y669115D01*
X1196606Y670431D01*
X1195103Y671558D01*
X1193787Y672498D01*
X1192847Y673062D01*
X1192095Y673438D01*
X1191907Y673626D01*
X1189652Y674566D01*
X1187396Y675318D01*
X1185141Y675882D01*
X1183073Y676257D01*
X1181194Y676445D01*
X1179690Y676633D01*
X1178374D01*
X1174239Y676445D01*
X1172360Y676257D01*
X1170480Y675882D01*
X1168976Y675694D01*
X1167849Y675318D01*
X1166909Y675130D01*
X1166721D01*
X1161834Y673814D01*
X1159390Y673062D01*
X1157323Y672310D01*
X1155443Y671558D01*
X1154127Y670995D01*
X1153188Y670619D01*
X1152812Y670431D01*
Y691106D01*
X1155443Y691858D01*
X1157699Y692422D01*
X1158451Y692610D01*
X1159202Y692798D01*
X1159578Y692986D01*
X1159766D01*
X1162210Y693550D01*
X1164277Y693926D01*
X1165217D01*
X1165781Y694114D01*
X1166345D01*
X1168788Y694490D01*
X1170856Y694678D01*
X1171608Y694866D01*
X1172923D01*
X1175367Y695053D01*
X1180066D01*
X1184389Y694866D01*
D02*
G37*
G36*
X1089093D02*
X1093040Y694490D01*
X1096612Y693738D01*
X1099619Y693174D01*
X1102251Y692422D01*
X1104130Y691670D01*
X1104882Y691482D01*
X1105446Y691294D01*
X1105634Y691106D01*
X1105822D01*
X1109205Y689415D01*
X1112212Y687723D01*
X1115032Y685843D01*
X1117475Y683964D01*
X1119355Y682272D01*
X1120859Y680956D01*
X1121610Y680017D01*
X1121986Y679641D01*
X1124242Y676633D01*
X1126309Y673626D01*
X1128001Y670431D01*
X1129505Y667611D01*
X1130632Y664980D01*
X1131384Y663100D01*
X1131760Y662348D01*
X1131948Y661785D01*
X1132136Y661409D01*
Y661221D01*
X1133264Y657086D01*
X1134016Y652762D01*
X1134768Y648627D01*
X1135144Y644680D01*
X1135331Y641485D01*
Y639981D01*
X1135519Y638853D01*
Y637726D01*
Y636974D01*
Y636598D01*
Y636410D01*
X1135331Y631523D01*
X1134956Y626824D01*
X1134580Y622689D01*
X1133828Y619306D01*
X1133264Y616298D01*
X1133076Y615170D01*
X1132888Y614231D01*
X1132700Y613479D01*
X1132512Y612915D01*
X1132324Y612539D01*
Y612351D01*
X1131008Y608780D01*
X1129505Y605397D01*
X1128001Y602577D01*
X1126497Y599946D01*
X1124994Y598066D01*
X1123866Y596562D01*
X1123114Y595623D01*
X1122926Y595247D01*
X1120483Y592803D01*
X1117851Y590736D01*
X1115220Y588856D01*
X1112776Y587352D01*
X1110521Y586225D01*
X1108829Y585473D01*
X1107701Y584909D01*
X1107513Y584721D01*
X1107325D01*
X1103754Y583593D01*
X1100183Y582841D01*
X1096612Y582090D01*
X1093416Y581714D01*
X1090409Y581526D01*
X1089281D01*
X1088341Y581338D01*
X1083455D01*
X1080823Y581526D01*
X1078380Y581902D01*
X1076312Y582090D01*
X1074432Y582465D01*
X1073117Y582653D01*
X1072365Y582841D01*
X1071989D01*
X1066726Y584157D01*
X1064283Y584721D01*
X1062215Y585473D01*
X1060335Y586225D01*
X1058832Y586601D01*
X1057892Y586976D01*
X1057516Y587164D01*
Y606712D01*
X1059584Y605772D01*
X1061651Y604833D01*
X1062403Y604645D01*
X1063155Y604269D01*
X1063531Y604081D01*
X1063719D01*
X1066162Y603329D01*
X1068230Y602577D01*
X1068982Y602389D01*
X1069733Y602201D01*
X1070109Y602013D01*
X1070297D01*
X1072741Y601449D01*
X1074808Y600886D01*
X1075560Y600698D01*
X1076312D01*
X1076688Y600510D01*
X1076876D01*
X1079131Y600322D01*
X1081011Y600134D01*
X1082891D01*
X1085710Y600322D01*
X1088154Y600510D01*
X1090409Y600886D01*
X1092477Y601449D01*
X1093980Y601825D01*
X1095296Y602201D01*
X1096048Y602389D01*
X1096236Y602577D01*
X1098303Y603705D01*
X1099995Y604833D01*
X1101687Y606148D01*
X1103002Y607276D01*
X1104130Y608404D01*
X1104882Y609344D01*
X1105446Y609908D01*
X1105634Y610096D01*
X1106950Y611975D01*
X1107889Y614043D01*
X1108829Y615922D01*
X1109581Y617802D01*
X1110145Y619494D01*
X1110521Y620809D01*
X1110897Y621561D01*
Y621937D01*
X1111836Y627576D01*
X1112212Y630207D01*
X1112400Y632651D01*
Y634906D01*
X1112588Y636598D01*
Y637726D01*
Y637914D01*
Y638102D01*
Y641109D01*
X1112400Y644116D01*
X1112024Y646748D01*
X1111836Y649003D01*
X1111461Y650883D01*
X1111273Y652387D01*
X1111085Y653138D01*
Y653514D01*
X1110333Y656146D01*
X1109581Y658401D01*
X1108641Y660469D01*
X1107889Y662348D01*
X1106950Y663664D01*
X1106386Y664792D01*
X1106010Y665544D01*
X1105822Y665732D01*
X1104318Y667611D01*
X1102814Y669115D01*
X1101311Y670431D01*
X1099807Y671558D01*
X1098491Y672498D01*
X1097552Y673062D01*
X1096800Y673438D01*
X1096612Y673626D01*
X1094356Y674566D01*
X1092101Y675318D01*
X1089845Y675882D01*
X1087778Y676257D01*
X1085898Y676445D01*
X1084394Y676633D01*
X1083079D01*
X1078943Y676445D01*
X1077064Y676257D01*
X1075184Y675882D01*
X1073681Y675694D01*
X1072553Y675318D01*
X1071613Y675130D01*
X1071425D01*
X1066538Y673814D01*
X1064095Y673062D01*
X1062027Y672310D01*
X1060147Y671558D01*
X1058832Y670995D01*
X1057892Y670619D01*
X1057516Y670431D01*
Y691106D01*
X1060147Y691858D01*
X1062403Y692422D01*
X1063155Y692610D01*
X1063907Y692798D01*
X1064283Y692986D01*
X1064471D01*
X1066914Y693550D01*
X1068982Y693926D01*
X1069921D01*
X1070485Y694114D01*
X1071049D01*
X1073493Y694490D01*
X1075560Y694678D01*
X1076312Y694866D01*
X1077628D01*
X1080071Y695053D01*
X1084770D01*
X1089093Y694866D01*
D02*
G37*
G36*
X1746592Y819052D02*
X1780424Y762288D01*
X1755238D01*
X1734374Y802887D01*
X1713135Y762288D01*
X1686632D01*
X1721405Y819616D01*
X1690016Y872808D01*
X1714638D01*
X1733810Y834464D01*
X1753734Y872808D01*
X1778169D01*
X1746592Y819052D01*
D02*
G37*
G36*
X1865570Y762288D02*
X1844707D01*
Y808150D01*
X1840760D01*
X1838880Y807962D01*
X1837000Y807774D01*
X1835497Y807398D01*
X1834181Y806834D01*
X1833053Y806270D01*
X1832301Y805895D01*
X1831738Y805707D01*
X1831550Y805519D01*
X1830234Y804391D01*
X1828918Y803263D01*
X1827039Y800632D01*
X1826475Y799504D01*
X1825911Y798564D01*
X1825535Y798000D01*
Y797812D01*
X1809934Y762288D01*
X1785499D01*
X1803168Y799316D01*
X1804483Y801759D01*
X1805611Y804015D01*
X1806739Y805895D01*
X1807867Y807398D01*
X1808618Y808714D01*
X1809370Y809466D01*
X1809746Y810030D01*
X1809934Y810218D01*
X1811250Y811533D01*
X1812566Y812473D01*
X1813881Y813225D01*
X1815009Y813977D01*
X1815949Y814353D01*
X1816701Y814541D01*
X1817265Y814729D01*
X1817453D01*
X1813693Y815668D01*
X1812002Y816044D01*
X1810498Y816608D01*
X1809370Y816984D01*
X1808430Y817360D01*
X1807867Y817736D01*
X1807679D01*
X1804483Y819428D01*
X1803168Y820367D01*
X1802040Y821307D01*
X1801288Y822059D01*
X1800536Y822623D01*
X1800160Y822999D01*
X1799972Y823187D01*
X1797905Y826006D01*
X1796401Y828638D01*
X1795837Y829765D01*
X1795461Y830705D01*
X1795085Y831269D01*
Y831457D01*
X1793958Y835028D01*
X1793582Y836908D01*
X1793394Y838600D01*
X1793206Y840103D01*
Y841231D01*
Y841983D01*
Y842171D01*
X1793394Y845178D01*
X1793582Y847998D01*
X1794146Y850441D01*
X1794709Y852509D01*
X1795273Y854200D01*
X1795649Y855328D01*
X1796025Y856268D01*
X1796213Y856456D01*
X1797341Y858523D01*
X1798657Y860403D01*
X1799972Y861907D01*
X1801288Y863410D01*
X1802416Y864350D01*
X1803356Y865290D01*
X1804107Y865666D01*
X1804295Y865854D01*
X1806363Y867169D01*
X1808430Y868297D01*
X1810498Y869237D01*
X1812566Y869989D01*
X1814257Y870365D01*
X1815573Y870741D01*
X1816513Y871117D01*
X1816889D01*
X1822715Y872056D01*
X1825347Y872432D01*
X1827978Y872620D01*
X1830234Y872808D01*
X1865570D01*
Y762288D01*
D02*
G37*
G36*
X1493978Y819052D02*
X1527811Y762288D01*
X1502625D01*
X1481761Y802887D01*
X1460522Y762288D01*
X1434019D01*
X1468792Y819616D01*
X1437403Y872808D01*
X1462025D01*
X1481197Y834464D01*
X1501121Y872808D01*
X1525556D01*
X1493978Y819052D01*
D02*
G37*
G36*
X1617092Y855516D02*
X1586831D01*
Y762288D01*
X1565591D01*
Y855516D01*
X1535330D01*
Y872808D01*
X1617092D01*
Y855516D01*
D02*
G37*
G36*
X1238991Y755647D02*
X1220007D01*
Y789856D01*
Y835718D01*
X1213992Y821433D01*
X1184483Y755647D01*
X1158920D01*
Y866168D01*
X1177904D01*
Y835530D01*
Y786849D01*
X1183355Y799630D01*
X1213428Y866168D01*
X1238991D01*
Y755647D01*
D02*
G37*
G36*
X1326580D02*
X1260042D01*
Y773315D01*
X1305341D01*
Y803953D01*
X1262110D01*
Y821057D01*
X1305341D01*
Y848499D01*
X1260042D01*
Y866168D01*
X1326580D01*
Y755647D01*
D02*
G37*
G36*
X5282146Y1745262D02*
X5262411D01*
Y1786003D01*
X5256067D01*
X5254093Y1785862D01*
X5252402Y1785721D01*
X5250992Y1785439D01*
X5249864Y1785298D01*
X5249159Y1785016D01*
X5248737Y1784875D01*
X5248596D01*
X5247468Y1784311D01*
X5246340Y1783747D01*
X5245353Y1783042D01*
X5244366Y1782478D01*
X5243662Y1781773D01*
X5243098Y1781210D01*
X5242816Y1780928D01*
X5242675Y1780787D01*
X5242111Y1780082D01*
X5241406Y1779377D01*
X5239855Y1777262D01*
X5238164Y1775007D01*
X5236331Y1772469D01*
X5234780Y1770214D01*
X5234076Y1769086D01*
X5233512Y1768240D01*
X5232948Y1767535D01*
X5232525Y1766972D01*
X5232384Y1766549D01*
X5232243Y1766408D01*
X5218146Y1745262D01*
X5194463D01*
X5206446Y1764293D01*
X5207714Y1766267D01*
X5208983Y1768240D01*
X5210111Y1769932D01*
X5211238Y1771483D01*
X5212225Y1772892D01*
X5213071Y1774302D01*
X5214763Y1776417D01*
X5216031Y1778108D01*
X5216877Y1779236D01*
X5217582Y1779941D01*
X5217723Y1780082D01*
X5219274Y1781773D01*
X5221106Y1783324D01*
X5222798Y1784593D01*
X5224490Y1785862D01*
X5225899Y1786848D01*
X5227027Y1787553D01*
X5227873Y1788117D01*
X5228014Y1788258D01*
X5228155D01*
X5225758Y1788681D01*
X5223644Y1789245D01*
X5221670Y1789809D01*
X5219697Y1790514D01*
X5218005Y1791218D01*
X5216454Y1791923D01*
X5214904Y1792628D01*
X5213635Y1793474D01*
X5212507Y1794179D01*
X5211520Y1794884D01*
X5210675Y1795588D01*
X5210111Y1796152D01*
X5209547Y1796575D01*
X5209124Y1796998D01*
X5208983Y1797139D01*
X5208842Y1797280D01*
X5207714Y1798690D01*
X5206727Y1800100D01*
X5205036Y1803201D01*
X5203908Y1806161D01*
X5203203Y1809122D01*
X5202639Y1811659D01*
X5202498Y1812646D01*
Y1813633D01*
X5202357Y1814337D01*
Y1815042D01*
Y1815324D01*
Y1815465D01*
X5202498Y1818567D01*
X5203062Y1821527D01*
X5203767Y1824064D01*
X5204472Y1826320D01*
X5205318Y1828153D01*
X5206023Y1829562D01*
X5206305Y1829985D01*
X5206586Y1830408D01*
X5206727Y1830549D01*
Y1830690D01*
X5208419Y1833087D01*
X5210252Y1835060D01*
X5212084Y1836611D01*
X5213917Y1838020D01*
X5215609Y1838866D01*
X5216877Y1839571D01*
X5217723Y1839994D01*
X5217864Y1840135D01*
X5218005D01*
X5219415Y1840558D01*
X5220965Y1840981D01*
X5224490Y1841686D01*
X5228296Y1842109D01*
X5231961Y1842531D01*
X5233794D01*
X5235344Y1842672D01*
X5236895D01*
X5238164Y1842813D01*
X5282146D01*
Y1745262D01*
D02*
G37*
G36*
X5183749D02*
X5109599D01*
Y1761756D01*
X5164014D01*
Y1788258D01*
X5115097D01*
Y1804752D01*
X5164014D01*
Y1826320D01*
X5111432D01*
Y1842813D01*
X5183749D01*
Y1745262D01*
D02*
G37*
G36*
X5001898D02*
X4927748D01*
Y1761756D01*
X4982162D01*
Y1788258D01*
X4933246D01*
Y1804752D01*
X4982162D01*
Y1826320D01*
X4929580D01*
Y1842813D01*
X5001898D01*
Y1745262D01*
D02*
G37*
G36*
X4917880Y1826320D02*
X4888981D01*
Y1745262D01*
X4869245D01*
Y1826320D01*
X4840487D01*
Y1842813D01*
X4917880D01*
Y1826320D01*
D02*
G37*
G36*
X5062938Y1844505D02*
X5066603Y1844082D01*
X5069846Y1843518D01*
X5072665Y1842954D01*
X5073934Y1842531D01*
X5075061Y1842250D01*
X5075907Y1841968D01*
X5076753Y1841686D01*
X5077317Y1841404D01*
X5077740Y1841263D01*
X5078022Y1841122D01*
X5078163D01*
X5080982Y1839712D01*
X5083379Y1838161D01*
X5085493Y1836470D01*
X5087185Y1834919D01*
X5088595Y1833509D01*
X5089440Y1832382D01*
X5090145Y1831536D01*
X5090286Y1831395D01*
Y1831254D01*
X5091696Y1828857D01*
X5092683Y1826320D01*
X5093388Y1823923D01*
X5093810Y1821809D01*
X5094092Y1819976D01*
X5094374Y1818567D01*
Y1818003D01*
Y1817580D01*
Y1817439D01*
Y1817298D01*
X5094233Y1815183D01*
X5093951Y1813069D01*
X5093529Y1811236D01*
X5092965Y1809404D01*
X5091555Y1806020D01*
X5089863Y1803060D01*
X5089158Y1801791D01*
X5088313Y1800804D01*
X5087608Y1799818D01*
X5086903Y1798972D01*
X5086339Y1798408D01*
X5085916Y1797985D01*
X5085634Y1797703D01*
X5085493Y1797562D01*
X5084225Y1796575D01*
X5082674Y1795588D01*
X5081123Y1794602D01*
X5079291Y1793756D01*
X5075766Y1792064D01*
X5072101Y1790655D01*
X5070268Y1790091D01*
X5068718Y1789527D01*
X5067167Y1789104D01*
X5065898Y1788681D01*
X5064912Y1788399D01*
X5064066Y1788117D01*
X5063502Y1787976D01*
X5063361D01*
X5061105Y1787412D01*
X5059132Y1786848D01*
X5057299Y1786425D01*
X5055608Y1786003D01*
X5054198Y1785580D01*
X5052929Y1785298D01*
X5051801Y1784875D01*
X5050815Y1784593D01*
X5049969Y1784452D01*
X5049264Y1784170D01*
X5048277Y1783888D01*
X5047713Y1783606D01*
X5047572D01*
X5045740Y1782901D01*
X5044330Y1782196D01*
X5043061Y1781491D01*
X5042074Y1780787D01*
X5041370Y1780223D01*
X5040947Y1779800D01*
X5040665Y1779518D01*
X5040524Y1779377D01*
X5039819Y1778390D01*
X5039255Y1777403D01*
X5038973Y1776417D01*
X5038691Y1775571D01*
X5038550Y1774725D01*
X5038409Y1774020D01*
Y1773597D01*
Y1773456D01*
X5038550Y1771483D01*
X5039114Y1769791D01*
X5039960Y1768099D01*
X5040806Y1766690D01*
X5041793Y1765562D01*
X5042497Y1764716D01*
X5043061Y1764152D01*
X5043343Y1764011D01*
X5045317Y1762742D01*
X5047572Y1761756D01*
X5049969Y1761051D01*
X5052224Y1760628D01*
X5054339Y1760346D01*
X5056031Y1760064D01*
X5057581D01*
X5060824Y1760205D01*
X5063643Y1760769D01*
X5066039Y1761474D01*
X5068154Y1762320D01*
X5069846Y1763165D01*
X5070973Y1763870D01*
X5071678Y1764434D01*
X5071960Y1764575D01*
X5073793Y1766549D01*
X5075202Y1768663D01*
X5076471Y1771060D01*
X5077317Y1773456D01*
X5078022Y1775571D01*
X5078586Y1777262D01*
X5078727Y1777826D01*
Y1778390D01*
X5078868Y1778672D01*
Y1778813D01*
X5098040Y1776980D01*
X5097617Y1774020D01*
X5097053Y1771201D01*
X5096207Y1768522D01*
X5095502Y1766126D01*
X5094515Y1763870D01*
X5093529Y1761756D01*
X5092542Y1759923D01*
X5091555Y1758231D01*
X5090568Y1756822D01*
X5089581Y1755553D01*
X5088736Y1754425D01*
X5087890Y1753438D01*
X5087326Y1752734D01*
X5086762Y1752311D01*
X5086480Y1752029D01*
X5086339Y1751888D01*
X5084365Y1750337D01*
X5082251Y1749068D01*
X5079995Y1747941D01*
X5077599Y1746954D01*
X5075343Y1746249D01*
X5072947Y1745544D01*
X5068295Y1744557D01*
X5066180Y1744134D01*
X5064207Y1743852D01*
X5062515Y1743712D01*
X5060964Y1743571D01*
X5059696Y1743430D01*
X5057863D01*
X5053352Y1743571D01*
X5049264Y1743993D01*
X5045599Y1744557D01*
X5044048Y1744839D01*
X5042497Y1745262D01*
X5041229Y1745544D01*
X5040101Y1745826D01*
X5039114Y1746108D01*
X5038268Y1746390D01*
X5037563Y1746672D01*
X5037141Y1746813D01*
X5036859Y1746954D01*
X5036718D01*
X5033616Y1748505D01*
X5031079Y1750196D01*
X5028682Y1751888D01*
X5026850Y1753720D01*
X5025440Y1755271D01*
X5024312Y1756681D01*
X5023748Y1757527D01*
X5023466Y1757668D01*
Y1757809D01*
X5021916Y1760628D01*
X5020647Y1763306D01*
X5019801Y1765985D01*
X5019237Y1768522D01*
X5018955Y1770496D01*
X5018814Y1771483D01*
X5018673Y1772187D01*
Y1772751D01*
Y1773174D01*
Y1773456D01*
Y1773597D01*
X5018814Y1776980D01*
X5019237Y1779941D01*
X5019942Y1782619D01*
X5020647Y1784875D01*
X5021352Y1786707D01*
X5022057Y1787976D01*
X5022480Y1788822D01*
X5022621Y1789104D01*
X5024171Y1791359D01*
X5026004Y1793333D01*
X5027837Y1795025D01*
X5029528Y1796434D01*
X5031079Y1797562D01*
X5032348Y1798408D01*
X5033193Y1798972D01*
X5033334Y1799113D01*
X5033475D01*
X5034885Y1799818D01*
X5036295Y1800522D01*
X5039678Y1801791D01*
X5043202Y1802919D01*
X5046586Y1804047D01*
X5048136Y1804470D01*
X5049687Y1804893D01*
X5051097Y1805315D01*
X5052224Y1805597D01*
X5053211Y1805879D01*
X5053916Y1806020D01*
X5054480Y1806161D01*
X5054621D01*
X5057158Y1806866D01*
X5059414Y1807430D01*
X5061528Y1807994D01*
X5063502Y1808558D01*
X5065053Y1809122D01*
X5066603Y1809685D01*
X5067872Y1810249D01*
X5069000Y1810672D01*
X5069987Y1811095D01*
X5070691Y1811518D01*
X5071396Y1811800D01*
X5071819Y1812082D01*
X5072524Y1812505D01*
X5072665Y1812646D01*
X5073652Y1813633D01*
X5074357Y1814619D01*
X5074780Y1815606D01*
X5075061Y1816593D01*
X5075343Y1817298D01*
X5075484Y1818003D01*
Y1818426D01*
Y1818567D01*
X5075343Y1819976D01*
X5075061Y1821104D01*
X5074498Y1822232D01*
X5073934Y1823078D01*
X5073370Y1823782D01*
X5072806Y1824205D01*
X5072524Y1824487D01*
X5072383Y1824628D01*
X5070409Y1825897D01*
X5068295Y1826743D01*
X5066039Y1827448D01*
X5063925Y1827871D01*
X5062092Y1828153D01*
X5060542Y1828294D01*
X5059132D01*
X5056171Y1828153D01*
X5053634Y1827730D01*
X5051519Y1827166D01*
X5049828Y1826602D01*
X5048418Y1826038D01*
X5047431Y1825474D01*
X5046867Y1825051D01*
X5046727Y1824910D01*
X5045317Y1823501D01*
X5044048Y1821809D01*
X5043061Y1820117D01*
X5042356Y1818285D01*
X5041793Y1816734D01*
X5041511Y1815465D01*
X5041229Y1814478D01*
Y1814337D01*
Y1814197D01*
X5021493Y1814901D01*
X5021634Y1817439D01*
X5022057Y1819694D01*
X5022621Y1821950D01*
X5023325Y1823923D01*
X5024030Y1825897D01*
X5024876Y1827730D01*
X5025722Y1829280D01*
X5026568Y1830831D01*
X5027555Y1832100D01*
X5028400Y1833227D01*
X5029246Y1834214D01*
X5029951Y1835060D01*
X5030515Y1835624D01*
X5030938Y1836047D01*
X5031220Y1836329D01*
X5031361Y1836470D01*
X5033193Y1837879D01*
X5035167Y1839148D01*
X5037282Y1840276D01*
X5039537Y1841263D01*
X5041793Y1841968D01*
X5044048Y1842672D01*
X5048559Y1843659D01*
X5050674Y1843941D01*
X5052506Y1844223D01*
X5054339Y1844364D01*
X5055890Y1844505D01*
X5057158Y1844646D01*
X5058850D01*
X5062938Y1844505D01*
D02*
G37*
G36*
X3033978Y7930125D02*
X3015229D01*
Y7947464D01*
X3033978D01*
Y7930125D01*
D02*
G37*
G36*
X2632354D02*
X2613605D01*
Y7947464D01*
X2632354D01*
Y7930125D01*
D02*
G37*
G36*
X3117996Y7849913D02*
X3100657D01*
Y7860204D01*
X3098965Y7858089D01*
X3097273Y7856257D01*
X3095582Y7854847D01*
X3094031Y7853578D01*
X3092621Y7852592D01*
X3091494Y7851887D01*
X3090789Y7851464D01*
X3090507Y7851323D01*
X3088251Y7850336D01*
X3086137Y7849631D01*
X3084163Y7849067D01*
X3082331Y7848785D01*
X3080780Y7848503D01*
X3079511Y7848363D01*
X3078524D01*
X3076269Y7848503D01*
X3074013Y7848785D01*
X3072040Y7849208D01*
X3070066Y7849913D01*
X3066401Y7851464D01*
X3064850Y7852310D01*
X3063300Y7853296D01*
X3062031Y7854142D01*
X3060903Y7854988D01*
X3059916Y7855834D01*
X3059071Y7856539D01*
X3058366Y7857244D01*
X3057943Y7857667D01*
X3057661Y7857948D01*
X3057520Y7858089D01*
X3055969Y7860063D01*
X3054701Y7862037D01*
X3053432Y7864292D01*
X3052445Y7866548D01*
X3051599Y7868944D01*
X3050894Y7871200D01*
X3049908Y7875711D01*
X3049485Y7877825D01*
X3049203Y7879799D01*
X3049062Y7881490D01*
X3048921Y7883041D01*
X3048780Y7884310D01*
Y7885156D01*
Y7885861D01*
Y7886002D01*
X3048921Y7889244D01*
X3049203Y7892204D01*
X3049626Y7895024D01*
X3050049Y7897561D01*
X3050753Y7899958D01*
X3051458Y7902213D01*
X3052304Y7904187D01*
X3053009Y7906019D01*
X3053855Y7907570D01*
X3054701Y7908980D01*
X3055405Y7910107D01*
X3055969Y7911094D01*
X3056533Y7911799D01*
X3056956Y7912363D01*
X3057238Y7912645D01*
X3057379Y7912786D01*
X3059071Y7914477D01*
X3060762Y7915887D01*
X3062454Y7917156D01*
X3064286Y7918284D01*
X3066119Y7919129D01*
X3067811Y7919975D01*
X3071194Y7921103D01*
X3072886Y7921385D01*
X3074295Y7921667D01*
X3075564Y7921949D01*
X3076692Y7922090D01*
X3077538Y7922231D01*
X3078806D01*
X3080921Y7922090D01*
X3083035Y7921808D01*
X3085150Y7921385D01*
X3086983Y7920680D01*
X3090507Y7919129D01*
X3093467Y7917297D01*
X3094736Y7916451D01*
X3095864Y7915464D01*
X3096851Y7914618D01*
X3097696Y7913914D01*
X3098401Y7913209D01*
X3098824Y7912786D01*
X3099106Y7912504D01*
X3099247Y7912363D01*
Y7947464D01*
X3117996D01*
Y7849913D01*
D02*
G37*
G36*
X2511261D02*
X2492512D01*
Y7885297D01*
X2492371Y7888398D01*
X2492230Y7891076D01*
X2491948Y7893473D01*
X2491666Y7895306D01*
X2491384Y7896856D01*
X2491102Y7897843D01*
X2490821Y7898548D01*
Y7898689D01*
X2490116Y7900239D01*
X2489270Y7901649D01*
X2488424Y7902777D01*
X2487437Y7903764D01*
X2486732Y7904469D01*
X2486028Y7905032D01*
X2485605Y7905314D01*
X2485464Y7905455D01*
X2484054Y7906301D01*
X2482644Y7906865D01*
X2481235Y7907288D01*
X2479966Y7907570D01*
X2478838Y7907711D01*
X2477992Y7907852D01*
X2477146D01*
X2475737Y7907711D01*
X2474327Y7907570D01*
X2473199Y7907288D01*
X2472212Y7907006D01*
X2471508Y7906583D01*
X2470803Y7906301D01*
X2470521Y7906160D01*
X2470380Y7906019D01*
X2469393Y7905314D01*
X2468688Y7904469D01*
X2467419Y7902918D01*
X2467138Y7902213D01*
X2466856Y7901790D01*
X2466574Y7901367D01*
Y7901226D01*
X2466433Y7900521D01*
X2466151Y7899817D01*
X2465869Y7897843D01*
X2465728Y7895446D01*
X2465587Y7893050D01*
X2465446Y7890794D01*
Y7889808D01*
Y7888962D01*
Y7888116D01*
Y7887552D01*
Y7887270D01*
Y7887129D01*
Y7849913D01*
X2446697D01*
Y7891358D01*
Y7894742D01*
X2446838Y7897561D01*
X2446979Y7899958D01*
X2447120Y7901931D01*
X2447402Y7903341D01*
X2447543Y7904469D01*
X2447684Y7905173D01*
Y7905314D01*
X2448107Y7907006D01*
X2448670Y7908557D01*
X2449234Y7909966D01*
X2449939Y7911235D01*
X2450503Y7912222D01*
X2450926Y7912927D01*
X2451208Y7913491D01*
X2451349Y7913632D01*
X2452477Y7914900D01*
X2453745Y7916169D01*
X2455014Y7917156D01*
X2456283Y7918002D01*
X2457411Y7918707D01*
X2458397Y7919270D01*
X2458961Y7919552D01*
X2459243Y7919693D01*
X2461217Y7920539D01*
X2463331Y7921103D01*
X2465164Y7921667D01*
X2466997Y7921949D01*
X2468547Y7922090D01*
X2469816Y7922231D01*
X2470944D01*
X2473199Y7922090D01*
X2475455Y7921808D01*
X2477569Y7921244D01*
X2479543Y7920539D01*
X2483208Y7918848D01*
X2484900Y7917861D01*
X2486450Y7916874D01*
X2487719Y7915746D01*
X2488988Y7914759D01*
X2489975Y7913914D01*
X2490961Y7913068D01*
X2491525Y7912363D01*
X2492089Y7911799D01*
X2492371Y7911517D01*
X2492512Y7911376D01*
Y7947464D01*
X2511261D01*
Y7849913D01*
D02*
G37*
G36*
X3203001Y7922090D02*
X3205256Y7921808D01*
X3207371Y7921244D01*
X3209486Y7920539D01*
X3213151Y7918707D01*
X3214842Y7917579D01*
X3216393Y7916592D01*
X3217803Y7915605D01*
X3219072Y7914477D01*
X3220058Y7913632D01*
X3220904Y7912786D01*
X3221609Y7911940D01*
X3222173Y7911376D01*
X3222455Y7911094D01*
X3222596Y7910953D01*
Y7920680D01*
X3239794D01*
Y7849913D01*
X3221045D01*
Y7884169D01*
Y7887693D01*
X3220763Y7890794D01*
X3220622Y7893191D01*
X3220340Y7895306D01*
X3220058Y7896715D01*
X3219917Y7897843D01*
X3219635Y7898548D01*
Y7898689D01*
X3218931Y7900239D01*
X3218226Y7901649D01*
X3217380Y7902777D01*
X3216534Y7903764D01*
X3215829Y7904469D01*
X3215265Y7905032D01*
X3214842Y7905314D01*
X3214701Y7905455D01*
X3213292Y7906301D01*
X3212023Y7906865D01*
X3210754Y7907288D01*
X3209486Y7907570D01*
X3208499Y7907711D01*
X3207653Y7907852D01*
X3205679D01*
X3204552Y7907570D01*
X3203565Y7907429D01*
X3202719Y7907147D01*
X3202155Y7906865D01*
X3201732Y7906583D01*
X3201450Y7906442D01*
X3201309Y7906301D01*
X3200604Y7905737D01*
X3199900Y7905032D01*
X3198913Y7903482D01*
X3198631Y7902918D01*
X3198349Y7902354D01*
X3198208Y7901931D01*
Y7901790D01*
X3198067Y7901226D01*
X3197785Y7900380D01*
X3197503Y7898407D01*
X3197362Y7896292D01*
X3197221Y7894037D01*
X3197080Y7891922D01*
Y7890231D01*
Y7889526D01*
Y7888962D01*
Y7888680D01*
Y7888539D01*
Y7849913D01*
X3178331D01*
Y7883746D01*
Y7887270D01*
X3178049Y7890231D01*
X3177908Y7892768D01*
X3177626Y7894883D01*
X3177344Y7896433D01*
X3177203Y7897561D01*
X3176922Y7898125D01*
Y7898407D01*
X3176217Y7900099D01*
X3175512Y7901508D01*
X3174666Y7902636D01*
X3173820Y7903623D01*
X3173115Y7904469D01*
X3172551Y7905032D01*
X3172129Y7905314D01*
X3171988Y7905455D01*
X3170719Y7906301D01*
X3169309Y7906865D01*
X3168040Y7907288D01*
X3166913Y7907570D01*
X3165926Y7907711D01*
X3165221Y7907852D01*
X3164516D01*
X3162684Y7907711D01*
X3160992Y7907288D01*
X3159582Y7906583D01*
X3158454Y7905878D01*
X3157609Y7905032D01*
X3157045Y7904469D01*
X3156622Y7903905D01*
X3156481Y7903764D01*
X3156199Y7903059D01*
X3155776Y7902354D01*
X3155353Y7900380D01*
X3154930Y7898125D01*
X3154789Y7895869D01*
X3154648Y7893755D01*
X3154507Y7891922D01*
Y7891217D01*
Y7890654D01*
Y7890372D01*
Y7890231D01*
Y7849913D01*
X3135758D01*
Y7895024D01*
X3135899Y7898548D01*
X3136040Y7901649D01*
X3136322Y7904187D01*
X3136745Y7906160D01*
X3137168Y7907711D01*
X3137450Y7908839D01*
X3137591Y7909543D01*
X3137732Y7909684D01*
X3138860Y7911940D01*
X3140128Y7913773D01*
X3141538Y7915323D01*
X3142807Y7916733D01*
X3144075Y7917720D01*
X3145062Y7918425D01*
X3145626Y7918848D01*
X3145908Y7918988D01*
X3148023Y7920116D01*
X3150278Y7920821D01*
X3152393Y7921385D01*
X3154507Y7921808D01*
X3156340Y7922090D01*
X3157750Y7922231D01*
X3159018D01*
X3161274Y7922090D01*
X3163388Y7921808D01*
X3165362Y7921385D01*
X3167054Y7920821D01*
X3168463Y7920257D01*
X3169591Y7919834D01*
X3170296Y7919552D01*
X3170578Y7919411D01*
X3172551Y7918284D01*
X3174384Y7916874D01*
X3176076Y7915464D01*
X3177626Y7914055D01*
X3178895Y7912786D01*
X3179741Y7911799D01*
X3180305Y7911094D01*
X3180587Y7910812D01*
X3181855Y7912786D01*
X3183265Y7914618D01*
X3184675Y7916028D01*
X3185944Y7917297D01*
X3187071Y7918284D01*
X3188058Y7918848D01*
X3188622Y7919270D01*
X3188904Y7919411D01*
X3190878Y7920398D01*
X3192851Y7921103D01*
X3194825Y7921526D01*
X3196657Y7921949D01*
X3198208Y7922090D01*
X3199477Y7922231D01*
X3200604D01*
X3203001Y7922090D01*
D02*
G37*
G36*
X2571032D02*
X2573288Y7921808D01*
X2575403Y7921385D01*
X2577517Y7920821D01*
X2581041Y7919270D01*
X2582733Y7918425D01*
X2584143Y7917579D01*
X2585552Y7916592D01*
X2586680Y7915746D01*
X2587667Y7915041D01*
X2588513Y7914336D01*
X2589218Y7913632D01*
X2589640Y7913209D01*
X2589922Y7912927D01*
X2590063Y7912786D01*
X2591614Y7910953D01*
X2592883Y7908980D01*
X2594011Y7906724D01*
X2594997Y7904610D01*
X2595702Y7902354D01*
X2596407Y7900099D01*
X2597394Y7895587D01*
X2597817Y7893614D01*
X2598099Y7891640D01*
X2598240Y7889949D01*
X2598381Y7888539D01*
X2598522Y7887270D01*
Y7886424D01*
Y7885720D01*
Y7885579D01*
X2598381Y7883041D01*
X2598240Y7880504D01*
X2597535Y7875993D01*
X2596971Y7873878D01*
X2596407Y7871904D01*
X2595843Y7870072D01*
X2595279Y7868521D01*
X2594715Y7866971D01*
X2594152Y7865702D01*
X2593588Y7864574D01*
X2593024Y7863587D01*
X2592601Y7862882D01*
X2592319Y7862319D01*
X2592037Y7862037D01*
Y7861896D01*
X2590345Y7859781D01*
X2588654Y7857948D01*
X2586821Y7856398D01*
X2584988Y7854988D01*
X2583156Y7853860D01*
X2581182Y7852874D01*
X2579350Y7852028D01*
X2577658Y7851464D01*
X2575966Y7850900D01*
X2574416Y7850618D01*
X2573006Y7850336D01*
X2571878Y7850054D01*
X2570891D01*
X2570046Y7849913D01*
X2569482D01*
X2567085Y7850054D01*
X2564830Y7850477D01*
X2562715Y7851041D01*
X2560742Y7851746D01*
X2557217Y7853578D01*
X2555526Y7854565D01*
X2554116Y7855693D01*
X2552847Y7856680D01*
X2551579Y7857667D01*
X2550592Y7858653D01*
X2549887Y7859499D01*
X2549182Y7860345D01*
X2548759Y7860909D01*
X2548477Y7861191D01*
X2548336Y7861332D01*
Y7851041D01*
Y7848926D01*
X2548477Y7847094D01*
X2548618Y7845684D01*
X2548759Y7844556D01*
X2549041Y7843570D01*
X2549182Y7843006D01*
X2549323Y7842724D01*
Y7842583D01*
X2549887Y7841455D01*
X2550451Y7840468D01*
X2551015Y7839622D01*
X2551579Y7838918D01*
X2552142Y7838354D01*
X2552565Y7838072D01*
X2552847Y7837931D01*
X2552988Y7837790D01*
X2554539Y7837085D01*
X2556231Y7836521D01*
X2558063Y7836098D01*
X2559896Y7835816D01*
X2561446Y7835675D01*
X2562715Y7835534D01*
X2563984D01*
X2565958Y7835675D01*
X2567649Y7835816D01*
X2569059Y7836239D01*
X2570187Y7836662D01*
X2571173Y7836944D01*
X2571737Y7837367D01*
X2572160Y7837508D01*
X2572301Y7837649D01*
X2573006Y7838213D01*
X2573570Y7839058D01*
X2574275Y7840750D01*
X2574416Y7841455D01*
X2574557Y7842160D01*
X2574698Y7842583D01*
Y7842724D01*
X2596125Y7845261D01*
X2596266Y7844415D01*
Y7843710D01*
Y7843147D01*
Y7843006D01*
X2596125Y7841314D01*
X2595984Y7839622D01*
X2595138Y7836521D01*
X2593870Y7833843D01*
X2592460Y7831587D01*
X2591191Y7829754D01*
X2589922Y7828486D01*
X2589077Y7827640D01*
X2588936Y7827499D01*
X2588795Y7827358D01*
X2587244Y7826230D01*
X2585552Y7825384D01*
X2583579Y7824539D01*
X2581605Y7823834D01*
X2577376Y7822706D01*
X2573147Y7822001D01*
X2571173Y7821719D01*
X2569341Y7821437D01*
X2567649Y7821296D01*
X2566239D01*
X2564971Y7821155D01*
X2563279D01*
X2559896Y7821296D01*
X2556794Y7821437D01*
X2554116Y7821860D01*
X2551720Y7822283D01*
X2549887Y7822565D01*
X2548618Y7822988D01*
X2547772Y7823129D01*
X2547490Y7823270D01*
X2545235Y7824116D01*
X2543261Y7824961D01*
X2541570Y7825948D01*
X2540160Y7826794D01*
X2539173Y7827499D01*
X2538327Y7828204D01*
X2537764Y7828627D01*
X2537623Y7828768D01*
X2536213Y7830177D01*
X2535085Y7831728D01*
X2534098Y7833420D01*
X2533252Y7834970D01*
X2532548Y7836380D01*
X2532125Y7837508D01*
X2531843Y7838213D01*
X2531702Y7838495D01*
X2531279Y7839763D01*
X2530997Y7841032D01*
X2530433Y7843992D01*
X2530151Y7847094D01*
X2529869Y7850195D01*
X2529728Y7852874D01*
X2529587Y7854001D01*
Y7855129D01*
Y7855975D01*
Y7856539D01*
Y7856962D01*
Y7857103D01*
Y7920680D01*
X2547068D01*
Y7910530D01*
X2548759Y7912645D01*
X2550451Y7914336D01*
X2552283Y7916028D01*
X2554116Y7917297D01*
X2555949Y7918425D01*
X2557781Y7919411D01*
X2559473Y7920116D01*
X2561165Y7920821D01*
X2562715Y7921244D01*
X2564125Y7921667D01*
X2565535Y7921808D01*
X2566521Y7922090D01*
X2567508D01*
X2568213Y7922231D01*
X2568777D01*
X2571032Y7922090D01*
D02*
G37*
G36*
X2835915Y7934777D02*
Y7920680D01*
X2844514D01*
Y7905737D01*
X2835915D01*
Y7874865D01*
Y7873032D01*
Y7871482D01*
Y7869931D01*
X2835774Y7868662D01*
Y7866407D01*
X2835633Y7864574D01*
X2835492Y7863164D01*
Y7862319D01*
X2835351Y7861755D01*
Y7861614D01*
X2835069Y7860063D01*
X2834646Y7858653D01*
X2834223Y7857385D01*
X2833801Y7856398D01*
X2833378Y7855552D01*
X2833096Y7854988D01*
X2832955Y7854565D01*
X2832814Y7854424D01*
X2831968Y7853437D01*
X2830981Y7852592D01*
X2829008Y7851182D01*
X2828162Y7850759D01*
X2827457Y7850336D01*
X2826893Y7850195D01*
X2826752Y7850054D01*
X2825201Y7849490D01*
X2823651Y7849067D01*
X2822100Y7848785D01*
X2820690Y7848644D01*
X2819422Y7848503D01*
X2818435Y7848363D01*
X2817589D01*
X2814629Y7848503D01*
X2811809Y7848785D01*
X2809272Y7849208D01*
X2807157Y7849772D01*
X2805325Y7850195D01*
X2803915Y7850618D01*
X2803069Y7850900D01*
X2802928Y7851041D01*
X2802787D01*
X2804479Y7865561D01*
X2806170Y7864997D01*
X2807721Y7864574D01*
X2808990Y7864292D01*
X2810118Y7864151D01*
X2810963Y7864010D01*
X2811527Y7863869D01*
X2812091D01*
X2813360Y7864010D01*
X2814347Y7864292D01*
X2814911Y7864574D01*
X2815192Y7864715D01*
X2816038Y7865561D01*
X2816461Y7866266D01*
X2816743Y7866830D01*
X2816884Y7867112D01*
Y7867393D01*
X2817025Y7867957D01*
Y7869226D01*
Y7870918D01*
X2817166Y7872609D01*
Y7874301D01*
Y7875711D01*
Y7876275D01*
Y7876697D01*
Y7876979D01*
Y7877120D01*
Y7905737D01*
X2804338D01*
Y7920680D01*
X2817166D01*
Y7945773D01*
X2835915Y7934777D01*
D02*
G37*
G36*
X2426820D02*
Y7920680D01*
X2435419D01*
Y7905737D01*
X2426820D01*
Y7874865D01*
Y7873032D01*
Y7871482D01*
Y7869931D01*
X2426679Y7868662D01*
Y7866407D01*
X2426538Y7864574D01*
X2426397Y7863164D01*
Y7862319D01*
X2426256Y7861755D01*
Y7861614D01*
X2425974Y7860063D01*
X2425551Y7858653D01*
X2425128Y7857385D01*
X2424706Y7856398D01*
X2424283Y7855552D01*
X2424001Y7854988D01*
X2423860Y7854565D01*
X2423719Y7854424D01*
X2422873Y7853437D01*
X2421886Y7852592D01*
X2419913Y7851182D01*
X2419067Y7850759D01*
X2418362Y7850336D01*
X2417798Y7850195D01*
X2417657Y7850054D01*
X2416106Y7849490D01*
X2414556Y7849067D01*
X2413005Y7848785D01*
X2411595Y7848644D01*
X2410327Y7848503D01*
X2409340Y7848363D01*
X2408494D01*
X2405534Y7848503D01*
X2402714Y7848785D01*
X2400177Y7849208D01*
X2398062Y7849772D01*
X2396230Y7850195D01*
X2394820Y7850618D01*
X2393974Y7850900D01*
X2393833Y7851041D01*
X2393692D01*
X2395384Y7865561D01*
X2397075Y7864997D01*
X2398626Y7864574D01*
X2399895Y7864292D01*
X2401023Y7864151D01*
X2401868Y7864010D01*
X2402432Y7863869D01*
X2402996D01*
X2404265Y7864010D01*
X2405252Y7864292D01*
X2405816Y7864574D01*
X2406098Y7864715D01*
X2406943Y7865561D01*
X2407366Y7866266D01*
X2407648Y7866830D01*
X2407789Y7867112D01*
Y7867393D01*
X2407930Y7867957D01*
Y7869226D01*
Y7870918D01*
X2408071Y7872609D01*
Y7874301D01*
Y7875711D01*
Y7876275D01*
Y7876697D01*
Y7876979D01*
Y7877120D01*
Y7905737D01*
X2395243D01*
Y7920680D01*
X2408071D01*
Y7945773D01*
X2426820Y7934777D01*
D02*
G37*
G36*
X2971669Y7922090D02*
X2974066Y7921808D01*
X2976462Y7921244D01*
X2978577Y7920680D01*
X2980691Y7919975D01*
X2982524Y7919129D01*
X2984356Y7918143D01*
X2985907Y7917297D01*
X2987317Y7916310D01*
X2988586Y7915323D01*
X2989713Y7914477D01*
X2990559Y7913773D01*
X2991264Y7913209D01*
X2991828Y7912645D01*
X2992110Y7912363D01*
X2992251Y7912222D01*
X2993801Y7910248D01*
X2995211Y7908134D01*
X2996480Y7906019D01*
X2997608Y7903764D01*
X2998453Y7901367D01*
X2999158Y7899112D01*
X3000286Y7894742D01*
X3000709Y7892627D01*
X3000991Y7890794D01*
X3001132Y7889103D01*
X3001273Y7887693D01*
X3001414Y7886424D01*
Y7885438D01*
Y7884874D01*
Y7884733D01*
X3001273Y7882054D01*
X3001132Y7879376D01*
X3000709Y7876979D01*
X3000286Y7874724D01*
X2999863Y7872468D01*
X2999158Y7870495D01*
X2998594Y7868662D01*
X2997890Y7866971D01*
X2997326Y7865420D01*
X2996621Y7864151D01*
X2996057Y7863023D01*
X2995634Y7862037D01*
X2995070Y7861332D01*
X2994788Y7860768D01*
X2994647Y7860486D01*
X2994506Y7860345D01*
X2992674Y7858230D01*
X2990841Y7856398D01*
X2988727Y7854847D01*
X2986471Y7853437D01*
X2984216Y7852310D01*
X2981960Y7851323D01*
X2979704Y7850477D01*
X2977449Y7849913D01*
X2975475Y7849349D01*
X2973502Y7849067D01*
X2971669Y7848785D01*
X2970119Y7848503D01*
X2968850D01*
X2968004Y7848363D01*
X2967158D01*
X2963070Y7848644D01*
X2959264Y7849208D01*
X2956022Y7850054D01*
X2953202Y7851041D01*
X2951933Y7851605D01*
X2950947Y7852028D01*
X2949960Y7852451D01*
X2949255Y7852874D01*
X2948691Y7853296D01*
X2948127Y7853437D01*
X2947986Y7853719D01*
X2947845D01*
X2945167Y7855975D01*
X2942770Y7858371D01*
X2940797Y7861050D01*
X2939246Y7863587D01*
X2937977Y7865843D01*
X2937554Y7866830D01*
X2937132Y7867675D01*
X2936850Y7868380D01*
X2936568Y7868944D01*
X2936427Y7869226D01*
Y7869367D01*
X2955035Y7872468D01*
X2955740Y7870636D01*
X2956444Y7868944D01*
X2957149Y7867675D01*
X2957995Y7866548D01*
X2958559Y7865702D01*
X2959123Y7865138D01*
X2959546Y7864856D01*
X2959687Y7864715D01*
X2960815Y7863869D01*
X2962083Y7863305D01*
X2963352Y7862882D01*
X2964480Y7862600D01*
X2965467Y7862460D01*
X2966312Y7862319D01*
X2967017D01*
X2969273Y7862460D01*
X2971387Y7863023D01*
X2973361Y7863728D01*
X2974911Y7864574D01*
X2976180Y7865420D01*
X2977026Y7866125D01*
X2977731Y7866689D01*
X2977872Y7866830D01*
X2979282Y7868662D01*
X2980268Y7870777D01*
X2981114Y7873032D01*
X2981678Y7875006D01*
X2981960Y7876979D01*
X2982101Y7878389D01*
X2982242Y7878953D01*
Y7879376D01*
Y7879658D01*
Y7879799D01*
X2935440D01*
Y7883746D01*
X2935722Y7887270D01*
X2936145Y7890654D01*
X2936709Y7893755D01*
X2937413Y7896715D01*
X2938118Y7899253D01*
X2938964Y7901649D01*
X2939810Y7903764D01*
X2940656Y7905596D01*
X2941502Y7907288D01*
X2942206Y7908557D01*
X2942911Y7909684D01*
X2943475Y7910530D01*
X2943898Y7911235D01*
X2944180Y7911517D01*
X2944321Y7911658D01*
X2946013Y7913491D01*
X2947986Y7915182D01*
X2949960Y7916592D01*
X2951933Y7917720D01*
X2954048Y7918848D01*
X2956162Y7919693D01*
X2958136Y7920398D01*
X2960110Y7920962D01*
X2961942Y7921385D01*
X2963634Y7921667D01*
X2965185Y7921949D01*
X2966453Y7922090D01*
X2967581Y7922231D01*
X2969132D01*
X2971669Y7922090D01*
D02*
G37*
G36*
X2191259D02*
X2193656Y7921808D01*
X2196052Y7921244D01*
X2198167Y7920680D01*
X2200281Y7919975D01*
X2202114Y7919129D01*
X2203947Y7918143D01*
X2205497Y7917297D01*
X2206907Y7916310D01*
X2208176Y7915323D01*
X2209303Y7914477D01*
X2210149Y7913773D01*
X2210854Y7913209D01*
X2211418Y7912645D01*
X2211700Y7912363D01*
X2211841Y7912222D01*
X2213392Y7910248D01*
X2214801Y7908134D01*
X2216070Y7906019D01*
X2217198Y7903764D01*
X2218044Y7901367D01*
X2218748Y7899112D01*
X2219876Y7894742D01*
X2220299Y7892627D01*
X2220581Y7890794D01*
X2220722Y7889103D01*
X2220863Y7887693D01*
X2221004Y7886424D01*
Y7885438D01*
Y7884874D01*
Y7884733D01*
X2220863Y7882054D01*
X2220722Y7879376D01*
X2220299Y7876979D01*
X2219876Y7874724D01*
X2219453Y7872468D01*
X2218748Y7870495D01*
X2218185Y7868662D01*
X2217480Y7866971D01*
X2216916Y7865420D01*
X2216211Y7864151D01*
X2215647Y7863023D01*
X2215224Y7862037D01*
X2214660Y7861332D01*
X2214378Y7860768D01*
X2214237Y7860486D01*
X2214096Y7860345D01*
X2212264Y7858230D01*
X2210431Y7856398D01*
X2208317Y7854847D01*
X2206061Y7853437D01*
X2203806Y7852310D01*
X2201550Y7851323D01*
X2199295Y7850477D01*
X2197039Y7849913D01*
X2195065Y7849349D01*
X2193092Y7849067D01*
X2191259Y7848785D01*
X2189709Y7848503D01*
X2188440D01*
X2187594Y7848363D01*
X2186748D01*
X2182660Y7848644D01*
X2178854Y7849208D01*
X2175612Y7850054D01*
X2172792Y7851041D01*
X2171523Y7851605D01*
X2170537Y7852028D01*
X2169550Y7852451D01*
X2168845Y7852874D01*
X2168281Y7853296D01*
X2167717Y7853437D01*
X2167576Y7853719D01*
X2167435D01*
X2164757Y7855975D01*
X2162360Y7858371D01*
X2160387Y7861050D01*
X2158836Y7863587D01*
X2157567Y7865843D01*
X2157145Y7866830D01*
X2156722Y7867675D01*
X2156440Y7868380D01*
X2156158Y7868944D01*
X2156017Y7869226D01*
Y7869367D01*
X2174625Y7872468D01*
X2175330Y7870636D01*
X2176035Y7868944D01*
X2176739Y7867675D01*
X2177585Y7866548D01*
X2178149Y7865702D01*
X2178713Y7865138D01*
X2179136Y7864856D01*
X2179277Y7864715D01*
X2180405Y7863869D01*
X2181673Y7863305D01*
X2182942Y7862882D01*
X2184070Y7862600D01*
X2185057Y7862460D01*
X2185902Y7862319D01*
X2186607D01*
X2188863Y7862460D01*
X2190977Y7863023D01*
X2192951Y7863728D01*
X2194502Y7864574D01*
X2195770Y7865420D01*
X2196616Y7866125D01*
X2197321Y7866689D01*
X2197462Y7866830D01*
X2198872Y7868662D01*
X2199858Y7870777D01*
X2200704Y7873032D01*
X2201268Y7875006D01*
X2201550Y7876979D01*
X2201691Y7878389D01*
X2201832Y7878953D01*
Y7879376D01*
Y7879658D01*
Y7879799D01*
X2155030D01*
Y7883746D01*
X2155312Y7887270D01*
X2155735Y7890654D01*
X2156299Y7893755D01*
X2157004Y7896715D01*
X2157708Y7899253D01*
X2158554Y7901649D01*
X2159400Y7903764D01*
X2160246Y7905596D01*
X2161092Y7907288D01*
X2161797Y7908557D01*
X2162501Y7909684D01*
X2163065Y7910530D01*
X2163488Y7911235D01*
X2163770Y7911517D01*
X2163911Y7911658D01*
X2165603Y7913491D01*
X2167576Y7915182D01*
X2169550Y7916592D01*
X2171523Y7917720D01*
X2173638Y7918848D01*
X2175753Y7919693D01*
X2177726Y7920398D01*
X2179700Y7920962D01*
X2181532Y7921385D01*
X2183224Y7921667D01*
X2184775Y7921949D01*
X2186043Y7922090D01*
X2187171Y7922231D01*
X2188722D01*
X2191259Y7922090D01*
D02*
G37*
G36*
X3346649Y7849913D02*
X3325786D01*
X3317751Y7872045D01*
X3278561D01*
X3270103Y7849913D01*
X3248816D01*
X3288006Y7947464D01*
X3308869D01*
X3346649Y7849913D01*
D02*
G37*
G36*
X3033978D02*
X3015229D01*
Y7920680D01*
X3033978D01*
Y7849913D01*
D02*
G37*
G36*
X2882294Y7922090D02*
X2884832Y7921667D01*
X2887087Y7921103D01*
X2889343Y7920398D01*
X2891457Y7919411D01*
X2893290Y7918425D01*
X2895122Y7917297D01*
X2896673Y7916310D01*
X2898083Y7915182D01*
X2899352Y7914055D01*
X2900479Y7913068D01*
X2901325Y7912081D01*
X2902030Y7911376D01*
X2902594Y7910812D01*
X2902876Y7910389D01*
X2903017Y7910248D01*
Y7920680D01*
X2920356D01*
Y7849913D01*
X2901607D01*
Y7881772D01*
Y7883887D01*
Y7885861D01*
X2901466Y7887693D01*
X2901325Y7889244D01*
Y7890794D01*
X2901184Y7892063D01*
X2901043Y7893332D01*
X2900902Y7894319D01*
X2900620Y7896010D01*
X2900479Y7897138D01*
X2900197Y7897843D01*
Y7897984D01*
X2899634Y7899535D01*
X2898788Y7901085D01*
X2897942Y7902213D01*
X2897096Y7903341D01*
X2896250Y7904046D01*
X2895545Y7904751D01*
X2895122Y7905032D01*
X2894982Y7905173D01*
X2893431Y7906019D01*
X2891880Y7906724D01*
X2890470Y7907147D01*
X2889061Y7907570D01*
X2887933Y7907711D01*
X2887087Y7907852D01*
X2886241D01*
X2884832Y7907711D01*
X2883563Y7907570D01*
X2882576Y7907288D01*
X2881589Y7906865D01*
X2880744Y7906442D01*
X2880180Y7906160D01*
X2879898Y7906019D01*
X2879757Y7905878D01*
X2878770Y7905173D01*
X2878065Y7904328D01*
X2876796Y7902636D01*
X2876373Y7901790D01*
X2876092Y7901226D01*
X2875810Y7900803D01*
Y7900662D01*
X2875528Y7899958D01*
X2875387Y7899112D01*
X2875105Y7896997D01*
X2874823Y7894460D01*
X2874682Y7892063D01*
X2874541Y7889667D01*
Y7888680D01*
Y7887693D01*
Y7886988D01*
Y7886424D01*
Y7886002D01*
Y7885861D01*
Y7849913D01*
X2855792D01*
Y7893755D01*
Y7896715D01*
X2855933Y7899112D01*
X2856074Y7901367D01*
X2856356Y7903059D01*
X2856497Y7904469D01*
X2856779Y7905455D01*
X2856920Y7906160D01*
Y7906301D01*
X2857343Y7907993D01*
X2857906Y7909403D01*
X2858470Y7910812D01*
X2859175Y7911940D01*
X2859739Y7912927D01*
X2860162Y7913632D01*
X2860444Y7914055D01*
X2860585Y7914195D01*
X2861713Y7915464D01*
X2862981Y7916592D01*
X2864250Y7917579D01*
X2865519Y7918425D01*
X2866647Y7919129D01*
X2867633Y7919552D01*
X2868197Y7919834D01*
X2868479Y7919975D01*
X2870453Y7920680D01*
X2872426Y7921244D01*
X2874259Y7921667D01*
X2875951Y7921949D01*
X2877501Y7922090D01*
X2878770Y7922231D01*
X2879757D01*
X2882294Y7922090D01*
D02*
G37*
G36*
X2714963Y7849913D02*
X2646169D01*
Y7866407D01*
X2695227D01*
Y7946760D01*
X2714963D01*
Y7849913D01*
D02*
G37*
G36*
X2632354D02*
X2613605D01*
Y7920680D01*
X2632354D01*
Y7849913D01*
D02*
G37*
G36*
X2101884Y7922090D02*
X2104422Y7921667D01*
X2106677Y7921103D01*
X2108933Y7920398D01*
X2111047Y7919411D01*
X2112880Y7918425D01*
X2114713Y7917297D01*
X2116263Y7916310D01*
X2117673Y7915182D01*
X2118942Y7914055D01*
X2120069Y7913068D01*
X2120915Y7912081D01*
X2121620Y7911376D01*
X2122184Y7910812D01*
X2122466Y7910389D01*
X2122607Y7910248D01*
Y7920680D01*
X2139946D01*
Y7849913D01*
X2121197D01*
Y7881772D01*
Y7883887D01*
Y7885861D01*
X2121056Y7887693D01*
X2120915Y7889244D01*
Y7890794D01*
X2120774Y7892063D01*
X2120633Y7893332D01*
X2120492Y7894319D01*
X2120210Y7896010D01*
X2120069Y7897138D01*
X2119787Y7897843D01*
Y7897984D01*
X2119224Y7899535D01*
X2118378Y7901085D01*
X2117532Y7902213D01*
X2116686Y7903341D01*
X2115840Y7904046D01*
X2115135Y7904751D01*
X2114713Y7905032D01*
X2114572Y7905173D01*
X2113021Y7906019D01*
X2111470Y7906724D01*
X2110061Y7907147D01*
X2108651Y7907570D01*
X2107523Y7907711D01*
X2106677Y7907852D01*
X2105831D01*
X2104422Y7907711D01*
X2103153Y7907570D01*
X2102166Y7907288D01*
X2101179Y7906865D01*
X2100334Y7906442D01*
X2099770Y7906160D01*
X2099488Y7906019D01*
X2099347Y7905878D01*
X2098360Y7905173D01*
X2097655Y7904328D01*
X2096386Y7902636D01*
X2095964Y7901790D01*
X2095682Y7901226D01*
X2095400Y7900803D01*
Y7900662D01*
X2095118Y7899958D01*
X2094977Y7899112D01*
X2094695Y7896997D01*
X2094413Y7894460D01*
X2094272Y7892063D01*
X2094131Y7889667D01*
Y7888680D01*
Y7887693D01*
Y7886988D01*
Y7886424D01*
Y7886002D01*
Y7885861D01*
Y7849913D01*
X2075382D01*
Y7893755D01*
Y7896715D01*
X2075523Y7899112D01*
X2075664Y7901367D01*
X2075946Y7903059D01*
X2076087Y7904469D01*
X2076369Y7905455D01*
X2076510Y7906160D01*
Y7906301D01*
X2076933Y7907993D01*
X2077496Y7909403D01*
X2078060Y7910812D01*
X2078765Y7911940D01*
X2079329Y7912927D01*
X2079752Y7913632D01*
X2080034Y7914055D01*
X2080175Y7914195D01*
X2081303Y7915464D01*
X2082571Y7916592D01*
X2083840Y7917579D01*
X2085109Y7918425D01*
X2086237Y7919129D01*
X2087223Y7919552D01*
X2087787Y7919834D01*
X2088069Y7919975D01*
X2090043Y7920680D01*
X2092016Y7921244D01*
X2093849Y7921667D01*
X2095541Y7921949D01*
X2097091Y7922090D01*
X2098360Y7922231D01*
X2099347D01*
X2101884Y7922090D01*
D02*
G37*
G36*
X1866464D02*
X1867874Y7921949D01*
X1869284Y7921526D01*
X1870412Y7921103D01*
X1871398Y7920680D01*
X1872244Y7920398D01*
X1872667Y7920116D01*
X1872808Y7919975D01*
X1874218Y7918988D01*
X1875486Y7917579D01*
X1876896Y7916028D01*
X1878024Y7914477D01*
X1879152Y7912927D01*
X1879998Y7911658D01*
X1880561Y7910812D01*
X1880702Y7910671D01*
Y7920680D01*
X1898042D01*
Y7849913D01*
X1879293D01*
Y7871623D01*
Y7874865D01*
Y7877825D01*
X1879152Y7880504D01*
X1879011Y7882900D01*
Y7885156D01*
X1878870Y7886988D01*
X1878729Y7888821D01*
X1878588Y7890231D01*
X1878447Y7891499D01*
X1878306Y7892627D01*
X1878165Y7893473D01*
Y7894178D01*
X1878024Y7894601D01*
X1877883Y7895024D01*
Y7895306D01*
X1877319Y7897279D01*
X1876614Y7898971D01*
X1875909Y7900380D01*
X1875205Y7901367D01*
X1874641Y7902213D01*
X1874077Y7902777D01*
X1873795Y7903059D01*
X1873654Y7903200D01*
X1872526Y7903905D01*
X1871398Y7904469D01*
X1870271Y7904891D01*
X1869284Y7905173D01*
X1868438Y7905314D01*
X1867592Y7905455D01*
X1867028D01*
X1865478Y7905314D01*
X1863927Y7905032D01*
X1862517Y7904469D01*
X1861108Y7903905D01*
X1859980Y7903341D01*
X1859134Y7902777D01*
X1858429Y7902495D01*
X1858288Y7902354D01*
X1852367Y7918566D01*
X1854623Y7919834D01*
X1856737Y7920680D01*
X1858852Y7921385D01*
X1860826Y7921808D01*
X1862376Y7922090D01*
X1863645Y7922231D01*
X1864773D01*
X1866464Y7922090D01*
D02*
G37*
G36*
X2036051Y7921949D02*
X2038448Y7921667D01*
X2040703Y7921244D01*
X2042677Y7920821D01*
X2044509Y7920257D01*
X2046201Y7919693D01*
X2047752Y7919129D01*
X2049021Y7918425D01*
X2050148Y7917861D01*
X2051135Y7917297D01*
X2051840Y7916874D01*
X2052545Y7916451D01*
X2052968Y7916169D01*
X2053109Y7916028D01*
X2053250Y7915887D01*
X2054518Y7914759D01*
X2055646Y7913491D01*
X2056633Y7912222D01*
X2057338Y7910812D01*
X2058747Y7908275D01*
X2059593Y7905878D01*
X2060016Y7903764D01*
X2060157Y7902777D01*
X2060298Y7902072D01*
X2060439Y7901367D01*
Y7900944D01*
Y7900662D01*
Y7900521D01*
X2060298Y7898689D01*
X2060016Y7896997D01*
X2059734Y7895306D01*
X2059170Y7893755D01*
X2057761Y7891076D01*
X2056210Y7888821D01*
X2054800Y7886988D01*
X2053391Y7885720D01*
X2052827Y7885156D01*
X2052545Y7884874D01*
X2052263Y7884733D01*
X2052122Y7884592D01*
X2050853Y7883887D01*
X2049162Y7883041D01*
X2047188Y7882195D01*
X2045073Y7881490D01*
X2042818Y7880645D01*
X2040421Y7879940D01*
X2035487Y7878530D01*
X2033091Y7877825D01*
X2030835Y7877261D01*
X2028862Y7876697D01*
X2027029Y7876275D01*
X2025479Y7875993D01*
X2024351Y7875711D01*
X2023646Y7875429D01*
X2023364D01*
X2021672Y7875006D01*
X2020404Y7874583D01*
X2019276Y7874160D01*
X2018430Y7873878D01*
X2017866Y7873455D01*
X2017443Y7873314D01*
X2017161Y7873032D01*
X2016315Y7871904D01*
X2015893Y7870777D01*
X2015752Y7869931D01*
Y7869649D01*
Y7869508D01*
X2015893Y7868380D01*
X2016175Y7867393D01*
X2016597Y7866548D01*
X2017020Y7865843D01*
X2017443Y7865279D01*
X2017866Y7864856D01*
X2018148Y7864574D01*
X2018289Y7864433D01*
X2019840Y7863587D01*
X2021531Y7863023D01*
X2023364Y7862460D01*
X2025056Y7862178D01*
X2026606Y7862037D01*
X2028016Y7861896D01*
X2029144D01*
X2031540Y7862037D01*
X2033514Y7862319D01*
X2035346Y7862741D01*
X2036756Y7863305D01*
X2037884Y7863728D01*
X2038730Y7864151D01*
X2039294Y7864433D01*
X2039435Y7864574D01*
X2040703Y7865702D01*
X2041690Y7867112D01*
X2042536Y7868380D01*
X2043241Y7869790D01*
X2043664Y7871059D01*
X2043946Y7872045D01*
X2044228Y7872609D01*
Y7872891D01*
X2062977Y7870072D01*
X2061708Y7866548D01*
X2060157Y7863305D01*
X2058466Y7860627D01*
X2056633Y7858371D01*
X2054941Y7856539D01*
X2053391Y7855270D01*
X2052968Y7854706D01*
X2052545Y7854424D01*
X2052263Y7854283D01*
X2052122Y7854142D01*
X2050430Y7853155D01*
X2048739Y7852169D01*
X2044932Y7850759D01*
X2041126Y7849772D01*
X2037461Y7849067D01*
X2035769Y7848785D01*
X2034219Y7848644D01*
X2032809Y7848503D01*
X2031540D01*
X2030553Y7848363D01*
X2029144D01*
X2026324Y7848503D01*
X2023646Y7848644D01*
X2021108Y7849067D01*
X2018712Y7849490D01*
X2016597Y7849913D01*
X2014624Y7850618D01*
X2012791Y7851182D01*
X2011241Y7851887D01*
X2009831Y7852451D01*
X2008562Y7853155D01*
X2007575Y7853719D01*
X2006730Y7854142D01*
X2006025Y7854706D01*
X2005602Y7854988D01*
X2005320Y7855129D01*
X2005179Y7855270D01*
X2003769Y7856680D01*
X2002500Y7858089D01*
X2001373Y7859499D01*
X2000386Y7860909D01*
X1999681Y7862319D01*
X1998976Y7863728D01*
X1997989Y7866266D01*
X1997426Y7868662D01*
X1997285Y7869649D01*
X1997144Y7870354D01*
X1997003Y7871059D01*
Y7871623D01*
Y7871904D01*
Y7872045D01*
X1997285Y7875147D01*
X1997989Y7877966D01*
X1998835Y7880363D01*
X1999963Y7882336D01*
X2001091Y7883887D01*
X2001937Y7885015D01*
X2002641Y7885579D01*
X2002923Y7885861D01*
X2004192Y7886706D01*
X2005461Y7887693D01*
X2007011Y7888398D01*
X2008703Y7889244D01*
X2012086Y7890654D01*
X2015611Y7891922D01*
X2018712Y7892909D01*
X2020122Y7893191D01*
X2021390Y7893614D01*
X2022377Y7893896D01*
X2023082Y7894037D01*
X2023646Y7894178D01*
X2023787D01*
X2026465Y7894883D01*
X2028862Y7895446D01*
X2030976Y7896010D01*
X2032809Y7896574D01*
X2034501Y7896997D01*
X2035910Y7897420D01*
X2037038Y7897843D01*
X2038166Y7898125D01*
X2039012Y7898548D01*
X2039717Y7898830D01*
X2040280Y7898971D01*
X2040562Y7899253D01*
X2041126Y7899394D01*
X2041267Y7899535D01*
X2041831Y7900099D01*
X2042254Y7900662D01*
X2042818Y7901790D01*
X2043100Y7902636D01*
Y7902777D01*
Y7902918D01*
X2042959Y7903764D01*
X2042818Y7904469D01*
X2041972Y7905737D01*
X2041267Y7906442D01*
X2041126Y7906724D01*
X2040985D01*
X2039576Y7907429D01*
X2038025Y7907993D01*
X2036333Y7908275D01*
X2034501Y7908557D01*
X2032950Y7908698D01*
X2031681Y7908839D01*
X2030412D01*
X2028298Y7908698D01*
X2026465Y7908557D01*
X2024915Y7908134D01*
X2023646Y7907711D01*
X2022659Y7907288D01*
X2021954Y7907006D01*
X2021531Y7906724D01*
X2021390Y7906583D01*
X2020263Y7905737D01*
X2019417Y7904751D01*
X2018571Y7903764D01*
X2018007Y7902636D01*
X2017584Y7901790D01*
X2017302Y7901085D01*
X2017020Y7900521D01*
Y7900380D01*
X1999399Y7903623D01*
X2000527Y7906865D01*
X2002078Y7909684D01*
X2003628Y7912081D01*
X2005320Y7913914D01*
X2006730Y7915464D01*
X2007998Y7916592D01*
X2008844Y7917156D01*
X2008985Y7917438D01*
X2009126D01*
X2010536Y7918284D01*
X2012086Y7918988D01*
X2015470Y7920257D01*
X2018994Y7921103D01*
X2022518Y7921667D01*
X2024210Y7921808D01*
X2025760Y7921949D01*
X2027170Y7922090D01*
X2028298Y7922231D01*
X2033514D01*
X2036051Y7921949D01*
D02*
G37*
G36*
X1952315Y7922090D02*
X1955839Y7921526D01*
X1959082Y7920821D01*
X1961901Y7919975D01*
X1963029Y7919411D01*
X1964157Y7918988D01*
X1965143Y7918707D01*
X1965848Y7918284D01*
X1966553Y7918002D01*
X1966976Y7917720D01*
X1967258Y7917579D01*
X1967399D01*
X1970359Y7915605D01*
X1972897Y7913491D01*
X1975152Y7911235D01*
X1976985Y7909121D01*
X1978395Y7907147D01*
X1979522Y7905596D01*
X1979945Y7905032D01*
X1980086Y7904610D01*
X1980368Y7904328D01*
Y7904187D01*
X1981919Y7900944D01*
X1982906Y7897702D01*
X1983751Y7894742D01*
X1984315Y7892063D01*
X1984597Y7889667D01*
X1984738Y7888680D01*
Y7887834D01*
X1984879Y7887270D01*
Y7886706D01*
Y7886424D01*
Y7886283D01*
X1984738Y7881913D01*
X1984174Y7877825D01*
X1983469Y7874301D01*
X1983047Y7872750D01*
X1982624Y7871341D01*
X1982201Y7870072D01*
X1981778Y7868944D01*
X1981355Y7867957D01*
X1981073Y7867112D01*
X1980791Y7866407D01*
X1980509Y7865984D01*
X1980368Y7865702D01*
Y7865561D01*
X1978395Y7862600D01*
X1976280Y7860063D01*
X1974024Y7857807D01*
X1971910Y7855975D01*
X1969936Y7854565D01*
X1968386Y7853578D01*
X1967822Y7853155D01*
X1967399Y7852874D01*
X1967117Y7852733D01*
X1966976D01*
X1963593Y7851323D01*
X1960350Y7850195D01*
X1957249Y7849490D01*
X1954289Y7848926D01*
X1951892Y7848644D01*
X1950905Y7848503D01*
X1950060D01*
X1949355Y7848363D01*
X1948368D01*
X1945408Y7848503D01*
X1942729Y7848785D01*
X1940051Y7849349D01*
X1937654Y7850054D01*
X1935258Y7850759D01*
X1933143Y7851605D01*
X1931170Y7852592D01*
X1929337Y7853578D01*
X1927786Y7854565D01*
X1926377Y7855552D01*
X1925108Y7856398D01*
X1924121Y7857103D01*
X1923275Y7857807D01*
X1922711Y7858371D01*
X1922429Y7858653D01*
X1922289Y7858794D01*
X1920456Y7860909D01*
X1918905Y7863023D01*
X1917496Y7865138D01*
X1916227Y7867393D01*
X1915240Y7869649D01*
X1914394Y7871904D01*
X1913689Y7874019D01*
X1913125Y7876134D01*
X1912703Y7877966D01*
X1912421Y7879799D01*
X1912139Y7881349D01*
X1911998Y7882759D01*
X1911857Y7883887D01*
Y7884733D01*
Y7885297D01*
Y7885438D01*
X1911998Y7888398D01*
X1912280Y7891217D01*
X1912844Y7893755D01*
X1913407Y7896292D01*
X1914253Y7898548D01*
X1915099Y7900803D01*
X1916086Y7902777D01*
X1916932Y7904610D01*
X1917918Y7906160D01*
X1918905Y7907711D01*
X1919751Y7908839D01*
X1920597Y7909966D01*
X1921161Y7910671D01*
X1921725Y7911376D01*
X1922007Y7911658D01*
X1922148Y7911799D01*
X1924121Y7913632D01*
X1926236Y7915182D01*
X1928350Y7916592D01*
X1930606Y7917861D01*
X1932861Y7918848D01*
X1934976Y7919693D01*
X1937090Y7920398D01*
X1939205Y7920962D01*
X1941038Y7921385D01*
X1942870Y7921667D01*
X1944421Y7921949D01*
X1945830Y7922090D01*
X1946958Y7922231D01*
X1948509D01*
X1952315Y7922090D01*
D02*
G37*
G36*
X2276405Y7949156D02*
X2280070Y7948733D01*
X2283313Y7948169D01*
X2286132Y7947605D01*
X2287401Y7947182D01*
X2288529Y7946901D01*
X2289374Y7946619D01*
X2290220Y7946337D01*
X2290784Y7946055D01*
X2291207Y7945914D01*
X2291489Y7945773D01*
X2291630D01*
X2294449Y7944363D01*
X2296846Y7942812D01*
X2298960Y7941121D01*
X2300652Y7939570D01*
X2302062Y7938160D01*
X2302908Y7937033D01*
X2303612Y7936187D01*
X2303753Y7936046D01*
Y7935905D01*
X2305163Y7933508D01*
X2306150Y7930971D01*
X2306855Y7928574D01*
X2307278Y7926460D01*
X2307560Y7924627D01*
X2307841Y7923218D01*
Y7922654D01*
Y7922231D01*
Y7922090D01*
Y7921949D01*
X2307700Y7919834D01*
X2307419Y7917720D01*
X2306996Y7915887D01*
X2306432Y7914055D01*
X2305022Y7910671D01*
X2303330Y7907711D01*
X2302626Y7906442D01*
X2301780Y7905455D01*
X2301075Y7904469D01*
X2300370Y7903623D01*
X2299806Y7903059D01*
X2299383Y7902636D01*
X2299101Y7902354D01*
X2298960Y7902213D01*
X2297692Y7901226D01*
X2296141Y7900239D01*
X2294590Y7899253D01*
X2292758Y7898407D01*
X2289233Y7896715D01*
X2285568Y7895306D01*
X2283736Y7894742D01*
X2282185Y7894178D01*
X2280634Y7893755D01*
X2279366Y7893332D01*
X2278379Y7893050D01*
X2277533Y7892768D01*
X2276969Y7892627D01*
X2276828D01*
X2274573Y7892063D01*
X2272599Y7891499D01*
X2270766Y7891076D01*
X2269075Y7890654D01*
X2267665Y7890231D01*
X2266396Y7889949D01*
X2265269Y7889526D01*
X2264282Y7889244D01*
X2263436Y7889103D01*
X2262731Y7888821D01*
X2261744Y7888539D01*
X2261180Y7888257D01*
X2261039D01*
X2259207Y7887552D01*
X2257797Y7886847D01*
X2256528Y7886142D01*
X2255542Y7885438D01*
X2254837Y7884874D01*
X2254414Y7884451D01*
X2254132Y7884169D01*
X2253991Y7884028D01*
X2253286Y7883041D01*
X2252722Y7882054D01*
X2252440Y7881068D01*
X2252158Y7880222D01*
X2252017Y7879376D01*
X2251876Y7878671D01*
Y7878248D01*
Y7878107D01*
X2252017Y7876134D01*
X2252581Y7874442D01*
X2253427Y7872750D01*
X2254273Y7871341D01*
X2255260Y7870213D01*
X2255964Y7869367D01*
X2256528Y7868803D01*
X2256810Y7868662D01*
X2258784Y7867393D01*
X2261039Y7866407D01*
X2263436Y7865702D01*
X2265691Y7865279D01*
X2267806Y7864997D01*
X2269498Y7864715D01*
X2271048D01*
X2274291Y7864856D01*
X2277110Y7865420D01*
X2279506Y7866125D01*
X2281621Y7866971D01*
X2283313Y7867816D01*
X2284440Y7868521D01*
X2285145Y7869085D01*
X2285427Y7869226D01*
X2287260Y7871200D01*
X2288670Y7873314D01*
X2289938Y7875711D01*
X2290784Y7878107D01*
X2291489Y7880222D01*
X2292053Y7881913D01*
X2292194Y7882477D01*
Y7883041D01*
X2292335Y7883323D01*
Y7883464D01*
X2311507Y7881631D01*
X2311084Y7878671D01*
X2310520Y7875852D01*
X2309674Y7873173D01*
X2308969Y7870777D01*
X2307982Y7868521D01*
X2306996Y7866407D01*
X2306009Y7864574D01*
X2305022Y7862882D01*
X2304035Y7861473D01*
X2303048Y7860204D01*
X2302203Y7859076D01*
X2301357Y7858089D01*
X2300793Y7857385D01*
X2300229Y7856962D01*
X2299947Y7856680D01*
X2299806Y7856539D01*
X2297833Y7854988D01*
X2295718Y7853719D01*
X2293463Y7852592D01*
X2291066Y7851605D01*
X2288811Y7850900D01*
X2286414Y7850195D01*
X2281762Y7849208D01*
X2279647Y7848785D01*
X2277674Y7848503D01*
X2275982Y7848363D01*
X2274432Y7848222D01*
X2273163Y7848081D01*
X2271330D01*
X2266819Y7848222D01*
X2262731Y7848644D01*
X2259066Y7849208D01*
X2257515Y7849490D01*
X2255964Y7849913D01*
X2254696Y7850195D01*
X2253568Y7850477D01*
X2252581Y7850759D01*
X2251735Y7851041D01*
X2251031Y7851323D01*
X2250608Y7851464D01*
X2250326Y7851605D01*
X2250185D01*
X2247083Y7853155D01*
X2244546Y7854847D01*
X2242149Y7856539D01*
X2240317Y7858371D01*
X2238907Y7859922D01*
X2237779Y7861332D01*
X2237215Y7862178D01*
X2236934Y7862319D01*
Y7862460D01*
X2235383Y7865279D01*
X2234114Y7867957D01*
X2233268Y7870636D01*
X2232704Y7873173D01*
X2232423Y7875147D01*
X2232282Y7876134D01*
X2232141Y7876838D01*
Y7877402D01*
Y7877825D01*
Y7878107D01*
Y7878248D01*
X2232282Y7881631D01*
X2232704Y7884592D01*
X2233409Y7887270D01*
X2234114Y7889526D01*
X2234819Y7891358D01*
X2235524Y7892627D01*
X2235947Y7893473D01*
X2236088Y7893755D01*
X2237638Y7896010D01*
X2239471Y7897984D01*
X2241304Y7899676D01*
X2242995Y7901085D01*
X2244546Y7902213D01*
X2245815Y7903059D01*
X2246660Y7903623D01*
X2246801Y7903764D01*
X2246942D01*
X2248352Y7904469D01*
X2249762Y7905173D01*
X2253145Y7906442D01*
X2256669Y7907570D01*
X2260053Y7908698D01*
X2261603Y7909121D01*
X2263154Y7909543D01*
X2264564Y7909966D01*
X2265691Y7910248D01*
X2266678Y7910530D01*
X2267383Y7910671D01*
X2267947Y7910812D01*
X2268088D01*
X2270625Y7911517D01*
X2272881Y7912081D01*
X2274995Y7912645D01*
X2276969Y7913209D01*
X2278520Y7913773D01*
X2280070Y7914336D01*
X2281339Y7914900D01*
X2282467Y7915323D01*
X2283454Y7915746D01*
X2284158Y7916169D01*
X2284863Y7916451D01*
X2285286Y7916733D01*
X2285991Y7917156D01*
X2286132Y7917297D01*
X2287119Y7918284D01*
X2287824Y7919270D01*
X2288247Y7920257D01*
X2288529Y7921244D01*
X2288811Y7921949D01*
X2288951Y7922654D01*
Y7923077D01*
Y7923218D01*
X2288811Y7924627D01*
X2288529Y7925755D01*
X2287965Y7926883D01*
X2287401Y7927729D01*
X2286837Y7928433D01*
X2286273Y7928856D01*
X2285991Y7929138D01*
X2285850Y7929279D01*
X2283877Y7930548D01*
X2281762Y7931394D01*
X2279506Y7932099D01*
X2277392Y7932522D01*
X2275559Y7932804D01*
X2274009Y7932945D01*
X2272599D01*
X2269639Y7932804D01*
X2267101Y7932381D01*
X2264987Y7931817D01*
X2263295Y7931253D01*
X2261885Y7930689D01*
X2260898Y7930125D01*
X2260335Y7929702D01*
X2260194Y7929561D01*
X2258784Y7928152D01*
X2257515Y7926460D01*
X2256528Y7924768D01*
X2255824Y7922936D01*
X2255260Y7921385D01*
X2254978Y7920116D01*
X2254696Y7919129D01*
Y7918988D01*
Y7918848D01*
X2234960Y7919552D01*
X2235101Y7922090D01*
X2235524Y7924345D01*
X2236088Y7926601D01*
X2236793Y7928574D01*
X2237497Y7930548D01*
X2238343Y7932381D01*
X2239189Y7933931D01*
X2240035Y7935482D01*
X2241022Y7936751D01*
X2241868Y7937878D01*
X2242713Y7938865D01*
X2243418Y7939711D01*
X2243982Y7940275D01*
X2244405Y7940698D01*
X2244687Y7940980D01*
X2244828Y7941121D01*
X2246660Y7942530D01*
X2248634Y7943799D01*
X2250749Y7944927D01*
X2253004Y7945914D01*
X2255260Y7946619D01*
X2257515Y7947323D01*
X2262026Y7948310D01*
X2264141Y7948592D01*
X2265973Y7948874D01*
X2267806Y7949015D01*
X2269357Y7949156D01*
X2270625Y7949297D01*
X2272317D01*
X2276405Y7949156D01*
D02*
G37*
G36*
X2802505Y7822988D02*
X2724690D01*
Y7835111D01*
X2802505D01*
Y7822988D01*
D02*
G37*
G36*
X2393410D02*
X2315595D01*
Y7835111D01*
X2393410D01*
Y7822988D01*
D02*
G37*
G36*
X2199345Y3964893D02*
X2202024Y3964611D01*
X2204561Y3964047D01*
X2206676Y3963483D01*
X2208367Y3962919D01*
X2209777Y3962356D01*
X2210623Y3962074D01*
X2210764Y3961933D01*
X2210905D01*
X2213160Y3960664D01*
X2215275Y3959254D01*
X2216966Y3957845D01*
X2218376Y3956576D01*
X2219504Y3955307D01*
X2220350Y3954320D01*
X2220914Y3953756D01*
X2221054Y3953474D01*
X2222323Y3951360D01*
X2223451Y3949104D01*
X2224297Y3946708D01*
X2225143Y3944452D01*
X2225706Y3942338D01*
X2226129Y3940787D01*
X2226270Y3940082D01*
Y3939659D01*
X2226411Y3939377D01*
Y3939236D01*
X2209213Y3936417D01*
X2208790Y3938673D01*
X2208226Y3940646D01*
X2207662Y3942338D01*
X2206957Y3943607D01*
X2206253Y3944734D01*
X2205689Y3945580D01*
X2205266Y3946003D01*
X2205125Y3946144D01*
X2203856Y3947272D01*
X2202446Y3948118D01*
X2201037Y3948681D01*
X2199768Y3949104D01*
X2198640Y3949386D01*
X2197794Y3949527D01*
X2196949D01*
X2195257Y3949386D01*
X2193565Y3949104D01*
X2192297Y3948540D01*
X2191169Y3948118D01*
X2190182Y3947554D01*
X2189618Y3946990D01*
X2189195Y3946708D01*
X2189054Y3946567D01*
X2188068Y3945439D01*
X2187363Y3944029D01*
X2186799Y3942761D01*
X2186517Y3941492D01*
X2186235Y3940364D01*
X2186094Y3939518D01*
Y3938955D01*
Y3938673D01*
X2186235Y3936558D01*
X2186658Y3934725D01*
X2187363Y3933175D01*
X2188068Y3931906D01*
X2188913Y3930778D01*
X2189477Y3930073D01*
X2190041Y3929510D01*
X2190182Y3929369D01*
X2191874Y3928241D01*
X2193706Y3927395D01*
X2195680Y3926831D01*
X2197512Y3926408D01*
X2199204Y3926267D01*
X2200614Y3926126D01*
X2201883D01*
X2203856Y3911042D01*
X2202024Y3911465D01*
X2200473Y3911888D01*
X2198922Y3912170D01*
X2197653Y3912311D01*
X2196667Y3912452D01*
X2195257D01*
X2193283Y3912311D01*
X2191592Y3911747D01*
X2190041Y3911183D01*
X2188631Y3910338D01*
X2187645Y3909633D01*
X2186799Y3908928D01*
X2186235Y3908364D01*
X2186094Y3908223D01*
X2184825Y3906531D01*
X2183838Y3904699D01*
X2183134Y3902866D01*
X2182570Y3901034D01*
X2182288Y3899342D01*
X2182147Y3898073D01*
Y3897227D01*
Y3897086D01*
Y3896945D01*
X2182288Y3894267D01*
X2182711Y3891871D01*
X2183415Y3889756D01*
X2184120Y3888064D01*
X2184966Y3886796D01*
X2185530Y3885809D01*
X2186094Y3885104D01*
X2186235Y3884963D01*
X2187786Y3883553D01*
X2189477Y3882426D01*
X2191028Y3881721D01*
X2192579Y3881157D01*
X2193988Y3880875D01*
X2194975Y3880734D01*
X2195680Y3880593D01*
X2195962D01*
X2197935Y3880734D01*
X2199627Y3881157D01*
X2201178Y3881721D01*
X2202587Y3882426D01*
X2203574Y3882989D01*
X2204420Y3883553D01*
X2204984Y3883976D01*
X2205125Y3884117D01*
X2206394Y3885668D01*
X2207521Y3887360D01*
X2208226Y3889192D01*
X2208931Y3890884D01*
X2209354Y3892434D01*
X2209636Y3893703D01*
X2209777Y3894549D01*
Y3894690D01*
Y3894831D01*
X2227821Y3892575D01*
X2227539Y3890320D01*
X2226975Y3888205D01*
X2225706Y3884258D01*
X2224156Y3880875D01*
X2223169Y3879465D01*
X2222323Y3878055D01*
X2221477Y3876787D01*
X2220632Y3875800D01*
X2219927Y3874813D01*
X2219222Y3874108D01*
X2218658Y3873544D01*
X2218235Y3873122D01*
X2217953Y3872840D01*
X2217812Y3872699D01*
X2216121Y3871430D01*
X2214288Y3870161D01*
X2212596Y3869174D01*
X2210623Y3868329D01*
X2206957Y3866919D01*
X2203574Y3866073D01*
X2201883Y3865791D01*
X2200473Y3865509D01*
X2199204Y3865368D01*
X2198076Y3865227D01*
X2197090Y3865086D01*
X2195821D01*
X2193283Y3865227D01*
X2190746Y3865509D01*
X2188490Y3865932D01*
X2186235Y3866496D01*
X2184261Y3867201D01*
X2182288Y3867906D01*
X2180455Y3868751D01*
X2178904Y3869597D01*
X2177495Y3870443D01*
X2176085Y3871289D01*
X2175098Y3871994D01*
X2174111Y3872699D01*
X2173407Y3873263D01*
X2172843Y3873685D01*
X2172561Y3873967D01*
X2172420Y3874108D01*
X2170728Y3875800D01*
X2169318Y3877633D01*
X2168050Y3879465D01*
X2166922Y3881298D01*
X2166076Y3883271D01*
X2165230Y3885104D01*
X2164103Y3888487D01*
X2163821Y3890038D01*
X2163539Y3891589D01*
X2163257Y3892857D01*
X2163116Y3893985D01*
X2162975Y3894831D01*
Y3895536D01*
Y3895959D01*
Y3896100D01*
X2163257Y3899342D01*
X2163821Y3902161D01*
X2164526Y3904840D01*
X2165512Y3906954D01*
X2166499Y3908787D01*
X2167204Y3910056D01*
X2167768Y3910901D01*
X2168050Y3911183D01*
X2170023Y3913298D01*
X2172279Y3915131D01*
X2174534Y3916540D01*
X2176649Y3917668D01*
X2178482Y3918514D01*
X2180032Y3918937D01*
X2180596Y3919219D01*
X2181019D01*
X2181301Y3919360D01*
X2181442D01*
X2178904Y3920910D01*
X2176790Y3922461D01*
X2174957Y3924153D01*
X2173266Y3925844D01*
X2171856Y3927536D01*
X2170728Y3929228D01*
X2169882Y3930919D01*
X2169037Y3932470D01*
X2168473Y3934021D01*
X2168050Y3935430D01*
X2167768Y3936699D01*
X2167627Y3937827D01*
X2167486Y3938673D01*
X2167345Y3939377D01*
Y3939800D01*
Y3939941D01*
X2167486Y3941633D01*
X2167627Y3943184D01*
X2168473Y3946285D01*
X2169459Y3949104D01*
X2170728Y3951501D01*
X2171997Y3953474D01*
X2173125Y3954884D01*
X2173548Y3955448D01*
X2173971Y3955871D01*
X2174111Y3956012D01*
X2174252Y3956153D01*
X2175803Y3957704D01*
X2177636Y3959113D01*
X2179327Y3960241D01*
X2181160Y3961228D01*
X2183134Y3962215D01*
X2184966Y3962919D01*
X2188490Y3963906D01*
X2190041Y3964329D01*
X2191592Y3964611D01*
X2192860Y3964752D01*
X2194129Y3964893D01*
X2195116Y3965034D01*
X2196385D01*
X2199345Y3964893D01*
D02*
G37*
G36*
X2047661D02*
X2050340Y3964611D01*
X2052877Y3964047D01*
X2054992Y3963483D01*
X2056683Y3962919D01*
X2058093Y3962356D01*
X2058939Y3962074D01*
X2059080Y3961933D01*
X2059221D01*
X2061476Y3960664D01*
X2063591Y3959254D01*
X2065283Y3957845D01*
X2066692Y3956576D01*
X2067820Y3955307D01*
X2068666Y3954320D01*
X2069230Y3953756D01*
X2069371Y3953474D01*
X2070639Y3951360D01*
X2071767Y3949104D01*
X2072613Y3946708D01*
X2073459Y3944452D01*
X2074023Y3942338D01*
X2074446Y3940787D01*
X2074587Y3940082D01*
Y3939659D01*
X2074728Y3939377D01*
Y3939236D01*
X2057529Y3936417D01*
X2057106Y3938673D01*
X2056542Y3940646D01*
X2055979Y3942338D01*
X2055274Y3943607D01*
X2054569Y3944734D01*
X2054005Y3945580D01*
X2053582Y3946003D01*
X2053441Y3946144D01*
X2052172Y3947272D01*
X2050763Y3948118D01*
X2049353Y3948681D01*
X2048084Y3949104D01*
X2046957Y3949386D01*
X2046111Y3949527D01*
X2045265D01*
X2043573Y3949386D01*
X2041882Y3949104D01*
X2040613Y3948540D01*
X2039485Y3948118D01*
X2038498Y3947554D01*
X2037934Y3946990D01*
X2037512Y3946708D01*
X2037371Y3946567D01*
X2036384Y3945439D01*
X2035679Y3944029D01*
X2035115Y3942761D01*
X2034833Y3941492D01*
X2034551Y3940364D01*
X2034410Y3939518D01*
Y3938955D01*
Y3938673D01*
X2034551Y3936558D01*
X2034974Y3934725D01*
X2035679Y3933175D01*
X2036384Y3931906D01*
X2037230Y3930778D01*
X2037793Y3930073D01*
X2038357Y3929510D01*
X2038498Y3929369D01*
X2040190Y3928241D01*
X2042023Y3927395D01*
X2043996Y3926831D01*
X2045829Y3926408D01*
X2047520Y3926267D01*
X2048930Y3926126D01*
X2050199D01*
X2052172Y3911042D01*
X2050340Y3911465D01*
X2048789Y3911888D01*
X2047238Y3912170D01*
X2045970Y3912311D01*
X2044983Y3912452D01*
X2043573D01*
X2041600Y3912311D01*
X2039908Y3911747D01*
X2038357Y3911183D01*
X2036948Y3910338D01*
X2035961Y3909633D01*
X2035115Y3908928D01*
X2034551Y3908364D01*
X2034410Y3908223D01*
X2033141Y3906531D01*
X2032155Y3904699D01*
X2031450Y3902866D01*
X2030886Y3901034D01*
X2030604Y3899342D01*
X2030463Y3898073D01*
Y3897227D01*
Y3897086D01*
Y3896945D01*
X2030604Y3894267D01*
X2031027Y3891871D01*
X2031732Y3889756D01*
X2032437Y3888064D01*
X2033282Y3886796D01*
X2033846Y3885809D01*
X2034410Y3885104D01*
X2034551Y3884963D01*
X2036102Y3883553D01*
X2037793Y3882426D01*
X2039344Y3881721D01*
X2040895Y3881157D01*
X2042305Y3880875D01*
X2043291Y3880734D01*
X2043996Y3880593D01*
X2044278D01*
X2046252Y3880734D01*
X2047943Y3881157D01*
X2049494Y3881721D01*
X2050904Y3882426D01*
X2051890Y3882989D01*
X2052736Y3883553D01*
X2053300Y3883976D01*
X2053441Y3884117D01*
X2054710Y3885668D01*
X2055838Y3887360D01*
X2056542Y3889192D01*
X2057247Y3890884D01*
X2057670Y3892434D01*
X2057952Y3893703D01*
X2058093Y3894549D01*
Y3894690D01*
Y3894831D01*
X2076137Y3892575D01*
X2075855Y3890320D01*
X2075292Y3888205D01*
X2074023Y3884258D01*
X2072472Y3880875D01*
X2071485Y3879465D01*
X2070639Y3878055D01*
X2069794Y3876787D01*
X2068948Y3875800D01*
X2068243Y3874813D01*
X2067538Y3874108D01*
X2066974Y3873544D01*
X2066551Y3873122D01*
X2066269Y3872840D01*
X2066128Y3872699D01*
X2064437Y3871430D01*
X2062604Y3870161D01*
X2060913Y3869174D01*
X2058939Y3868329D01*
X2055274Y3866919D01*
X2051890Y3866073D01*
X2050199Y3865791D01*
X2048789Y3865509D01*
X2047520Y3865368D01*
X2046393Y3865227D01*
X2045406Y3865086D01*
X2044137D01*
X2041600Y3865227D01*
X2039062Y3865509D01*
X2036807Y3865932D01*
X2034551Y3866496D01*
X2032578Y3867201D01*
X2030604Y3867906D01*
X2028771Y3868751D01*
X2027221Y3869597D01*
X2025811Y3870443D01*
X2024401Y3871289D01*
X2023415Y3871994D01*
X2022428Y3872699D01*
X2021723Y3873263D01*
X2021159Y3873685D01*
X2020877Y3873967D01*
X2020736Y3874108D01*
X2019044Y3875800D01*
X2017635Y3877633D01*
X2016366Y3879465D01*
X2015238Y3881298D01*
X2014392Y3883271D01*
X2013547Y3885104D01*
X2012419Y3888487D01*
X2012137Y3890038D01*
X2011855Y3891589D01*
X2011573Y3892857D01*
X2011432Y3893985D01*
X2011291Y3894831D01*
Y3895536D01*
Y3895959D01*
Y3896100D01*
X2011573Y3899342D01*
X2012137Y3902161D01*
X2012842Y3904840D01*
X2013829Y3906954D01*
X2014815Y3908787D01*
X2015520Y3910056D01*
X2016084Y3910901D01*
X2016366Y3911183D01*
X2018340Y3913298D01*
X2020595Y3915131D01*
X2022851Y3916540D01*
X2024965Y3917668D01*
X2026798Y3918514D01*
X2028348Y3918937D01*
X2028912Y3919219D01*
X2029335D01*
X2029617Y3919360D01*
X2029758D01*
X2027221Y3920910D01*
X2025106Y3922461D01*
X2023274Y3924153D01*
X2021582Y3925844D01*
X2020172Y3927536D01*
X2019044Y3929228D01*
X2018199Y3930919D01*
X2017353Y3932470D01*
X2016789Y3934021D01*
X2016366Y3935430D01*
X2016084Y3936699D01*
X2015943Y3937827D01*
X2015802Y3938673D01*
X2015661Y3939377D01*
Y3939800D01*
Y3939941D01*
X2015802Y3941633D01*
X2015943Y3943184D01*
X2016789Y3946285D01*
X2017776Y3949104D01*
X2019044Y3951501D01*
X2020313Y3953474D01*
X2021441Y3954884D01*
X2021864Y3955448D01*
X2022287Y3955871D01*
X2022428Y3956012D01*
X2022569Y3956153D01*
X2024119Y3957704D01*
X2025952Y3959113D01*
X2027644Y3960241D01*
X2029476Y3961228D01*
X2031450Y3962215D01*
X2033282Y3962919D01*
X2036807Y3963906D01*
X2038357Y3964329D01*
X2039908Y3964611D01*
X2041177Y3964752D01*
X2042445Y3964893D01*
X2043432Y3965034D01*
X2044701D01*
X2047661Y3964893D01*
D02*
G37*
G36*
X2128014Y3866919D02*
X2111098D01*
X2083045Y3937686D01*
X2102217D01*
X2115750Y3901457D01*
X2116596Y3899342D01*
X2117160Y3897368D01*
X2117442Y3896664D01*
X2117583Y3896100D01*
X2117723Y3895677D01*
Y3895536D01*
X2117864Y3894831D01*
X2118146Y3893985D01*
X2118851Y3891871D01*
X2119133Y3891025D01*
X2119415Y3890179D01*
X2119556Y3889615D01*
X2119697Y3889474D01*
X2123503Y3901457D01*
X2136895Y3937686D01*
X2156490D01*
X2128014Y3866919D01*
D02*
G37*
G36*
X2586026D02*
X2517232D01*
Y3883412D01*
X2566290D01*
Y3963765D01*
X2586026D01*
Y3866919D01*
D02*
G37*
G36*
X2503135D02*
X2466201D01*
X2462395Y3867060D01*
X2458871Y3867201D01*
X2455911Y3867483D01*
X2453514Y3867906D01*
X2451540Y3868329D01*
X2449990Y3868610D01*
X2449567Y3868751D01*
X2449144D01*
X2449003Y3868892D01*
X2448862D01*
X2445761Y3870020D01*
X2442941Y3871289D01*
X2440686Y3872558D01*
X2438712Y3873826D01*
X2437161Y3874954D01*
X2436034Y3875800D01*
X2435329Y3876364D01*
X2435047Y3876646D01*
X2432650Y3879324D01*
X2430536Y3882144D01*
X2428703Y3885104D01*
X2427294Y3887782D01*
X2426166Y3890320D01*
X2425602Y3891307D01*
X2425320Y3892152D01*
X2425038Y3892998D01*
X2424756Y3893562D01*
X2424615Y3893844D01*
Y3893985D01*
X2423628Y3897368D01*
X2422783Y3900893D01*
X2422219Y3904276D01*
X2421937Y3907518D01*
X2421796Y3909069D01*
X2421655Y3910479D01*
Y3911606D01*
X2421514Y3912734D01*
Y3913580D01*
Y3914144D01*
Y3914567D01*
Y3914708D01*
X2421655Y3919642D01*
X2422078Y3924012D01*
X2422219Y3926126D01*
X2422501Y3927959D01*
X2422783Y3929791D01*
X2423064Y3931342D01*
X2423487Y3932752D01*
X2423769Y3934021D01*
X2424051Y3935148D01*
X2424192Y3935994D01*
X2424474Y3936699D01*
X2424615Y3937263D01*
X2424756Y3937545D01*
Y3937686D01*
X2426025Y3941069D01*
X2427576Y3944170D01*
X2429126Y3946849D01*
X2430677Y3949104D01*
X2431946Y3950937D01*
X2433073Y3952347D01*
X2433778Y3953193D01*
X2433919Y3953474D01*
X2434060D01*
X2436457Y3955730D01*
X2438853Y3957563D01*
X2441391Y3959113D01*
X2443646Y3960382D01*
X2445620Y3961369D01*
X2447311Y3962074D01*
X2447875Y3962215D01*
X2448298Y3962356D01*
X2448580Y3962497D01*
X2448721D01*
X2451399Y3963201D01*
X2454360Y3963624D01*
X2457461Y3964047D01*
X2460422Y3964188D01*
X2463100Y3964329D01*
X2464228Y3964470D01*
X2503135D01*
Y3866919D01*
D02*
G37*
G36*
X2365972Y3966162D02*
X2370060Y3965739D01*
X2373584Y3965034D01*
X2376685Y3964329D01*
X2377954Y3963906D01*
X2379223Y3963624D01*
X2380210Y3963342D01*
X2381055Y3962919D01*
X2381760Y3962778D01*
X2382324Y3962497D01*
X2382606Y3962356D01*
X2382747D01*
X2385285Y3961228D01*
X2387681Y3959818D01*
X2389796Y3958267D01*
X2391628Y3956858D01*
X2393179Y3955589D01*
X2394448Y3954461D01*
X2395152Y3953756D01*
X2395293Y3953615D01*
X2395434Y3953474D01*
X2397408Y3951219D01*
X2399241Y3948822D01*
X2400791Y3946708D01*
X2402060Y3944593D01*
X2403047Y3942761D01*
X2403893Y3941351D01*
X2404034Y3940787D01*
X2404315Y3940364D01*
X2404456Y3940223D01*
Y3940082D01*
X2405866Y3936135D01*
X2406994Y3931906D01*
X2407699Y3927677D01*
X2408263Y3923730D01*
X2408404Y3921897D01*
X2408545Y3920206D01*
X2408686Y3918796D01*
Y3917527D01*
X2408827Y3916399D01*
Y3915694D01*
Y3915131D01*
Y3914990D01*
X2408686Y3910761D01*
X2408263Y3906672D01*
X2407699Y3902866D01*
X2406853Y3899342D01*
X2405866Y3896100D01*
X2404738Y3893139D01*
X2403611Y3890320D01*
X2402342Y3887923D01*
X2401214Y3885668D01*
X2400086Y3883835D01*
X2398959Y3882144D01*
X2397972Y3880734D01*
X2397126Y3879747D01*
X2396562Y3878901D01*
X2396139Y3878478D01*
X2395998Y3878337D01*
X2393461Y3875941D01*
X2390782Y3873967D01*
X2388104Y3872135D01*
X2385144Y3870725D01*
X2382324Y3869456D01*
X2379364Y3868329D01*
X2376685Y3867483D01*
X2373866Y3866778D01*
X2371329Y3866214D01*
X2368932Y3865791D01*
X2366817Y3865509D01*
X2364985Y3865368D01*
X2363575Y3865227D01*
X2362447Y3865086D01*
X2361461D01*
X2357513Y3865227D01*
X2353848Y3865650D01*
X2350324Y3866355D01*
X2347082Y3867201D01*
X2343980Y3868188D01*
X2341161Y3869315D01*
X2338623Y3870443D01*
X2336227Y3871712D01*
X2334253Y3872981D01*
X2332421Y3874108D01*
X2330870Y3875236D01*
X2329601Y3876223D01*
X2328474Y3877069D01*
X2327769Y3877774D01*
X2327346Y3878196D01*
X2327205Y3878337D01*
X2324949Y3881016D01*
X2322976Y3883835D01*
X2321143Y3886796D01*
X2319733Y3889756D01*
X2318465Y3892857D01*
X2317337Y3895959D01*
X2316491Y3899060D01*
X2315786Y3902020D01*
X2315363Y3904699D01*
X2314941Y3907377D01*
X2314659Y3909633D01*
X2314377Y3911606D01*
Y3913298D01*
X2314236Y3914567D01*
Y3915272D01*
Y3915554D01*
X2314377Y3919924D01*
X2314800Y3924012D01*
X2315363Y3927818D01*
X2316209Y3931483D01*
X2317196Y3934725D01*
X2318324Y3937827D01*
X2319452Y3940646D01*
X2320720Y3943043D01*
X2321989Y3945298D01*
X2323117Y3947272D01*
X2324245Y3948963D01*
X2325231Y3950373D01*
X2325936Y3951360D01*
X2326641Y3952206D01*
X2327064Y3952629D01*
X2327205Y3952770D01*
X2329742Y3955166D01*
X2332421Y3957281D01*
X2335240Y3959113D01*
X2338060Y3960664D01*
X2341020Y3961933D01*
X2343839Y3963060D01*
X2346659Y3963906D01*
X2349337Y3964611D01*
X2351875Y3965175D01*
X2354271Y3965598D01*
X2356386Y3965880D01*
X2358218Y3966162D01*
X2359628D01*
X2360756Y3966303D01*
X2361743D01*
X2365972Y3966162D01*
D02*
G37*
G36*
X2310007Y3839994D02*
X2232191D01*
Y3852117D01*
X2310007D01*
Y3839994D01*
D02*
G37*
G36*
X2735084Y2337511D02*
X2738467Y2337088D01*
X2741569Y2336524D01*
X2744529Y2335820D01*
X2747067Y2335115D01*
X2749463Y2334269D01*
X2751578Y2333423D01*
X2753410Y2332577D01*
X2755102Y2331731D01*
X2756371Y2331027D01*
X2757498Y2330322D01*
X2758344Y2329758D01*
X2759049Y2329335D01*
X2759331Y2329053D01*
X2759472Y2328912D01*
X2761305Y2327220D01*
X2762996Y2325247D01*
X2764406Y2323273D01*
X2765534Y2321300D01*
X2766661Y2319185D01*
X2767507Y2317071D01*
X2768212Y2315097D01*
X2768776Y2313123D01*
X2769199Y2311291D01*
X2769481Y2309599D01*
X2769763Y2308048D01*
X2769904Y2306780D01*
X2770045Y2305652D01*
Y2304101D01*
X2769904Y2301564D01*
X2769622Y2299167D01*
X2769058Y2296771D01*
X2768494Y2294656D01*
X2767789Y2292542D01*
X2766943Y2290709D01*
X2765957Y2288877D01*
X2765111Y2287326D01*
X2764124Y2285916D01*
X2763137Y2284647D01*
X2762291Y2283520D01*
X2761587Y2282674D01*
X2761023Y2281969D01*
X2760459Y2281405D01*
X2760177Y2281123D01*
X2760036Y2280982D01*
X2758062Y2279432D01*
X2755948Y2278022D01*
X2753833Y2276753D01*
X2751578Y2275625D01*
X2749181Y2274780D01*
X2746926Y2274075D01*
X2742556Y2272947D01*
X2740441Y2272524D01*
X2738608Y2272242D01*
X2736917Y2272101D01*
X2735507Y2271960D01*
X2734238Y2271819D01*
X2733252D01*
X2732688D01*
X2732547D01*
X2729868Y2271960D01*
X2727190Y2272101D01*
X2724793Y2272524D01*
X2722538Y2272947D01*
X2720282Y2273370D01*
X2718309Y2274075D01*
X2716476Y2274639D01*
X2714785Y2275343D01*
X2713234Y2275907D01*
X2711965Y2276612D01*
X2710837Y2277176D01*
X2709851Y2277599D01*
X2709146Y2278163D01*
X2708582Y2278445D01*
X2708300Y2278586D01*
X2708159Y2278727D01*
X2706044Y2280559D01*
X2704212Y2282392D01*
X2702661Y2284506D01*
X2701251Y2286762D01*
X2700124Y2289018D01*
X2699137Y2291273D01*
X2698291Y2293529D01*
X2697727Y2295784D01*
X2697163Y2297758D01*
X2696881Y2299731D01*
X2696599Y2301564D01*
X2696317Y2303115D01*
Y2304383D01*
X2696176Y2305229D01*
Y2306075D01*
X2696458Y2310163D01*
X2697022Y2313969D01*
X2697868Y2317212D01*
X2698855Y2320031D01*
X2699419Y2321300D01*
X2699842Y2322286D01*
X2700265Y2323273D01*
X2700688Y2323978D01*
X2701110Y2324542D01*
X2701251Y2325106D01*
X2701533Y2325247D01*
Y2325388D01*
X2703789Y2328066D01*
X2706185Y2330463D01*
X2708864Y2332436D01*
X2711401Y2333987D01*
X2713657Y2335256D01*
X2714644Y2335679D01*
X2715489Y2336101D01*
X2716194Y2336383D01*
X2716758Y2336665D01*
X2717040Y2336806D01*
X2717181D01*
X2720282Y2318198D01*
X2718450Y2317493D01*
X2716758Y2316789D01*
X2715489Y2316084D01*
X2714362Y2315238D01*
X2713516Y2314674D01*
X2712952Y2314110D01*
X2712670Y2313687D01*
X2712529Y2313546D01*
X2711683Y2312419D01*
X2711119Y2311150D01*
X2710696Y2309881D01*
X2710414Y2308753D01*
X2710273Y2307767D01*
X2710133Y2306921D01*
Y2306216D01*
X2710273Y2303960D01*
X2710837Y2301846D01*
X2711542Y2299872D01*
X2712388Y2298322D01*
X2713234Y2297053D01*
X2713939Y2296207D01*
X2714503Y2295502D01*
X2714644Y2295361D01*
X2716476Y2293951D01*
X2718591Y2292965D01*
X2720846Y2292119D01*
X2722820Y2291555D01*
X2724793Y2291273D01*
X2726203Y2291132D01*
X2726767Y2290991D01*
X2727190D01*
X2727472D01*
X2727613D01*
Y2337793D01*
X2731560D01*
X2735084Y2337511D01*
D02*
G37*
G36*
X2795278Y2239255D02*
X2697727D01*
Y2258004D01*
X2795278D01*
Y2239255D01*
D02*
G37*
G36*
X2768494Y2201334D02*
X2738608D01*
X2735930D01*
X2733534D01*
X2731278Y2201193D01*
X2729304Y2201052D01*
X2727472D01*
X2725921Y2200911D01*
X2724652Y2200770D01*
X2723384Y2200629D01*
X2722397Y2200488D01*
X2721692Y2200347D01*
X2720987Y2200206D01*
X2720423D01*
X2719718Y2199924D01*
X2719577D01*
X2718168Y2199361D01*
X2716899Y2198515D01*
X2715912Y2197669D01*
X2714925Y2196823D01*
X2714080Y2195977D01*
X2713516Y2195272D01*
X2713234Y2194850D01*
X2713093Y2194709D01*
X2712247Y2193299D01*
X2711683Y2191748D01*
X2711119Y2190339D01*
X2710837Y2188929D01*
X2710696Y2187801D01*
X2710555Y2186955D01*
Y2186109D01*
X2710696Y2184559D01*
X2710837Y2183290D01*
X2711119Y2182021D01*
X2711542Y2181034D01*
X2711824Y2180189D01*
X2712106Y2179625D01*
X2712247Y2179202D01*
X2712388Y2179061D01*
X2713234Y2178074D01*
X2714080Y2177369D01*
X2714925Y2176664D01*
X2715771Y2176242D01*
X2716617Y2175819D01*
X2717181Y2175537D01*
X2717604Y2175396D01*
X2717745D01*
X2718450Y2175255D01*
X2719437Y2175114D01*
X2720705Y2174973D01*
X2721974Y2174832D01*
X2724934Y2174691D01*
X2728177Y2174550D01*
X2731137Y2174409D01*
X2732406D01*
X2733534D01*
X2734520D01*
X2735225D01*
X2735789D01*
X2735930D01*
X2768494D01*
Y2155660D01*
X2723666D01*
X2720141Y2155801D01*
X2717040Y2156083D01*
X2714362Y2156506D01*
X2712106Y2156929D01*
X2710273Y2157352D01*
X2709005Y2157774D01*
X2708300Y2158056D01*
X2708018Y2158197D01*
X2706044Y2159325D01*
X2704212Y2160594D01*
X2702802Y2161863D01*
X2701533Y2163272D01*
X2700547Y2164400D01*
X2699842Y2165528D01*
X2699419Y2166092D01*
X2699278Y2166374D01*
X2698291Y2168488D01*
X2697445Y2170744D01*
X2696881Y2172858D01*
X2696599Y2174973D01*
X2696317Y2176664D01*
X2696176Y2177933D01*
Y2179202D01*
X2696317Y2181739D01*
X2696599Y2184136D01*
X2697163Y2186391D01*
X2697727Y2188365D01*
X2698291Y2190057D01*
X2698855Y2191325D01*
X2699137Y2192171D01*
X2699278Y2192453D01*
X2700547Y2194709D01*
X2702097Y2196682D01*
X2703507Y2198515D01*
X2705058Y2199924D01*
X2706326Y2201193D01*
X2707313Y2202039D01*
X2708018Y2202603D01*
X2708300Y2202744D01*
X2697727D01*
Y2220083D01*
X2768494D01*
Y2201334D01*
D02*
G37*
G36*
X2795278Y2118867D02*
X2760177D01*
X2761868Y2117175D01*
X2763419Y2115483D01*
X2764688Y2113792D01*
X2765957Y2111959D01*
X2766802Y2110268D01*
X2767648Y2108576D01*
X2768353Y2106884D01*
X2768776Y2105334D01*
X2769199Y2103783D01*
X2769481Y2102514D01*
X2769763Y2101245D01*
X2769904Y2100259D01*
X2770045Y2099413D01*
Y2098285D01*
X2769904Y2095889D01*
X2769622Y2093633D01*
X2769199Y2091519D01*
X2768635Y2089404D01*
X2767084Y2085880D01*
X2766239Y2084188D01*
X2765393Y2082778D01*
X2764406Y2081369D01*
X2763560Y2080241D01*
X2762855Y2079254D01*
X2762150Y2078408D01*
X2761446Y2077703D01*
X2761023Y2077281D01*
X2760741Y2076999D01*
X2760600Y2076858D01*
X2758767Y2075448D01*
X2756794Y2074179D01*
X2754679Y2073051D01*
X2752424Y2072065D01*
X2750168Y2071219D01*
X2747912Y2070514D01*
X2743401Y2069527D01*
X2741428Y2069245D01*
X2739454Y2068963D01*
X2737763Y2068822D01*
X2736212Y2068681D01*
X2734943Y2068540D01*
X2734097D01*
X2733393D01*
X2733252D01*
X2730009Y2068681D01*
X2727049Y2068963D01*
X2724230Y2069386D01*
X2721551Y2069950D01*
X2719155Y2070514D01*
X2716899Y2071219D01*
X2714925Y2072065D01*
X2713093Y2072911D01*
X2711401Y2073615D01*
X2709992Y2074461D01*
X2708723Y2075166D01*
X2707736Y2075871D01*
X2706890Y2076294D01*
X2706326Y2076717D01*
X2706044Y2076999D01*
X2705903Y2077140D01*
X2704212Y2078831D01*
X2702661Y2080523D01*
X2701392Y2082355D01*
X2700265Y2084047D01*
X2699278Y2085880D01*
X2698573Y2087571D01*
X2697868Y2089263D01*
X2697445Y2090814D01*
X2697022Y2092364D01*
X2696740Y2093774D01*
X2696458Y2094902D01*
X2696317Y2096030D01*
X2696176Y2096875D01*
Y2098003D01*
X2696317Y2100259D01*
X2696599Y2102373D01*
X2697022Y2104488D01*
X2697586Y2106320D01*
X2698150Y2107730D01*
X2698573Y2108999D01*
X2698855Y2109704D01*
X2698996Y2109986D01*
X2700265Y2112100D01*
X2701674Y2114074D01*
X2703225Y2115906D01*
X2704635Y2117316D01*
X2705903Y2118585D01*
X2707031Y2119572D01*
X2707736Y2120135D01*
X2708018Y2120276D01*
X2697727D01*
Y2137616D01*
X2795278D01*
Y2118867D01*
D02*
G37*
G36*
X2736212Y2057968D02*
X2739031Y2057686D01*
X2741569Y2057122D01*
X2744106Y2056558D01*
X2746362Y2055712D01*
X2748617Y2054866D01*
X2750591Y2053880D01*
X2752424Y2053034D01*
X2753974Y2052047D01*
X2755525Y2051060D01*
X2756653Y2050214D01*
X2757780Y2049369D01*
X2758485Y2048805D01*
X2759190Y2048241D01*
X2759472Y2047959D01*
X2759613Y2047818D01*
X2761446Y2045844D01*
X2762996Y2043730D01*
X2764406Y2041615D01*
X2765675Y2039360D01*
X2766661Y2037104D01*
X2767507Y2034990D01*
X2768212Y2032875D01*
X2768776Y2030760D01*
X2769199Y2028928D01*
X2769481Y2027095D01*
X2769763Y2025545D01*
X2769904Y2024135D01*
X2770045Y2023007D01*
Y2021456D01*
X2769904Y2017650D01*
X2769340Y2014126D01*
X2768635Y2010884D01*
X2767789Y2008064D01*
X2767225Y2006937D01*
X2766802Y2005809D01*
X2766521Y2004822D01*
X2766098Y2004117D01*
X2765816Y2003412D01*
X2765534Y2002989D01*
X2765393Y2002707D01*
Y2002566D01*
X2763419Y1999606D01*
X2761305Y1997069D01*
X2759049Y1994813D01*
X2756935Y1992981D01*
X2754961Y1991571D01*
X2753410Y1990443D01*
X2752846Y1990020D01*
X2752424Y1989879D01*
X2752142Y1989597D01*
X2752001D01*
X2748758Y1988047D01*
X2745516Y1987060D01*
X2742556Y1986214D01*
X2739877Y1985650D01*
X2737481Y1985368D01*
X2736494Y1985227D01*
X2735648D01*
X2735084Y1985086D01*
X2734520D01*
X2734238D01*
X2734097D01*
X2729727Y1985227D01*
X2725639Y1985791D01*
X2722115Y1986496D01*
X2720564Y1986919D01*
X2719155Y1987342D01*
X2717886Y1987765D01*
X2716758Y1988188D01*
X2715771Y1988610D01*
X2714925Y1988892D01*
X2714221Y1989174D01*
X2713798Y1989456D01*
X2713516Y1989597D01*
X2713375D01*
X2710414Y1991571D01*
X2707877Y1993685D01*
X2705621Y1995941D01*
X2703789Y1998055D01*
X2702379Y2000029D01*
X2701392Y2001580D01*
X2700969Y2002144D01*
X2700688Y2002566D01*
X2700547Y2002848D01*
Y2002989D01*
X2699137Y2006373D01*
X2698009Y2009615D01*
X2697304Y2012716D01*
X2696740Y2015677D01*
X2696458Y2018073D01*
X2696317Y2019060D01*
Y2019906D01*
X2696176Y2020611D01*
Y2021597D01*
X2696317Y2024558D01*
X2696599Y2027236D01*
X2697163Y2029915D01*
X2697868Y2032311D01*
X2698573Y2034708D01*
X2699419Y2036822D01*
X2700406Y2038796D01*
X2701392Y2040628D01*
X2702379Y2042179D01*
X2703366Y2043589D01*
X2704212Y2044857D01*
X2704917Y2045844D01*
X2705621Y2046690D01*
X2706185Y2047254D01*
X2706467Y2047536D01*
X2706608Y2047677D01*
X2708723Y2049509D01*
X2710837Y2051060D01*
X2712952Y2052470D01*
X2715207Y2053739D01*
X2717463Y2054725D01*
X2719718Y2055571D01*
X2721833Y2056276D01*
X2723948Y2056840D01*
X2725780Y2057263D01*
X2727613Y2057545D01*
X2729163Y2057827D01*
X2730573Y2057968D01*
X2731701Y2058109D01*
X2732547D01*
X2733111D01*
X2733252D01*
X2736212Y2057968D01*
D02*
G37*
G36*
X2795278Y1939976D02*
X2728600Y1922636D01*
X2795278Y1905156D01*
Y1875693D01*
X2697727D01*
Y1893879D01*
X2774415D01*
X2697727Y1913051D01*
Y1932081D01*
X2774415Y1951253D01*
X2697727Y1951394D01*
Y1969579D01*
X2795278D01*
Y1939976D01*
D02*
G37*
G36*
X2682925Y1788856D02*
X2670802D01*
Y1866671D01*
X2682925D01*
Y1788856D01*
D02*
G37*
G36*
X2795278Y1761931D02*
X2777939D01*
Y1780680D01*
X2795278D01*
Y1761931D01*
D02*
G37*
G36*
X2768494D02*
X2697727D01*
Y1780680D01*
X2768494D01*
Y1761931D01*
D02*
G37*
G36*
X2795278Y1678899D02*
X2697727D01*
Y1698635D01*
X2739172D01*
Y1739375D01*
X2755666D01*
Y1698635D01*
X2778785D01*
Y1745860D01*
X2795278D01*
Y1678899D01*
D02*
G37*
G36*
Y1640696D02*
X2777939D01*
Y1659445D01*
X2795278D01*
Y1640696D01*
D02*
G37*
G36*
X2768494D02*
X2697727D01*
Y1659445D01*
X2768494D01*
Y1640696D01*
D02*
G37*
G36*
X2795278Y1610811D02*
X2727049Y1595868D01*
X2795278Y1578952D01*
Y1555269D01*
X2728177Y1537506D01*
X2795278Y1522846D01*
Y1502687D01*
X2697727Y1525806D01*
Y1547233D01*
X2770609Y1566687D01*
X2697727Y1585859D01*
Y1607146D01*
X2795278Y1630688D01*
Y1610811D01*
D02*
G37*
%LPC*%
G36*
X2218597Y6525481D02*
Y6491930D01*
X2241293D01*
X2218597Y6525481D01*
D02*
G37*
G36*
X3169619Y7006526D02*
X3150024D01*
X3148473Y7006385D01*
X3144808D01*
X3143962Y7006244D01*
X3142411D01*
X3141847Y7006103D01*
X3141706D01*
X3140015Y7005821D01*
X3138464Y7005398D01*
X3137195Y7004835D01*
X3136068Y7004271D01*
X3135363Y7003707D01*
X3134658Y7003143D01*
X3134376Y7002861D01*
X3134235Y7002720D01*
X3133389Y7001592D01*
X3132825Y7000324D01*
X3132261Y6999196D01*
X3131980Y6998068D01*
X3131839Y6996940D01*
X3131698Y6996094D01*
Y6995531D01*
Y6995390D01*
X3131839Y6993698D01*
X3132120Y6992147D01*
X3132684Y6990879D01*
X3133107Y6989751D01*
X3133671Y6988764D01*
X3134235Y6988200D01*
X3134517Y6987777D01*
X3134658Y6987636D01*
X3135786Y6986649D01*
X3137054Y6985945D01*
X3138323Y6985381D01*
X3139592Y6984958D01*
X3140861Y6984535D01*
X3141706Y6984394D01*
X3142270Y6984253D01*
X3143116D01*
X3143962Y6984112D01*
X3148332D01*
X3150729Y6983971D01*
X3169619D01*
Y7006526D01*
D02*
G37*
G36*
Y6967759D02*
X3149178D01*
X3147204Y6967619D01*
X3145513Y6967478D01*
X3143821D01*
X3142411Y6967337D01*
X3141143Y6967196D01*
X3140156Y6967055D01*
X3139169Y6966914D01*
X3138464Y6966773D01*
X3137336Y6966632D01*
X3136632Y6966350D01*
X3136491D01*
X3135081Y6965786D01*
X3133812Y6965081D01*
X3132684Y6964376D01*
X3131839Y6963530D01*
X3131134Y6962967D01*
X3130711Y6962403D01*
X3130429Y6961980D01*
X3130288Y6961839D01*
X3129583Y6960570D01*
X3129019Y6959301D01*
X3128596Y6958174D01*
X3128314Y6956905D01*
X3128173Y6955918D01*
X3128032Y6955072D01*
Y6954508D01*
Y6954367D01*
X3128173Y6952535D01*
X3128455Y6950843D01*
X3128878Y6949433D01*
X3129442Y6948306D01*
X3130006Y6947319D01*
X3130429Y6946614D01*
X3130711Y6946191D01*
X3130852Y6946050D01*
X3131980Y6945063D01*
X3133107Y6944218D01*
X3134376Y6943513D01*
X3135504Y6942949D01*
X3136491Y6942667D01*
X3137336Y6942385D01*
X3137900Y6942244D01*
X3138041D01*
X3138605Y6942103D01*
X3139451D01*
X3141284Y6941962D01*
X3143539Y6941821D01*
X3145795D01*
X3147909Y6941680D01*
X3169619D01*
Y6967759D01*
D02*
G37*
G36*
X3048807Y7007795D02*
X3047679D01*
X3045424Y7007654D01*
X3043309Y7007372D01*
X3041336Y7007090D01*
X3039503Y7006526D01*
X3036261Y7005117D01*
X3034710Y7004412D01*
X3033441Y7003707D01*
X3032173Y7002861D01*
X3031186Y7002156D01*
X3030340Y7001451D01*
X3029494Y7000746D01*
X3028930Y7000183D01*
X3028508Y6999901D01*
X3028367Y6999619D01*
X3028226Y6999478D01*
X3026957Y6997786D01*
X3025688Y6995953D01*
X3024701Y6994121D01*
X3023856Y6992006D01*
X3022587Y6987777D01*
X3021741Y6983689D01*
X3021318Y6981856D01*
X3021177Y6980024D01*
X3021036Y6978473D01*
X3020895Y6977064D01*
X3020754Y6975795D01*
Y6974949D01*
Y6974385D01*
Y6974244D01*
X3020895Y6971143D01*
X3021036Y6968182D01*
X3021459Y6965504D01*
X3021882Y6963107D01*
X3022446Y6960711D01*
X3023151Y6958596D01*
X3023856Y6956764D01*
X3024560Y6955072D01*
X3025265Y6953522D01*
X3025970Y6952253D01*
X3026534Y6951125D01*
X3027239Y6950138D01*
X3027662Y6949433D01*
X3028085Y6949010D01*
X3028226Y6948729D01*
X3028367Y6948588D01*
X3029776Y6947037D01*
X3031327Y6945768D01*
X3033019Y6944640D01*
X3034569Y6943654D01*
X3036261Y6942949D01*
X3037812Y6942244D01*
X3040913Y6941257D01*
X3043591Y6940552D01*
X3044719Y6940411D01*
X3045706Y6940270D01*
X3046552Y6940129D01*
X3047679D01*
X3049794Y6940270D01*
X3051909Y6940552D01*
X3053882Y6940975D01*
X3055715Y6941539D01*
X3059098Y6942808D01*
X3061776Y6944499D01*
X3063045Y6945204D01*
X3064032Y6946050D01*
X3065019Y6946755D01*
X3065724Y6947460D01*
X3066287Y6947883D01*
X3066710Y6948306D01*
X3066992Y6948588D01*
X3067133Y6948729D01*
X3068402Y6950420D01*
X3069671Y6952253D01*
X3070658Y6954226D01*
X3071503Y6956341D01*
X3072913Y6960429D01*
X3073759Y6964517D01*
X3074041Y6966491D01*
X3074323Y6968182D01*
X3074464Y6969874D01*
X3074605Y6971284D01*
X3074746Y6972412D01*
Y6973257D01*
Y6973821D01*
Y6973962D01*
X3074605Y6977064D01*
X3074464Y6979883D01*
X3074041Y6982561D01*
X3073618Y6985099D01*
X3073054Y6987354D01*
X3072490Y6989469D01*
X3071785Y6991301D01*
X3071080Y6992993D01*
X3070376Y6994544D01*
X3069671Y6995813D01*
X3069107Y6996799D01*
X3068543Y6997786D01*
X3068120Y6998491D01*
X3067697Y6998914D01*
X3067556Y6999196D01*
X3067415Y6999337D01*
X3066006Y7000887D01*
X3064455Y7002156D01*
X3062763Y7003284D01*
X3061213Y7004271D01*
X3059521Y7005117D01*
X3057829Y7005680D01*
X3054728Y7006808D01*
X3051909Y7007372D01*
X3050781Y7007513D01*
X3049653Y7007654D01*
X3048807Y7007795D01*
D02*
G37*
G36*
X2942798D02*
X2941670D01*
X2939414Y7007654D01*
X2937300Y7007372D01*
X2935326Y7007090D01*
X2933494Y7006526D01*
X2930251Y7005117D01*
X2928701Y7004412D01*
X2927432Y7003707D01*
X2926163Y7002861D01*
X2925177Y7002156D01*
X2924331Y7001451D01*
X2923485Y7000746D01*
X2922921Y7000183D01*
X2922498Y6999901D01*
X2922357Y6999619D01*
X2922216Y6999478D01*
X2920947Y6997786D01*
X2919679Y6995953D01*
X2918692Y6994121D01*
X2917846Y6992006D01*
X2916577Y6987777D01*
X2915732Y6983689D01*
X2915309Y6981856D01*
X2915168Y6980024D01*
X2915027Y6978473D01*
X2914886Y6977064D01*
X2914745Y6975795D01*
Y6974949D01*
Y6974385D01*
Y6974244D01*
X2914886Y6971143D01*
X2915027Y6968182D01*
X2915450Y6965504D01*
X2915873Y6963107D01*
X2916436Y6960711D01*
X2917141Y6958596D01*
X2917846Y6956764D01*
X2918551Y6955072D01*
X2919256Y6953522D01*
X2919961Y6952253D01*
X2920525Y6951125D01*
X2921229Y6950138D01*
X2921652Y6949433D01*
X2922075Y6949010D01*
X2922216Y6948729D01*
X2922357Y6948588D01*
X2923767Y6947037D01*
X2925317Y6945768D01*
X2927009Y6944640D01*
X2928560Y6943654D01*
X2930251Y6942949D01*
X2931802Y6942244D01*
X2934903Y6941257D01*
X2937582Y6940552D01*
X2938710Y6940411D01*
X2939696Y6940270D01*
X2940542Y6940129D01*
X2941670D01*
X2943785Y6940270D01*
X2945899Y6940552D01*
X2947873Y6940975D01*
X2949705Y6941539D01*
X2953089Y6942808D01*
X2955767Y6944499D01*
X2957036Y6945204D01*
X2958023Y6946050D01*
X2959009Y6946755D01*
X2959714Y6947460D01*
X2960278Y6947883D01*
X2960701Y6948306D01*
X2960983Y6948588D01*
X2961124Y6948729D01*
X2962393Y6950420D01*
X2963661Y6952253D01*
X2964648Y6954226D01*
X2965494Y6956341D01*
X2966904Y6960429D01*
X2967749Y6964517D01*
X2968031Y6966491D01*
X2968313Y6968182D01*
X2968454Y6969874D01*
X2968595Y6971284D01*
X2968736Y6972412D01*
Y6973257D01*
Y6973821D01*
Y6973962D01*
X2968595Y6977064D01*
X2968454Y6979883D01*
X2968031Y6982561D01*
X2967608Y6985099D01*
X2967045Y6987354D01*
X2966481Y6989469D01*
X2965776Y6991301D01*
X2965071Y6992993D01*
X2964366Y6994544D01*
X2963661Y6995813D01*
X2963097Y6996799D01*
X2962534Y6997786D01*
X2962111Y6998491D01*
X2961688Y6998914D01*
X2961547Y6999196D01*
X2961406Y6999337D01*
X2959996Y7000887D01*
X2958445Y7002156D01*
X2956754Y7003284D01*
X2955203Y7004271D01*
X2953511Y7005117D01*
X2951820Y7005680D01*
X2948719Y7006808D01*
X2945899Y7007372D01*
X2944771Y7007513D01*
X2943644Y7007654D01*
X2942798Y7007795D01*
D02*
G37*
G36*
X1849406Y674637D02*
X1848466D01*
X1846211Y674450D01*
X1844331Y674262D01*
X1840760Y673134D01*
X1837753Y671630D01*
X1835309Y669751D01*
X1833430Y667871D01*
X1832114Y666367D01*
X1831362Y665239D01*
X1831174Y665052D01*
Y664864D01*
X1830234Y662984D01*
X1829482Y660916D01*
X1828167Y656217D01*
X1827227Y651518D01*
X1826475Y646631D01*
X1826287Y644564D01*
X1826099Y642496D01*
Y640617D01*
X1825911Y638925D01*
Y637609D01*
Y636670D01*
Y635918D01*
Y635730D01*
Y632346D01*
X1826099Y629339D01*
X1826287Y626520D01*
X1826475Y624076D01*
X1826851Y622197D01*
X1827039Y620693D01*
X1827227Y619753D01*
Y619377D01*
X1827791Y616934D01*
X1828355Y614678D01*
X1829107Y612611D01*
X1829858Y610919D01*
X1830422Y609415D01*
X1830986Y608476D01*
X1831174Y607724D01*
X1831362Y607536D01*
X1832490Y605844D01*
X1833618Y604528D01*
X1834745Y603213D01*
X1835873Y602273D01*
X1836813Y601333D01*
X1837565Y600769D01*
X1838129Y600581D01*
X1838317Y600393D01*
X1840008Y599641D01*
X1841700Y599078D01*
X1843392Y598514D01*
X1844895Y598326D01*
X1846399Y598138D01*
X1847527Y597950D01*
X1848466D01*
X1850722Y598138D01*
X1852602Y598326D01*
X1856173Y599453D01*
X1859180Y600957D01*
X1861624Y602837D01*
X1863503Y604528D01*
X1864819Y606032D01*
X1865571Y607160D01*
X1865759Y607348D01*
Y607536D01*
X1866699Y609415D01*
X1867450Y611483D01*
X1868766Y616182D01*
X1869706Y620881D01*
X1870270Y625768D01*
X1870646Y627835D01*
Y629903D01*
X1870834Y631783D01*
X1871022Y633474D01*
Y634790D01*
Y635730D01*
Y636482D01*
Y636670D01*
Y640053D01*
X1870834Y643060D01*
X1870646Y645880D01*
X1870458Y648135D01*
X1870270Y650203D01*
X1870082Y651518D01*
X1869894Y652458D01*
Y652834D01*
X1869330Y655466D01*
X1868766Y657721D01*
X1868014Y659789D01*
X1867450Y661480D01*
X1866887Y662796D01*
X1866323Y663924D01*
X1866135Y664488D01*
X1865947Y664676D01*
X1864819Y666367D01*
X1863691Y667871D01*
X1862563Y669187D01*
X1861436Y670126D01*
X1860496Y671066D01*
X1859744Y671630D01*
X1859180Y671818D01*
X1858992Y672006D01*
X1857301Y672946D01*
X1855609Y673510D01*
X1853729Y674074D01*
X1852038Y674262D01*
X1850722Y674450D01*
X1849406Y674637D01*
D02*
G37*
G36*
X1754111Y676517D02*
X1753359D01*
X1750915Y676329D01*
X1748848Y675953D01*
X1746780Y675201D01*
X1745088Y674450D01*
X1743773Y673698D01*
X1742833Y672946D01*
X1742081Y672570D01*
X1741893Y672382D01*
X1740201Y670690D01*
X1738698Y668811D01*
X1737382Y666743D01*
X1736254Y664864D01*
X1735315Y662984D01*
X1734751Y661480D01*
X1734375Y660540D01*
X1734187Y660353D01*
Y660165D01*
X1775538Y630279D01*
Y631407D01*
Y632346D01*
Y632910D01*
Y633098D01*
Y634226D01*
Y635354D01*
Y636106D01*
Y636294D01*
Y640053D01*
X1775350Y643436D01*
X1774974Y646443D01*
X1774598Y649075D01*
X1774410Y651142D01*
X1774034Y652834D01*
X1773846Y653774D01*
Y654150D01*
X1773094Y656781D01*
X1772343Y659225D01*
X1771591Y661292D01*
X1770839Y663172D01*
X1770275Y664676D01*
X1769711Y665615D01*
X1769335Y666367D01*
X1769147Y666555D01*
X1768020Y668435D01*
X1766704Y669938D01*
X1765576Y671254D01*
X1764448Y672194D01*
X1763509Y672946D01*
X1762757Y673698D01*
X1762381Y673886D01*
X1762193Y674074D01*
X1760689Y674825D01*
X1758997Y675577D01*
X1757494Y675953D01*
X1756178Y676141D01*
X1755050Y676329D01*
X1754111Y676517D01*
D02*
G37*
G36*
X1731179Y641744D02*
Y640617D01*
Y639677D01*
Y638925D01*
Y638737D01*
X1730991Y637797D01*
Y636858D01*
Y636106D01*
Y635918D01*
Y632159D01*
X1731179Y628963D01*
X1731555Y625956D01*
X1731743Y623324D01*
X1732119Y621257D01*
X1732495Y619565D01*
X1732683Y618625D01*
Y618249D01*
X1733435Y615618D01*
X1734187Y613175D01*
X1734939Y610919D01*
X1735690Y609227D01*
X1736254Y607724D01*
X1736818Y606596D01*
X1737194Y605844D01*
X1737382Y605656D01*
X1738510Y603965D01*
X1739826Y602461D01*
X1740953Y601145D01*
X1742081Y600205D01*
X1743021Y599453D01*
X1743773Y598702D01*
X1744337Y598514D01*
X1744525Y598326D01*
X1746028Y597574D01*
X1747720Y597010D01*
X1749224Y596634D01*
X1750539Y596446D01*
X1751667Y596258D01*
X1752607Y596070D01*
X1753359D01*
X1755802Y596258D01*
X1757870Y596634D01*
X1759937Y597198D01*
X1761629Y597950D01*
X1762945Y598702D01*
X1763884Y599266D01*
X1764636Y599641D01*
X1764824Y599829D01*
X1766516Y601521D01*
X1768020Y603401D01*
X1769335Y605468D01*
X1770463Y607348D01*
X1771215Y609227D01*
X1771779Y610731D01*
X1772155Y611671D01*
X1772343Y612047D01*
X1731179Y641744D01*
D02*
G37*
G36*
X1440889Y671229D02*
X1430364D01*
X1427356Y671041D01*
X1424537Y670853D01*
X1422093Y670477D01*
X1420214Y669913D01*
X1418522Y669349D01*
X1417206Y668973D01*
X1416455Y668785D01*
X1416267Y668597D01*
X1414199Y667658D01*
X1412320Y666342D01*
X1410816Y665214D01*
X1409500Y664086D01*
X1408372Y662959D01*
X1407621Y662019D01*
X1407245Y661455D01*
X1407057Y661267D01*
X1405929Y659387D01*
X1404801Y657320D01*
X1404049Y655252D01*
X1403297Y653373D01*
X1402734Y651681D01*
X1402358Y650365D01*
X1402170Y649613D01*
Y649237D01*
X1401230Y643787D01*
X1401042Y641155D01*
X1400854Y638712D01*
X1400666Y636644D01*
Y634953D01*
Y633825D01*
Y633637D01*
Y633449D01*
Y629878D01*
X1401042Y626682D01*
X1401418Y623487D01*
X1401982Y620668D01*
X1402546Y618036D01*
X1403297Y615781D01*
X1403861Y613713D01*
X1404613Y611833D01*
X1405365Y610142D01*
X1406117Y608638D01*
X1406869Y607510D01*
X1407433Y606383D01*
X1407996Y605631D01*
X1408372Y605067D01*
X1408560Y604879D01*
X1408748Y604691D01*
X1410252Y603187D01*
X1411944Y601684D01*
X1415703Y599428D01*
X1419462Y597924D01*
X1423221Y596797D01*
X1426604Y596233D01*
X1428108Y595857D01*
X1429424D01*
X1430364Y595669D01*
X1440889D01*
Y671229D01*
D02*
G37*
G36*
X1844707Y855516D02*
X1835685D01*
X1832113Y855328D01*
X1828918Y854952D01*
X1826287Y854388D01*
X1824031Y853824D01*
X1822340Y853072D01*
X1821212Y852509D01*
X1820460Y852133D01*
X1820272Y851945D01*
X1818580Y850441D01*
X1817265Y848561D01*
X1816325Y846682D01*
X1815573Y844802D01*
X1815197Y843111D01*
X1815009Y841607D01*
Y840667D01*
Y840479D01*
Y840291D01*
X1815197Y837472D01*
X1815761Y835404D01*
X1816137Y834464D01*
X1816513Y833901D01*
X1816701Y833525D01*
Y833337D01*
X1818016Y831269D01*
X1819332Y829765D01*
X1820460Y828638D01*
X1820836Y828450D01*
X1821024Y828262D01*
X1823091Y826946D01*
X1825347Y826006D01*
X1826287Y825630D01*
X1826851Y825442D01*
X1827414Y825254D01*
X1827602D01*
X1830610Y824691D01*
X1833429Y824503D01*
X1834745Y824315D01*
X1844707D01*
Y855516D01*
D02*
G37*
G36*
X5262411Y1826320D02*
X5239855D01*
X5238587Y1826179D01*
X5235485D01*
X5234217Y1826038D01*
X5233371D01*
X5232948Y1825897D01*
X5232807D01*
X5231115Y1825474D01*
X5229565Y1824910D01*
X5228296Y1824346D01*
X5227309Y1823642D01*
X5226463Y1822937D01*
X5225758Y1822514D01*
X5225476Y1822091D01*
X5225335Y1821950D01*
X5224490Y1820822D01*
X5223785Y1819412D01*
X5223362Y1818144D01*
X5222939Y1816875D01*
X5222798Y1815747D01*
X5222657Y1814901D01*
Y1814337D01*
Y1814056D01*
X5222798Y1812505D01*
X5222939Y1811095D01*
X5223362Y1809826D01*
X5223644Y1808699D01*
X5224067Y1807853D01*
X5224490Y1807289D01*
X5224631Y1806866D01*
X5224772Y1806725D01*
X5225617Y1805738D01*
X5226463Y1804893D01*
X5228296Y1803624D01*
X5229001Y1803201D01*
X5229706Y1802919D01*
X5230128Y1802637D01*
X5230269D01*
X5230974Y1802496D01*
X5232102Y1802214D01*
X5233230Y1802073D01*
X5234499Y1801932D01*
X5237459Y1801791D01*
X5240419Y1801650D01*
X5243239Y1801509D01*
X5262411D01*
Y1826320D01*
D02*
G37*
G36*
X3084022Y7907852D02*
X3083740D01*
X3081203Y7907570D01*
X3079088Y7907006D01*
X3077115Y7906160D01*
X3075564Y7905173D01*
X3074154Y7904187D01*
X3073309Y7903341D01*
X3072604Y7902777D01*
X3072463Y7902495D01*
X3071617Y7901367D01*
X3070912Y7900239D01*
X3069784Y7897561D01*
X3069079Y7894601D01*
X3068516Y7891781D01*
X3068234Y7889103D01*
X3068093Y7887975D01*
X3067952Y7886988D01*
Y7886142D01*
Y7885579D01*
Y7885156D01*
Y7885015D01*
Y7882900D01*
X3068093Y7881068D01*
X3068375Y7879235D01*
X3068657Y7877543D01*
X3069361Y7874724D01*
X3070207Y7872468D01*
X3071053Y7870636D01*
X3071758Y7869367D01*
X3072322Y7868662D01*
X3072463Y7868380D01*
X3074154Y7866689D01*
X3075987Y7865420D01*
X3077679Y7864433D01*
X3079370Y7863869D01*
X3080780Y7863446D01*
X3082049Y7863305D01*
X3082754Y7863164D01*
X3083035D01*
X3084586Y7863305D01*
X3085996Y7863446D01*
X3088533Y7864292D01*
X3090789Y7865420D01*
X3092621Y7866830D01*
X3094172Y7868239D01*
X3095300Y7869367D01*
X3095864Y7870213D01*
X3096146Y7870354D01*
Y7870495D01*
X3097273Y7872750D01*
X3098119Y7875288D01*
X3098683Y7877966D01*
X3099106Y7880504D01*
X3099388Y7882900D01*
Y7884028D01*
X3099529Y7884874D01*
Y7885720D01*
Y7886283D01*
Y7886565D01*
Y7886706D01*
X3099388Y7890513D01*
X3098824Y7893755D01*
X3098119Y7896433D01*
X3097273Y7898689D01*
X3096569Y7900380D01*
X3095864Y7901649D01*
X3095300Y7902354D01*
X3095159Y7902636D01*
X3093326Y7904328D01*
X3091494Y7905596D01*
X3089520Y7906583D01*
X3087687Y7907147D01*
X3086137Y7907570D01*
X3084868Y7907711D01*
X3084022Y7907852D01*
D02*
G37*
G36*
X2564266D02*
X2563984D01*
X2561446Y7907570D01*
X2559332Y7907006D01*
X2557358Y7906160D01*
X2555667Y7905173D01*
X2554398Y7904187D01*
X2553411Y7903341D01*
X2552706Y7902777D01*
X2552565Y7902495D01*
X2551015Y7900239D01*
X2549887Y7897702D01*
X2549182Y7895024D01*
X2548618Y7892345D01*
X2548336Y7889949D01*
X2548195Y7888821D01*
X2548054Y7887975D01*
Y7887129D01*
Y7886565D01*
Y7886283D01*
Y7886142D01*
X2548195Y7882477D01*
X2548759Y7879235D01*
X2549605Y7876557D01*
X2550451Y7874301D01*
X2551297Y7872609D01*
X2552142Y7871341D01*
X2552706Y7870636D01*
X2552847Y7870354D01*
X2554680Y7868521D01*
X2556654Y7867252D01*
X2558486Y7866266D01*
X2560319Y7865702D01*
X2562010Y7865279D01*
X2563279Y7865138D01*
X2564125Y7864997D01*
X2564407D01*
X2566662Y7865279D01*
X2568777Y7865843D01*
X2570610Y7866689D01*
X2572160Y7867675D01*
X2573429Y7868521D01*
X2574275Y7869367D01*
X2574980Y7869931D01*
X2575121Y7870213D01*
X2576530Y7872468D01*
X2577517Y7875006D01*
X2578363Y7877684D01*
X2578786Y7880363D01*
X2579068Y7882759D01*
X2579209Y7883887D01*
Y7884733D01*
X2579350Y7885438D01*
Y7886142D01*
Y7886424D01*
Y7886565D01*
X2579209Y7890372D01*
X2578645Y7893614D01*
X2577940Y7896292D01*
X2577235Y7898548D01*
X2576389Y7900239D01*
X2575825Y7901508D01*
X2575262Y7902213D01*
X2575121Y7902495D01*
X2573429Y7904328D01*
X2571596Y7905596D01*
X2569623Y7906583D01*
X2567931Y7907147D01*
X2566380Y7907570D01*
X2565112Y7907711D01*
X2564266Y7907852D01*
D02*
G37*
G36*
X2968991D02*
X2968004D01*
X2965889Y7907711D01*
X2964057Y7907147D01*
X2962365Y7906442D01*
X2960955Y7905737D01*
X2959828Y7904891D01*
X2958982Y7904187D01*
X2958418Y7903623D01*
X2958277Y7903482D01*
X2957008Y7901790D01*
X2955881Y7899817D01*
X2955176Y7897702D01*
X2954612Y7895728D01*
X2954330Y7894037D01*
X2954189Y7892486D01*
X2954048Y7891922D01*
Y7891640D01*
Y7891358D01*
Y7891217D01*
X2981960D01*
X2981819Y7893896D01*
X2981396Y7896292D01*
X2980832Y7898407D01*
X2979986Y7900099D01*
X2979282Y7901508D01*
X2978577Y7902495D01*
X2978154Y7903200D01*
X2978013Y7903341D01*
X2976462Y7904891D01*
X2974771Y7906019D01*
X2973079Y7906724D01*
X2971528Y7907288D01*
X2970119Y7907570D01*
X2968991Y7907852D01*
D02*
G37*
G36*
X2188581D02*
X2187594D01*
X2185479Y7907711D01*
X2183647Y7907147D01*
X2181955Y7906442D01*
X2180546Y7905737D01*
X2179418Y7904891D01*
X2178572Y7904187D01*
X2178008Y7903623D01*
X2177867Y7903482D01*
X2176598Y7901790D01*
X2175471Y7899817D01*
X2174766Y7897702D01*
X2174202Y7895728D01*
X2173920Y7894037D01*
X2173779Y7892486D01*
X2173638Y7891922D01*
Y7891640D01*
Y7891358D01*
Y7891217D01*
X2201550D01*
X2201409Y7893896D01*
X2200986Y7896292D01*
X2200422Y7898407D01*
X2199576Y7900099D01*
X2198872Y7901508D01*
X2198167Y7902495D01*
X2197744Y7903200D01*
X2197603Y7903341D01*
X2196052Y7904891D01*
X2194361Y7906019D01*
X2192669Y7906724D01*
X2191118Y7907288D01*
X2189709Y7907570D01*
X2188581Y7907852D01*
D02*
G37*
G36*
X3298579Y7924768D02*
X3284905Y7888539D01*
X3311830D01*
X3298579Y7924768D01*
D02*
G37*
G36*
X1949073Y7907006D02*
X1948368D01*
X1945690Y7906724D01*
X1943293Y7906160D01*
X1941319Y7905173D01*
X1939487Y7904187D01*
X1938077Y7903200D01*
X1936949Y7902213D01*
X1936386Y7901649D01*
X1936104Y7901367D01*
X1934412Y7899112D01*
X1933143Y7896433D01*
X1932297Y7893755D01*
X1931593Y7891217D01*
X1931311Y7888962D01*
X1931170Y7887834D01*
Y7886988D01*
X1931029Y7886283D01*
Y7885720D01*
Y7885438D01*
Y7885297D01*
X1931311Y7881631D01*
X1931874Y7878248D01*
X1932579Y7875570D01*
X1933566Y7873173D01*
X1934553Y7871482D01*
X1935258Y7870072D01*
X1935822Y7869367D01*
X1936104Y7869085D01*
X1938077Y7867252D01*
X1940051Y7865843D01*
X1942165Y7864997D01*
X1944139Y7864292D01*
X1945830Y7863869D01*
X1947099Y7863728D01*
X1947663Y7863587D01*
X1948368D01*
X1951046Y7863869D01*
X1953443Y7864433D01*
X1955557Y7865279D01*
X1957249Y7866407D01*
X1958800Y7867393D01*
X1959927Y7868239D01*
X1960491Y7868803D01*
X1960773Y7869085D01*
X1962465Y7871341D01*
X1963593Y7874019D01*
X1964439Y7876697D01*
X1965143Y7879376D01*
X1965425Y7881631D01*
X1965566Y7882618D01*
Y7883605D01*
X1965707Y7884310D01*
Y7884874D01*
Y7885156D01*
Y7885297D01*
X1965425Y7888962D01*
X1964861Y7892204D01*
X1964157Y7895024D01*
X1963170Y7897279D01*
X1962324Y7898971D01*
X1961478Y7900380D01*
X1960914Y7901085D01*
X1960773Y7901367D01*
X1958800Y7903200D01*
X1956685Y7904610D01*
X1954571Y7905596D01*
X1952597Y7906301D01*
X1950905Y7906724D01*
X1949637Y7906865D01*
X1949073Y7907006D01*
D02*
G37*
G36*
X2483400Y3947977D02*
X2470571D01*
X2468739Y3947836D01*
X2467047D01*
X2465637Y3947695D01*
X2464369D01*
X2463100Y3947554D01*
X2462113D01*
X2460563Y3947272D01*
X2459435Y3947131D01*
X2458730Y3946990D01*
X2458589D01*
X2456615Y3946426D01*
X2454924Y3945721D01*
X2453373Y3945016D01*
X2451963Y3944170D01*
X2450977Y3943466D01*
X2450131Y3942902D01*
X2449708Y3942479D01*
X2449567Y3942338D01*
X2448298Y3940928D01*
X2447170Y3939377D01*
X2446184Y3937827D01*
X2445338Y3936417D01*
X2444774Y3935007D01*
X2444351Y3933880D01*
X2444069Y3933175D01*
X2443928Y3933034D01*
Y3932893D01*
X2443223Y3930355D01*
X2442659Y3927677D01*
X2442377Y3924717D01*
X2442095Y3921897D01*
X2441954Y3919501D01*
X2441814Y3918373D01*
Y3917386D01*
Y3916681D01*
Y3916117D01*
Y3915694D01*
Y3915554D01*
X2441954Y3911606D01*
X2442095Y3907941D01*
X2442518Y3904981D01*
X2442800Y3902443D01*
X2443223Y3900329D01*
X2443364Y3899483D01*
X2443646Y3898919D01*
X2443787Y3898355D01*
Y3897932D01*
X2443928Y3897791D01*
Y3897650D01*
X2444774Y3895395D01*
X2445479Y3893421D01*
X2446466Y3891871D01*
X2447170Y3890602D01*
X2447875Y3889615D01*
X2448439Y3888910D01*
X2448862Y3888487D01*
X2449003Y3888346D01*
X2450272Y3887360D01*
X2451540Y3886514D01*
X2452809Y3885809D01*
X2454078Y3885245D01*
X2455206Y3884822D01*
X2456051Y3884540D01*
X2456615Y3884258D01*
X2456897D01*
X2458448Y3883976D01*
X2460281Y3883835D01*
X2462254Y3883553D01*
X2464228D01*
X2466060Y3883412D01*
X2483400D01*
Y3947977D01*
D02*
G37*
G36*
X2362588Y3949527D02*
X2361461D01*
X2359205Y3949386D01*
X2357091Y3949104D01*
X2355117Y3948822D01*
X2353284Y3948259D01*
X2350042Y3946849D01*
X2348491Y3946144D01*
X2347223Y3945439D01*
X2345954Y3944593D01*
X2344967Y3943888D01*
X2344121Y3943184D01*
X2343275Y3942479D01*
X2342712Y3941915D01*
X2342289Y3941633D01*
X2342148Y3941351D01*
X2342007Y3941210D01*
X2340738Y3939518D01*
X2339469Y3937686D01*
X2338482Y3935853D01*
X2337637Y3933739D01*
X2336368Y3929510D01*
X2335522Y3925421D01*
X2335099Y3923589D01*
X2334958Y3921756D01*
X2334817Y3920206D01*
X2334676Y3918796D01*
X2334535Y3917527D01*
Y3916681D01*
Y3916117D01*
Y3915976D01*
X2334676Y3912875D01*
X2334817Y3909915D01*
X2335240Y3907236D01*
X2335663Y3904840D01*
X2336227Y3902443D01*
X2336932Y3900329D01*
X2337637Y3898496D01*
X2338342Y3896805D01*
X2339046Y3895254D01*
X2339751Y3893985D01*
X2340315Y3892857D01*
X2341020Y3891871D01*
X2341443Y3891166D01*
X2341866Y3890743D01*
X2342007Y3890461D01*
X2342148Y3890320D01*
X2343557Y3888769D01*
X2345108Y3887500D01*
X2346800Y3886373D01*
X2348350Y3885386D01*
X2350042Y3884681D01*
X2351593Y3883976D01*
X2354694Y3882989D01*
X2357372Y3882285D01*
X2358500Y3882144D01*
X2359487Y3882003D01*
X2360333Y3881862D01*
X2361461D01*
X2363575Y3882003D01*
X2365690Y3882285D01*
X2367663Y3882708D01*
X2369496Y3883271D01*
X2372879Y3884540D01*
X2375558Y3886232D01*
X2376826Y3886937D01*
X2377813Y3887782D01*
X2378800Y3888487D01*
X2379505Y3889192D01*
X2380069Y3889615D01*
X2380492Y3890038D01*
X2380773Y3890320D01*
X2380914Y3890461D01*
X2382183Y3892152D01*
X2383452Y3893985D01*
X2384439Y3895959D01*
X2385285Y3898073D01*
X2386694Y3902161D01*
X2387540Y3906249D01*
X2387822Y3908223D01*
X2388104Y3909915D01*
X2388245Y3911606D01*
X2388386Y3913016D01*
X2388527Y3914144D01*
Y3914990D01*
Y3915554D01*
Y3915694D01*
X2388386Y3918796D01*
X2388245Y3921615D01*
X2387822Y3924294D01*
X2387399Y3926831D01*
X2386835Y3929087D01*
X2386271Y3931201D01*
X2385566Y3933034D01*
X2384862Y3934725D01*
X2384157Y3936276D01*
X2383452Y3937545D01*
X2382888Y3938532D01*
X2382324Y3939518D01*
X2381901Y3940223D01*
X2381478Y3940646D01*
X2381337Y3940928D01*
X2381196Y3941069D01*
X2379787Y3942620D01*
X2378236Y3943888D01*
X2376544Y3945016D01*
X2374994Y3946003D01*
X2373302Y3946849D01*
X2371610Y3947413D01*
X2368509Y3948540D01*
X2365690Y3949104D01*
X2364562Y3949245D01*
X2363434Y3949386D01*
X2362588Y3949527D01*
D02*
G37*
G36*
X2739736Y2319185D02*
X2739454D01*
X2739172D01*
X2739031D01*
Y2291273D01*
X2741710Y2291414D01*
X2744106Y2291837D01*
X2746221Y2292401D01*
X2747912Y2293247D01*
X2749322Y2293951D01*
X2750309Y2294656D01*
X2751014Y2295079D01*
X2751155Y2295220D01*
X2752705Y2296771D01*
X2753833Y2298463D01*
X2754538Y2300154D01*
X2755102Y2301705D01*
X2755384Y2303115D01*
X2755666Y2304242D01*
Y2305229D01*
X2755525Y2307344D01*
X2754961Y2309176D01*
X2754256Y2310868D01*
X2753551Y2312278D01*
X2752705Y2313405D01*
X2752001Y2314251D01*
X2751437Y2314815D01*
X2751296Y2314956D01*
X2749604Y2316225D01*
X2747631Y2317352D01*
X2745516Y2318057D01*
X2743542Y2318621D01*
X2741851Y2318903D01*
X2740300Y2319044D01*
X2739736Y2319185D01*
D02*
G37*
G36*
X2734661Y2118867D02*
X2733815D01*
X2733252D01*
X2732829D01*
X2732688D01*
X2728882Y2118726D01*
X2725498Y2118162D01*
X2722679Y2117457D01*
X2720423Y2116611D01*
X2718591Y2115765D01*
X2717322Y2115061D01*
X2716617Y2114497D01*
X2716335Y2114356D01*
X2714503Y2112523D01*
X2713234Y2110690D01*
X2712247Y2108858D01*
X2711683Y2107166D01*
X2711260Y2105616D01*
X2711119Y2104488D01*
X2710978Y2103642D01*
Y2103360D01*
X2711119Y2101950D01*
X2711260Y2100541D01*
X2712106Y2098003D01*
X2713234Y2095889D01*
X2714644Y2094056D01*
X2715912Y2092646D01*
X2717040Y2091660D01*
X2717886Y2091096D01*
X2718027Y2090814D01*
X2718168D01*
X2719155Y2090250D01*
X2720282Y2089827D01*
X2722820Y2088981D01*
X2725639Y2088417D01*
X2728318Y2088135D01*
X2730714Y2087853D01*
X2731701D01*
X2732688Y2087712D01*
X2733393D01*
X2734097D01*
X2734379D01*
X2734520D01*
X2738186Y2087853D01*
X2741428Y2088417D01*
X2744106Y2089122D01*
X2746362Y2089968D01*
X2748053Y2090673D01*
X2749322Y2091378D01*
X2750027Y2091941D01*
X2750309Y2092082D01*
X2752142Y2093915D01*
X2753410Y2095748D01*
X2754397Y2097580D01*
X2754961Y2099413D01*
X2755384Y2100823D01*
X2755525Y2102091D01*
X2755666Y2102937D01*
Y2103219D01*
X2755384Y2105616D01*
X2754820Y2107871D01*
X2753974Y2109704D01*
X2752987Y2111395D01*
X2752001Y2112664D01*
X2751155Y2113510D01*
X2750591Y2114215D01*
X2750309Y2114356D01*
X2749181Y2115202D01*
X2748053Y2115906D01*
X2745234Y2117034D01*
X2742415Y2117739D01*
X2739454Y2118303D01*
X2736917Y2118585D01*
X2735648Y2118726D01*
X2734661Y2118867D01*
D02*
G37*
G36*
X2734097Y2038937D02*
X2733534D01*
X2733252D01*
X2733111D01*
X2729445Y2038655D01*
X2726062Y2038091D01*
X2723384Y2037386D01*
X2720987Y2036399D01*
X2719296Y2035412D01*
X2717886Y2034708D01*
X2717181Y2034144D01*
X2716899Y2033862D01*
X2715066Y2031888D01*
X2713657Y2029915D01*
X2712811Y2027800D01*
X2712106Y2025827D01*
X2711683Y2024135D01*
X2711542Y2022866D01*
X2711401Y2022302D01*
Y2021597D01*
X2711683Y2018919D01*
X2712247Y2016523D01*
X2713093Y2014408D01*
X2714221Y2012716D01*
X2715207Y2011166D01*
X2716053Y2010038D01*
X2716617Y2009474D01*
X2716899Y2009192D01*
X2719155Y2007500D01*
X2721833Y2006373D01*
X2724511Y2005527D01*
X2727190Y2004822D01*
X2729445Y2004540D01*
X2730432Y2004399D01*
X2731419D01*
X2732124Y2004258D01*
X2732688D01*
X2732970D01*
X2733111D01*
X2736776Y2004540D01*
X2740018Y2005104D01*
X2742838Y2005809D01*
X2745093Y2006796D01*
X2746785Y2007641D01*
X2748194Y2008487D01*
X2748899Y2009051D01*
X2749181Y2009192D01*
X2751014Y2011166D01*
X2752424Y2013280D01*
X2753410Y2015395D01*
X2754115Y2017368D01*
X2754538Y2019060D01*
X2754679Y2020329D01*
X2754820Y2020893D01*
Y2021597D01*
X2754538Y2024276D01*
X2753974Y2026672D01*
X2752987Y2028646D01*
X2752001Y2030479D01*
X2751014Y2031888D01*
X2750027Y2033016D01*
X2749463Y2033580D01*
X2749181Y2033862D01*
X2746926Y2035553D01*
X2744247Y2036822D01*
X2741569Y2037668D01*
X2739031Y2038373D01*
X2736776Y2038655D01*
X2735648Y2038796D01*
X2734802D01*
X2734097Y2038937D01*
D02*
G37*
%LPD*%
D78*
X4139920Y1292420D02*
G03*
X4139920Y1292420I-30000J0D01*
G01*
D79*
X4330000Y1371750D02*
G03*
X4330000Y1371750I-12500J0D01*
G01*
X1526600Y3321300D02*
G03*
X1526600Y3321300I-12500J0D01*
G01*
D80*
X759080Y2955480D02*
G03*
X759080Y2955480I-10000J0D01*
G01*
D81*
X5049280Y5536120D02*
G03*
X5049280Y5536120I-5000J0D01*
G01*
Y4663618D02*
G03*
X5049280Y4663618I-5000J0D01*
G01*
Y4235331D02*
G03*
X5049280Y4235331I-5000J0D01*
G01*
X1048200Y4610410D02*
G03*
X1048200Y4610410I-5000J0D01*
G01*
Y5038697D02*
G03*
X1048200Y5038697I-5000J0D01*
G01*
Y5479159D02*
G03*
X1048200Y5479159I-5000J0D01*
G01*
Y5911200D02*
G03*
X1048200Y5911200I-5000J0D01*
G01*
X5049280Y5104080D02*
G03*
X5049280Y5104080I-5000J0D01*
G01*
D82*
X7596Y7413176D02*
G03*
X586824Y7992404I492404J86824D01*
G01*
X5413176D02*
G03*
X5992404Y7413176I86824J-492404D01*
G01*
Y586824D02*
G03*
X5413176Y7596I-492404J-86824D01*
G01*
X586824D02*
G03*
X7596Y586824I-86824J492404D01*
G01*
X3750000Y1507700D02*
Y1522940D01*
Y1467060D02*
Y1482300D01*
X1462400Y7887780D02*
Y7903020D01*
Y7847140D02*
Y7862380D01*
X3885000Y507500D02*
X4205000D01*
X3885000Y1387500D02*
X4205000D01*
X3885000Y507500D02*
Y1387500D01*
X4205000Y507500D02*
Y1387500D01*
X5031780Y5766121D02*
X5231780D01*
X5031780Y5566121D02*
X5231780D01*
Y5766121D01*
X5031780Y5566121D02*
Y5766121D01*
Y4893618D02*
X5231780D01*
X5031780Y4693618D02*
X5231780D01*
Y4893618D01*
X5031780Y4693618D02*
Y4893618D01*
Y4465331D02*
X5231780D01*
X5031780Y4265331D02*
X5231780D01*
Y4465331D01*
X5031780Y4265331D02*
Y4465331D01*
X855700Y4380410D02*
X1055700D01*
X855700Y4580410D02*
X1055700D01*
X855700Y4380410D02*
Y4580410D01*
X1055700Y4380410D02*
Y4580410D01*
X855700Y4808697D02*
X1055700D01*
X855700Y5008697D02*
X1055700D01*
X855700Y4808697D02*
Y5008697D01*
X1055700Y4808697D02*
Y5008697D01*
X855700Y5249159D02*
X1055700D01*
X855700Y5449159D02*
X1055700D01*
X855700Y5249159D02*
Y5449159D01*
X1055700Y5249159D02*
Y5449159D01*
X855700Y5681200D02*
X1055700D01*
X855700Y5881200D02*
X1055700D01*
X855700Y5681200D02*
Y5881200D01*
X1055700Y5681200D02*
Y5881200D01*
X5031780Y5334080D02*
X5231780D01*
X5031780Y5134080D02*
X5231780D01*
Y5334080D01*
X5031780Y5134080D02*
Y5334080D01*
X1651600Y3976300D02*
X1961600D01*
X1651600Y3306300D02*
X1961600D01*
Y3976300D01*
X1651600Y3306300D02*
Y3976300D01*
X1790000Y7800000D02*
Y8000000D01*
X1612500D02*
X1790000D01*
X1612500Y7800000D02*
Y8000000D01*
Y7800000D02*
X1790000D01*
X1715307Y4268184D02*
X1723770Y4276648D01*
X1740698D01*
X1749162Y4268184D01*
Y4234329D01*
X1740698Y4225865D01*
X1723770D01*
X1715307Y4234329D01*
X1664523Y4225865D02*
X1698379D01*
X1664523Y4259720D01*
Y4268184D01*
X1672987Y4276648D01*
X1689915D01*
X1698379Y4268184D01*
X1622204Y4225865D02*
Y4276648D01*
X1647595Y4251256D01*
X1613740D01*
X1487907Y7457019D02*
Y7507802D01*
X1462515D01*
X1454051Y7499339D01*
Y7482411D01*
X1462515Y7473947D01*
X1487907D01*
X1470979D02*
X1454051Y7457019D01*
X1437123D02*
X1420195D01*
X1428659D01*
Y7507802D01*
X1437123Y7499339D01*
X1394803Y7465483D02*
X1386339Y7457019D01*
X1369412D01*
X1360948Y7465483D01*
Y7499339D01*
X1369412Y7507802D01*
X1386339D01*
X1394803Y7499339D01*
Y7490875D01*
X1386339Y7482411D01*
X1360948D01*
X1492138Y7553482D02*
Y7604265D01*
X1466747D01*
X1458283Y7595802D01*
Y7578874D01*
X1466747Y7570410D01*
X1492138D01*
X1475211D02*
X1458283Y7553482D01*
X1407499D02*
X1441355D01*
X1407499Y7587338D01*
Y7595802D01*
X1415963Y7604265D01*
X1432891D01*
X1441355Y7595802D01*
X1390572D02*
X1382107Y7604265D01*
X1365180D01*
X1356716Y7595802D01*
Y7561946D01*
X1365180Y7553482D01*
X1382107D01*
X1390572Y7561946D01*
Y7595802D01*
X5195968Y5854505D02*
X5204432Y5862969D01*
X5221359D01*
X5229823Y5854505D01*
Y5846041D01*
X5221359Y5837577D01*
X5204432D01*
X5195968Y5829113D01*
Y5820649D01*
X5204432Y5812185D01*
X5221359D01*
X5229823Y5820649D01*
X5179040Y5803721D02*
X5145184D01*
X5128256Y5862969D02*
Y5812185D01*
X5102865D01*
X5094401Y5820649D01*
Y5854505D01*
X5102865Y5862969D01*
X5128256D01*
X5077473Y5854505D02*
X5069009Y5862969D01*
X5052081D01*
X5043617Y5854505D01*
Y5846041D01*
X5052081Y5837577D01*
X5043617Y5829113D01*
Y5820649D01*
X5052081Y5812185D01*
X5069009D01*
X5077473Y5820649D01*
Y5829113D01*
X5069009Y5837577D01*
X5077473Y5846041D01*
Y5854505D01*
X5069009Y5837577D02*
X5052081D01*
X5203949Y5420632D02*
X5212413Y5429096D01*
X5229341D01*
X5237805Y5420632D01*
Y5412168D01*
X5229341Y5403704D01*
X5212413D01*
X5203949Y5395240D01*
Y5386777D01*
X5212413Y5378313D01*
X5229341D01*
X5237805Y5386777D01*
X5187022Y5369849D02*
X5153166D01*
X5136238Y5429096D02*
Y5378313D01*
X5110846D01*
X5102382Y5386777D01*
Y5420632D01*
X5110846Y5429096D01*
X5136238D01*
X5085455D02*
X5051599D01*
Y5420632D01*
X5085455Y5386777D01*
Y5378313D01*
X5203941Y4985207D02*
X5212405Y4993671D01*
X5229333D01*
X5237797Y4985207D01*
Y4976743D01*
X5229333Y4968279D01*
X5212405D01*
X5203941Y4959815D01*
Y4951352D01*
X5212405Y4942887D01*
X5229333D01*
X5237797Y4951352D01*
X5187014Y4934423D02*
X5153158D01*
X5136230Y4993671D02*
Y4942887D01*
X5110838D01*
X5102374Y4951352D01*
Y4985207D01*
X5110838Y4993671D01*
X5136230D01*
X5051591D02*
X5068519Y4985207D01*
X5085447Y4968279D01*
Y4951352D01*
X5076982Y4942887D01*
X5060055D01*
X5051591Y4951352D01*
Y4959815D01*
X5060055Y4968279D01*
X5085447D01*
X5187986Y4552928D02*
X5196450Y4561391D01*
X5213378D01*
X5221842Y4552928D01*
Y4544464D01*
X5213378Y4536000D01*
X5196450D01*
X5187986Y4527536D01*
Y4519072D01*
X5196450Y4510608D01*
X5213378D01*
X5221842Y4519072D01*
X5171058Y4502144D02*
X5137203D01*
X5120275Y4561391D02*
Y4510608D01*
X5094883D01*
X5086419Y4519072D01*
Y4552928D01*
X5094883Y4561391D01*
X5120275D01*
X5035636D02*
X5069491D01*
Y4536000D01*
X5052563Y4544464D01*
X5044099D01*
X5035636Y4536000D01*
Y4519072D01*
X5044099Y4510608D01*
X5061027D01*
X5069491Y4519072D01*
X1012998Y4700443D02*
X1021462Y4708907D01*
X1038390D01*
X1046854Y4700443D01*
Y4691979D01*
X1038390Y4683515D01*
X1021462D01*
X1012998Y4675051D01*
Y4666587D01*
X1021462Y4658123D01*
X1038390D01*
X1046854Y4666587D01*
X996070Y4649659D02*
X962215D01*
X945287Y4708907D02*
Y4658123D01*
X919895D01*
X911431Y4666587D01*
Y4700443D01*
X919895Y4708907D01*
X945287D01*
X869112Y4658123D02*
Y4708907D01*
X894503Y4683515D01*
X860648D01*
X1012982Y5128878D02*
X1021446Y5137342D01*
X1038374D01*
X1046838Y5128878D01*
Y5120414D01*
X1038374Y5111950D01*
X1021446D01*
X1012982Y5103486D01*
Y5095022D01*
X1021446Y5086558D01*
X1038374D01*
X1046838Y5095022D01*
X996054Y5078094D02*
X962198D01*
X945271Y5137342D02*
Y5086558D01*
X919879D01*
X911415Y5095022D01*
Y5128878D01*
X919879Y5137342D01*
X945271D01*
X894487Y5128878D02*
X886023Y5137342D01*
X869095D01*
X860632Y5128878D01*
Y5120414D01*
X869095Y5111950D01*
X877559D01*
X869095D01*
X860632Y5103486D01*
Y5095022D01*
X869095Y5086558D01*
X886023D01*
X894487Y5095022D01*
X1014567Y5562100D02*
X1023031Y5570564D01*
X1039959D01*
X1048423Y5562100D01*
Y5553636D01*
X1039959Y5545172D01*
X1023031D01*
X1014567Y5536708D01*
Y5528244D01*
X1023031Y5519780D01*
X1039959D01*
X1048423Y5528244D01*
X997639Y5511316D02*
X963783D01*
X946856Y5570564D02*
Y5519780D01*
X921464D01*
X913000Y5528244D01*
Y5562100D01*
X921464Y5570564D01*
X946856D01*
X862216Y5519780D02*
X896072D01*
X862216Y5553636D01*
Y5562100D01*
X870680Y5570564D01*
X887608D01*
X896072Y5562100D01*
X1015621Y5985772D02*
X1024085Y5994236D01*
X1041013D01*
X1049477Y5985772D01*
Y5977308D01*
X1041013Y5968844D01*
X1024085D01*
X1015621Y5960380D01*
Y5951916D01*
X1024085Y5943452D01*
X1041013D01*
X1049477Y5951916D01*
X998693Y5934988D02*
X964838D01*
X947910Y5994236D02*
Y5943452D01*
X922518D01*
X914054Y5951916D01*
Y5985772D01*
X922518Y5994236D01*
X947910D01*
X897126Y5943452D02*
X880198D01*
X888662D01*
Y5994236D01*
X897126Y5985772D01*
X4896990Y769149D02*
X4905453Y760685D01*
Y743757D01*
X4896990Y735293D01*
X4863134D01*
X4854670Y743757D01*
Y760685D01*
X4863134Y769149D01*
X4854670Y786077D02*
Y803004D01*
Y794541D01*
X4905453D01*
X4896990Y786077D01*
X4905453Y862252D02*
X4896990Y845324D01*
X4880062Y828396D01*
X4863134D01*
X4854670Y836860D01*
Y853788D01*
X4863134Y862252D01*
X4871598D01*
X4880062Y853788D01*
Y828396D01*
X4566933Y1002117D02*
X4558469Y1010581D01*
Y1027509D01*
X4566933Y1035973D01*
X4600789D01*
X4609253Y1027509D01*
Y1010581D01*
X4600789Y1002117D01*
X4609253Y985189D02*
Y968261D01*
Y976725D01*
X4558469D01*
X4566933Y985189D01*
X4558469Y909014D02*
Y942870D01*
X4583861D01*
X4575397Y925942D01*
Y917478D01*
X4583861Y909014D01*
X4600789D01*
X4609253Y917478D01*
Y934406D01*
X4600789Y942870D01*
X1473206Y7729710D02*
X1481670Y7738174D01*
X1498597D01*
X1507062Y7729710D01*
Y7695855D01*
X1498597Y7687391D01*
X1481670D01*
X1473206Y7695855D01*
X1430886Y7687391D02*
Y7738174D01*
X1456278Y7712783D01*
X1422422D01*
X752684Y3197008D02*
X761148Y3205472D01*
X778075D01*
X786539Y3197008D01*
Y3163152D01*
X778075Y3154688D01*
X761148D01*
X752684Y3163152D01*
X735756Y3197008D02*
X727292Y3205472D01*
X710364D01*
X701900Y3197008D01*
Y3188544D01*
X710364Y3180080D01*
X718828D01*
X710364D01*
X701900Y3171616D01*
Y3163152D01*
X710364Y3154688D01*
X727292D01*
X735756Y3163152D01*
X1144193Y3815664D02*
X1152656Y3824128D01*
X1169584D01*
X1178048Y3815664D01*
Y3781808D01*
X1169584Y3773344D01*
X1152656D01*
X1144193Y3781808D01*
X1093409Y3773344D02*
X1127265D01*
X1093409Y3807200D01*
Y3815664D01*
X1101873Y3824128D01*
X1118801D01*
X1127265Y3815664D01*
X1042626Y3824128D02*
X1076481D01*
Y3798736D01*
X1059553Y3807200D01*
X1051089D01*
X1042626Y3798736D01*
Y3781808D01*
X1051089Y3773344D01*
X1068017D01*
X1076481Y3781808D01*
X3228946Y3107099D02*
Y3157882D01*
X3203554D01*
X3195090Y3149418D01*
Y3132491D01*
X3203554Y3124027D01*
X3228946D01*
X3212018D02*
X3195090Y3107099D01*
X3178162D02*
X3161234D01*
X3169698D01*
Y3157882D01*
X3178162Y3149418D01*
X3135842D02*
X3127378Y3157882D01*
X3110450D01*
X3101987Y3149418D01*
Y3140954D01*
X3110450Y3132491D01*
X3101987Y3124027D01*
Y3115563D01*
X3110450Y3107099D01*
X3127378D01*
X3135842Y3115563D01*
Y3124027D01*
X3127378Y3132491D01*
X3135842Y3140954D01*
Y3149418D01*
X3127378Y3132491D02*
X3110450D01*
X2895619Y3105180D02*
Y3155964D01*
X2870227D01*
X2861764Y3147500D01*
Y3130572D01*
X2870227Y3122108D01*
X2895619D01*
X2878691D02*
X2861764Y3105180D01*
X2844836D02*
X2827908D01*
X2836372D01*
Y3155964D01*
X2844836Y3147500D01*
X2802516Y3155964D02*
X2768660D01*
Y3147500D01*
X2802516Y3113645D01*
Y3105180D01*
X3072498Y3887144D02*
Y3844825D01*
X3064034Y3836361D01*
X3047106D01*
X3038642Y3844825D01*
Y3887144D01*
X2987859Y3878680D02*
X2996323Y3887144D01*
X3013251D01*
X3021715Y3878680D01*
Y3870216D01*
X3013251Y3861753D01*
X2996323D01*
X2987859Y3853288D01*
Y3844825D01*
X2996323Y3836361D01*
X3013251D01*
X3021715Y3844825D01*
X2970931Y3887144D02*
Y3836361D01*
X2945539D01*
X2937075Y3844825D01*
Y3853288D01*
X2945539Y3861753D01*
X2970931D01*
X2945539D01*
X2937075Y3870216D01*
Y3878680D01*
X2945539Y3887144D01*
X2970931D01*
X4569689Y1239081D02*
X4561225Y1247544D01*
Y1264472D01*
X4569689Y1272936D01*
X4603544D01*
X4612008Y1264472D01*
Y1247544D01*
X4603544Y1239081D01*
X4612008Y1222153D02*
Y1205225D01*
Y1213689D01*
X4561225D01*
X4569689Y1222153D01*
Y1179833D02*
X4561225Y1171369D01*
Y1154441D01*
X4569689Y1145977D01*
X4578153D01*
X4586616Y1154441D01*
Y1162905D01*
Y1154441D01*
X4595080Y1145977D01*
X4603544D01*
X4612008Y1154441D01*
Y1171369D01*
X4603544Y1179833D01*
X4099020Y1543046D02*
Y1593829D01*
X4073628D01*
X4065164Y1585365D01*
Y1568438D01*
X4073628Y1559974D01*
X4099020D01*
X4082092D02*
X4065164Y1543046D01*
X4048236Y1585365D02*
X4039772Y1593829D01*
X4022844D01*
X4014381Y1585365D01*
Y1576901D01*
X4022844Y1568438D01*
X4031308D01*
X4022844D01*
X4014381Y1559974D01*
Y1551510D01*
X4022844Y1543046D01*
X4039772D01*
X4048236Y1551510D01*
X3997453Y1585365D02*
X3988989Y1593829D01*
X3972061D01*
X3963597Y1585365D01*
Y1576901D01*
X3972061Y1568438D01*
X3963597Y1559974D01*
Y1551510D01*
X3972061Y1543046D01*
X3988989D01*
X3997453Y1551510D01*
Y1559974D01*
X3988989Y1568438D01*
X3997453Y1576901D01*
Y1585365D01*
X3988989Y1568438D02*
X3972061D01*
X4895933Y263108D02*
X4904397Y254644D01*
Y237716D01*
X4895933Y229252D01*
X4862077D01*
X4853613Y237716D01*
Y254644D01*
X4862077Y263108D01*
X4853613Y313891D02*
Y280036D01*
X4887469Y313891D01*
X4895933D01*
X4904397Y305427D01*
Y288500D01*
X4895933Y280036D01*
Y330819D02*
X4904397Y339283D01*
Y356211D01*
X4895933Y364675D01*
X4862077D01*
X4853613Y356211D01*
Y339283D01*
X4862077Y330819D01*
X4895933D01*
X4889787Y511125D02*
X4898251Y502661D01*
Y485733D01*
X4889787Y477269D01*
X4855931D01*
X4847467Y485733D01*
Y502661D01*
X4855931Y511125D01*
X4847467Y528053D02*
Y544980D01*
Y536517D01*
X4898251D01*
X4889787Y528053D01*
X4855931Y570372D02*
X4847467Y578836D01*
Y595764D01*
X4855931Y604228D01*
X4889787D01*
X4898251Y595764D01*
Y578836D01*
X4889787Y570372D01*
X4881323D01*
X4872859Y578836D01*
Y604228D01*
X4569386Y496018D02*
X4560922Y504482D01*
Y521410D01*
X4569386Y529874D01*
X4603242D01*
X4611706Y521410D01*
Y504482D01*
X4603242Y496018D01*
X4611706Y479090D02*
Y462163D01*
Y470626D01*
X4560922D01*
X4569386Y479090D01*
Y436771D02*
X4560922Y428307D01*
Y411379D01*
X4569386Y402915D01*
X4577850D01*
X4586314Y411379D01*
X4594778Y402915D01*
X4603242D01*
X4611706Y411379D01*
Y428307D01*
X4603242Y436771D01*
X4594778D01*
X4586314Y428307D01*
X4577850Y436771D01*
X4569386D01*
X4586314Y428307D02*
Y411379D01*
X4568843Y739339D02*
X4560379Y747802D01*
Y764730D01*
X4568843Y773194D01*
X4602699D01*
X4611163Y764730D01*
Y747802D01*
X4602699Y739339D01*
X4611163Y722411D02*
Y705483D01*
Y713947D01*
X4560379D01*
X4568843Y722411D01*
X4560379Y680091D02*
Y646235D01*
X4568843D01*
X4602699Y680091D01*
X4611163D01*
X4893178Y1023019D02*
X4901642Y1014555D01*
Y997627D01*
X4893178Y989163D01*
X4859322D01*
X4850858Y997627D01*
Y1014555D01*
X4859322Y1023019D01*
X4850858Y1039947D02*
Y1056875D01*
Y1048411D01*
X4901642D01*
X4893178Y1039947D01*
X4850858Y1107658D02*
X4901642D01*
X4876250Y1082267D01*
Y1116122D01*
X3477556Y1309766D02*
X3486020Y1301302D01*
Y1284374D01*
X3477556Y1275910D01*
X3443701D01*
X3435237Y1284374D01*
Y1301302D01*
X3443701Y1309766D01*
X3435237Y1326694D02*
Y1343621D01*
Y1335158D01*
X3486020D01*
X3477556Y1326694D01*
X3435237Y1402869D02*
Y1369013D01*
X3469092Y1402869D01*
X3477556D01*
X3486020Y1394405D01*
Y1377477D01*
X3477556Y1369013D01*
X3159383Y1171000D02*
X3150919Y1179463D01*
Y1196391D01*
X3159383Y1204855D01*
X3193239D01*
X3201703Y1196391D01*
Y1179463D01*
X3193239Y1171000D01*
X3201703Y1154072D02*
Y1137144D01*
Y1145608D01*
X3150919D01*
X3159383Y1154072D01*
X3201703Y1111752D02*
Y1094824D01*
Y1103288D01*
X3150919D01*
X3159383Y1111752D01*
X3476012Y1066934D02*
X3484476Y1058470D01*
Y1041542D01*
X3476012Y1033078D01*
X3442156D01*
X3433692Y1041542D01*
Y1058470D01*
X3442156Y1066934D01*
X3433692Y1083861D02*
Y1100789D01*
Y1092325D01*
X3484476D01*
X3476012Y1083861D01*
Y1126181D02*
X3484476Y1134645D01*
Y1151573D01*
X3476012Y1160037D01*
X3442156D01*
X3433692Y1151573D01*
Y1134645D01*
X3442156Y1126181D01*
X3476012D01*
X3162455Y895899D02*
X3153992Y904363D01*
Y921291D01*
X3162455Y929755D01*
X3196311D01*
X3204775Y921291D01*
Y904363D01*
X3196311Y895899D01*
Y878972D02*
X3204775Y870508D01*
Y853580D01*
X3196311Y845116D01*
X3162455D01*
X3153992Y853580D01*
Y870508D01*
X3162455Y878972D01*
X3170919D01*
X3179383Y870508D01*
Y845116D01*
X3477557Y845625D02*
X3486020Y837161D01*
Y820233D01*
X3477557Y811769D01*
X3443701D01*
X3435237Y820233D01*
Y837161D01*
X3443701Y845625D01*
X3477557Y862553D02*
X3486020Y871017D01*
Y887944D01*
X3477557Y896408D01*
X3469093D01*
X3460629Y887944D01*
X3452165Y896408D01*
X3443701D01*
X3435237Y887944D01*
Y871017D01*
X3443701Y862553D01*
X3452165D01*
X3460629Y871017D01*
X3469093Y862553D01*
X3477557D01*
X3460629Y871017D02*
Y887944D01*
X3156311Y659212D02*
X3147847Y667676D01*
Y684604D01*
X3156311Y693068D01*
X3190166D01*
X3198630Y684604D01*
Y667676D01*
X3190166Y659212D01*
X3147847Y642284D02*
Y608429D01*
X3156311D01*
X3190166Y642284D01*
X3198630D01*
X3477557Y592039D02*
X3486020Y583575D01*
Y566648D01*
X3477557Y558184D01*
X3443701D01*
X3435237Y566648D01*
Y583575D01*
X3443701Y592039D01*
X3486020Y642823D02*
X3477557Y625895D01*
X3460629Y608967D01*
X3443701D01*
X3435237Y617431D01*
Y634359D01*
X3443701Y642823D01*
X3452165D01*
X3460629Y634359D01*
Y608967D01*
X3157847Y413316D02*
X3149383Y421779D01*
Y438707D01*
X3157847Y447171D01*
X3191703D01*
X3200167Y438707D01*
Y421779D01*
X3191703Y413316D01*
X3149383Y362532D02*
Y396388D01*
X3174775D01*
X3166311Y379460D01*
Y370996D01*
X3174775Y362532D01*
X3191703D01*
X3200167Y370996D01*
Y387924D01*
X3191703Y396388D01*
X3748974Y1668281D02*
X3757438Y1676745D01*
X3774366D01*
X3782830Y1668281D01*
Y1634425D01*
X3774366Y1625961D01*
X3757438D01*
X3748974Y1634425D01*
X3732047Y1625961D02*
X3715119D01*
X3723583D01*
Y1676745D01*
X3732047Y1668281D01*
D83*
X1582500Y7800000D02*
G03*
X1582500Y7800000I-2500J0D01*
G01*
D84*
X1585520Y4100000D02*
X1631240D01*
X1676960D02*
X1722680D01*
X1631240Y4028880D02*
Y4171120D01*
X1676960Y4028880D02*
Y4171120D01*
X1137460Y3570180D02*
Y3712420D01*
X1091740Y3570180D02*
Y3712420D01*
X1137460Y3641300D02*
X1183180D01*
X1046020D02*
X1091740D01*
X667498Y3035000D02*
X713218D01*
X758938D02*
X804658D01*
X713218Y2963880D02*
Y3106120D01*
X758938Y2963880D02*
Y3106120D01*
D85*
X3711900Y1507700D02*
X3788100D01*
X3711900Y1482300D02*
X3788100D01*
X1424300Y7887780D02*
X1500500D01*
X1424300Y7862380D02*
X1500500D01*
X2550080Y1035480D02*
Y1159980D01*
X2477080Y1035480D02*
X2550080D01*
Y2710980D02*
Y2835480D01*
X2477080D02*
X2550080D01*
X80D02*
X672080D01*
X80Y1035480D02*
X672080D01*
X80D02*
Y2835480D01*
D86*
X1147389Y7439366D02*
Y7524366D01*
X1327389Y7439366D02*
Y7524366D01*
X1147389D02*
X1327389D01*
X1147389Y7439366D02*
X1327389D01*
X1147389Y7539366D02*
Y7624366D01*
X1327389Y7539366D02*
Y7624366D01*
X1147389D02*
X1327389D01*
X1147389Y7539366D02*
X1327389D01*
X4638769Y719432D02*
X4723770D01*
X4638769Y629432D02*
Y809433D01*
Y629432D02*
X4723770Y629432D01*
Y809433D01*
X4638769D02*
X4723770D01*
X4738085Y784198D02*
X4823085D01*
Y694198D02*
Y874198D01*
X4738085D02*
X4823085D01*
X4738085Y694198D02*
Y874198D01*
Y694198D02*
X4823085D01*
X4640559Y966715D02*
X4725560Y966715D01*
X4640559Y1056715D02*
X4640560Y876715D01*
X4725560Y876714D01*
Y1056715D01*
X4640559Y1056715D02*
X4725560Y1056715D01*
X4640559Y1215985D02*
X4725559D01*
X4640559Y1125985D02*
Y1305985D01*
Y1125985D02*
X4725559D01*
X4725558Y1305985D02*
X4725559Y1125985D01*
X4640559Y1305985D02*
X4725558D01*
X4738060Y1041714D02*
X4823060D01*
X4823060Y951714D02*
Y1131715D01*
X4738060D02*
X4823060D01*
X4738060Y951714D02*
Y1131715D01*
Y951714D02*
X4823060D01*
X3078367Y3178545D02*
Y3263545D01*
X3258367Y3178545D02*
Y3263545D01*
X3078367D02*
X3258367D01*
X3078367Y3178545D02*
X3258367D01*
X4741831Y197187D02*
X4826832Y197188D01*
X4741831Y197187D02*
X4741832Y377188D01*
X4826832D01*
Y197188D02*
Y377188D01*
X4741832Y287188D02*
X4826832D01*
X4738060Y446270D02*
X4823060Y446271D01*
X4738060Y446270D02*
Y626271D01*
X4823060D01*
Y446271D02*
Y626271D01*
X4738060Y536271D02*
X4823060D01*
X4640561Y561272D02*
X4725561D01*
Y381271D02*
Y561272D01*
X4640561Y381271D02*
X4725561D01*
X4640561D02*
X4640561Y561272D01*
X4640561Y471271D02*
X4725561Y471272D01*
X3327500Y596271D02*
X3412500Y596271D01*
X3327500Y506271D02*
Y686271D01*
Y506271D02*
X3412500D01*
Y686271D01*
X3327500Y686271D02*
X3412500Y686271D01*
X3230000Y909198D02*
X3315000D01*
X3315000Y819198D02*
Y999198D01*
X3230000D02*
X3315000D01*
X3230000Y819197D02*
Y999198D01*
Y819197D02*
X3315000Y819198D01*
X3327500Y1340985D02*
X3412500D01*
X3327500Y1250984D02*
Y1430985D01*
Y1250984D02*
X3412500Y1250985D01*
Y1430985D01*
X3327500D02*
X3412500D01*
X3230000Y412187D02*
X3315000D01*
X3315000Y502187D02*
X3315000Y322187D01*
X3230000Y502187D02*
X3315000D01*
X3230000Y322187D02*
Y502187D01*
Y322187D02*
X3315000D01*
X3230000Y661270D02*
X3315000D01*
X3315000Y571270D02*
Y751270D01*
X3230000Y751271D02*
X3315000Y751270D01*
X3230000Y751271D02*
X3230000Y571270D01*
X3315000Y571270D01*
X3327500Y844432D02*
X3412501D01*
X3327501Y934432D02*
X3327501Y754432D01*
X3412500D01*
X3412500Y934432D02*
X3412500Y754432D01*
X3327501Y934432D02*
X3412500D01*
X3327500Y1091715D02*
X3412500Y1091715D01*
X3327500Y1001715D02*
Y1181714D01*
Y1001715D02*
X3412500Y1001714D01*
X3412500Y1181715D02*
X3412500Y1001714D01*
X3327500Y1181714D02*
X3412500Y1181715D01*
X3230000Y1166714D02*
X3315000D01*
X3315000Y1076714D02*
Y1256715D01*
X3230000Y1256715D02*
X3315000Y1256715D01*
X3230000Y1256715D02*
X3230000Y1076714D01*
X3315000Y1076714D01*
X3942500Y1422500D02*
X4122500D01*
X3942500Y1507500D02*
X4122500D01*
Y1422500D02*
Y1507500D01*
X3942500Y1422500D02*
X3942500Y1507500D01*
X2749443Y3263541D02*
X2929443D01*
X2749443Y3178541D02*
X2929443D01*
X2749443D02*
Y3263541D01*
X2929443Y3178541D02*
Y3263541D01*
%TF.MD5,6911be16c76f22ca53b99fd2739c6687*%
M02*
