%TF.GenerationSoftware,Altium Limited,Altium Designer,25.4.2 (15)*%
G04 Layer_Color=16711935*
%FSLAX45Y45*%
%MOMM*%
%TF.SameCoordinates,B89C3993-2E54-4749-8753-7905F3AC881E*%
%TF.FilePolarity,Negative*%
%TF.FileFunction,Soldermask,Bot*%
%TF.Part,Single*%
G01*
G75*
%TA.AperFunction,ViaPad*%
%ADD45C,1.50000*%
%TA.AperFunction,ComponentPad*%
%ADD46C,0.70000*%
%ADD47C,1.20000*%
%ADD48C,0.32500*%
%ADD49O,1.60000X1.10000*%
%TA.AperFunction,WasherPad*%
%ADD53C,6.00000*%
%TA.AperFunction,ViaPad*%
%ADD54C,0.70000*%
%TA.AperFunction,SMDPad,CuDef*%
G04:AMPARAMS|DCode=55|XSize=1mm|YSize=0.6mm|CornerRadius=0mm|HoleSize=0mm|Usage=FLASHONLY|Rotation=135.000|XOffset=0mm|YOffset=0mm|HoleType=Round|Shape=Round|*
%AMOVALD55*
21,1,0.40000,0.60000,0.00000,0.00000,135.0*
1,1,0.60000,0.14142,-0.14142*
1,1,0.60000,-0.14142,0.14142*
%
%ADD55OVALD55*%

%ADD56O,1.00000X0.60000*%
%ADD57O,0.60000X1.00000*%
G04:AMPARAMS|DCode=60|XSize=0.9mm|YSize=1.7mm|CornerRadius=0.045mm|HoleSize=0mm|Usage=FLASHONLY|Rotation=180.000|XOffset=0mm|YOffset=0mm|HoleType=Round|Shape=RoundedRectangle|*
%AMROUNDEDRECTD60*
21,1,0.90000,1.61000,0,0,180.0*
21,1,0.81000,1.70000,0,0,180.0*
1,1,0.09000,-0.40500,0.80500*
1,1,0.09000,0.40500,0.80500*
1,1,0.09000,0.40500,-0.80500*
1,1,0.09000,-0.40500,-0.80500*
%
%ADD60ROUNDEDRECTD60*%
G04:AMPARAMS|DCode=61|XSize=0.45mm|YSize=0.25mm|CornerRadius=0.0125mm|HoleSize=0mm|Usage=FLASHONLY|Rotation=180.000|XOffset=0mm|YOffset=0mm|HoleType=Round|Shape=RoundedRectangle|*
%AMROUNDEDRECTD61*
21,1,0.45000,0.22500,0,0,180.0*
21,1,0.42500,0.25000,0,0,180.0*
1,1,0.02500,-0.21250,0.11250*
1,1,0.02500,0.21250,0.11250*
1,1,0.02500,0.21250,-0.11250*
1,1,0.02500,-0.21250,-0.11250*
%
%ADD61ROUNDEDRECTD61*%
G04:AMPARAMS|DCode=68|XSize=0.35mm|YSize=0.85mm|CornerRadius=0.0175mm|HoleSize=0mm|Usage=FLASHONLY|Rotation=180.000|XOffset=0mm|YOffset=0mm|HoleType=Round|Shape=RoundedRectangle|*
%AMROUNDEDRECTD68*
21,1,0.35000,0.81500,0,0,180.0*
21,1,0.31500,0.85000,0,0,180.0*
1,1,0.03500,-0.15750,0.40750*
1,1,0.03500,0.15750,0.40750*
1,1,0.03500,0.15750,-0.40750*
1,1,0.03500,-0.15750,-0.40750*
%
%ADD68ROUNDEDRECTD68*%
G04:AMPARAMS|DCode=69|XSize=0.25mm|YSize=0.85mm|CornerRadius=0.0125mm|HoleSize=0mm|Usage=FLASHONLY|Rotation=180.000|XOffset=0mm|YOffset=0mm|HoleType=Round|Shape=RoundedRectangle|*
%AMROUNDEDRECTD69*
21,1,0.25000,0.82500,0,0,180.0*
21,1,0.22500,0.85000,0,0,180.0*
1,1,0.02500,-0.11250,0.41250*
1,1,0.02500,0.11250,0.41250*
1,1,0.02500,0.11250,-0.41250*
1,1,0.02500,-0.11250,-0.41250*
%
%ADD69ROUNDEDRECTD69*%
G04:AMPARAMS|DCode=70|XSize=0.24mm|YSize=0.85mm|CornerRadius=0.012mm|HoleSize=0mm|Usage=FLASHONLY|Rotation=180.000|XOffset=0mm|YOffset=0mm|HoleType=Round|Shape=RoundedRectangle|*
%AMROUNDEDRECTD70*
21,1,0.24000,0.82600,0,0,180.0*
21,1,0.21600,0.85000,0,0,180.0*
1,1,0.02400,-0.10800,0.41300*
1,1,0.02400,0.10800,0.41300*
1,1,0.02400,0.10800,-0.41300*
1,1,0.02400,-0.10800,-0.41300*
%
%ADD70ROUNDEDRECTD70*%
G04:AMPARAMS|DCode=72|XSize=1mm|YSize=0.6mm|CornerRadius=0mm|HoleSize=0mm|Usage=FLASHONLY|Rotation=45.000|XOffset=0mm|YOffset=0mm|HoleType=Round|Shape=Round|*
%AMOVALD72*
21,1,0.40000,0.60000,0.00000,0.00000,45.0*
1,1,0.60000,-0.14142,-0.14142*
1,1,0.60000,0.14142,0.14142*
%
%ADD72OVALD72*%

%TA.AperFunction,BGAPad,CuDef*%
%ADD73R,0.90000X0.90000*%
%TA.AperFunction,SMDPad,CuDef*%
G04:AMPARAMS|DCode=94|XSize=1.926mm|YSize=0.926mm|CornerRadius=0.0805mm|HoleSize=0mm|Usage=FLASHONLY|Rotation=0.000|XOffset=0mm|YOffset=0mm|HoleType=Round|Shape=RoundedRectangle|*
%AMROUNDEDRECTD94*
21,1,1.92600,0.76500,0,0,0.0*
21,1,1.76500,0.92600,0,0,0.0*
1,1,0.16100,0.88250,-0.38250*
1,1,0.16100,-0.88250,-0.38250*
1,1,0.16100,-0.88250,0.38250*
1,1,0.16100,0.88250,0.38250*
%
%ADD94ROUNDEDRECTD94*%
G04:AMPARAMS|DCode=95|XSize=1.926mm|YSize=0.926mm|CornerRadius=0.0805mm|HoleSize=0mm|Usage=FLASHONLY|Rotation=270.000|XOffset=0mm|YOffset=0mm|HoleType=Round|Shape=RoundedRectangle|*
%AMROUNDEDRECTD95*
21,1,1.92600,0.76500,0,0,270.0*
21,1,1.76500,0.92600,0,0,270.0*
1,1,0.16100,-0.38250,-0.88250*
1,1,0.16100,-0.38250,0.88250*
1,1,0.16100,0.38250,0.88250*
1,1,0.16100,0.38250,-0.88250*
%
%ADD95ROUNDEDRECTD95*%
G04:AMPARAMS|DCode=96|XSize=0.576mm|YSize=0.626mm|CornerRadius=0.063mm|HoleSize=0mm|Usage=FLASHONLY|Rotation=90.000|XOffset=0mm|YOffset=0mm|HoleType=Round|Shape=RoundedRectangle|*
%AMROUNDEDRECTD96*
21,1,0.57600,0.50000,0,0,90.0*
21,1,0.45000,0.62600,0,0,90.0*
1,1,0.12600,0.25000,0.22500*
1,1,0.12600,0.25000,-0.22500*
1,1,0.12600,-0.25000,-0.22500*
1,1,0.12600,-0.25000,0.22500*
%
%ADD96ROUNDEDRECTD96*%
%ADD97R,2.27600X3.49600*%
%ADD98O,1.27600X0.40100*%
G04:AMPARAMS|DCode=99|XSize=0.926mm|YSize=0.676mm|CornerRadius=0.068mm|HoleSize=0mm|Usage=FLASHONLY|Rotation=0.000|XOffset=0mm|YOffset=0mm|HoleType=Round|Shape=RoundedRectangle|*
%AMROUNDEDRECTD99*
21,1,0.92600,0.54000,0,0,0.0*
21,1,0.79000,0.67600,0,0,0.0*
1,1,0.13600,0.39500,-0.27000*
1,1,0.13600,-0.39500,-0.27000*
1,1,0.13600,-0.39500,0.27000*
1,1,0.13600,0.39500,0.27000*
%
%ADD99ROUNDEDRECTD99*%
G04:AMPARAMS|DCode=100|XSize=1.726mm|YSize=1.026mm|CornerRadius=0.0855mm|HoleSize=0mm|Usage=FLASHONLY|Rotation=270.000|XOffset=0mm|YOffset=0mm|HoleType=Round|Shape=RoundedRectangle|*
%AMROUNDEDRECTD100*
21,1,1.72600,0.85500,0,0,270.0*
21,1,1.55500,1.02600,0,0,270.0*
1,1,0.17100,-0.42750,-0.77750*
1,1,0.17100,-0.42750,0.77750*
1,1,0.17100,0.42750,0.77750*
1,1,0.17100,0.42750,-0.77750*
%
%ADD100ROUNDEDRECTD100*%
G04:AMPARAMS|DCode=101|XSize=1.726mm|YSize=1.026mm|CornerRadius=0.0855mm|HoleSize=0mm|Usage=FLASHONLY|Rotation=0.000|XOffset=0mm|YOffset=0mm|HoleType=Round|Shape=RoundedRectangle|*
%AMROUNDEDRECTD101*
21,1,1.72600,0.85500,0,0,0.0*
21,1,1.55500,1.02600,0,0,0.0*
1,1,0.17100,0.77750,-0.42750*
1,1,0.17100,-0.77750,-0.42750*
1,1,0.17100,-0.77750,0.42750*
1,1,0.17100,0.77750,0.42750*
%
%ADD101ROUNDEDRECTD101*%
%ADD102C,1.57600*%
G04:AMPARAMS|DCode=103|XSize=0.976mm|YSize=1.576mm|CornerRadius=0.263mm|HoleSize=0mm|Usage=FLASHONLY|Rotation=270.000|XOffset=0mm|YOffset=0mm|HoleType=Round|Shape=RoundedRectangle|*
%AMROUNDEDRECTD103*
21,1,0.97600,1.05000,0,0,270.0*
21,1,0.45000,1.57600,0,0,270.0*
1,1,0.52600,-0.52500,-0.22500*
1,1,0.52600,-0.52500,0.22500*
1,1,0.52600,0.52500,0.22500*
1,1,0.52600,0.52500,-0.22500*
%
%ADD103ROUNDEDRECTD103*%
G04:AMPARAMS|DCode=104|XSize=1.576mm|YSize=0.976mm|CornerRadius=0.263mm|HoleSize=0mm|Usage=FLASHONLY|Rotation=270.000|XOffset=0mm|YOffset=0mm|HoleType=Round|Shape=RoundedRectangle|*
%AMROUNDEDRECTD104*
21,1,1.57600,0.45000,0,0,270.0*
21,1,1.05000,0.97600,0,0,270.0*
1,1,0.52600,-0.22500,-0.52500*
1,1,0.52600,-0.22500,0.52500*
1,1,0.52600,0.22500,0.52500*
1,1,0.52600,0.22500,-0.52500*
%
%ADD104ROUNDEDRECTD104*%
G04:AMPARAMS|DCode=105|XSize=1.076mm|YSize=2.226mm|CornerRadius=0.088mm|HoleSize=0mm|Usage=FLASHONLY|Rotation=270.000|XOffset=0mm|YOffset=0mm|HoleType=Round|Shape=RoundedRectangle|*
%AMROUNDEDRECTD105*
21,1,1.07600,2.05000,0,0,270.0*
21,1,0.90000,2.22600,0,0,270.0*
1,1,0.17600,-1.02500,-0.45000*
1,1,0.17600,-1.02500,0.45000*
1,1,0.17600,1.02500,0.45000*
1,1,0.17600,1.02500,-0.45000*
%
%ADD105ROUNDEDRECTD105*%
G04:AMPARAMS|DCode=106|XSize=3.326mm|YSize=2.226mm|CornerRadius=0.1455mm|HoleSize=0mm|Usage=FLASHONLY|Rotation=270.000|XOffset=0mm|YOffset=0mm|HoleType=Round|Shape=RoundedRectangle|*
%AMROUNDEDRECTD106*
21,1,3.32600,1.93500,0,0,270.0*
21,1,3.03500,2.22600,0,0,270.0*
1,1,0.29100,-0.96750,-1.51750*
1,1,0.29100,-0.96750,1.51750*
1,1,0.29100,0.96750,1.51750*
1,1,0.29100,0.96750,-1.51750*
%
%ADD106ROUNDEDRECTD106*%
G04:AMPARAMS|DCode=107|XSize=0.576mm|YSize=0.626mm|CornerRadius=0.063mm|HoleSize=0mm|Usage=FLASHONLY|Rotation=180.000|XOffset=0mm|YOffset=0mm|HoleType=Round|Shape=RoundedRectangle|*
%AMROUNDEDRECTD107*
21,1,0.57600,0.50000,0,0,180.0*
21,1,0.45000,0.62600,0,0,180.0*
1,1,0.12600,-0.22500,0.25000*
1,1,0.12600,0.22500,0.25000*
1,1,0.12600,0.22500,-0.25000*
1,1,0.12600,-0.22500,-0.25000*
%
%ADD107ROUNDEDRECTD107*%
%TA.AperFunction,ComponentPad*%
G04:AMPARAMS|DCode=108|XSize=1.576mm|YSize=1.526mm|CornerRadius=0.4005mm|HoleSize=0mm|Usage=FLASHONLY|Rotation=180.000|XOffset=0mm|YOffset=0mm|HoleType=Round|Shape=RoundedRectangle|*
%AMROUNDEDRECTD108*
21,1,1.57600,0.72500,0,0,180.0*
21,1,0.77500,1.52600,0,0,180.0*
1,1,0.80100,-0.38750,0.36250*
1,1,0.80100,0.38750,0.36250*
1,1,0.80100,0.38750,-0.36250*
1,1,0.80100,-0.38750,-0.36250*
%
%ADD108ROUNDEDRECTD108*%
%ADD109O,1.57600X1.52600*%
%TA.AperFunction,ViaPad*%
%ADD110C,1.57600*%
D45*
X4352019Y217157D02*
D03*
X2870780Y493192D02*
D03*
X5204597Y2581446D02*
D03*
X5713979Y3580767D02*
D03*
X5819115Y6557493D02*
D03*
X4895026Y7818601D02*
D03*
X1102827Y7850202D02*
D03*
X181851Y6107055D02*
D03*
X142422Y3779830D02*
D03*
D46*
X955700Y5736200D02*
D03*
Y5826200D02*
D03*
Y5394159D02*
D03*
Y5304160D02*
D03*
Y4863697D02*
D03*
Y4953697D02*
D03*
Y4525410D02*
D03*
Y4435410D02*
D03*
X5131780Y4410331D02*
D03*
Y4320331D02*
D03*
Y4748618D02*
D03*
Y4838617D02*
D03*
Y5279080D02*
D03*
Y5189080D02*
D03*
Y5621121D02*
D03*
Y5711120D02*
D03*
D47*
X3000000Y1322760D02*
D03*
Y1068760D02*
D03*
D48*
X2625000Y3572200D02*
D03*
X3375000D02*
D03*
D49*
X2760000Y3359700D02*
D03*
X3240000D02*
D03*
X2760000Y3784700D02*
D03*
X3240000Y3787200D02*
D03*
D53*
X500000Y500000D02*
D03*
X5500000D02*
D03*
Y7500000D02*
D03*
X500000D02*
D03*
D54*
X2941143Y2936103D02*
D03*
X3990000Y837500D02*
D03*
X4100000D02*
D03*
X3990000Y947500D02*
D03*
X4100000D02*
D03*
X3990000Y1057500D02*
D03*
X4100000D02*
D03*
X2891535Y2999070D02*
D03*
X2840662Y2936322D02*
D03*
X2790098Y2998867D02*
D03*
X2739794Y2936216D02*
D03*
X2683150Y2993210D02*
D03*
X2632488Y2930592D02*
D03*
X2581968Y2997323D02*
D03*
X1500139Y3222620D02*
D03*
X1550659Y3155888D02*
D03*
X1601321Y3218506D02*
D03*
X1657965Y3161513D02*
D03*
X1708269Y3224163D02*
D03*
X1758834Y3161619D02*
D03*
X1809707Y3224367D02*
D03*
X1861628Y3163163D02*
D03*
D55*
X2221723Y250738D02*
D03*
X2412933Y244567D02*
D03*
X2494307Y405693D02*
D03*
X2671783Y445717D02*
D03*
X4832347Y1967437D02*
D03*
X3938202D02*
D03*
X4683323D02*
D03*
X4534299D02*
D03*
X4385274D02*
D03*
X4236250D02*
D03*
X4087226D02*
D03*
X5445000Y4880000D02*
D03*
X2969056Y615250D02*
D03*
X3119058Y616559D02*
D03*
D56*
X5313974Y4602197D02*
D03*
X680950Y5559732D02*
D03*
X5379784Y5387430D02*
D03*
X624502Y4731684D02*
D03*
X606658Y5176588D02*
D03*
D57*
X695211Y4184930D02*
D03*
X1009466Y6221262D02*
D03*
X3241978Y1912982D02*
D03*
X3113734D02*
D03*
X3001145D02*
D03*
X5387030Y5839565D02*
D03*
X3599838Y1912982D02*
D03*
X4928294Y4093303D02*
D03*
X5223137Y4127680D02*
D03*
X4905988Y6024776D02*
D03*
X1171089Y4309703D02*
D03*
X530111Y5637834D02*
D03*
X1193490Y6134036D02*
D03*
X5097500Y1967437D02*
D03*
X3492329Y1912982D02*
D03*
X3359032D02*
D03*
D60*
X955700Y5781200D02*
D03*
Y5349159D02*
D03*
Y4908697D02*
D03*
Y4480410D02*
D03*
X5131780Y4365331D02*
D03*
Y4793618D02*
D03*
Y5234080D02*
D03*
Y5666120D02*
D03*
D61*
X1048200Y5856200D02*
D03*
Y5806200D02*
D03*
Y5706200D02*
D03*
Y5756200D02*
D03*
X863200Y5856200D02*
D03*
Y5806200D02*
D03*
Y5706200D02*
D03*
Y5756200D02*
D03*
Y5324160D02*
D03*
Y5274159D02*
D03*
Y5374159D02*
D03*
Y5424160D02*
D03*
X1048200Y5324160D02*
D03*
Y5274159D02*
D03*
Y5374159D02*
D03*
Y5424160D02*
D03*
Y4983697D02*
D03*
Y4933697D02*
D03*
Y4833697D02*
D03*
Y4883697D02*
D03*
X863200Y4983697D02*
D03*
Y4933697D02*
D03*
Y4833697D02*
D03*
Y4883697D02*
D03*
Y4455410D02*
D03*
Y4405410D02*
D03*
Y4505410D02*
D03*
Y4555410D02*
D03*
X1048200Y4455410D02*
D03*
Y4405410D02*
D03*
Y4505410D02*
D03*
Y4555410D02*
D03*
X5039280Y4290331D02*
D03*
Y4340331D02*
D03*
Y4440331D02*
D03*
Y4390331D02*
D03*
X5224280Y4290331D02*
D03*
Y4340331D02*
D03*
Y4440331D02*
D03*
Y4390331D02*
D03*
Y4818617D02*
D03*
Y4868618D02*
D03*
Y4768618D02*
D03*
Y4718617D02*
D03*
X5039280Y4818617D02*
D03*
Y4868618D02*
D03*
Y4768618D02*
D03*
Y4718617D02*
D03*
Y5159080D02*
D03*
Y5209080D02*
D03*
Y5309080D02*
D03*
Y5259080D02*
D03*
X5224280Y5159080D02*
D03*
Y5209080D02*
D03*
Y5309080D02*
D03*
Y5259080D02*
D03*
Y5691120D02*
D03*
Y5741121D02*
D03*
Y5641121D02*
D03*
Y5591120D02*
D03*
X5039280Y5691120D02*
D03*
Y5741121D02*
D03*
Y5641121D02*
D03*
Y5591120D02*
D03*
D68*
X3275000Y3662200D02*
D03*
X2725000D02*
D03*
Y3482200D02*
D03*
X3275000D02*
D03*
D69*
X3125000Y3662200D02*
D03*
X2875001D02*
D03*
Y3482200D02*
D03*
X3125000D02*
D03*
D70*
X3075000Y3662200D02*
D03*
X3025000D02*
D03*
X2975000D02*
D03*
X2925000D02*
D03*
Y3482200D02*
D03*
X2975000D02*
D03*
X3025000D02*
D03*
X3075000D02*
D03*
D72*
X5382350Y5074519D02*
D03*
D73*
X1381080Y2225480D02*
D03*
Y2085480D02*
D03*
Y1945480D02*
D03*
X1521080Y2085480D02*
D03*
Y2225480D02*
D03*
Y1945480D02*
D03*
X1661080Y2225480D02*
D03*
Y2085480D02*
D03*
Y1945480D02*
D03*
D94*
X1830000Y6359040D02*
D03*
X2670000D02*
D03*
X1830000Y6809040D02*
D03*
X2670000D02*
D03*
X3330000Y6359040D02*
D03*
X4170000D02*
D03*
X3330000Y6809040D02*
D03*
X4170000D02*
D03*
X2580000Y7109000D02*
D03*
X3420000D02*
D03*
X2580000Y7559000D02*
D03*
X3420000D02*
D03*
X3420003Y6058960D02*
D03*
X2580003D02*
D03*
X3420003Y5608960D02*
D03*
X2580003D02*
D03*
D95*
X4390342Y4344695D02*
D03*
Y3504696D02*
D03*
X4840342Y4344695D02*
D03*
Y3504696D02*
D03*
X5388720Y2057184D02*
D03*
Y1217184D02*
D03*
X5838720Y2057184D02*
D03*
Y1217184D02*
D03*
D96*
X3297900Y611270D02*
D03*
Y711270D02*
D03*
X2497580Y746466D02*
D03*
Y846466D02*
D03*
X2608325Y746466D02*
D03*
Y846466D02*
D03*
X1153219Y3033080D02*
D03*
Y3133080D02*
D03*
X4681269Y769432D02*
D03*
Y669432D02*
D03*
X4780585Y734198D02*
D03*
Y834198D02*
D03*
X4683060Y1016715D02*
D03*
Y916715D02*
D03*
X4512879Y1265985D02*
D03*
X4512879Y1165985D02*
D03*
X3272500Y959198D02*
D03*
X3462400Y546271D02*
D03*
X3370000Y794432D02*
D03*
X3372540Y1041714D02*
D03*
X3356343Y1234498D02*
D03*
X4540743Y520909D02*
D03*
X4780560Y586271D02*
D03*
X4540743Y420909D02*
D03*
X4780560Y486271D02*
D03*
X3272500Y859198D02*
D03*
X3462400Y646271D02*
D03*
X3356343Y1334498D02*
D03*
X3372540Y1141715D02*
D03*
X3370000Y894432D02*
D03*
D97*
X4045000Y947500D02*
D03*
D98*
X3750000Y590000D02*
D03*
Y655000D02*
D03*
Y720000D02*
D03*
Y785000D02*
D03*
Y850000D02*
D03*
Y915000D02*
D03*
Y980000D02*
D03*
Y1045000D02*
D03*
Y1110000D02*
D03*
Y1175000D02*
D03*
Y1240000D02*
D03*
Y1305000D02*
D03*
X4340000Y590000D02*
D03*
Y655000D02*
D03*
Y720000D02*
D03*
Y785000D02*
D03*
Y850000D02*
D03*
Y915000D02*
D03*
Y980000D02*
D03*
Y1045000D02*
D03*
Y1110000D02*
D03*
Y1175000D02*
D03*
Y1240000D02*
D03*
Y1305000D02*
D03*
D99*
X1274436Y3021780D02*
D03*
Y3166780D02*
D03*
X2717772Y868965D02*
D03*
Y723966D02*
D03*
X3750000Y1422500D02*
D03*
Y1567500D02*
D03*
D100*
X1107100Y4023800D02*
D03*
X1387100D02*
D03*
X876078Y3035000D02*
D03*
X596078D02*
D03*
D101*
X1127600Y3845100D02*
D03*
Y3565100D02*
D03*
D102*
X858520Y4203700D02*
D03*
X4560470Y5948397D02*
D03*
X1483656Y6005976D02*
D03*
X4289840Y3318347D02*
D03*
D103*
X2525080Y1236980D02*
D03*
Y1363980D02*
D03*
Y1490980D02*
D03*
Y1617980D02*
D03*
Y1744980D02*
D03*
Y1871980D02*
D03*
Y1998980D02*
D03*
Y2125980D02*
D03*
Y2252980D02*
D03*
Y2379980D02*
D03*
Y2506980D02*
D03*
Y2633980D02*
D03*
D104*
X749080Y1060480D02*
D03*
X876080D02*
D03*
X1003080D02*
D03*
X1130080D02*
D03*
X1257080D02*
D03*
X1384080D02*
D03*
X1511080D02*
D03*
X1638080D02*
D03*
X1765080D02*
D03*
X1892080D02*
D03*
X2019080D02*
D03*
X2146080D02*
D03*
X2273080D02*
D03*
X2400080D02*
D03*
Y2810480D02*
D03*
X2273080D02*
D03*
X2146080D02*
D03*
X2019080D02*
D03*
X1892080D02*
D03*
X1765080D02*
D03*
X1638080D02*
D03*
X1511080D02*
D03*
X1384080D02*
D03*
X1257080D02*
D03*
X1130080D02*
D03*
X1003080D02*
D03*
X876080D02*
D03*
X749080D02*
D03*
D105*
X1387101Y3565100D02*
D03*
X1387100Y3335100D02*
D03*
Y3795100D02*
D03*
D106*
X1972100Y3565100D02*
D03*
D107*
X4799093Y1157298D02*
D03*
X4699093D02*
D03*
X3667844Y462320D02*
D03*
X3498118Y1245939D02*
D03*
X4448708Y487719D02*
D03*
X4082500Y1465000D02*
D03*
X4348709Y487719D02*
D03*
X3218367Y3221045D02*
D03*
X2789443Y3221041D02*
D03*
X3767844Y462320D02*
D03*
X3598118Y1245939D02*
D03*
X3982500Y1465000D02*
D03*
X2889443Y3221041D02*
D03*
X3118367Y3221045D02*
D03*
D108*
X1520000Y163496D02*
D03*
D109*
Y417496D02*
D03*
X1774000D02*
D03*
X1266000Y163496D02*
D03*
X1774000D02*
D03*
X1266000Y417496D02*
D03*
D110*
X5783580Y2981960D02*
D03*
Y2727960D02*
D03*
Y2473960D02*
D03*
%TF.MD5,4d771cf5ac3efd3b8bddb1fd54c33b2a*%
M02*
