%TF.GenerationSoftware,Altium Limited,Altium Designer,25.4.2 (15)*%
G04 Layer_Physical_Order=3*
G04 Layer_Color=16737945*
%FSLAX45Y45*%
%MOMM*%
%TF.SameCoordinates,B89C3993-2E54-4749-8753-7905F3AC881E*%
%TF.FilePolarity,Positive*%
%TF.FileFunction,Copper,L3,Inr,Signal*%
%TF.Part,Single*%
G01*
G75*
%TA.AperFunction,ViaPad*%
%ADD45C,1.50000*%
%TA.AperFunction,ComponentPad*%
%ADD46C,0.70000*%
%ADD47C,1.20000*%
%ADD48C,0.32500*%
%ADD49O,1.60000X1.10000*%
%ADD50C,0.56000*%
G04:AMPARAMS|DCode=51|XSize=1.5mm|YSize=1.45mm|CornerRadius=0.3625mm|HoleSize=0mm|Usage=FLASHONLY|Rotation=180.000|XOffset=0mm|YOffset=0mm|HoleType=Round|Shape=RoundedRectangle|*
%AMROUNDEDRECTD51*
21,1,1.50000,0.72500,0,0,180.0*
21,1,0.77500,1.45000,0,0,180.0*
1,1,0.72500,-0.38750,0.36250*
1,1,0.72500,0.38750,0.36250*
1,1,0.72500,0.38750,-0.36250*
1,1,0.72500,-0.38750,-0.36250*
%
%ADD51ROUNDEDRECTD51*%
%ADD52O,1.50000X1.45000*%
%TA.AperFunction,WasherPad*%
%ADD53C,6.00000*%
%TA.AperFunction,ViaPad*%
%ADD54C,0.70000*%
G36*
X500002Y7983502D02*
X5500002D01*
X5502138Y7984387D01*
X5563243Y7980382D01*
X5625405Y7968018D01*
X5685420Y7947645D01*
X5742263Y7919613D01*
X5794961Y7884401D01*
X5842612Y7842612D01*
X5884401Y7794962D01*
X5919613Y7742264D01*
X5947645Y7685420D01*
X5968017Y7625405D01*
X5980382Y7563243D01*
X5983869Y7510035D01*
X5983504Y7500000D01*
X5983505Y7499997D01*
X5983505Y7489814D01*
X5983506Y500006D01*
X5983504Y500000D01*
X5983504D01*
X5983869Y489965D01*
X5980382Y436757D01*
X5968018Y374595D01*
X5947645Y314580D01*
X5919613Y257737D01*
X5884401Y205039D01*
X5842612Y157388D01*
X5794961Y115599D01*
X5742264Y80387D01*
X5685420Y52355D01*
X5625405Y31983D01*
X5563243Y19618D01*
X5502176Y15616D01*
X5500000Y16517D01*
X500000D01*
X497823Y15615D01*
X436757Y19618D01*
X374595Y31982D01*
X314580Y52355D01*
X257737Y80387D01*
X205039Y115599D01*
X157388Y157388D01*
X115599Y205038D01*
X80387Y257736D01*
X52355Y314580D01*
X31983Y374595D01*
X19618Y436757D01*
X16131Y489965D01*
X16496Y500000D01*
X16495Y500003D01*
X16495Y510186D01*
Y1024483D01*
X600080D01*
X607856Y1027704D01*
X611077Y1035480D01*
Y2835480D01*
X607856Y2843256D01*
X600080Y2846477D01*
X16494D01*
X16493Y7499994D01*
X16496Y7500000D01*
X16496D01*
X16131Y7510035D01*
X19618Y7563243D01*
X31982Y7625405D01*
X52355Y7685420D01*
X80387Y7742263D01*
X115599Y7794961D01*
X157388Y7842612D01*
X205038Y7884401D01*
X257736Y7919613D01*
X314580Y7947645D01*
X374595Y7968017D01*
X436757Y7980382D01*
X497866Y7984387D01*
X500002Y7983502D01*
D02*
G37*
%LPC*%
G36*
X3108253Y7746044D02*
X3090633Y7742539D01*
X3075695Y7732558D01*
X3065714Y7717620D01*
X3062209Y7699999D01*
X3065714Y7682379D01*
X3075695Y7667441D01*
X3090633Y7657459D01*
X3108253Y7653954D01*
X3125874Y7657459D01*
X3140812Y7667441D01*
X3150793Y7682379D01*
X3154298Y7699999D01*
X3150793Y7717620D01*
X3140812Y7732558D01*
X3125874Y7742539D01*
X3108253Y7746044D01*
D02*
G37*
G36*
X2823412Y7740263D02*
X2805791Y7736758D01*
X2790853Y7726777D01*
X2780872Y7711839D01*
X2777367Y7694219D01*
X2780872Y7676598D01*
X2790853Y7661660D01*
X2805791Y7651679D01*
X2823412Y7648174D01*
X2841032Y7651679D01*
X2855970Y7661660D01*
X2865951Y7676598D01*
X2869456Y7694219D01*
X2865951Y7711839D01*
X2855970Y7726777D01*
X2841032Y7736758D01*
X2823412Y7740263D01*
D02*
G37*
G36*
X3387430Y7718103D02*
X3369810Y7714598D01*
X3354872Y7704617D01*
X3344890Y7689679D01*
X3341385Y7672058D01*
X3344890Y7654438D01*
X3354872Y7639500D01*
X3369810Y7629519D01*
X3387430Y7626014D01*
X3405051Y7629519D01*
X3419989Y7639500D01*
X3429970Y7654438D01*
X3433475Y7672058D01*
X3429970Y7689679D01*
X3419989Y7704617D01*
X3405051Y7714598D01*
X3387430Y7718103D01*
D02*
G37*
G36*
X2542756Y7707046D02*
X2525136Y7703541D01*
X2510198Y7693559D01*
X2500217Y7678621D01*
X2496712Y7661001D01*
X2500217Y7643380D01*
X2510198Y7628442D01*
X2525136Y7618461D01*
X2542756Y7614956D01*
X2560377Y7618461D01*
X2575315Y7628442D01*
X2585296Y7643380D01*
X2588801Y7661001D01*
X2585296Y7678621D01*
X2575315Y7693559D01*
X2560377Y7703541D01*
X2542756Y7707046D01*
D02*
G37*
G36*
X3664614Y7662968D02*
X3646993Y7659463D01*
X3632055Y7649482D01*
X3622074Y7634544D01*
X3618569Y7616923D01*
X3622074Y7599303D01*
X3632055Y7584365D01*
X3646993Y7574383D01*
X3664614Y7570878D01*
X3682234Y7574383D01*
X3697172Y7584365D01*
X3707154Y7599303D01*
X3710659Y7616923D01*
X3707154Y7634544D01*
X3697172Y7649482D01*
X3682234Y7659463D01*
X3664614Y7662968D01*
D02*
G37*
G36*
X2267111Y7644673D02*
X2249491Y7641168D01*
X2234553Y7631187D01*
X2224571Y7616249D01*
X2221066Y7598629D01*
X2224571Y7581008D01*
X2234553Y7566070D01*
X2249491Y7556089D01*
X2267111Y7552584D01*
X2284732Y7556089D01*
X2299670Y7566070D01*
X2309651Y7581008D01*
X2313156Y7598629D01*
X2309651Y7616249D01*
X2299670Y7631187D01*
X2284732Y7641168D01*
X2267111Y7644673D01*
D02*
G37*
G36*
X3110793Y7583627D02*
X3093173Y7580122D01*
X3078235Y7570141D01*
X3068254Y7555203D01*
X3064749Y7537582D01*
X3068254Y7519962D01*
X3078235Y7505024D01*
X3093173Y7495043D01*
X3110793Y7491538D01*
X3128414Y7495043D01*
X3143352Y7505024D01*
X3153333Y7519962D01*
X3156838Y7537582D01*
X3153333Y7555203D01*
X3143352Y7570141D01*
X3128414Y7580122D01*
X3110793Y7583627D01*
D02*
G37*
G36*
X3934516Y7579161D02*
X3916896Y7575656D01*
X3901958Y7565675D01*
X3891976Y7550737D01*
X3888472Y7533116D01*
X3891976Y7515496D01*
X3901958Y7500558D01*
X3916896Y7490577D01*
X3934516Y7487072D01*
X3952137Y7490577D01*
X3967075Y7500558D01*
X3977056Y7515496D01*
X3980561Y7533116D01*
X3977056Y7550737D01*
X3967075Y7565675D01*
X3952137Y7575656D01*
X3934516Y7579161D01*
D02*
G37*
G36*
X1999495Y7553830D02*
X1981875Y7550325D01*
X1966937Y7540344D01*
X1956955Y7525406D01*
X1953450Y7507785D01*
X1956955Y7490165D01*
X1966937Y7475227D01*
X1981875Y7465246D01*
X1999495Y7461741D01*
X2017116Y7465246D01*
X2032054Y7475227D01*
X2042035Y7490165D01*
X2045540Y7507785D01*
X2042035Y7525406D01*
X2032054Y7540344D01*
X2017116Y7550325D01*
X1999495Y7553830D01*
D02*
G37*
G36*
X4194179Y7467601D02*
X4176559Y7464096D01*
X4161621Y7454115D01*
X4151640Y7439177D01*
X4148135Y7421556D01*
X4151640Y7403936D01*
X4161621Y7388998D01*
X4176559Y7379016D01*
X4194179Y7375512D01*
X4211800Y7379016D01*
X4226738Y7388998D01*
X4236719Y7403936D01*
X4240224Y7421556D01*
X4236719Y7439177D01*
X4226738Y7454115D01*
X4211800Y7464096D01*
X4194179Y7467601D01*
D02*
G37*
G36*
X1742841Y7435511D02*
X1725221Y7432006D01*
X1710283Y7422025D01*
X1700301Y7407087D01*
X1696796Y7389466D01*
X1700301Y7371846D01*
X1710283Y7356908D01*
X1725221Y7346927D01*
X1742841Y7343422D01*
X1760462Y7346927D01*
X1775400Y7356908D01*
X1785381Y7371846D01*
X1788886Y7389466D01*
X1785381Y7407087D01*
X1775400Y7422025D01*
X1760462Y7432006D01*
X1742841Y7435511D01*
D02*
G37*
G36*
X4440759Y7329509D02*
X4423139Y7326004D01*
X4408201Y7316023D01*
X4398220Y7301085D01*
X4394715Y7283465D01*
X4398220Y7265844D01*
X4408201Y7250906D01*
X4423139Y7240925D01*
X4440759Y7237420D01*
X4458380Y7240925D01*
X4473318Y7250906D01*
X4483299Y7265844D01*
X4486804Y7283465D01*
X4483299Y7301085D01*
X4473318Y7316023D01*
X4458380Y7326004D01*
X4440759Y7329509D01*
D02*
G37*
G36*
X1499961Y7291012D02*
X1482340Y7287507D01*
X1467402Y7277526D01*
X1457421Y7262588D01*
X1453916Y7244967D01*
X1457421Y7227347D01*
X1467402Y7212409D01*
X1482340Y7202428D01*
X1499961Y7198923D01*
X1517581Y7202428D01*
X1532519Y7212409D01*
X1542500Y7227347D01*
X1546005Y7244967D01*
X1542500Y7262588D01*
X1532519Y7277526D01*
X1517581Y7287507D01*
X1499961Y7291012D01*
D02*
G37*
G36*
X5500000Y7811119D02*
X5451330Y7807289D01*
X5403859Y7795892D01*
X5358755Y7777209D01*
X5317129Y7751701D01*
X5280005Y7719994D01*
X5248299Y7682871D01*
X5222791Y7641245D01*
X5204108Y7596141D01*
X5192711Y7548670D01*
X5188881Y7500000D01*
X5192711Y7451330D01*
X5204108Y7403859D01*
X5222791Y7358755D01*
X5248299Y7317129D01*
X5280005Y7280006D01*
X5317129Y7248299D01*
X5358755Y7222791D01*
X5403859Y7204108D01*
X5451330Y7192711D01*
X5500000Y7188881D01*
X5548670Y7192711D01*
X5596141Y7204108D01*
X5641245Y7222791D01*
X5682871Y7248299D01*
X5719994Y7280006D01*
X5751700Y7317129D01*
X5777209Y7358755D01*
X5795892Y7403859D01*
X5807289Y7451330D01*
X5811119Y7500000D01*
X5807289Y7548670D01*
X5795892Y7596141D01*
X5777209Y7641245D01*
X5751700Y7682871D01*
X5719994Y7719994D01*
X5682871Y7751701D01*
X5641245Y7777209D01*
X5596141Y7795892D01*
X5548670Y7807289D01*
X5500000Y7811119D01*
D02*
G37*
G36*
X500000D02*
X451330Y7807289D01*
X403859Y7795892D01*
X358755Y7777209D01*
X317129Y7751701D01*
X280006Y7719994D01*
X248299Y7682871D01*
X222791Y7641245D01*
X204108Y7596141D01*
X192711Y7548670D01*
X188881Y7500000D01*
X192711Y7451330D01*
X204108Y7403859D01*
X222791Y7358755D01*
X248299Y7317129D01*
X280006Y7280006D01*
X317129Y7248299D01*
X358755Y7222791D01*
X403859Y7204108D01*
X451330Y7192711D01*
X500000Y7188881D01*
X548670Y7192711D01*
X596141Y7204108D01*
X641245Y7222791D01*
X682871Y7248299D01*
X719994Y7280006D01*
X751701Y7317129D01*
X777209Y7358755D01*
X795892Y7403859D01*
X807289Y7451330D01*
X811119Y7500000D01*
X807289Y7548670D01*
X795892Y7596141D01*
X777209Y7641245D01*
X751701Y7682871D01*
X719994Y7719994D01*
X682871Y7751701D01*
X641245Y7777209D01*
X596141Y7795892D01*
X548670Y7807289D01*
X500000Y7811119D01*
D02*
G37*
G36*
X1207491Y7218786D02*
X1189870Y7215281D01*
X1174932Y7205300D01*
X1164951Y7190362D01*
X1161446Y7172742D01*
X1164951Y7155121D01*
X1174932Y7140183D01*
X1189870Y7130202D01*
X1207491Y7126697D01*
X1225111Y7130202D01*
X1240049Y7140183D01*
X1250031Y7155121D01*
X1253535Y7172742D01*
X1250031Y7190362D01*
X1240049Y7205300D01*
X1225111Y7215281D01*
X1207491Y7218786D01*
D02*
G37*
G36*
X4364741Y7188259D02*
X4347121Y7184754D01*
X4332183Y7174773D01*
X4322201Y7159835D01*
X4318696Y7142214D01*
X4322201Y7124594D01*
X4332183Y7109656D01*
X4347121Y7099674D01*
X4364741Y7096169D01*
X4382362Y7099674D01*
X4397300Y7109656D01*
X4407281Y7124594D01*
X4410786Y7142214D01*
X4407281Y7159835D01*
X4397300Y7174773D01*
X4382362Y7184754D01*
X4364741Y7188259D01*
D02*
G37*
G36*
X1571503Y7184568D02*
X1553883Y7181063D01*
X1538945Y7171081D01*
X1528964Y7156143D01*
X1525459Y7138523D01*
X1528964Y7120902D01*
X1538945Y7105964D01*
X1553883Y7095983D01*
X1571503Y7092478D01*
X1589124Y7095983D01*
X1604062Y7105964D01*
X1614043Y7120902D01*
X1617548Y7138523D01*
X1614043Y7156143D01*
X1604062Y7171081D01*
X1589124Y7181063D01*
X1571503Y7184568D01*
D02*
G37*
G36*
X3581217Y7155045D02*
X3563596Y7151540D01*
X3548658Y7141558D01*
X3538677Y7126620D01*
X3535172Y7109000D01*
X3538677Y7091380D01*
X3548658Y7076442D01*
X3563596Y7066460D01*
X3581217Y7062955D01*
X3598837Y7066460D01*
X3613775Y7076442D01*
X3623757Y7091380D01*
X3627261Y7109000D01*
X3623757Y7126620D01*
X3613775Y7141558D01*
X3598837Y7151540D01*
X3581217Y7155045D01*
D02*
G37*
G36*
X2741217D02*
X2723597Y7151540D01*
X2708659Y7141558D01*
X2698677Y7126620D01*
X2695172Y7109000D01*
X2698677Y7091380D01*
X2708659Y7076442D01*
X2723597Y7066460D01*
X2741217Y7062955D01*
X2758838Y7066460D01*
X2773776Y7076442D01*
X2783757Y7091380D01*
X2787262Y7109000D01*
X2783757Y7126620D01*
X2773776Y7141558D01*
X2758838Y7151540D01*
X2741217Y7155045D01*
D02*
G37*
G36*
X4514863Y7153234D02*
X4497243Y7149729D01*
X4482305Y7139748D01*
X4472324Y7124810D01*
X4468819Y7107189D01*
X4472324Y7089569D01*
X4482305Y7074631D01*
X4497243Y7064650D01*
X4514863Y7061145D01*
X4532484Y7064650D01*
X4547422Y7074631D01*
X4557403Y7089569D01*
X4560908Y7107189D01*
X4557403Y7124810D01*
X4547422Y7139748D01*
X4532484Y7149729D01*
X4514863Y7153234D01*
D02*
G37*
G36*
X1461328Y7138279D02*
X1443708Y7134774D01*
X1428770Y7124792D01*
X1418789Y7109854D01*
X1415284Y7092234D01*
X1418789Y7074613D01*
X1428770Y7059675D01*
X1443708Y7049694D01*
X1461328Y7046189D01*
X1478949Y7049694D01*
X1493887Y7059675D01*
X1503868Y7074613D01*
X1507373Y7092234D01*
X1503868Y7109854D01*
X1493887Y7124792D01*
X1478949Y7134774D01*
X1461328Y7138279D01*
D02*
G37*
G36*
X1273515Y7121917D02*
X1255895Y7118412D01*
X1240957Y7108431D01*
X1230975Y7093493D01*
X1227470Y7075873D01*
X1230975Y7058252D01*
X1240957Y7043314D01*
X1255895Y7033333D01*
X1273515Y7029828D01*
X1291136Y7033333D01*
X1306074Y7043314D01*
X1316055Y7058252D01*
X1319560Y7075873D01*
X1316055Y7093493D01*
X1306074Y7108431D01*
X1291136Y7118412D01*
X1273515Y7121917D01*
D02*
G37*
G36*
X1376354Y7051081D02*
X1358733Y7047576D01*
X1343795Y7037595D01*
X1333814Y7022657D01*
X1330309Y7005037D01*
X1333814Y6987416D01*
X1343795Y6972478D01*
X1358733Y6962497D01*
X1376354Y6958992D01*
X1393974Y6962497D01*
X1408912Y6972478D01*
X1418893Y6987416D01*
X1422398Y7005037D01*
X1418893Y7022657D01*
X1408912Y7037595D01*
X1393974Y7047576D01*
X1376354Y7051081D01*
D02*
G37*
G36*
X4884034Y6980059D02*
X4866414Y6976554D01*
X4851476Y6966573D01*
X4841495Y6951635D01*
X4837990Y6934015D01*
X4841495Y6916394D01*
X4851476Y6901456D01*
X4866414Y6891475D01*
X4884034Y6887970D01*
X4901655Y6891475D01*
X4916593Y6901456D01*
X4926574Y6916394D01*
X4930079Y6934015D01*
X4926574Y6951635D01*
X4916593Y6966573D01*
X4901655Y6976554D01*
X4884034Y6980059D01*
D02*
G37*
G36*
X2670000Y6967545D02*
X2652380Y6964040D01*
X2637442Y6954058D01*
X2627460Y6939120D01*
X2623955Y6921500D01*
X2627460Y6903880D01*
X2637442Y6888942D01*
X2652380Y6878960D01*
X2670000Y6875455D01*
X2687620Y6878960D01*
X2702558Y6888942D01*
X2712540Y6903880D01*
X2716045Y6921500D01*
X2712540Y6939120D01*
X2702558Y6954058D01*
X2687620Y6964040D01*
X2670000Y6967545D01*
D02*
G37*
G36*
X1830000D02*
X1812380Y6964040D01*
X1797442Y6954058D01*
X1787460Y6939120D01*
X1783956Y6921500D01*
X1787460Y6903880D01*
X1797442Y6888942D01*
X1812380Y6878960D01*
X1830000Y6875455D01*
X1847621Y6878960D01*
X1862559Y6888942D01*
X1872540Y6903880D01*
X1876045Y6921500D01*
X1872540Y6939120D01*
X1862559Y6954058D01*
X1847621Y6964040D01*
X1830000Y6967545D01*
D02*
G37*
G36*
X1181100Y6876105D02*
X1163480Y6872600D01*
X1148542Y6862618D01*
X1138560Y6847680D01*
X1135055Y6830060D01*
X1138560Y6812440D01*
X1148542Y6797502D01*
X1163480Y6787520D01*
X1181100Y6784015D01*
X1198720Y6787520D01*
X1213658Y6797502D01*
X1223640Y6812440D01*
X1227145Y6830060D01*
X1223640Y6847680D01*
X1213658Y6862618D01*
X1198720Y6872600D01*
X1181100Y6876105D01*
D02*
G37*
G36*
X4007460Y6855085D02*
X3989839Y6851580D01*
X3974901Y6841598D01*
X3964920Y6826660D01*
X3961415Y6809040D01*
X3964920Y6791419D01*
X3974901Y6776481D01*
X3989839Y6766500D01*
X4007460Y6762995D01*
X4025080Y6766500D01*
X4040018Y6776481D01*
X4049999Y6791419D01*
X4053504Y6809040D01*
X4049999Y6826660D01*
X4040018Y6841598D01*
X4025080Y6851580D01*
X4007460Y6855085D01*
D02*
G37*
G36*
X3492540D02*
X3474920Y6851580D01*
X3459982Y6841598D01*
X3450000Y6826660D01*
X3446496Y6809040D01*
X3450000Y6791419D01*
X3459982Y6776481D01*
X3474920Y6766500D01*
X3492540Y6762995D01*
X3510161Y6766500D01*
X3525099Y6776481D01*
X3535080Y6791419D01*
X3538585Y6809040D01*
X3535080Y6826660D01*
X3525099Y6841598D01*
X3510161Y6851580D01*
X3492540Y6855085D01*
D02*
G37*
G36*
X5075873Y6772530D02*
X5058252Y6769025D01*
X5043314Y6759043D01*
X5033333Y6744105D01*
X5029828Y6726485D01*
X5033333Y6708864D01*
X5043314Y6693926D01*
X5058252Y6683945D01*
X5075873Y6680440D01*
X5093493Y6683945D01*
X5108431Y6693926D01*
X5118412Y6708864D01*
X5121917Y6726485D01*
X5118412Y6744105D01*
X5108431Y6759043D01*
X5093493Y6769025D01*
X5075873Y6772530D01*
D02*
G37*
G36*
X879645Y6717598D02*
X862024Y6714093D01*
X847086Y6704112D01*
X837105Y6689174D01*
X833600Y6671553D01*
X837105Y6653933D01*
X847086Y6638995D01*
X862024Y6629014D01*
X879645Y6625509D01*
X897265Y6629014D01*
X912203Y6638995D01*
X922184Y6653933D01*
X925689Y6671553D01*
X922184Y6689174D01*
X912203Y6704112D01*
X897265Y6714093D01*
X879645Y6717598D01*
D02*
G37*
G36*
X1009466Y6704042D02*
X991846Y6700538D01*
X976908Y6690556D01*
X966926Y6675618D01*
X963421Y6657998D01*
X966926Y6640377D01*
X976908Y6625439D01*
X991846Y6615458D01*
X1009466Y6611953D01*
X1027087Y6615458D01*
X1042025Y6625439D01*
X1052006Y6640377D01*
X1055511Y6657998D01*
X1052006Y6675618D01*
X1042025Y6690556D01*
X1027087Y6700538D01*
X1009466Y6704042D01*
D02*
G37*
G36*
X4905988Y6617826D02*
X4888367Y6614322D01*
X4873429Y6604340D01*
X4863448Y6589402D01*
X4859943Y6571782D01*
X4863448Y6554161D01*
X4873429Y6539223D01*
X4888367Y6529242D01*
X4905988Y6525737D01*
X4923608Y6529242D01*
X4938546Y6539223D01*
X4948528Y6554161D01*
X4952033Y6571782D01*
X4948528Y6589402D01*
X4938546Y6604340D01*
X4923608Y6614322D01*
X4905988Y6617826D01*
D02*
G37*
G36*
X5244968Y6546084D02*
X5227347Y6542579D01*
X5212409Y6532598D01*
X5202428Y6517660D01*
X5198923Y6500039D01*
X5202428Y6482419D01*
X5212409Y6467481D01*
X5227347Y6457500D01*
X5244968Y6453995D01*
X5262588Y6457500D01*
X5277526Y6467481D01*
X5287507Y6482419D01*
X5291012Y6500039D01*
X5287507Y6517660D01*
X5277526Y6532598D01*
X5262588Y6542579D01*
X5244968Y6546084D01*
D02*
G37*
G36*
X2520504Y6536330D02*
X2502884Y6532825D01*
X2487946Y6522844D01*
X2477965Y6507906D01*
X2474460Y6490285D01*
X2477965Y6472665D01*
X2487946Y6457727D01*
X2502884Y6447746D01*
X2520504Y6444241D01*
X2538125Y6447746D01*
X2553063Y6457727D01*
X2563044Y6472665D01*
X2566549Y6490285D01*
X2563044Y6507906D01*
X2553063Y6522844D01*
X2538125Y6532825D01*
X2520504Y6536330D01*
D02*
G37*
G36*
X2938828Y6533205D02*
X2921208Y6529700D01*
X2906270Y6519718D01*
X2896288Y6504780D01*
X2892783Y6487160D01*
X2896288Y6469540D01*
X2906270Y6454602D01*
X2921208Y6444620D01*
X2938828Y6441115D01*
X2956448Y6444620D01*
X2971386Y6454602D01*
X2981368Y6469540D01*
X2984873Y6487160D01*
X2981368Y6504780D01*
X2971386Y6519718D01*
X2956448Y6529700D01*
X2938828Y6533205D01*
D02*
G37*
G36*
X3447200Y6496085D02*
X3429579Y6492580D01*
X3414641Y6482599D01*
X3404660Y6467661D01*
X3401155Y6450041D01*
X3404660Y6432420D01*
X3414641Y6417482D01*
X3429579Y6407501D01*
X3447200Y6403996D01*
X3464820Y6407501D01*
X3479758Y6417482D01*
X3489740Y6432420D01*
X3493244Y6450041D01*
X3489740Y6467661D01*
X3479758Y6482599D01*
X3464820Y6492580D01*
X3447200Y6496085D01*
D02*
G37*
G36*
X716535Y6486804D02*
X698915Y6483299D01*
X683977Y6473318D01*
X673996Y6458380D01*
X670491Y6440759D01*
X673996Y6423139D01*
X683977Y6408201D01*
X698915Y6398219D01*
X716535Y6394714D01*
X734156Y6398219D01*
X749094Y6408201D01*
X759075Y6423139D01*
X762580Y6440759D01*
X759075Y6458380D01*
X749094Y6473318D01*
X734156Y6483299D01*
X716535Y6486804D01*
D02*
G37*
G36*
X3550920Y6422208D02*
X3533300Y6418703D01*
X3518362Y6408722D01*
X3508380Y6393784D01*
X3504875Y6376164D01*
X3508380Y6358543D01*
X3518362Y6343605D01*
X3533300Y6333624D01*
X3550920Y6330119D01*
X3568540Y6333624D01*
X3583478Y6343605D01*
X3593460Y6358543D01*
X3596965Y6376164D01*
X3593460Y6393784D01*
X3583478Y6408722D01*
X3568540Y6418703D01*
X3550920Y6422208D01*
D02*
G37*
G36*
X567565Y6404629D02*
X549945Y6401124D01*
X535007Y6391143D01*
X525026Y6376205D01*
X521521Y6358584D01*
X525026Y6340964D01*
X535007Y6326026D01*
X549945Y6316045D01*
X567565Y6312540D01*
X585186Y6316045D01*
X600124Y6326026D01*
X610105Y6340964D01*
X613610Y6358584D01*
X610105Y6376205D01*
X600124Y6391143D01*
X585186Y6401124D01*
X567565Y6404629D01*
D02*
G37*
G36*
X3579928Y6315546D02*
X3562308Y6312041D01*
X3547370Y6302060D01*
X3537388Y6287122D01*
X3533883Y6269502D01*
X3537388Y6251881D01*
X3547370Y6236943D01*
X3562308Y6226962D01*
X3579928Y6223457D01*
X3597549Y6226962D01*
X3612487Y6236943D01*
X3622468Y6251881D01*
X3625973Y6269502D01*
X3622468Y6287122D01*
X3612487Y6302060D01*
X3597549Y6312041D01*
X3579928Y6315546D01*
D02*
G37*
G36*
X3721945Y6276532D02*
X3704324Y6273027D01*
X3689386Y6263046D01*
X3679405Y6248108D01*
X3675900Y6230487D01*
X3679405Y6212867D01*
X3689386Y6197929D01*
X3704324Y6187947D01*
X3721945Y6184443D01*
X3739565Y6187947D01*
X3754503Y6197929D01*
X3764484Y6212867D01*
X3767989Y6230487D01*
X3764484Y6248108D01*
X3754503Y6263046D01*
X3739565Y6273027D01*
X3721945Y6276532D01*
D02*
G37*
G36*
X469095Y6217563D02*
X451474Y6214058D01*
X436536Y6204077D01*
X426555Y6189139D01*
X423050Y6171519D01*
X426555Y6153898D01*
X436536Y6138960D01*
X451474Y6128979D01*
X469095Y6125474D01*
X486715Y6128979D01*
X501653Y6138960D01*
X511634Y6153898D01*
X515139Y6171519D01*
X511634Y6189139D01*
X501653Y6204077D01*
X486715Y6214058D01*
X469095Y6217563D01*
D02*
G37*
G36*
X3800596Y6156892D02*
X3782975Y6153387D01*
X3768037Y6143406D01*
X3758056Y6128468D01*
X3754551Y6110848D01*
X3758056Y6093227D01*
X3768037Y6078289D01*
X3782975Y6068308D01*
X3800596Y6064803D01*
X3818216Y6068308D01*
X3833154Y6078289D01*
X3843135Y6093227D01*
X3846640Y6110848D01*
X3843135Y6128468D01*
X3833154Y6143406D01*
X3818216Y6153387D01*
X3800596Y6156892D01*
D02*
G37*
G36*
X3933926Y6072045D02*
X3916305Y6068540D01*
X3901367Y6058559D01*
X3891386Y6043621D01*
X3887881Y6026000D01*
X3891386Y6008380D01*
X3901367Y5993442D01*
X3916305Y5983460D01*
X3933926Y5979956D01*
X3951546Y5983460D01*
X3966484Y5993442D01*
X3976465Y6008380D01*
X3979970Y6026000D01*
X3976465Y6043621D01*
X3966484Y6058559D01*
X3951546Y6068540D01*
X3933926Y6072045D01*
D02*
G37*
G36*
X622974Y6064306D02*
X605353Y6060801D01*
X590415Y6050820D01*
X580434Y6035882D01*
X576929Y6018262D01*
X580434Y6000641D01*
X590415Y5985703D01*
X605353Y5975722D01*
X622974Y5972217D01*
X640594Y5975722D01*
X655532Y5985703D01*
X665514Y6000641D01*
X669018Y6018262D01*
X665514Y6035882D01*
X655532Y6050820D01*
X640594Y6060801D01*
X622974Y6064306D01*
D02*
G37*
G36*
X5387030Y6057482D02*
X5369410Y6053977D01*
X5354472Y6043996D01*
X5344491Y6029058D01*
X5340986Y6011438D01*
X5344491Y5993817D01*
X5354472Y5978879D01*
X5369410Y5968898D01*
X5387030Y5965393D01*
X5404651Y5968898D01*
X5419589Y5978879D01*
X5429570Y5993817D01*
X5433075Y6011438D01*
X5429570Y6029058D01*
X5419589Y6043996D01*
X5404651Y6053977D01*
X5387030Y6057482D01*
D02*
G37*
G36*
X5507786Y6046550D02*
X5490165Y6043045D01*
X5475227Y6033063D01*
X5465246Y6018125D01*
X5461741Y6000505D01*
X5465246Y5982884D01*
X5475227Y5967946D01*
X5490165Y5957965D01*
X5507786Y5954460D01*
X5525406Y5957965D01*
X5540344Y5967946D01*
X5550325Y5982884D01*
X5553830Y6000505D01*
X5550325Y6018125D01*
X5540344Y6033063D01*
X5525406Y6043045D01*
X5507786Y6046550D01*
D02*
G37*
G36*
X4067102Y5987044D02*
X4049482Y5983539D01*
X4034544Y5973558D01*
X4024563Y5958620D01*
X4021058Y5940999D01*
X4024563Y5923379D01*
X4034544Y5908441D01*
X4049482Y5898460D01*
X4067102Y5894955D01*
X4084723Y5898460D01*
X4099661Y5908441D01*
X4109642Y5923379D01*
X4113147Y5940999D01*
X4109642Y5958620D01*
X4099661Y5973558D01*
X4084723Y5983539D01*
X4067102Y5987044D01*
D02*
G37*
G36*
X1048200Y5959405D02*
X1030579Y5955900D01*
X1015641Y5945919D01*
X1005660Y5930981D01*
X1002155Y5913360D01*
X1005660Y5895740D01*
X1015641Y5880802D01*
X1030579Y5870821D01*
X1048200Y5867316D01*
X1065820Y5870821D01*
X1080758Y5880802D01*
X1090739Y5895740D01*
X1094244Y5913360D01*
X1090739Y5930981D01*
X1080758Y5945919D01*
X1065820Y5955900D01*
X1048200Y5959405D01*
D02*
G37*
G36*
X365102Y5942983D02*
X347481Y5939478D01*
X332543Y5929497D01*
X322562Y5914559D01*
X319057Y5896938D01*
X322562Y5879318D01*
X332543Y5864380D01*
X347481Y5854399D01*
X365102Y5850894D01*
X382722Y5854399D01*
X397660Y5864380D01*
X407642Y5879318D01*
X411146Y5896938D01*
X407642Y5914559D01*
X397660Y5929497D01*
X382722Y5939478D01*
X365102Y5942983D01*
D02*
G37*
G36*
X4200279Y5902043D02*
X4182659Y5898538D01*
X4167721Y5888557D01*
X4157739Y5873619D01*
X4154235Y5855998D01*
X4157739Y5838378D01*
X4167721Y5823440D01*
X4182659Y5813459D01*
X4200279Y5809954D01*
X4217900Y5813459D01*
X4232838Y5823440D01*
X4242819Y5838378D01*
X4246324Y5855998D01*
X4242819Y5873619D01*
X4232838Y5888557D01*
X4217900Y5898538D01*
X4200279Y5902043D01*
D02*
G37*
G36*
X4333456Y5817042D02*
X4315835Y5813537D01*
X4300897Y5803556D01*
X4290916Y5788618D01*
X4287411Y5770998D01*
X4290916Y5753377D01*
X4300897Y5738439D01*
X4315835Y5728458D01*
X4333456Y5724953D01*
X4351076Y5728458D01*
X4366014Y5738439D01*
X4375996Y5753377D01*
X4379501Y5770998D01*
X4375996Y5788618D01*
X4366014Y5803556D01*
X4351076Y5813537D01*
X4333456Y5817042D01*
D02*
G37*
G36*
X530111Y5805026D02*
X512491Y5801522D01*
X497553Y5791540D01*
X487572Y5776602D01*
X484067Y5758982D01*
X487572Y5741361D01*
X497553Y5726423D01*
X512491Y5716442D01*
X530111Y5712937D01*
X547732Y5716442D01*
X562670Y5726423D01*
X572651Y5741361D01*
X576156Y5758982D01*
X572651Y5776602D01*
X562670Y5791540D01*
X547732Y5801522D01*
X530111Y5805026D01*
D02*
G37*
G36*
X795020Y5842325D02*
X777400Y5838820D01*
X762462Y5828838D01*
X752480Y5813900D01*
X748975Y5796280D01*
X752480Y5778660D01*
X762462Y5763722D01*
X767399Y5760423D01*
Y5750237D01*
X762462Y5746938D01*
X752480Y5732000D01*
X748975Y5714379D01*
X752480Y5696759D01*
X762462Y5681821D01*
X777400Y5671840D01*
X795020Y5668335D01*
X812640Y5671840D01*
X827578Y5681821D01*
X837560Y5696759D01*
X841065Y5714379D01*
X837560Y5732000D01*
X827578Y5746938D01*
X822641Y5750237D01*
Y5760423D01*
X827578Y5763722D01*
X837560Y5778660D01*
X841065Y5796280D01*
X837560Y5813900D01*
X827578Y5828838D01*
X812640Y5838820D01*
X795020Y5842325D01*
D02*
G37*
G36*
X4466632Y5732041D02*
X4449012Y5728536D01*
X4434074Y5718555D01*
X4424093Y5703617D01*
X4420588Y5685997D01*
X4424093Y5668376D01*
X4434074Y5653438D01*
X4449012Y5643457D01*
X4466632Y5639952D01*
X4484253Y5643457D01*
X4499191Y5653438D01*
X4509172Y5668376D01*
X4512677Y5685997D01*
X4509172Y5703617D01*
X4499191Y5718555D01*
X4484253Y5728536D01*
X4466632Y5732041D01*
D02*
G37*
G36*
X5295000Y5778985D02*
X5277380Y5775480D01*
X5262442Y5765499D01*
X5252461Y5750561D01*
X5248956Y5732941D01*
X5252461Y5715320D01*
X5262442Y5700382D01*
X5267379Y5697083D01*
Y5686898D01*
X5262442Y5683599D01*
X5252461Y5668661D01*
X5248956Y5651040D01*
X5252461Y5633420D01*
X5262442Y5618482D01*
X5277380Y5608501D01*
X5295000Y5604996D01*
X5312621Y5608501D01*
X5327559Y5618482D01*
X5337540Y5633420D01*
X5341045Y5651040D01*
X5337540Y5668661D01*
X5327559Y5683599D01*
X5322622Y5686898D01*
Y5697083D01*
X5327559Y5700382D01*
X5337540Y5715320D01*
X5341045Y5732941D01*
X5337540Y5750561D01*
X5327559Y5765499D01*
X5312621Y5775480D01*
X5295000Y5778985D01*
D02*
G37*
G36*
X4599963Y5649542D02*
X4582342Y5646037D01*
X4567404Y5636056D01*
X4557423Y5621118D01*
X4553918Y5603497D01*
X4557423Y5585877D01*
X4567404Y5570939D01*
X4582342Y5560958D01*
X4599963Y5557453D01*
X4617583Y5560958D01*
X4632521Y5570939D01*
X4642503Y5585877D01*
X4646007Y5603497D01*
X4642503Y5621118D01*
X4632521Y5636056D01*
X4617583Y5646037D01*
X4599963Y5649542D01*
D02*
G37*
G36*
X435285Y5618601D02*
X417664Y5615096D01*
X402726Y5605115D01*
X392745Y5590177D01*
X389240Y5572557D01*
X392745Y5554936D01*
X402726Y5539998D01*
X417664Y5530017D01*
X435285Y5526512D01*
X452905Y5530017D01*
X467843Y5539998D01*
X477825Y5554936D01*
X481329Y5572557D01*
X477825Y5590177D01*
X467843Y5605115D01*
X452905Y5615096D01*
X435285Y5618601D01*
D02*
G37*
G36*
X5039280Y5580005D02*
X5021660Y5576500D01*
X5006722Y5566518D01*
X4996741Y5551580D01*
X4993236Y5533960D01*
X4996741Y5516339D01*
X5006722Y5501401D01*
X5021660Y5491420D01*
X5039280Y5487915D01*
X5056901Y5491420D01*
X5071839Y5501401D01*
X5081820Y5516339D01*
X5085325Y5533960D01*
X5081820Y5551580D01*
X5071839Y5566518D01*
X5056901Y5576500D01*
X5039280Y5580005D01*
D02*
G37*
G36*
X1048200Y5527365D02*
X1030579Y5523860D01*
X1015641Y5513878D01*
X1005660Y5498940D01*
X1002155Y5481320D01*
X1005660Y5463700D01*
X1015641Y5448762D01*
X1030579Y5438780D01*
X1048200Y5435275D01*
X1065820Y5438780D01*
X1080758Y5448762D01*
X1090739Y5463700D01*
X1094244Y5481320D01*
X1090739Y5498940D01*
X1080758Y5513878D01*
X1065820Y5523860D01*
X1048200Y5527365D01*
D02*
G37*
G36*
X4733293Y5446035D02*
X4715672Y5442530D01*
X4700734Y5432548D01*
X4690753Y5417610D01*
X4687248Y5399990D01*
X4690753Y5382369D01*
X4700734Y5367431D01*
X4715672Y5357450D01*
X4733293Y5353945D01*
X4750913Y5357450D01*
X4765851Y5367431D01*
X4775832Y5382369D01*
X4779337Y5399990D01*
X4775832Y5417610D01*
X4765851Y5432548D01*
X4750913Y5442530D01*
X4733293Y5446035D01*
D02*
G37*
G36*
X4599963D02*
X4582342Y5442530D01*
X4567404Y5432548D01*
X4557423Y5417610D01*
X4553918Y5399990D01*
X4557423Y5382369D01*
X4567404Y5367431D01*
X4582342Y5357450D01*
X4599963Y5353945D01*
X4617583Y5357450D01*
X4632521Y5367431D01*
X4642503Y5382369D01*
X4646007Y5399990D01*
X4642503Y5417610D01*
X4632521Y5432548D01*
X4617583Y5442530D01*
X4599963Y5446035D01*
D02*
G37*
G36*
X4466633D02*
X4449012Y5442530D01*
X4434074Y5432548D01*
X4424093Y5417610D01*
X4420588Y5399990D01*
X4424093Y5382369D01*
X4434074Y5367431D01*
X4449012Y5357450D01*
X4466633Y5353945D01*
X4484253Y5357450D01*
X4499191Y5367431D01*
X4509173Y5382369D01*
X4512678Y5399990D01*
X4509173Y5417610D01*
X4499191Y5432548D01*
X4484253Y5442530D01*
X4466633Y5446035D01*
D02*
G37*
G36*
X4333303D02*
X4315683Y5442530D01*
X4300745Y5432548D01*
X4290763Y5417610D01*
X4287258Y5399990D01*
X4290763Y5382369D01*
X4300745Y5367431D01*
X4315683Y5357450D01*
X4333303Y5353945D01*
X4350923Y5357450D01*
X4365861Y5367431D01*
X4375843Y5382369D01*
X4379348Y5399990D01*
X4375843Y5417610D01*
X4365861Y5432548D01*
X4350923Y5442530D01*
X4333303Y5446035D01*
D02*
G37*
G36*
X4199973D02*
X4182353Y5442530D01*
X4167415Y5432548D01*
X4157433Y5417610D01*
X4153928Y5399990D01*
X4157433Y5382369D01*
X4167415Y5367431D01*
X4182353Y5357450D01*
X4199973Y5353945D01*
X4217594Y5357450D01*
X4232532Y5367431D01*
X4242513Y5382369D01*
X4246018Y5399990D01*
X4242513Y5417610D01*
X4232532Y5432548D01*
X4217594Y5442530D01*
X4199973Y5446035D01*
D02*
G37*
G36*
X4066643D02*
X4049023Y5442530D01*
X4034085Y5432548D01*
X4024103Y5417610D01*
X4020599Y5399990D01*
X4024103Y5382369D01*
X4034085Y5367431D01*
X4049023Y5357450D01*
X4066643Y5353945D01*
X4084264Y5357450D01*
X4099202Y5367431D01*
X4109183Y5382369D01*
X4112688Y5399990D01*
X4109183Y5417610D01*
X4099202Y5432548D01*
X4084264Y5442530D01*
X4066643Y5446035D01*
D02*
G37*
G36*
X3933313D02*
X3915693Y5442530D01*
X3900755Y5432548D01*
X3890774Y5417610D01*
X3887269Y5399990D01*
X3890774Y5382369D01*
X3900755Y5367431D01*
X3915693Y5357450D01*
X3933313Y5353945D01*
X3950934Y5357450D01*
X3965872Y5367431D01*
X3975853Y5382369D01*
X3979358Y5399990D01*
X3975853Y5417610D01*
X3965872Y5432548D01*
X3950934Y5442530D01*
X3933313Y5446035D01*
D02*
G37*
G36*
X3799983D02*
X3782363Y5442530D01*
X3767425Y5432548D01*
X3757444Y5417610D01*
X3753939Y5399990D01*
X3757444Y5382369D01*
X3767425Y5367431D01*
X3782363Y5357450D01*
X3799983Y5353945D01*
X3817604Y5357450D01*
X3832542Y5367431D01*
X3842523Y5382369D01*
X3846028Y5399990D01*
X3842523Y5417610D01*
X3832542Y5432548D01*
X3817604Y5442530D01*
X3799983Y5446035D01*
D02*
G37*
G36*
X3666653D02*
X3649033Y5442530D01*
X3634095Y5432548D01*
X3624114Y5417610D01*
X3620609Y5399990D01*
X3624114Y5382369D01*
X3634095Y5367431D01*
X3649033Y5357450D01*
X3666653Y5353945D01*
X3684274Y5357450D01*
X3699212Y5367431D01*
X3709193Y5382369D01*
X3712698Y5399990D01*
X3709193Y5417610D01*
X3699212Y5432548D01*
X3684274Y5442530D01*
X3666653Y5446035D01*
D02*
G37*
G36*
X3533323D02*
X3515703Y5442530D01*
X3500765Y5432548D01*
X3490784Y5417610D01*
X3487279Y5399990D01*
X3490784Y5382369D01*
X3500765Y5367431D01*
X3515703Y5357450D01*
X3533323Y5353945D01*
X3550944Y5357450D01*
X3565882Y5367431D01*
X3575863Y5382369D01*
X3579368Y5399990D01*
X3575863Y5417610D01*
X3565882Y5432548D01*
X3550944Y5442530D01*
X3533323Y5446035D01*
D02*
G37*
G36*
X3399993D02*
X3382373Y5442530D01*
X3367435Y5432548D01*
X3357454Y5417610D01*
X3353949Y5399990D01*
X3357454Y5382369D01*
X3367435Y5367431D01*
X3382373Y5357450D01*
X3399993Y5353945D01*
X3417614Y5357450D01*
X3432552Y5367431D01*
X3442533Y5382369D01*
X3446038Y5399990D01*
X3442533Y5417610D01*
X3432552Y5432548D01*
X3417614Y5442530D01*
X3399993Y5446035D01*
D02*
G37*
G36*
X3266663D02*
X3249043Y5442530D01*
X3234105Y5432548D01*
X3224124Y5417610D01*
X3220619Y5399990D01*
X3224124Y5382369D01*
X3234105Y5367431D01*
X3249043Y5357450D01*
X3266663Y5353945D01*
X3284284Y5357450D01*
X3299222Y5367431D01*
X3309203Y5382369D01*
X3312708Y5399990D01*
X3309203Y5417610D01*
X3299222Y5432548D01*
X3284284Y5442530D01*
X3266663Y5446035D01*
D02*
G37*
G36*
X3133333D02*
X3115713Y5442530D01*
X3100775Y5432548D01*
X3090794Y5417610D01*
X3087289Y5399990D01*
X3090794Y5382369D01*
X3100775Y5367431D01*
X3115713Y5357450D01*
X3133333Y5353945D01*
X3150954Y5357450D01*
X3165892Y5367431D01*
X3175873Y5382369D01*
X3179378Y5399990D01*
X3175873Y5417610D01*
X3165892Y5432548D01*
X3150954Y5442530D01*
X3133333Y5446035D01*
D02*
G37*
G36*
X3000003D02*
X2982383Y5442530D01*
X2967445Y5432548D01*
X2957464Y5417610D01*
X2953959Y5399990D01*
X2957464Y5382369D01*
X2967445Y5367431D01*
X2982383Y5357450D01*
X3000003Y5353945D01*
X3017624Y5357450D01*
X3032562Y5367431D01*
X3042543Y5382369D01*
X3046048Y5399990D01*
X3042543Y5417610D01*
X3032562Y5432548D01*
X3017624Y5442530D01*
X3000003Y5446035D01*
D02*
G37*
G36*
X2866673D02*
X2849053Y5442530D01*
X2834115Y5432548D01*
X2824134Y5417610D01*
X2820629Y5399990D01*
X2824134Y5382369D01*
X2834115Y5367431D01*
X2849053Y5357450D01*
X2866673Y5353945D01*
X2884294Y5357450D01*
X2899232Y5367431D01*
X2909213Y5382369D01*
X2912718Y5399990D01*
X2909213Y5417610D01*
X2899232Y5432548D01*
X2884294Y5442530D01*
X2866673Y5446035D01*
D02*
G37*
G36*
X2733344D02*
X2715723Y5442530D01*
X2700785Y5432548D01*
X2690804Y5417610D01*
X2687299Y5399990D01*
X2690804Y5382369D01*
X2700785Y5367431D01*
X2715723Y5357450D01*
X2733344Y5353945D01*
X2750964Y5357450D01*
X2765902Y5367431D01*
X2775883Y5382369D01*
X2779388Y5399990D01*
X2775883Y5417610D01*
X2765902Y5432548D01*
X2750964Y5442530D01*
X2733344Y5446035D01*
D02*
G37*
G36*
X2600014D02*
X2582393Y5442530D01*
X2567455Y5432548D01*
X2557474Y5417610D01*
X2553969Y5399990D01*
X2557474Y5382369D01*
X2567455Y5367431D01*
X2582393Y5357450D01*
X2600014Y5353945D01*
X2617634Y5357450D01*
X2632572Y5367431D01*
X2642553Y5382369D01*
X2646058Y5399990D01*
X2642553Y5417610D01*
X2632572Y5432548D01*
X2617634Y5442530D01*
X2600014Y5446035D01*
D02*
G37*
G36*
X2466683D02*
X2449063Y5442530D01*
X2434125Y5432548D01*
X2424144Y5417610D01*
X2420639Y5399990D01*
X2424144Y5382369D01*
X2434125Y5367431D01*
X2449063Y5357450D01*
X2466683Y5353945D01*
X2484304Y5357450D01*
X2499242Y5367431D01*
X2509223Y5382369D01*
X2512728Y5399990D01*
X2509223Y5417610D01*
X2499242Y5432548D01*
X2484304Y5442530D01*
X2466683Y5446035D01*
D02*
G37*
G36*
X2333353D02*
X2315733Y5442530D01*
X2300795Y5432548D01*
X2290814Y5417610D01*
X2287309Y5399990D01*
X2290814Y5382369D01*
X2300795Y5367431D01*
X2315733Y5357450D01*
X2333353Y5353945D01*
X2350974Y5357450D01*
X2365912Y5367431D01*
X2375893Y5382369D01*
X2379398Y5399990D01*
X2375893Y5417610D01*
X2365912Y5432548D01*
X2350974Y5442530D01*
X2333353Y5446035D01*
D02*
G37*
G36*
X2200024D02*
X2182403Y5442530D01*
X2167465Y5432548D01*
X2157484Y5417610D01*
X2153979Y5399990D01*
X2157484Y5382369D01*
X2167465Y5367431D01*
X2182403Y5357450D01*
X2200024Y5353945D01*
X2217644Y5357450D01*
X2232582Y5367431D01*
X2242563Y5382369D01*
X2246068Y5399990D01*
X2242563Y5417610D01*
X2232582Y5432548D01*
X2217644Y5442530D01*
X2200024Y5446035D01*
D02*
G37*
G36*
X2066694D02*
X2049073Y5442530D01*
X2034135Y5432548D01*
X2024154Y5417610D01*
X2020649Y5399990D01*
X2024154Y5382369D01*
X2034135Y5367431D01*
X2049073Y5357450D01*
X2066694Y5353945D01*
X2084314Y5357450D01*
X2099252Y5367431D01*
X2109233Y5382369D01*
X2112738Y5399990D01*
X2109233Y5417610D01*
X2099252Y5432548D01*
X2084314Y5442530D01*
X2066694Y5446035D01*
D02*
G37*
G36*
X1933363D02*
X1915743Y5442530D01*
X1900805Y5432548D01*
X1890824Y5417610D01*
X1887319Y5399990D01*
X1890824Y5382369D01*
X1900805Y5367431D01*
X1915743Y5357450D01*
X1933363Y5353945D01*
X1950984Y5357450D01*
X1965922Y5367431D01*
X1975903Y5382369D01*
X1979408Y5399990D01*
X1975903Y5417610D01*
X1965922Y5432548D01*
X1950984Y5442530D01*
X1933363Y5446035D01*
D02*
G37*
G36*
X1800033D02*
X1782413Y5442530D01*
X1767475Y5432548D01*
X1757494Y5417610D01*
X1753989Y5399990D01*
X1757494Y5382369D01*
X1767475Y5367431D01*
X1782413Y5357450D01*
X1800033Y5353945D01*
X1817654Y5357450D01*
X1832592Y5367431D01*
X1842573Y5382369D01*
X1846078Y5399990D01*
X1842573Y5417610D01*
X1832592Y5432548D01*
X1817654Y5442530D01*
X1800033Y5446035D01*
D02*
G37*
G36*
X1666704D02*
X1649083Y5442530D01*
X1634145Y5432548D01*
X1624164Y5417610D01*
X1620659Y5399990D01*
X1624164Y5382369D01*
X1634145Y5367431D01*
X1649083Y5357450D01*
X1666704Y5353945D01*
X1684324Y5357450D01*
X1699262Y5367431D01*
X1709243Y5382369D01*
X1712748Y5399990D01*
X1709243Y5417610D01*
X1699262Y5432548D01*
X1684324Y5442530D01*
X1666704Y5446035D01*
D02*
G37*
G36*
X1533374D02*
X1515753Y5442530D01*
X1500815Y5432548D01*
X1490834Y5417610D01*
X1487329Y5399990D01*
X1490834Y5382369D01*
X1500815Y5367431D01*
X1515753Y5357450D01*
X1533374Y5353945D01*
X1550994Y5357450D01*
X1565932Y5367431D01*
X1575913Y5382369D01*
X1579418Y5399990D01*
X1575913Y5417610D01*
X1565932Y5432548D01*
X1550994Y5442530D01*
X1533374Y5446035D01*
D02*
G37*
G36*
X1400043D02*
X1382423Y5442530D01*
X1367485Y5432548D01*
X1357504Y5417610D01*
X1353999Y5399990D01*
X1357504Y5382369D01*
X1367485Y5367431D01*
X1382423Y5357450D01*
X1400043Y5353945D01*
X1417664Y5357450D01*
X1432602Y5367431D01*
X1442583Y5382369D01*
X1446088Y5399990D01*
X1442583Y5417610D01*
X1432602Y5432548D01*
X1417664Y5442530D01*
X1400043Y5446035D01*
D02*
G37*
G36*
X5672059Y5433475D02*
X5654438Y5429970D01*
X5639500Y5419988D01*
X5629519Y5405050D01*
X5626014Y5387430D01*
X5629519Y5369809D01*
X5639500Y5354871D01*
X5654438Y5344890D01*
X5672059Y5341385D01*
X5689679Y5344890D01*
X5704617Y5354871D01*
X5714598Y5369809D01*
X5718103Y5387430D01*
X5714598Y5405050D01*
X5704617Y5419988D01*
X5689679Y5429970D01*
X5672059Y5433475D01*
D02*
G37*
G36*
X327942D02*
X310321Y5429970D01*
X295383Y5419988D01*
X285402Y5405050D01*
X281897Y5387430D01*
X285402Y5369809D01*
X295383Y5354871D01*
X310321Y5344890D01*
X327942Y5341385D01*
X345562Y5344890D01*
X360500Y5354871D01*
X370481Y5369809D01*
X373986Y5387430D01*
X370481Y5405050D01*
X360500Y5419988D01*
X345562Y5429970D01*
X327942Y5433475D01*
D02*
G37*
G36*
X1267510Y5406035D02*
X1249890Y5402530D01*
X1234952Y5392549D01*
X1224970Y5377611D01*
X1221465Y5359990D01*
X1224970Y5342370D01*
X1234952Y5327432D01*
X1249890Y5317450D01*
X1267510Y5313945D01*
X1285131Y5317450D01*
X1300069Y5327432D01*
X1310050Y5342370D01*
X1313555Y5359990D01*
X1310050Y5377611D01*
X1300069Y5392549D01*
X1285131Y5402530D01*
X1267510Y5406035D01*
D02*
G37*
G36*
X4819993Y5378533D02*
X4802372Y5375028D01*
X4787434Y5365047D01*
X4777453Y5350109D01*
X4773948Y5332489D01*
X4777453Y5314868D01*
X4787434Y5299930D01*
X4802372Y5289949D01*
X4819993Y5286444D01*
X4837613Y5289949D01*
X4852551Y5299930D01*
X4862533Y5314868D01*
X4866038Y5332489D01*
X4862533Y5350109D01*
X4852551Y5365047D01*
X4837613Y5375028D01*
X4819993Y5378533D01*
D02*
G37*
G36*
X795020Y5410284D02*
X777400Y5406779D01*
X762462Y5396798D01*
X752480Y5381860D01*
X748975Y5364240D01*
X752480Y5346619D01*
X762462Y5331681D01*
X767399Y5328382D01*
Y5318197D01*
X762462Y5314898D01*
X752480Y5299960D01*
X748975Y5282339D01*
X752480Y5264719D01*
X762462Y5249781D01*
X777400Y5239800D01*
X795020Y5236295D01*
X812640Y5239800D01*
X827578Y5249781D01*
X837560Y5264719D01*
X841065Y5282339D01*
X837560Y5299960D01*
X827578Y5314898D01*
X822641Y5318197D01*
Y5328382D01*
X827578Y5331681D01*
X837560Y5346619D01*
X841065Y5364240D01*
X837560Y5381860D01*
X827578Y5396798D01*
X812640Y5406779D01*
X795020Y5410284D01*
D02*
G37*
G36*
X4733293Y5312705D02*
X4715672Y5309200D01*
X4700734Y5299219D01*
X4690753Y5284281D01*
X4687248Y5266660D01*
X4690753Y5249040D01*
X4700734Y5234102D01*
X4715672Y5224120D01*
X4733293Y5220615D01*
X4750913Y5224120D01*
X4765851Y5234102D01*
X4775832Y5249040D01*
X4779337Y5266660D01*
X4775832Y5284281D01*
X4765851Y5299219D01*
X4750913Y5309200D01*
X4733293Y5312705D01*
D02*
G37*
G36*
X4599963D02*
X4582342Y5309200D01*
X4567404Y5299219D01*
X4557423Y5284281D01*
X4553918Y5266660D01*
X4557423Y5249040D01*
X4567404Y5234102D01*
X4582342Y5224120D01*
X4599963Y5220615D01*
X4617583Y5224120D01*
X4632521Y5234102D01*
X4642503Y5249040D01*
X4646007Y5266660D01*
X4642503Y5284281D01*
X4632521Y5299219D01*
X4617583Y5309200D01*
X4599963Y5312705D01*
D02*
G37*
G36*
X4466633D02*
X4449012Y5309200D01*
X4434074Y5299219D01*
X4424093Y5284281D01*
X4420588Y5266660D01*
X4424093Y5249040D01*
X4434074Y5234102D01*
X4449012Y5224120D01*
X4466633Y5220615D01*
X4484253Y5224120D01*
X4499191Y5234102D01*
X4509173Y5249040D01*
X4512678Y5266660D01*
X4509173Y5284281D01*
X4499191Y5299219D01*
X4484253Y5309200D01*
X4466633Y5312705D01*
D02*
G37*
G36*
X4333303D02*
X4315683Y5309200D01*
X4300745Y5299219D01*
X4290763Y5284281D01*
X4287258Y5266660D01*
X4290763Y5249040D01*
X4300745Y5234102D01*
X4315683Y5224120D01*
X4333303Y5220615D01*
X4350923Y5224120D01*
X4365861Y5234102D01*
X4375843Y5249040D01*
X4379348Y5266660D01*
X4375843Y5284281D01*
X4365861Y5299219D01*
X4350923Y5309200D01*
X4333303Y5312705D01*
D02*
G37*
G36*
X4199973D02*
X4182353Y5309200D01*
X4167415Y5299219D01*
X4157433Y5284281D01*
X4153928Y5266660D01*
X4157433Y5249040D01*
X4167415Y5234102D01*
X4182353Y5224120D01*
X4199973Y5220615D01*
X4217594Y5224120D01*
X4232532Y5234102D01*
X4242513Y5249040D01*
X4246018Y5266660D01*
X4242513Y5284281D01*
X4232532Y5299219D01*
X4217594Y5309200D01*
X4199973Y5312705D01*
D02*
G37*
G36*
X4066643D02*
X4049023Y5309200D01*
X4034085Y5299219D01*
X4024103Y5284281D01*
X4020599Y5266660D01*
X4024103Y5249040D01*
X4034085Y5234102D01*
X4049023Y5224120D01*
X4066643Y5220615D01*
X4084264Y5224120D01*
X4099202Y5234102D01*
X4109183Y5249040D01*
X4112688Y5266660D01*
X4109183Y5284281D01*
X4099202Y5299219D01*
X4084264Y5309200D01*
X4066643Y5312705D01*
D02*
G37*
G36*
X3933313D02*
X3915693Y5309200D01*
X3900755Y5299219D01*
X3890774Y5284281D01*
X3887269Y5266660D01*
X3890774Y5249040D01*
X3900755Y5234102D01*
X3915693Y5224120D01*
X3933313Y5220615D01*
X3950934Y5224120D01*
X3965872Y5234102D01*
X3975853Y5249040D01*
X3979358Y5266660D01*
X3975853Y5284281D01*
X3965872Y5299219D01*
X3950934Y5309200D01*
X3933313Y5312705D01*
D02*
G37*
G36*
X3799983D02*
X3782363Y5309200D01*
X3767425Y5299219D01*
X3757444Y5284281D01*
X3753939Y5266660D01*
X3757444Y5249040D01*
X3767425Y5234102D01*
X3782363Y5224120D01*
X3799983Y5220615D01*
X3817604Y5224120D01*
X3832542Y5234102D01*
X3842523Y5249040D01*
X3846028Y5266660D01*
X3842523Y5284281D01*
X3832542Y5299219D01*
X3817604Y5309200D01*
X3799983Y5312705D01*
D02*
G37*
G36*
X3666653D02*
X3649033Y5309200D01*
X3634095Y5299219D01*
X3624114Y5284281D01*
X3620609Y5266660D01*
X3624114Y5249040D01*
X3634095Y5234102D01*
X3649033Y5224120D01*
X3666653Y5220615D01*
X3684274Y5224120D01*
X3699212Y5234102D01*
X3709193Y5249040D01*
X3712698Y5266660D01*
X3709193Y5284281D01*
X3699212Y5299219D01*
X3684274Y5309200D01*
X3666653Y5312705D01*
D02*
G37*
G36*
X3533323D02*
X3515703Y5309200D01*
X3500765Y5299219D01*
X3490784Y5284281D01*
X3487279Y5266660D01*
X3490784Y5249040D01*
X3500765Y5234102D01*
X3515703Y5224120D01*
X3533323Y5220615D01*
X3550944Y5224120D01*
X3565882Y5234102D01*
X3575863Y5249040D01*
X3579368Y5266660D01*
X3575863Y5284281D01*
X3565882Y5299219D01*
X3550944Y5309200D01*
X3533323Y5312705D01*
D02*
G37*
G36*
X3399993D02*
X3382373Y5309200D01*
X3367435Y5299219D01*
X3357454Y5284281D01*
X3353949Y5266660D01*
X3357454Y5249040D01*
X3367435Y5234102D01*
X3382373Y5224120D01*
X3399993Y5220615D01*
X3417614Y5224120D01*
X3432552Y5234102D01*
X3442533Y5249040D01*
X3446038Y5266660D01*
X3442533Y5284281D01*
X3432552Y5299219D01*
X3417614Y5309200D01*
X3399993Y5312705D01*
D02*
G37*
G36*
X3266663D02*
X3249043Y5309200D01*
X3234105Y5299219D01*
X3224124Y5284281D01*
X3220619Y5266660D01*
X3224124Y5249040D01*
X3234105Y5234102D01*
X3249043Y5224120D01*
X3266663Y5220615D01*
X3284284Y5224120D01*
X3299222Y5234102D01*
X3309203Y5249040D01*
X3312708Y5266660D01*
X3309203Y5284281D01*
X3299222Y5299219D01*
X3284284Y5309200D01*
X3266663Y5312705D01*
D02*
G37*
G36*
X3133333D02*
X3115713Y5309200D01*
X3100775Y5299219D01*
X3090794Y5284281D01*
X3087289Y5266660D01*
X3090794Y5249040D01*
X3100775Y5234102D01*
X3115713Y5224120D01*
X3133333Y5220615D01*
X3150954Y5224120D01*
X3165892Y5234102D01*
X3175873Y5249040D01*
X3179378Y5266660D01*
X3175873Y5284281D01*
X3165892Y5299219D01*
X3150954Y5309200D01*
X3133333Y5312705D01*
D02*
G37*
G36*
X3000003D02*
X2982383Y5309200D01*
X2967445Y5299219D01*
X2957464Y5284281D01*
X2953959Y5266660D01*
X2957464Y5249040D01*
X2967445Y5234102D01*
X2982383Y5224120D01*
X3000003Y5220615D01*
X3017624Y5224120D01*
X3032562Y5234102D01*
X3042543Y5249040D01*
X3046048Y5266660D01*
X3042543Y5284281D01*
X3032562Y5299219D01*
X3017624Y5309200D01*
X3000003Y5312705D01*
D02*
G37*
G36*
X2866673D02*
X2849053Y5309200D01*
X2834115Y5299219D01*
X2824134Y5284281D01*
X2820629Y5266660D01*
X2824134Y5249040D01*
X2834115Y5234102D01*
X2849053Y5224120D01*
X2866673Y5220615D01*
X2884294Y5224120D01*
X2899232Y5234102D01*
X2909213Y5249040D01*
X2912718Y5266660D01*
X2909213Y5284281D01*
X2899232Y5299219D01*
X2884294Y5309200D01*
X2866673Y5312705D01*
D02*
G37*
G36*
X2733344D02*
X2715723Y5309200D01*
X2700785Y5299219D01*
X2690804Y5284281D01*
X2687299Y5266660D01*
X2690804Y5249040D01*
X2700785Y5234102D01*
X2715723Y5224120D01*
X2733344Y5220615D01*
X2750964Y5224120D01*
X2765902Y5234102D01*
X2775883Y5249040D01*
X2779388Y5266660D01*
X2775883Y5284281D01*
X2765902Y5299219D01*
X2750964Y5309200D01*
X2733344Y5312705D01*
D02*
G37*
G36*
X2600014D02*
X2582393Y5309200D01*
X2567455Y5299219D01*
X2557474Y5284281D01*
X2553969Y5266660D01*
X2557474Y5249040D01*
X2567455Y5234102D01*
X2582393Y5224120D01*
X2600014Y5220615D01*
X2617634Y5224120D01*
X2632572Y5234102D01*
X2642553Y5249040D01*
X2646058Y5266660D01*
X2642553Y5284281D01*
X2632572Y5299219D01*
X2617634Y5309200D01*
X2600014Y5312705D01*
D02*
G37*
G36*
X2466683D02*
X2449063Y5309200D01*
X2434125Y5299219D01*
X2424144Y5284281D01*
X2420639Y5266660D01*
X2424144Y5249040D01*
X2434125Y5234102D01*
X2449063Y5224120D01*
X2466683Y5220615D01*
X2484304Y5224120D01*
X2499242Y5234102D01*
X2509223Y5249040D01*
X2512728Y5266660D01*
X2509223Y5284281D01*
X2499242Y5299219D01*
X2484304Y5309200D01*
X2466683Y5312705D01*
D02*
G37*
G36*
X2333353D02*
X2315733Y5309200D01*
X2300795Y5299219D01*
X2290814Y5284281D01*
X2287309Y5266660D01*
X2290814Y5249040D01*
X2300795Y5234102D01*
X2315733Y5224120D01*
X2333353Y5220615D01*
X2350974Y5224120D01*
X2365912Y5234102D01*
X2375893Y5249040D01*
X2379398Y5266660D01*
X2375893Y5284281D01*
X2365912Y5299219D01*
X2350974Y5309200D01*
X2333353Y5312705D01*
D02*
G37*
G36*
X2200024D02*
X2182403Y5309200D01*
X2167465Y5299219D01*
X2157484Y5284281D01*
X2153979Y5266660D01*
X2157484Y5249040D01*
X2167465Y5234102D01*
X2182403Y5224120D01*
X2200024Y5220615D01*
X2217644Y5224120D01*
X2232582Y5234102D01*
X2242563Y5249040D01*
X2246068Y5266660D01*
X2242563Y5284281D01*
X2232582Y5299219D01*
X2217644Y5309200D01*
X2200024Y5312705D01*
D02*
G37*
G36*
X2066694D02*
X2049073Y5309200D01*
X2034135Y5299219D01*
X2024154Y5284281D01*
X2020649Y5266660D01*
X2024154Y5249040D01*
X2034135Y5234102D01*
X2049073Y5224120D01*
X2066694Y5220615D01*
X2084314Y5224120D01*
X2099252Y5234102D01*
X2109233Y5249040D01*
X2112738Y5266660D01*
X2109233Y5284281D01*
X2099252Y5299219D01*
X2084314Y5309200D01*
X2066694Y5312705D01*
D02*
G37*
G36*
X1933363D02*
X1915743Y5309200D01*
X1900805Y5299219D01*
X1890824Y5284281D01*
X1887319Y5266660D01*
X1890824Y5249040D01*
X1900805Y5234102D01*
X1915743Y5224120D01*
X1933363Y5220615D01*
X1950984Y5224120D01*
X1965922Y5234102D01*
X1975903Y5249040D01*
X1979408Y5266660D01*
X1975903Y5284281D01*
X1965922Y5299219D01*
X1950984Y5309200D01*
X1933363Y5312705D01*
D02*
G37*
G36*
X1800033D02*
X1782413Y5309200D01*
X1767475Y5299219D01*
X1757494Y5284281D01*
X1753989Y5266660D01*
X1757494Y5249040D01*
X1767475Y5234102D01*
X1782413Y5224120D01*
X1800033Y5220615D01*
X1817654Y5224120D01*
X1832592Y5234102D01*
X1842573Y5249040D01*
X1846078Y5266660D01*
X1842573Y5284281D01*
X1832592Y5299219D01*
X1817654Y5309200D01*
X1800033Y5312705D01*
D02*
G37*
G36*
X1666704D02*
X1649083Y5309200D01*
X1634145Y5299219D01*
X1624164Y5284281D01*
X1620659Y5266660D01*
X1624164Y5249040D01*
X1634145Y5234102D01*
X1649083Y5224120D01*
X1666704Y5220615D01*
X1684324Y5224120D01*
X1699262Y5234102D01*
X1709243Y5249040D01*
X1712748Y5266660D01*
X1709243Y5284281D01*
X1699262Y5299219D01*
X1684324Y5309200D01*
X1666704Y5312705D01*
D02*
G37*
G36*
X1533374D02*
X1515753Y5309200D01*
X1500815Y5299219D01*
X1490834Y5284281D01*
X1487329Y5266660D01*
X1490834Y5249040D01*
X1500815Y5234102D01*
X1515753Y5224120D01*
X1533374Y5220615D01*
X1550994Y5224120D01*
X1565932Y5234102D01*
X1575913Y5249040D01*
X1579418Y5266660D01*
X1575913Y5284281D01*
X1565932Y5299219D01*
X1550994Y5309200D01*
X1533374Y5312705D01*
D02*
G37*
G36*
X1400043D02*
X1382423Y5309200D01*
X1367485Y5299219D01*
X1357504Y5284281D01*
X1353999Y5266660D01*
X1357504Y5249040D01*
X1367485Y5234102D01*
X1382423Y5224120D01*
X1400043Y5220615D01*
X1417664Y5224120D01*
X1432602Y5234102D01*
X1442583Y5249040D01*
X1446088Y5266660D01*
X1442583Y5284281D01*
X1432602Y5299219D01*
X1417664Y5309200D01*
X1400043Y5312705D01*
D02*
G37*
G36*
X1267510Y5272705D02*
X1249890Y5269200D01*
X1234952Y5259219D01*
X1224970Y5244281D01*
X1221465Y5226660D01*
X1224970Y5209040D01*
X1234952Y5194102D01*
X1249890Y5184120D01*
X1267510Y5180615D01*
X1285131Y5184120D01*
X1300069Y5194102D01*
X1310050Y5209040D01*
X1313555Y5226660D01*
X1310050Y5244281D01*
X1300069Y5259219D01*
X1285131Y5269200D01*
X1267510Y5272705D01*
D02*
G37*
G36*
X5295000Y5346945D02*
X5277380Y5343440D01*
X5262442Y5333459D01*
X5252461Y5318521D01*
X5248956Y5300900D01*
X5252461Y5283280D01*
X5262442Y5268342D01*
X5267379Y5265043D01*
Y5254857D01*
X5262442Y5251558D01*
X5252461Y5236620D01*
X5248956Y5219000D01*
X5252461Y5201379D01*
X5262442Y5186441D01*
X5277380Y5176460D01*
X5295000Y5172955D01*
X5312621Y5176460D01*
X5327559Y5186441D01*
X5337540Y5201379D01*
X5341045Y5219000D01*
X5337540Y5236620D01*
X5327559Y5251558D01*
X5322622Y5254857D01*
Y5265043D01*
X5327559Y5268342D01*
X5337540Y5283280D01*
X5341045Y5300900D01*
X5337540Y5318521D01*
X5327559Y5333459D01*
X5312621Y5343440D01*
X5295000Y5346945D01*
D02*
G37*
G36*
X4819994Y5245203D02*
X4802374Y5241698D01*
X4787436Y5231717D01*
X4777455Y5216779D01*
X4773950Y5199159D01*
X4777455Y5181538D01*
X4787436Y5166600D01*
X4802374Y5156619D01*
X4819994Y5153114D01*
X4837615Y5156619D01*
X4852553Y5166600D01*
X4862534Y5181538D01*
X4866039Y5199159D01*
X4862534Y5216779D01*
X4852553Y5231717D01*
X4837615Y5241698D01*
X4819994Y5245203D01*
D02*
G37*
G36*
X5694219Y5222633D02*
X5676599Y5219128D01*
X5661661Y5209147D01*
X5651679Y5194209D01*
X5648174Y5176588D01*
X5651679Y5158968D01*
X5661661Y5144030D01*
X5676599Y5134049D01*
X5694219Y5130544D01*
X5711839Y5134049D01*
X5726777Y5144030D01*
X5736759Y5158968D01*
X5740264Y5176588D01*
X5736759Y5194209D01*
X5726777Y5209147D01*
X5711839Y5219128D01*
X5694219Y5222633D01*
D02*
G37*
G36*
X305781D02*
X288161Y5219128D01*
X273223Y5209147D01*
X263242Y5194209D01*
X259737Y5176588D01*
X263242Y5158968D01*
X273223Y5144030D01*
X288161Y5134049D01*
X305781Y5130544D01*
X323402Y5134049D01*
X338340Y5144030D01*
X348321Y5158968D01*
X351826Y5176588D01*
X348321Y5194209D01*
X338340Y5209147D01*
X323402Y5219128D01*
X305781Y5222633D01*
D02*
G37*
G36*
X4733293Y5179375D02*
X4715672Y5175870D01*
X4700734Y5165889D01*
X4690753Y5150951D01*
X4687248Y5133330D01*
X4690753Y5115710D01*
X4700734Y5100772D01*
X4715672Y5090790D01*
X4733293Y5087285D01*
X4750913Y5090790D01*
X4765851Y5100772D01*
X4775832Y5115710D01*
X4779337Y5133330D01*
X4775832Y5150951D01*
X4765851Y5165889D01*
X4750913Y5175870D01*
X4733293Y5179375D01*
D02*
G37*
G36*
X4599963D02*
X4582342Y5175870D01*
X4567404Y5165889D01*
X4557423Y5150951D01*
X4553918Y5133330D01*
X4557423Y5115710D01*
X4567404Y5100772D01*
X4582342Y5090790D01*
X4599963Y5087285D01*
X4617583Y5090790D01*
X4632521Y5100772D01*
X4642503Y5115710D01*
X4646007Y5133330D01*
X4642503Y5150951D01*
X4632521Y5165889D01*
X4617583Y5175870D01*
X4599963Y5179375D01*
D02*
G37*
G36*
X4466633D02*
X4449012Y5175870D01*
X4434074Y5165889D01*
X4424093Y5150951D01*
X4420588Y5133330D01*
X4424093Y5115710D01*
X4434074Y5100772D01*
X4449012Y5090790D01*
X4466633Y5087285D01*
X4484253Y5090790D01*
X4499191Y5100772D01*
X4509173Y5115710D01*
X4512678Y5133330D01*
X4509173Y5150951D01*
X4499191Y5165889D01*
X4484253Y5175870D01*
X4466633Y5179375D01*
D02*
G37*
G36*
X4333303D02*
X4315683Y5175870D01*
X4300745Y5165889D01*
X4290763Y5150951D01*
X4287258Y5133330D01*
X4290763Y5115710D01*
X4300745Y5100772D01*
X4315683Y5090790D01*
X4333303Y5087285D01*
X4350923Y5090790D01*
X4365861Y5100772D01*
X4375843Y5115710D01*
X4379348Y5133330D01*
X4375843Y5150951D01*
X4365861Y5165889D01*
X4350923Y5175870D01*
X4333303Y5179375D01*
D02*
G37*
G36*
X4199973D02*
X4182353Y5175870D01*
X4167415Y5165889D01*
X4157433Y5150951D01*
X4153928Y5133330D01*
X4157433Y5115710D01*
X4167415Y5100772D01*
X4182353Y5090790D01*
X4199973Y5087285D01*
X4217594Y5090790D01*
X4232532Y5100772D01*
X4242513Y5115710D01*
X4246018Y5133330D01*
X4242513Y5150951D01*
X4232532Y5165889D01*
X4217594Y5175870D01*
X4199973Y5179375D01*
D02*
G37*
G36*
X4066643D02*
X4049023Y5175870D01*
X4034085Y5165889D01*
X4024103Y5150951D01*
X4020599Y5133330D01*
X4024103Y5115710D01*
X4034085Y5100772D01*
X4049023Y5090790D01*
X4066643Y5087285D01*
X4084264Y5090790D01*
X4099202Y5100772D01*
X4109183Y5115710D01*
X4112688Y5133330D01*
X4109183Y5150951D01*
X4099202Y5165889D01*
X4084264Y5175870D01*
X4066643Y5179375D01*
D02*
G37*
G36*
X3933313D02*
X3915693Y5175870D01*
X3900755Y5165889D01*
X3890774Y5150951D01*
X3887269Y5133330D01*
X3890774Y5115710D01*
X3900755Y5100772D01*
X3915693Y5090790D01*
X3933313Y5087285D01*
X3950934Y5090790D01*
X3965872Y5100772D01*
X3975853Y5115710D01*
X3979358Y5133330D01*
X3975853Y5150951D01*
X3965872Y5165889D01*
X3950934Y5175870D01*
X3933313Y5179375D01*
D02*
G37*
G36*
X3799983D02*
X3782363Y5175870D01*
X3767425Y5165889D01*
X3757444Y5150951D01*
X3753939Y5133330D01*
X3757444Y5115710D01*
X3767425Y5100772D01*
X3782363Y5090790D01*
X3799983Y5087285D01*
X3817604Y5090790D01*
X3832542Y5100772D01*
X3842523Y5115710D01*
X3846028Y5133330D01*
X3842523Y5150951D01*
X3832542Y5165889D01*
X3817604Y5175870D01*
X3799983Y5179375D01*
D02*
G37*
G36*
X3666653D02*
X3649033Y5175870D01*
X3634095Y5165889D01*
X3624114Y5150951D01*
X3620609Y5133330D01*
X3624114Y5115710D01*
X3634095Y5100772D01*
X3649033Y5090790D01*
X3666653Y5087285D01*
X3684274Y5090790D01*
X3699212Y5100772D01*
X3709193Y5115710D01*
X3712698Y5133330D01*
X3709193Y5150951D01*
X3699212Y5165889D01*
X3684274Y5175870D01*
X3666653Y5179375D01*
D02*
G37*
G36*
X3533323D02*
X3515703Y5175870D01*
X3500765Y5165889D01*
X3490784Y5150951D01*
X3487279Y5133330D01*
X3490784Y5115710D01*
X3500765Y5100772D01*
X3515703Y5090790D01*
X3533323Y5087285D01*
X3550944Y5090790D01*
X3565882Y5100772D01*
X3575863Y5115710D01*
X3579368Y5133330D01*
X3575863Y5150951D01*
X3565882Y5165889D01*
X3550944Y5175870D01*
X3533323Y5179375D01*
D02*
G37*
G36*
X3399993D02*
X3382373Y5175870D01*
X3367435Y5165889D01*
X3357454Y5150951D01*
X3353949Y5133330D01*
X3357454Y5115710D01*
X3367435Y5100772D01*
X3382373Y5090790D01*
X3399993Y5087285D01*
X3417614Y5090790D01*
X3432552Y5100772D01*
X3442533Y5115710D01*
X3446038Y5133330D01*
X3442533Y5150951D01*
X3432552Y5165889D01*
X3417614Y5175870D01*
X3399993Y5179375D01*
D02*
G37*
G36*
X3266663D02*
X3249043Y5175870D01*
X3234105Y5165889D01*
X3224124Y5150951D01*
X3220619Y5133330D01*
X3224124Y5115710D01*
X3234105Y5100772D01*
X3249043Y5090790D01*
X3266663Y5087285D01*
X3284284Y5090790D01*
X3299222Y5100772D01*
X3309203Y5115710D01*
X3312708Y5133330D01*
X3309203Y5150951D01*
X3299222Y5165889D01*
X3284284Y5175870D01*
X3266663Y5179375D01*
D02*
G37*
G36*
X3133333D02*
X3115713Y5175870D01*
X3100775Y5165889D01*
X3090794Y5150951D01*
X3087289Y5133330D01*
X3090794Y5115710D01*
X3100775Y5100772D01*
X3115713Y5090790D01*
X3133333Y5087285D01*
X3150954Y5090790D01*
X3165892Y5100772D01*
X3175873Y5115710D01*
X3179378Y5133330D01*
X3175873Y5150951D01*
X3165892Y5165889D01*
X3150954Y5175870D01*
X3133333Y5179375D01*
D02*
G37*
G36*
X3000003D02*
X2982383Y5175870D01*
X2967445Y5165889D01*
X2957464Y5150951D01*
X2953959Y5133330D01*
X2957464Y5115710D01*
X2967445Y5100772D01*
X2982383Y5090790D01*
X3000003Y5087285D01*
X3017624Y5090790D01*
X3032562Y5100772D01*
X3042543Y5115710D01*
X3046048Y5133330D01*
X3042543Y5150951D01*
X3032562Y5165889D01*
X3017624Y5175870D01*
X3000003Y5179375D01*
D02*
G37*
G36*
X2866673D02*
X2849053Y5175870D01*
X2834115Y5165889D01*
X2824134Y5150951D01*
X2820629Y5133330D01*
X2824134Y5115710D01*
X2834115Y5100772D01*
X2849053Y5090790D01*
X2866673Y5087285D01*
X2884294Y5090790D01*
X2899232Y5100772D01*
X2909213Y5115710D01*
X2912718Y5133330D01*
X2909213Y5150951D01*
X2899232Y5165889D01*
X2884294Y5175870D01*
X2866673Y5179375D01*
D02*
G37*
G36*
X2733344D02*
X2715723Y5175870D01*
X2700785Y5165889D01*
X2690804Y5150951D01*
X2687299Y5133330D01*
X2690804Y5115710D01*
X2700785Y5100772D01*
X2715723Y5090790D01*
X2733344Y5087285D01*
X2750964Y5090790D01*
X2765902Y5100772D01*
X2775883Y5115710D01*
X2779388Y5133330D01*
X2775883Y5150951D01*
X2765902Y5165889D01*
X2750964Y5175870D01*
X2733344Y5179375D01*
D02*
G37*
G36*
X2600014D02*
X2582393Y5175870D01*
X2567455Y5165889D01*
X2557474Y5150951D01*
X2553969Y5133330D01*
X2557474Y5115710D01*
X2567455Y5100772D01*
X2582393Y5090790D01*
X2600014Y5087285D01*
X2617634Y5090790D01*
X2632572Y5100772D01*
X2642553Y5115710D01*
X2646058Y5133330D01*
X2642553Y5150951D01*
X2632572Y5165889D01*
X2617634Y5175870D01*
X2600014Y5179375D01*
D02*
G37*
G36*
X2466683D02*
X2449063Y5175870D01*
X2434125Y5165889D01*
X2424144Y5150951D01*
X2420639Y5133330D01*
X2424144Y5115710D01*
X2434125Y5100772D01*
X2449063Y5090790D01*
X2466683Y5087285D01*
X2484304Y5090790D01*
X2499242Y5100772D01*
X2509223Y5115710D01*
X2512728Y5133330D01*
X2509223Y5150951D01*
X2499242Y5165889D01*
X2484304Y5175870D01*
X2466683Y5179375D01*
D02*
G37*
G36*
X2333353D02*
X2315733Y5175870D01*
X2300795Y5165889D01*
X2290814Y5150951D01*
X2287309Y5133330D01*
X2290814Y5115710D01*
X2300795Y5100772D01*
X2315733Y5090790D01*
X2333353Y5087285D01*
X2350974Y5090790D01*
X2365912Y5100772D01*
X2375893Y5115710D01*
X2379398Y5133330D01*
X2375893Y5150951D01*
X2365912Y5165889D01*
X2350974Y5175870D01*
X2333353Y5179375D01*
D02*
G37*
G36*
X2200024D02*
X2182403Y5175870D01*
X2167465Y5165889D01*
X2157484Y5150951D01*
X2153979Y5133330D01*
X2157484Y5115710D01*
X2167465Y5100772D01*
X2182403Y5090790D01*
X2200024Y5087285D01*
X2217644Y5090790D01*
X2232582Y5100772D01*
X2242563Y5115710D01*
X2246068Y5133330D01*
X2242563Y5150951D01*
X2232582Y5165889D01*
X2217644Y5175870D01*
X2200024Y5179375D01*
D02*
G37*
G36*
X2066694D02*
X2049073Y5175870D01*
X2034135Y5165889D01*
X2024154Y5150951D01*
X2020649Y5133330D01*
X2024154Y5115710D01*
X2034135Y5100772D01*
X2049073Y5090790D01*
X2066694Y5087285D01*
X2084314Y5090790D01*
X2099252Y5100772D01*
X2109233Y5115710D01*
X2112738Y5133330D01*
X2109233Y5150951D01*
X2099252Y5165889D01*
X2084314Y5175870D01*
X2066694Y5179375D01*
D02*
G37*
G36*
X1933363D02*
X1915743Y5175870D01*
X1900805Y5165889D01*
X1890824Y5150951D01*
X1887319Y5133330D01*
X1890824Y5115710D01*
X1900805Y5100772D01*
X1915743Y5090790D01*
X1933363Y5087285D01*
X1950984Y5090790D01*
X1965922Y5100772D01*
X1975903Y5115710D01*
X1979408Y5133330D01*
X1975903Y5150951D01*
X1965922Y5165889D01*
X1950984Y5175870D01*
X1933363Y5179375D01*
D02*
G37*
G36*
X1800033D02*
X1782413Y5175870D01*
X1767475Y5165889D01*
X1757494Y5150951D01*
X1753989Y5133330D01*
X1757494Y5115710D01*
X1767475Y5100772D01*
X1782413Y5090790D01*
X1800033Y5087285D01*
X1817654Y5090790D01*
X1832592Y5100772D01*
X1842573Y5115710D01*
X1846078Y5133330D01*
X1842573Y5150951D01*
X1832592Y5165889D01*
X1817654Y5175870D01*
X1800033Y5179375D01*
D02*
G37*
G36*
X1666704D02*
X1649083Y5175870D01*
X1634145Y5165889D01*
X1624164Y5150951D01*
X1620659Y5133330D01*
X1624164Y5115710D01*
X1634145Y5100772D01*
X1649083Y5090790D01*
X1666704Y5087285D01*
X1684324Y5090790D01*
X1699262Y5100772D01*
X1709243Y5115710D01*
X1712748Y5133330D01*
X1709243Y5150951D01*
X1699262Y5165889D01*
X1684324Y5175870D01*
X1666704Y5179375D01*
D02*
G37*
G36*
X1533374D02*
X1515753Y5175870D01*
X1500815Y5165889D01*
X1490834Y5150951D01*
X1487329Y5133330D01*
X1490834Y5115710D01*
X1500815Y5100772D01*
X1515753Y5090790D01*
X1533374Y5087285D01*
X1550994Y5090790D01*
X1565932Y5100772D01*
X1575913Y5115710D01*
X1579418Y5133330D01*
X1575913Y5150951D01*
X1565932Y5165889D01*
X1550994Y5175870D01*
X1533374Y5179375D01*
D02*
G37*
G36*
X1400043D02*
X1382423Y5175870D01*
X1367485Y5165889D01*
X1357504Y5150951D01*
X1353999Y5133330D01*
X1357504Y5115710D01*
X1367485Y5100772D01*
X1382423Y5090790D01*
X1400043Y5087285D01*
X1417664Y5090790D01*
X1432602Y5100772D01*
X1442583Y5115710D01*
X1446088Y5133330D01*
X1442583Y5150951D01*
X1432602Y5165889D01*
X1417664Y5175870D01*
X1400043Y5179375D01*
D02*
G37*
G36*
X5540000Y5175119D02*
X5522380Y5171614D01*
X5507442Y5161633D01*
X5497460Y5146695D01*
X5493955Y5129074D01*
X5497460Y5111454D01*
X5507442Y5096516D01*
X5522380Y5086534D01*
X5540000Y5083029D01*
X5557621Y5086534D01*
X5572559Y5096516D01*
X5582540Y5111454D01*
X5586045Y5129074D01*
X5582540Y5146695D01*
X5572559Y5161633D01*
X5557621Y5171614D01*
X5540000Y5175119D01*
D02*
G37*
G36*
X5044360Y5147964D02*
X5026740Y5144459D01*
X5011802Y5134478D01*
X5001821Y5119540D01*
X4998316Y5101920D01*
X5001821Y5084299D01*
X5011802Y5069361D01*
X5026740Y5059380D01*
X5044360Y5055875D01*
X5061981Y5059380D01*
X5076919Y5069361D01*
X5086900Y5084299D01*
X5090405Y5101920D01*
X5086900Y5119540D01*
X5076919Y5134478D01*
X5061981Y5144459D01*
X5044360Y5147964D01*
D02*
G37*
G36*
X1267510Y5139375D02*
X1249890Y5135870D01*
X1234952Y5125889D01*
X1224970Y5110951D01*
X1221465Y5093330D01*
X1224970Y5075710D01*
X1234952Y5060772D01*
X1249890Y5050791D01*
X1267510Y5047286D01*
X1285131Y5050791D01*
X1300069Y5060772D01*
X1310050Y5075710D01*
X1313555Y5093330D01*
X1310050Y5110951D01*
X1300069Y5125889D01*
X1285131Y5135870D01*
X1267510Y5139375D01*
D02*
G37*
G36*
X4819993Y5111873D02*
X4802372Y5108368D01*
X4787434Y5098387D01*
X4777453Y5083449D01*
X4773948Y5065829D01*
X4777453Y5048208D01*
X4787434Y5033270D01*
X4802372Y5023289D01*
X4819993Y5019784D01*
X4837613Y5023289D01*
X4852551Y5033270D01*
X4862533Y5048208D01*
X4866038Y5065829D01*
X4862533Y5083449D01*
X4852551Y5098387D01*
X4837613Y5108368D01*
X4819993Y5111873D01*
D02*
G37*
G36*
X1048200Y5086902D02*
X1030579Y5083397D01*
X1015641Y5073416D01*
X1005660Y5058478D01*
X1002155Y5040857D01*
X1005660Y5023237D01*
X1015641Y5008299D01*
X1030579Y4998318D01*
X1048200Y4994813D01*
X1065820Y4998318D01*
X1080758Y5008299D01*
X1090739Y5023237D01*
X1094244Y5040857D01*
X1090739Y5058478D01*
X1080758Y5073416D01*
X1065820Y5083397D01*
X1048200Y5086902D01*
D02*
G37*
G36*
X4733292Y5046045D02*
X4715671Y5042540D01*
X4700733Y5032559D01*
X4690752Y5017621D01*
X4687247Y5000000D01*
X4690752Y4982380D01*
X4700733Y4967442D01*
X4715671Y4957460D01*
X4733292Y4953956D01*
X4750912Y4957460D01*
X4765850Y4967442D01*
X4775831Y4982380D01*
X4779336Y5000000D01*
X4775831Y5017621D01*
X4765850Y5032559D01*
X4750912Y5042540D01*
X4733292Y5046045D01*
D02*
G37*
G36*
X4599963D02*
X4582342Y5042540D01*
X4567404Y5032559D01*
X4557423Y5017621D01*
X4553918Y5000000D01*
X4557423Y4982380D01*
X4567404Y4967442D01*
X4582342Y4957460D01*
X4599963Y4953956D01*
X4617583Y4957460D01*
X4632521Y4967442D01*
X4642503Y4982380D01*
X4646007Y5000000D01*
X4642503Y5017621D01*
X4632521Y5032559D01*
X4617583Y5042540D01*
X4599963Y5046045D01*
D02*
G37*
G36*
X4466633D02*
X4449012Y5042540D01*
X4434074Y5032559D01*
X4424093Y5017621D01*
X4420588Y5000000D01*
X4424093Y4982380D01*
X4434074Y4967442D01*
X4449012Y4957460D01*
X4466633Y4953956D01*
X4484253Y4957460D01*
X4499191Y4967442D01*
X4509173Y4982380D01*
X4512678Y5000000D01*
X4509173Y5017621D01*
X4499191Y5032559D01*
X4484253Y5042540D01*
X4466633Y5046045D01*
D02*
G37*
G36*
X4333303D02*
X4315683Y5042540D01*
X4300745Y5032559D01*
X4290763Y5017621D01*
X4287258Y5000000D01*
X4290763Y4982380D01*
X4300745Y4967442D01*
X4315683Y4957460D01*
X4333303Y4953956D01*
X4350923Y4957460D01*
X4365861Y4967442D01*
X4375843Y4982380D01*
X4379348Y5000000D01*
X4375843Y5017621D01*
X4365861Y5032559D01*
X4350923Y5042540D01*
X4333303Y5046045D01*
D02*
G37*
G36*
X4199973D02*
X4182353Y5042540D01*
X4167415Y5032559D01*
X4157433Y5017621D01*
X4153928Y5000000D01*
X4157433Y4982380D01*
X4167415Y4967442D01*
X4182353Y4957460D01*
X4199973Y4953956D01*
X4217594Y4957460D01*
X4232532Y4967442D01*
X4242513Y4982380D01*
X4246018Y5000000D01*
X4242513Y5017621D01*
X4232532Y5032559D01*
X4217594Y5042540D01*
X4199973Y5046045D01*
D02*
G37*
G36*
X4066643D02*
X4049023Y5042540D01*
X4034085Y5032559D01*
X4024103Y5017621D01*
X4020599Y5000000D01*
X4024103Y4982380D01*
X4034085Y4967442D01*
X4049023Y4957460D01*
X4066643Y4953956D01*
X4084264Y4957460D01*
X4099202Y4967442D01*
X4109183Y4982380D01*
X4112688Y5000000D01*
X4109183Y5017621D01*
X4099202Y5032559D01*
X4084264Y5042540D01*
X4066643Y5046045D01*
D02*
G37*
G36*
X3933313D02*
X3915693Y5042540D01*
X3900755Y5032559D01*
X3890774Y5017621D01*
X3887269Y5000000D01*
X3890774Y4982380D01*
X3900755Y4967442D01*
X3915693Y4957460D01*
X3933313Y4953956D01*
X3950934Y4957460D01*
X3965872Y4967442D01*
X3975853Y4982380D01*
X3979358Y5000000D01*
X3975853Y5017621D01*
X3965872Y5032559D01*
X3950934Y5042540D01*
X3933313Y5046045D01*
D02*
G37*
G36*
X3799983D02*
X3782363Y5042540D01*
X3767425Y5032559D01*
X3757444Y5017621D01*
X3753939Y5000000D01*
X3757444Y4982380D01*
X3767425Y4967442D01*
X3782363Y4957460D01*
X3799983Y4953956D01*
X3817604Y4957460D01*
X3832542Y4967442D01*
X3842523Y4982380D01*
X3846028Y5000000D01*
X3842523Y5017621D01*
X3832542Y5032559D01*
X3817604Y5042540D01*
X3799983Y5046045D01*
D02*
G37*
G36*
X3666653D02*
X3649033Y5042540D01*
X3634095Y5032559D01*
X3624114Y5017621D01*
X3620609Y5000000D01*
X3624114Y4982380D01*
X3634095Y4967442D01*
X3649033Y4957460D01*
X3666653Y4953956D01*
X3684274Y4957460D01*
X3699212Y4967442D01*
X3709193Y4982380D01*
X3712698Y5000000D01*
X3709193Y5017621D01*
X3699212Y5032559D01*
X3684274Y5042540D01*
X3666653Y5046045D01*
D02*
G37*
G36*
X3533323D02*
X3515703Y5042540D01*
X3500765Y5032559D01*
X3490784Y5017621D01*
X3487279Y5000000D01*
X3490784Y4982380D01*
X3500765Y4967442D01*
X3515703Y4957460D01*
X3533323Y4953956D01*
X3550944Y4957460D01*
X3565882Y4967442D01*
X3575863Y4982380D01*
X3579368Y5000000D01*
X3575863Y5017621D01*
X3565882Y5032559D01*
X3550944Y5042540D01*
X3533323Y5046045D01*
D02*
G37*
G36*
X3399993D02*
X3382373Y5042540D01*
X3367435Y5032559D01*
X3357454Y5017621D01*
X3353949Y5000000D01*
X3357454Y4982380D01*
X3367435Y4967442D01*
X3382373Y4957460D01*
X3399993Y4953956D01*
X3417614Y4957460D01*
X3432552Y4967442D01*
X3442533Y4982380D01*
X3446038Y5000000D01*
X3442533Y5017621D01*
X3432552Y5032559D01*
X3417614Y5042540D01*
X3399993Y5046045D01*
D02*
G37*
G36*
X3266663D02*
X3249043Y5042540D01*
X3234105Y5032559D01*
X3224124Y5017621D01*
X3220619Y5000000D01*
X3224124Y4982380D01*
X3234105Y4967442D01*
X3249043Y4957460D01*
X3266663Y4953956D01*
X3284284Y4957460D01*
X3299222Y4967442D01*
X3309203Y4982380D01*
X3312708Y5000000D01*
X3309203Y5017621D01*
X3299222Y5032559D01*
X3284284Y5042540D01*
X3266663Y5046045D01*
D02*
G37*
G36*
X3133333D02*
X3115713Y5042540D01*
X3100775Y5032559D01*
X3090794Y5017621D01*
X3087289Y5000000D01*
X3090794Y4982380D01*
X3100775Y4967442D01*
X3115713Y4957460D01*
X3133333Y4953956D01*
X3150954Y4957460D01*
X3165892Y4967442D01*
X3175873Y4982380D01*
X3179378Y5000000D01*
X3175873Y5017621D01*
X3165892Y5032559D01*
X3150954Y5042540D01*
X3133333Y5046045D01*
D02*
G37*
G36*
X3000003D02*
X2982383Y5042540D01*
X2967445Y5032559D01*
X2957464Y5017621D01*
X2953959Y5000000D01*
X2957464Y4982380D01*
X2967445Y4967442D01*
X2982383Y4957460D01*
X3000003Y4953956D01*
X3017624Y4957460D01*
X3032562Y4967442D01*
X3042543Y4982380D01*
X3046048Y5000000D01*
X3042543Y5017621D01*
X3032562Y5032559D01*
X3017624Y5042540D01*
X3000003Y5046045D01*
D02*
G37*
G36*
X2866673D02*
X2849053Y5042540D01*
X2834115Y5032559D01*
X2824134Y5017621D01*
X2820629Y5000000D01*
X2824134Y4982380D01*
X2834115Y4967442D01*
X2849053Y4957460D01*
X2866673Y4953956D01*
X2884294Y4957460D01*
X2899232Y4967442D01*
X2909213Y4982380D01*
X2912718Y5000000D01*
X2909213Y5017621D01*
X2899232Y5032559D01*
X2884294Y5042540D01*
X2866673Y5046045D01*
D02*
G37*
G36*
X2733344D02*
X2715723Y5042540D01*
X2700785Y5032559D01*
X2690804Y5017621D01*
X2687299Y5000000D01*
X2690804Y4982380D01*
X2700785Y4967442D01*
X2715723Y4957460D01*
X2733344Y4953956D01*
X2750964Y4957460D01*
X2765902Y4967442D01*
X2775883Y4982380D01*
X2779388Y5000000D01*
X2775883Y5017621D01*
X2765902Y5032559D01*
X2750964Y5042540D01*
X2733344Y5046045D01*
D02*
G37*
G36*
X2600014D02*
X2582393Y5042540D01*
X2567455Y5032559D01*
X2557474Y5017621D01*
X2553969Y5000000D01*
X2557474Y4982380D01*
X2567455Y4967442D01*
X2582393Y4957460D01*
X2600014Y4953956D01*
X2617634Y4957460D01*
X2632572Y4967442D01*
X2642553Y4982380D01*
X2646058Y5000000D01*
X2642553Y5017621D01*
X2632572Y5032559D01*
X2617634Y5042540D01*
X2600014Y5046045D01*
D02*
G37*
G36*
X2466683D02*
X2449063Y5042540D01*
X2434125Y5032559D01*
X2424144Y5017621D01*
X2420639Y5000000D01*
X2424144Y4982380D01*
X2434125Y4967442D01*
X2449063Y4957460D01*
X2466683Y4953956D01*
X2484304Y4957460D01*
X2499242Y4967442D01*
X2509223Y4982380D01*
X2512728Y5000000D01*
X2509223Y5017621D01*
X2499242Y5032559D01*
X2484304Y5042540D01*
X2466683Y5046045D01*
D02*
G37*
G36*
X2333353D02*
X2315733Y5042540D01*
X2300795Y5032559D01*
X2290814Y5017621D01*
X2287309Y5000000D01*
X2290814Y4982380D01*
X2300795Y4967442D01*
X2315733Y4957460D01*
X2333353Y4953956D01*
X2350974Y4957460D01*
X2365912Y4967442D01*
X2375893Y4982380D01*
X2379398Y5000000D01*
X2375893Y5017621D01*
X2365912Y5032559D01*
X2350974Y5042540D01*
X2333353Y5046045D01*
D02*
G37*
G36*
X2200024D02*
X2182403Y5042540D01*
X2167465Y5032559D01*
X2157484Y5017621D01*
X2153979Y5000000D01*
X2157484Y4982380D01*
X2167465Y4967442D01*
X2182403Y4957460D01*
X2200024Y4953956D01*
X2217644Y4957460D01*
X2232582Y4967442D01*
X2242563Y4982380D01*
X2246068Y5000000D01*
X2242563Y5017621D01*
X2232582Y5032559D01*
X2217644Y5042540D01*
X2200024Y5046045D01*
D02*
G37*
G36*
X2066694D02*
X2049073Y5042540D01*
X2034135Y5032559D01*
X2024154Y5017621D01*
X2020649Y5000000D01*
X2024154Y4982380D01*
X2034135Y4967442D01*
X2049073Y4957460D01*
X2066694Y4953956D01*
X2084314Y4957460D01*
X2099252Y4967442D01*
X2109233Y4982380D01*
X2112738Y5000000D01*
X2109233Y5017621D01*
X2099252Y5032559D01*
X2084314Y5042540D01*
X2066694Y5046045D01*
D02*
G37*
G36*
X1933363D02*
X1915743Y5042540D01*
X1900805Y5032559D01*
X1890824Y5017621D01*
X1887319Y5000000D01*
X1890824Y4982380D01*
X1900805Y4967442D01*
X1915743Y4957460D01*
X1933363Y4953956D01*
X1950984Y4957460D01*
X1965922Y4967442D01*
X1975903Y4982380D01*
X1979408Y5000000D01*
X1975903Y5017621D01*
X1965922Y5032559D01*
X1950984Y5042540D01*
X1933363Y5046045D01*
D02*
G37*
G36*
X1800033D02*
X1782413Y5042540D01*
X1767475Y5032559D01*
X1757494Y5017621D01*
X1753989Y5000000D01*
X1757494Y4982380D01*
X1767475Y4967442D01*
X1782413Y4957460D01*
X1800033Y4953956D01*
X1817654Y4957460D01*
X1832592Y4967442D01*
X1842573Y4982380D01*
X1846078Y5000000D01*
X1842573Y5017621D01*
X1832592Y5032559D01*
X1817654Y5042540D01*
X1800033Y5046045D01*
D02*
G37*
G36*
X1666704D02*
X1649083Y5042540D01*
X1634145Y5032559D01*
X1624164Y5017621D01*
X1620659Y5000000D01*
X1624164Y4982380D01*
X1634145Y4967442D01*
X1649083Y4957460D01*
X1666704Y4953956D01*
X1684324Y4957460D01*
X1699262Y4967442D01*
X1709243Y4982380D01*
X1712748Y5000000D01*
X1709243Y5017621D01*
X1699262Y5032559D01*
X1684324Y5042540D01*
X1666704Y5046045D01*
D02*
G37*
G36*
X1533374D02*
X1515753Y5042540D01*
X1500815Y5032559D01*
X1490834Y5017621D01*
X1487329Y5000000D01*
X1490834Y4982380D01*
X1500815Y4967442D01*
X1515753Y4957460D01*
X1533374Y4953956D01*
X1550994Y4957460D01*
X1565932Y4967442D01*
X1575913Y4982380D01*
X1579418Y5000000D01*
X1575913Y5017621D01*
X1565932Y5032559D01*
X1550994Y5042540D01*
X1533374Y5046045D01*
D02*
G37*
G36*
X1400043D02*
X1382423Y5042540D01*
X1367485Y5032559D01*
X1357504Y5017621D01*
X1353999Y5000000D01*
X1357504Y4982380D01*
X1367485Y4967442D01*
X1382423Y4957460D01*
X1400043Y4953956D01*
X1417664Y4957460D01*
X1432602Y4967442D01*
X1442583Y4982380D01*
X1446088Y5000000D01*
X1442583Y5017621D01*
X1432602Y5032559D01*
X1417664Y5042540D01*
X1400043Y5046045D01*
D02*
G37*
G36*
X1267510Y5006045D02*
X1249889Y5002540D01*
X1234951Y4992559D01*
X1224970Y4977621D01*
X1221465Y4960000D01*
X1224970Y4942380D01*
X1234951Y4927442D01*
X1249889Y4917461D01*
X1267510Y4913956D01*
X1285130Y4917461D01*
X1300068Y4927442D01*
X1310049Y4942380D01*
X1313554Y4960000D01*
X1310049Y4977621D01*
X1300068Y4992559D01*
X1285130Y5002540D01*
X1267510Y5006045D01*
D02*
G37*
G36*
X4819992Y4978544D02*
X4802371Y4975039D01*
X4787433Y4965057D01*
X4777452Y4950119D01*
X4773947Y4932499D01*
X4777452Y4914878D01*
X4787433Y4899940D01*
X4802371Y4889959D01*
X4819992Y4886454D01*
X4837612Y4889959D01*
X4852550Y4899940D01*
X4862532Y4914878D01*
X4866036Y4932499D01*
X4862532Y4950119D01*
X4852550Y4965057D01*
X4837612Y4975039D01*
X4819992Y4978544D01*
D02*
G37*
G36*
X4733292Y4912715D02*
X4715671Y4909210D01*
X4700733Y4899228D01*
X4690752Y4884290D01*
X4687247Y4866670D01*
X4690752Y4849049D01*
X4700733Y4834111D01*
X4715671Y4824130D01*
X4733292Y4820625D01*
X4750912Y4824130D01*
X4765850Y4834111D01*
X4775831Y4849049D01*
X4779336Y4866670D01*
X4775831Y4884290D01*
X4765850Y4899228D01*
X4750912Y4909210D01*
X4733292Y4912715D01*
D02*
G37*
G36*
X4599963D02*
X4582342Y4909210D01*
X4567404Y4899228D01*
X4557423Y4884290D01*
X4553918Y4866670D01*
X4557423Y4849049D01*
X4567404Y4834111D01*
X4582342Y4824130D01*
X4599963Y4820625D01*
X4617583Y4824130D01*
X4632521Y4834111D01*
X4642503Y4849049D01*
X4646007Y4866670D01*
X4642503Y4884290D01*
X4632521Y4899228D01*
X4617583Y4909210D01*
X4599963Y4912715D01*
D02*
G37*
G36*
X4466633D02*
X4449012Y4909210D01*
X4434074Y4899228D01*
X4424093Y4884290D01*
X4420588Y4866670D01*
X4424093Y4849049D01*
X4434074Y4834111D01*
X4449012Y4824130D01*
X4466633Y4820625D01*
X4484253Y4824130D01*
X4499191Y4834111D01*
X4509173Y4849049D01*
X4512678Y4866670D01*
X4509173Y4884290D01*
X4499191Y4899228D01*
X4484253Y4909210D01*
X4466633Y4912715D01*
D02*
G37*
G36*
X4333303D02*
X4315683Y4909210D01*
X4300745Y4899228D01*
X4290763Y4884290D01*
X4287258Y4866670D01*
X4290763Y4849049D01*
X4300745Y4834111D01*
X4315683Y4824130D01*
X4333303Y4820625D01*
X4350923Y4824130D01*
X4365861Y4834111D01*
X4375843Y4849049D01*
X4379348Y4866670D01*
X4375843Y4884290D01*
X4365861Y4899228D01*
X4350923Y4909210D01*
X4333303Y4912715D01*
D02*
G37*
G36*
X4199973D02*
X4182353Y4909210D01*
X4167415Y4899228D01*
X4157433Y4884290D01*
X4153928Y4866670D01*
X4157433Y4849049D01*
X4167415Y4834111D01*
X4182353Y4824130D01*
X4199973Y4820625D01*
X4217594Y4824130D01*
X4232532Y4834111D01*
X4242513Y4849049D01*
X4246018Y4866670D01*
X4242513Y4884290D01*
X4232532Y4899228D01*
X4217594Y4909210D01*
X4199973Y4912715D01*
D02*
G37*
G36*
X4066643D02*
X4049023Y4909210D01*
X4034085Y4899228D01*
X4024103Y4884290D01*
X4020599Y4866670D01*
X4024103Y4849049D01*
X4034085Y4834111D01*
X4049023Y4824130D01*
X4066643Y4820625D01*
X4084264Y4824130D01*
X4099202Y4834111D01*
X4109183Y4849049D01*
X4112688Y4866670D01*
X4109183Y4884290D01*
X4099202Y4899228D01*
X4084264Y4909210D01*
X4066643Y4912715D01*
D02*
G37*
G36*
X3933313D02*
X3915693Y4909210D01*
X3900755Y4899228D01*
X3890774Y4884290D01*
X3887269Y4866670D01*
X3890774Y4849049D01*
X3900755Y4834111D01*
X3915693Y4824130D01*
X3933313Y4820625D01*
X3950934Y4824130D01*
X3965872Y4834111D01*
X3975853Y4849049D01*
X3979358Y4866670D01*
X3975853Y4884290D01*
X3965872Y4899228D01*
X3950934Y4909210D01*
X3933313Y4912715D01*
D02*
G37*
G36*
X3799983D02*
X3782363Y4909210D01*
X3767425Y4899228D01*
X3757444Y4884290D01*
X3753939Y4866670D01*
X3757444Y4849049D01*
X3767425Y4834111D01*
X3782363Y4824130D01*
X3799983Y4820625D01*
X3817604Y4824130D01*
X3832542Y4834111D01*
X3842523Y4849049D01*
X3846028Y4866670D01*
X3842523Y4884290D01*
X3832542Y4899228D01*
X3817604Y4909210D01*
X3799983Y4912715D01*
D02*
G37*
G36*
X3666653D02*
X3649033Y4909210D01*
X3634095Y4899228D01*
X3624114Y4884290D01*
X3620609Y4866670D01*
X3624114Y4849049D01*
X3634095Y4834111D01*
X3649033Y4824130D01*
X3666653Y4820625D01*
X3684274Y4824130D01*
X3699212Y4834111D01*
X3709193Y4849049D01*
X3712698Y4866670D01*
X3709193Y4884290D01*
X3699212Y4899228D01*
X3684274Y4909210D01*
X3666653Y4912715D01*
D02*
G37*
G36*
X3533323D02*
X3515703Y4909210D01*
X3500765Y4899228D01*
X3490784Y4884290D01*
X3487279Y4866670D01*
X3490784Y4849049D01*
X3500765Y4834111D01*
X3515703Y4824130D01*
X3533323Y4820625D01*
X3550944Y4824130D01*
X3565882Y4834111D01*
X3575863Y4849049D01*
X3579368Y4866670D01*
X3575863Y4884290D01*
X3565882Y4899228D01*
X3550944Y4909210D01*
X3533323Y4912715D01*
D02*
G37*
G36*
X3399993D02*
X3382373Y4909210D01*
X3367435Y4899228D01*
X3357454Y4884290D01*
X3353949Y4866670D01*
X3357454Y4849049D01*
X3367435Y4834111D01*
X3382373Y4824130D01*
X3399993Y4820625D01*
X3417614Y4824130D01*
X3432552Y4834111D01*
X3442533Y4849049D01*
X3446038Y4866670D01*
X3442533Y4884290D01*
X3432552Y4899228D01*
X3417614Y4909210D01*
X3399993Y4912715D01*
D02*
G37*
G36*
X3266663D02*
X3249043Y4909210D01*
X3234105Y4899228D01*
X3224124Y4884290D01*
X3220619Y4866670D01*
X3224124Y4849049D01*
X3234105Y4834111D01*
X3249043Y4824130D01*
X3266663Y4820625D01*
X3284284Y4824130D01*
X3299222Y4834111D01*
X3309203Y4849049D01*
X3312708Y4866670D01*
X3309203Y4884290D01*
X3299222Y4899228D01*
X3284284Y4909210D01*
X3266663Y4912715D01*
D02*
G37*
G36*
X3133333D02*
X3115713Y4909210D01*
X3100775Y4899228D01*
X3090794Y4884290D01*
X3087289Y4866670D01*
X3090794Y4849049D01*
X3100775Y4834111D01*
X3115713Y4824130D01*
X3133333Y4820625D01*
X3150954Y4824130D01*
X3165892Y4834111D01*
X3175873Y4849049D01*
X3179378Y4866670D01*
X3175873Y4884290D01*
X3165892Y4899228D01*
X3150954Y4909210D01*
X3133333Y4912715D01*
D02*
G37*
G36*
X3000003D02*
X2982383Y4909210D01*
X2967445Y4899228D01*
X2957464Y4884290D01*
X2953959Y4866670D01*
X2957464Y4849049D01*
X2967445Y4834111D01*
X2982383Y4824130D01*
X3000003Y4820625D01*
X3017624Y4824130D01*
X3032562Y4834111D01*
X3042543Y4849049D01*
X3046048Y4866670D01*
X3042543Y4884290D01*
X3032562Y4899228D01*
X3017624Y4909210D01*
X3000003Y4912715D01*
D02*
G37*
G36*
X2866673D02*
X2849053Y4909210D01*
X2834115Y4899228D01*
X2824134Y4884290D01*
X2820629Y4866670D01*
X2824134Y4849049D01*
X2834115Y4834111D01*
X2849053Y4824130D01*
X2866673Y4820625D01*
X2884294Y4824130D01*
X2899232Y4834111D01*
X2909213Y4849049D01*
X2912718Y4866670D01*
X2909213Y4884290D01*
X2899232Y4899228D01*
X2884294Y4909210D01*
X2866673Y4912715D01*
D02*
G37*
G36*
X2733344D02*
X2715723Y4909210D01*
X2700785Y4899228D01*
X2690804Y4884290D01*
X2687299Y4866670D01*
X2690804Y4849049D01*
X2700785Y4834111D01*
X2715723Y4824130D01*
X2733344Y4820625D01*
X2750964Y4824130D01*
X2765902Y4834111D01*
X2775883Y4849049D01*
X2779388Y4866670D01*
X2775883Y4884290D01*
X2765902Y4899228D01*
X2750964Y4909210D01*
X2733344Y4912715D01*
D02*
G37*
G36*
X2600014D02*
X2582393Y4909210D01*
X2567455Y4899228D01*
X2557474Y4884290D01*
X2553969Y4866670D01*
X2557474Y4849049D01*
X2567455Y4834111D01*
X2582393Y4824130D01*
X2600014Y4820625D01*
X2617634Y4824130D01*
X2632572Y4834111D01*
X2642553Y4849049D01*
X2646058Y4866670D01*
X2642553Y4884290D01*
X2632572Y4899228D01*
X2617634Y4909210D01*
X2600014Y4912715D01*
D02*
G37*
G36*
X2466683D02*
X2449063Y4909210D01*
X2434125Y4899228D01*
X2424144Y4884290D01*
X2420639Y4866670D01*
X2424144Y4849049D01*
X2434125Y4834111D01*
X2449063Y4824130D01*
X2466683Y4820625D01*
X2484304Y4824130D01*
X2499242Y4834111D01*
X2509223Y4849049D01*
X2512728Y4866670D01*
X2509223Y4884290D01*
X2499242Y4899228D01*
X2484304Y4909210D01*
X2466683Y4912715D01*
D02*
G37*
G36*
X2333353D02*
X2315733Y4909210D01*
X2300795Y4899228D01*
X2290814Y4884290D01*
X2287309Y4866670D01*
X2290814Y4849049D01*
X2300795Y4834111D01*
X2315733Y4824130D01*
X2333353Y4820625D01*
X2350974Y4824130D01*
X2365912Y4834111D01*
X2375893Y4849049D01*
X2379398Y4866670D01*
X2375893Y4884290D01*
X2365912Y4899228D01*
X2350974Y4909210D01*
X2333353Y4912715D01*
D02*
G37*
G36*
X2200024D02*
X2182403Y4909210D01*
X2167465Y4899228D01*
X2157484Y4884290D01*
X2153979Y4866670D01*
X2157484Y4849049D01*
X2167465Y4834111D01*
X2182403Y4824130D01*
X2200024Y4820625D01*
X2217644Y4824130D01*
X2232582Y4834111D01*
X2242563Y4849049D01*
X2246068Y4866670D01*
X2242563Y4884290D01*
X2232582Y4899228D01*
X2217644Y4909210D01*
X2200024Y4912715D01*
D02*
G37*
G36*
X2066694D02*
X2049073Y4909210D01*
X2034135Y4899228D01*
X2024154Y4884290D01*
X2020649Y4866670D01*
X2024154Y4849049D01*
X2034135Y4834111D01*
X2049073Y4824130D01*
X2066694Y4820625D01*
X2084314Y4824130D01*
X2099252Y4834111D01*
X2109233Y4849049D01*
X2112738Y4866670D01*
X2109233Y4884290D01*
X2099252Y4899228D01*
X2084314Y4909210D01*
X2066694Y4912715D01*
D02*
G37*
G36*
X1933363D02*
X1915743Y4909210D01*
X1900805Y4899228D01*
X1890824Y4884290D01*
X1887319Y4866670D01*
X1890824Y4849049D01*
X1900805Y4834111D01*
X1915743Y4824130D01*
X1933363Y4820625D01*
X1950984Y4824130D01*
X1965922Y4834111D01*
X1975903Y4849049D01*
X1979408Y4866670D01*
X1975903Y4884290D01*
X1965922Y4899228D01*
X1950984Y4909210D01*
X1933363Y4912715D01*
D02*
G37*
G36*
X1800033D02*
X1782413Y4909210D01*
X1767475Y4899228D01*
X1757494Y4884290D01*
X1753989Y4866670D01*
X1757494Y4849049D01*
X1767475Y4834111D01*
X1782413Y4824130D01*
X1800033Y4820625D01*
X1817654Y4824130D01*
X1832592Y4834111D01*
X1842573Y4849049D01*
X1846078Y4866670D01*
X1842573Y4884290D01*
X1832592Y4899228D01*
X1817654Y4909210D01*
X1800033Y4912715D01*
D02*
G37*
G36*
X1666704D02*
X1649083Y4909210D01*
X1634145Y4899228D01*
X1624164Y4884290D01*
X1620659Y4866670D01*
X1624164Y4849049D01*
X1634145Y4834111D01*
X1649083Y4824130D01*
X1666704Y4820625D01*
X1684324Y4824130D01*
X1699262Y4834111D01*
X1709243Y4849049D01*
X1712748Y4866670D01*
X1709243Y4884290D01*
X1699262Y4899228D01*
X1684324Y4909210D01*
X1666704Y4912715D01*
D02*
G37*
G36*
X1533374D02*
X1515753Y4909210D01*
X1500815Y4899228D01*
X1490834Y4884290D01*
X1487329Y4866670D01*
X1490834Y4849049D01*
X1500815Y4834111D01*
X1515753Y4824130D01*
X1533374Y4820625D01*
X1550994Y4824130D01*
X1565932Y4834111D01*
X1575913Y4849049D01*
X1579418Y4866670D01*
X1575913Y4884290D01*
X1565932Y4899228D01*
X1550994Y4909210D01*
X1533374Y4912715D01*
D02*
G37*
G36*
X1400043D02*
X1382423Y4909210D01*
X1367485Y4899228D01*
X1357504Y4884290D01*
X1353999Y4866670D01*
X1357504Y4849049D01*
X1367485Y4834111D01*
X1382423Y4824130D01*
X1400043Y4820625D01*
X1417664Y4824130D01*
X1432602Y4834111D01*
X1442583Y4849049D01*
X1446088Y4866670D01*
X1442583Y4884290D01*
X1432602Y4899228D01*
X1417664Y4909210D01*
X1400043Y4912715D01*
D02*
G37*
G36*
X795020Y4969822D02*
X777400Y4966317D01*
X762462Y4956336D01*
X752480Y4941398D01*
X748975Y4923777D01*
X752480Y4906157D01*
X762462Y4891219D01*
X767399Y4887920D01*
Y4877734D01*
X762462Y4874435D01*
X752480Y4859497D01*
X748975Y4841877D01*
X752480Y4824256D01*
X762462Y4809318D01*
X777400Y4799337D01*
X795020Y4795832D01*
X812640Y4799337D01*
X827578Y4809318D01*
X837560Y4824256D01*
X841065Y4841877D01*
X837560Y4859497D01*
X827578Y4874435D01*
X822641Y4877734D01*
Y4887920D01*
X827578Y4891219D01*
X837560Y4906157D01*
X841065Y4923777D01*
X837560Y4941398D01*
X827578Y4956336D01*
X812640Y4966317D01*
X795020Y4969822D01*
D02*
G37*
G36*
X1267510Y4872715D02*
X1249890Y4869210D01*
X1234952Y4859229D01*
X1224970Y4844291D01*
X1221465Y4826670D01*
X1224970Y4809050D01*
X1234952Y4794112D01*
X1249890Y4784130D01*
X1267510Y4780625D01*
X1285131Y4784130D01*
X1300069Y4794112D01*
X1310050Y4809050D01*
X1313555Y4826670D01*
X1310050Y4844291D01*
X1300069Y4859229D01*
X1285131Y4869210D01*
X1267510Y4872715D01*
D02*
G37*
G36*
X305781Y4869456D02*
X288161Y4865951D01*
X273223Y4855970D01*
X263242Y4841032D01*
X259737Y4823411D01*
X263242Y4805791D01*
X273223Y4790853D01*
X288161Y4780872D01*
X305781Y4777367D01*
X323402Y4780872D01*
X338340Y4790853D01*
X348321Y4805791D01*
X351826Y4823411D01*
X348321Y4841032D01*
X338340Y4855970D01*
X323402Y4865951D01*
X305781Y4869456D01*
D02*
G37*
G36*
X4819993Y4845213D02*
X4802373Y4841708D01*
X4787435Y4831727D01*
X4777454Y4816789D01*
X4773949Y4799169D01*
X4777454Y4781548D01*
X4787435Y4766610D01*
X4802373Y4756629D01*
X4819993Y4753124D01*
X4837614Y4756629D01*
X4852552Y4766610D01*
X4862533Y4781548D01*
X4866038Y4799169D01*
X4862533Y4816789D01*
X4852552Y4831727D01*
X4837614Y4841708D01*
X4819993Y4845213D01*
D02*
G37*
G36*
X5295000Y4906482D02*
X5277380Y4902977D01*
X5262442Y4892996D01*
X5252461Y4878058D01*
X5248956Y4860438D01*
X5252461Y4842817D01*
X5262442Y4827879D01*
X5267379Y4824580D01*
Y4814395D01*
X5262442Y4811096D01*
X5252461Y4796158D01*
X5248956Y4778537D01*
X5252461Y4760917D01*
X5262442Y4745979D01*
X5277380Y4735998D01*
X5295000Y4732493D01*
X5312621Y4735998D01*
X5327559Y4745979D01*
X5337540Y4760917D01*
X5341045Y4778537D01*
X5337540Y4796158D01*
X5327559Y4811096D01*
X5322622Y4814395D01*
Y4824580D01*
X5327559Y4827879D01*
X5337540Y4842817D01*
X5341045Y4860438D01*
X5337540Y4878058D01*
X5327559Y4892996D01*
X5312621Y4902977D01*
X5295000Y4906482D01*
D02*
G37*
G36*
X4733292Y4779385D02*
X4715671Y4775880D01*
X4700733Y4765899D01*
X4690752Y4750961D01*
X4687247Y4733340D01*
X4690752Y4715720D01*
X4700733Y4700782D01*
X4715671Y4690800D01*
X4733292Y4687295D01*
X4750912Y4690800D01*
X4765850Y4700782D01*
X4775831Y4715720D01*
X4779336Y4733340D01*
X4775831Y4750961D01*
X4765850Y4765899D01*
X4750912Y4775880D01*
X4733292Y4779385D01*
D02*
G37*
G36*
X4599963D02*
X4582342Y4775880D01*
X4567404Y4765899D01*
X4557423Y4750961D01*
X4553918Y4733340D01*
X4557423Y4715720D01*
X4567404Y4700782D01*
X4582342Y4690800D01*
X4599963Y4687295D01*
X4617583Y4690800D01*
X4632521Y4700782D01*
X4642503Y4715720D01*
X4646007Y4733340D01*
X4642503Y4750961D01*
X4632521Y4765899D01*
X4617583Y4775880D01*
X4599963Y4779385D01*
D02*
G37*
G36*
X4466633D02*
X4449012Y4775880D01*
X4434074Y4765899D01*
X4424093Y4750961D01*
X4420588Y4733340D01*
X4424093Y4715720D01*
X4434074Y4700782D01*
X4449012Y4690800D01*
X4466633Y4687295D01*
X4484253Y4690800D01*
X4499191Y4700782D01*
X4509173Y4715720D01*
X4512678Y4733340D01*
X4509173Y4750961D01*
X4499191Y4765899D01*
X4484253Y4775880D01*
X4466633Y4779385D01*
D02*
G37*
G36*
X4333303D02*
X4315683Y4775880D01*
X4300745Y4765899D01*
X4290763Y4750961D01*
X4287258Y4733340D01*
X4290763Y4715720D01*
X4300745Y4700782D01*
X4315683Y4690800D01*
X4333303Y4687295D01*
X4350923Y4690800D01*
X4365861Y4700782D01*
X4375843Y4715720D01*
X4379348Y4733340D01*
X4375843Y4750961D01*
X4365861Y4765899D01*
X4350923Y4775880D01*
X4333303Y4779385D01*
D02*
G37*
G36*
X4199973D02*
X4182353Y4775880D01*
X4167415Y4765899D01*
X4157433Y4750961D01*
X4153928Y4733340D01*
X4157433Y4715720D01*
X4167415Y4700782D01*
X4182353Y4690800D01*
X4199973Y4687295D01*
X4217594Y4690800D01*
X4232532Y4700782D01*
X4242513Y4715720D01*
X4246018Y4733340D01*
X4242513Y4750961D01*
X4232532Y4765899D01*
X4217594Y4775880D01*
X4199973Y4779385D01*
D02*
G37*
G36*
X4066643D02*
X4049023Y4775880D01*
X4034085Y4765899D01*
X4024103Y4750961D01*
X4020599Y4733340D01*
X4024103Y4715720D01*
X4034085Y4700782D01*
X4049023Y4690800D01*
X4066643Y4687295D01*
X4084264Y4690800D01*
X4099202Y4700782D01*
X4109183Y4715720D01*
X4112688Y4733340D01*
X4109183Y4750961D01*
X4099202Y4765899D01*
X4084264Y4775880D01*
X4066643Y4779385D01*
D02*
G37*
G36*
X3933313D02*
X3915693Y4775880D01*
X3900755Y4765899D01*
X3890774Y4750961D01*
X3887269Y4733340D01*
X3890774Y4715720D01*
X3900755Y4700782D01*
X3915693Y4690800D01*
X3933313Y4687295D01*
X3950934Y4690800D01*
X3965872Y4700782D01*
X3975853Y4715720D01*
X3979358Y4733340D01*
X3975853Y4750961D01*
X3965872Y4765899D01*
X3950934Y4775880D01*
X3933313Y4779385D01*
D02*
G37*
G36*
X3799983D02*
X3782363Y4775880D01*
X3767425Y4765899D01*
X3757444Y4750961D01*
X3753939Y4733340D01*
X3757444Y4715720D01*
X3767425Y4700782D01*
X3782363Y4690800D01*
X3799983Y4687295D01*
X3817604Y4690800D01*
X3832542Y4700782D01*
X3842523Y4715720D01*
X3846028Y4733340D01*
X3842523Y4750961D01*
X3832542Y4765899D01*
X3817604Y4775880D01*
X3799983Y4779385D01*
D02*
G37*
G36*
X3666653D02*
X3649033Y4775880D01*
X3634095Y4765899D01*
X3624114Y4750961D01*
X3620609Y4733340D01*
X3624114Y4715720D01*
X3634095Y4700782D01*
X3649033Y4690800D01*
X3666653Y4687295D01*
X3684274Y4690800D01*
X3699212Y4700782D01*
X3709193Y4715720D01*
X3712698Y4733340D01*
X3709193Y4750961D01*
X3699212Y4765899D01*
X3684274Y4775880D01*
X3666653Y4779385D01*
D02*
G37*
G36*
X3533323D02*
X3515703Y4775880D01*
X3500765Y4765899D01*
X3490784Y4750961D01*
X3487279Y4733340D01*
X3490784Y4715720D01*
X3500765Y4700782D01*
X3515703Y4690800D01*
X3533323Y4687295D01*
X3550944Y4690800D01*
X3565882Y4700782D01*
X3575863Y4715720D01*
X3579368Y4733340D01*
X3575863Y4750961D01*
X3565882Y4765899D01*
X3550944Y4775880D01*
X3533323Y4779385D01*
D02*
G37*
G36*
X3399993D02*
X3382373Y4775880D01*
X3367435Y4765899D01*
X3357454Y4750961D01*
X3353949Y4733340D01*
X3357454Y4715720D01*
X3367435Y4700782D01*
X3382373Y4690800D01*
X3399993Y4687295D01*
X3417614Y4690800D01*
X3432552Y4700782D01*
X3442533Y4715720D01*
X3446038Y4733340D01*
X3442533Y4750961D01*
X3432552Y4765899D01*
X3417614Y4775880D01*
X3399993Y4779385D01*
D02*
G37*
G36*
X3266663D02*
X3249043Y4775880D01*
X3234105Y4765899D01*
X3224124Y4750961D01*
X3220619Y4733340D01*
X3224124Y4715720D01*
X3234105Y4700782D01*
X3249043Y4690800D01*
X3266663Y4687295D01*
X3284284Y4690800D01*
X3299222Y4700782D01*
X3309203Y4715720D01*
X3312708Y4733340D01*
X3309203Y4750961D01*
X3299222Y4765899D01*
X3284284Y4775880D01*
X3266663Y4779385D01*
D02*
G37*
G36*
X3133333D02*
X3115713Y4775880D01*
X3100775Y4765899D01*
X3090794Y4750961D01*
X3087289Y4733340D01*
X3090794Y4715720D01*
X3100775Y4700782D01*
X3115713Y4690800D01*
X3133333Y4687295D01*
X3150954Y4690800D01*
X3165892Y4700782D01*
X3175873Y4715720D01*
X3179378Y4733340D01*
X3175873Y4750961D01*
X3165892Y4765899D01*
X3150954Y4775880D01*
X3133333Y4779385D01*
D02*
G37*
G36*
X3000003D02*
X2982383Y4775880D01*
X2967445Y4765899D01*
X2957464Y4750961D01*
X2953959Y4733340D01*
X2957464Y4715720D01*
X2967445Y4700782D01*
X2982383Y4690800D01*
X3000003Y4687295D01*
X3017624Y4690800D01*
X3032562Y4700782D01*
X3042543Y4715720D01*
X3046048Y4733340D01*
X3042543Y4750961D01*
X3032562Y4765899D01*
X3017624Y4775880D01*
X3000003Y4779385D01*
D02*
G37*
G36*
X2866673D02*
X2849053Y4775880D01*
X2834115Y4765899D01*
X2824134Y4750961D01*
X2820629Y4733340D01*
X2824134Y4715720D01*
X2834115Y4700782D01*
X2849053Y4690800D01*
X2866673Y4687295D01*
X2884294Y4690800D01*
X2899232Y4700782D01*
X2909213Y4715720D01*
X2912718Y4733340D01*
X2909213Y4750961D01*
X2899232Y4765899D01*
X2884294Y4775880D01*
X2866673Y4779385D01*
D02*
G37*
G36*
X2733344D02*
X2715723Y4775880D01*
X2700785Y4765899D01*
X2690804Y4750961D01*
X2687299Y4733340D01*
X2690804Y4715720D01*
X2700785Y4700782D01*
X2715723Y4690800D01*
X2733344Y4687295D01*
X2750964Y4690800D01*
X2765902Y4700782D01*
X2775883Y4715720D01*
X2779388Y4733340D01*
X2775883Y4750961D01*
X2765902Y4765899D01*
X2750964Y4775880D01*
X2733344Y4779385D01*
D02*
G37*
G36*
X2600014D02*
X2582393Y4775880D01*
X2567455Y4765899D01*
X2557474Y4750961D01*
X2553969Y4733340D01*
X2557474Y4715720D01*
X2567455Y4700782D01*
X2582393Y4690800D01*
X2600014Y4687295D01*
X2617634Y4690800D01*
X2632572Y4700782D01*
X2642553Y4715720D01*
X2646058Y4733340D01*
X2642553Y4750961D01*
X2632572Y4765899D01*
X2617634Y4775880D01*
X2600014Y4779385D01*
D02*
G37*
G36*
X2466683D02*
X2449063Y4775880D01*
X2434125Y4765899D01*
X2424144Y4750961D01*
X2420639Y4733340D01*
X2424144Y4715720D01*
X2434125Y4700782D01*
X2449063Y4690800D01*
X2466683Y4687295D01*
X2484304Y4690800D01*
X2499242Y4700782D01*
X2509223Y4715720D01*
X2512728Y4733340D01*
X2509223Y4750961D01*
X2499242Y4765899D01*
X2484304Y4775880D01*
X2466683Y4779385D01*
D02*
G37*
G36*
X2333353D02*
X2315733Y4775880D01*
X2300795Y4765899D01*
X2290814Y4750961D01*
X2287309Y4733340D01*
X2290814Y4715720D01*
X2300795Y4700782D01*
X2315733Y4690800D01*
X2333353Y4687295D01*
X2350974Y4690800D01*
X2365912Y4700782D01*
X2375893Y4715720D01*
X2379398Y4733340D01*
X2375893Y4750961D01*
X2365912Y4765899D01*
X2350974Y4775880D01*
X2333353Y4779385D01*
D02*
G37*
G36*
X2200024D02*
X2182403Y4775880D01*
X2167465Y4765899D01*
X2157484Y4750961D01*
X2153979Y4733340D01*
X2157484Y4715720D01*
X2167465Y4700782D01*
X2182403Y4690800D01*
X2200024Y4687295D01*
X2217644Y4690800D01*
X2232582Y4700782D01*
X2242563Y4715720D01*
X2246068Y4733340D01*
X2242563Y4750961D01*
X2232582Y4765899D01*
X2217644Y4775880D01*
X2200024Y4779385D01*
D02*
G37*
G36*
X2066694D02*
X2049073Y4775880D01*
X2034135Y4765899D01*
X2024154Y4750961D01*
X2020649Y4733340D01*
X2024154Y4715720D01*
X2034135Y4700782D01*
X2049073Y4690800D01*
X2066694Y4687295D01*
X2084314Y4690800D01*
X2099252Y4700782D01*
X2109233Y4715720D01*
X2112738Y4733340D01*
X2109233Y4750961D01*
X2099252Y4765899D01*
X2084314Y4775880D01*
X2066694Y4779385D01*
D02*
G37*
G36*
X1933363D02*
X1915743Y4775880D01*
X1900805Y4765899D01*
X1890824Y4750961D01*
X1887319Y4733340D01*
X1890824Y4715720D01*
X1900805Y4700782D01*
X1915743Y4690800D01*
X1933363Y4687295D01*
X1950984Y4690800D01*
X1965922Y4700782D01*
X1975903Y4715720D01*
X1979408Y4733340D01*
X1975903Y4750961D01*
X1965922Y4765899D01*
X1950984Y4775880D01*
X1933363Y4779385D01*
D02*
G37*
G36*
X1800033D02*
X1782413Y4775880D01*
X1767475Y4765899D01*
X1757494Y4750961D01*
X1753989Y4733340D01*
X1757494Y4715720D01*
X1767475Y4700782D01*
X1782413Y4690800D01*
X1800033Y4687295D01*
X1817654Y4690800D01*
X1832592Y4700782D01*
X1842573Y4715720D01*
X1846078Y4733340D01*
X1842573Y4750961D01*
X1832592Y4765899D01*
X1817654Y4775880D01*
X1800033Y4779385D01*
D02*
G37*
G36*
X1666704D02*
X1649083Y4775880D01*
X1634145Y4765899D01*
X1624164Y4750961D01*
X1620659Y4733340D01*
X1624164Y4715720D01*
X1634145Y4700782D01*
X1649083Y4690800D01*
X1666704Y4687295D01*
X1684324Y4690800D01*
X1699262Y4700782D01*
X1709243Y4715720D01*
X1712748Y4733340D01*
X1709243Y4750961D01*
X1699262Y4765899D01*
X1684324Y4775880D01*
X1666704Y4779385D01*
D02*
G37*
G36*
X1533374D02*
X1515753Y4775880D01*
X1500815Y4765899D01*
X1490834Y4750961D01*
X1487329Y4733340D01*
X1490834Y4715720D01*
X1500815Y4700782D01*
X1515753Y4690800D01*
X1533374Y4687295D01*
X1550994Y4690800D01*
X1565932Y4700782D01*
X1575913Y4715720D01*
X1579418Y4733340D01*
X1575913Y4750961D01*
X1565932Y4765899D01*
X1550994Y4775880D01*
X1533374Y4779385D01*
D02*
G37*
G36*
X1400043D02*
X1382423Y4775880D01*
X1367485Y4765899D01*
X1357504Y4750961D01*
X1353999Y4733340D01*
X1357504Y4715720D01*
X1367485Y4700782D01*
X1382423Y4690800D01*
X1400043Y4687295D01*
X1417664Y4690800D01*
X1432602Y4700782D01*
X1442583Y4715720D01*
X1446088Y4733340D01*
X1442583Y4750961D01*
X1432602Y4765899D01*
X1417664Y4775880D01*
X1400043Y4779385D01*
D02*
G37*
G36*
X1267510Y4739385D02*
X1249889Y4735880D01*
X1234951Y4725899D01*
X1224970Y4710961D01*
X1221465Y4693340D01*
X1224970Y4675720D01*
X1234951Y4660782D01*
X1249889Y4650800D01*
X1267510Y4647296D01*
X1285130Y4650800D01*
X1300068Y4660782D01*
X1310049Y4675720D01*
X1313554Y4693340D01*
X1310049Y4710961D01*
X1300068Y4725899D01*
X1285130Y4735880D01*
X1267510Y4739385D01*
D02*
G37*
G36*
X448417Y4738408D02*
X430796Y4734903D01*
X415858Y4724922D01*
X405877Y4709984D01*
X402372Y4692364D01*
X405877Y4674743D01*
X415858Y4659805D01*
X430796Y4649824D01*
X448417Y4646319D01*
X466037Y4649824D01*
X480975Y4659805D01*
X490957Y4674743D01*
X494462Y4692364D01*
X490957Y4709984D01*
X480975Y4724922D01*
X466037Y4734903D01*
X448417Y4738408D01*
D02*
G37*
G36*
X4819993Y4711883D02*
X4802373Y4708378D01*
X4787435Y4698397D01*
X4777454Y4683459D01*
X4773949Y4665839D01*
X4777454Y4648218D01*
X4787435Y4633280D01*
X4802373Y4623299D01*
X4819993Y4619794D01*
X4837614Y4623299D01*
X4852552Y4633280D01*
X4862533Y4648218D01*
X4866038Y4665839D01*
X4862533Y4683459D01*
X4852552Y4698397D01*
X4837614Y4708378D01*
X4819993Y4711883D01*
D02*
G37*
G36*
X5039280Y4707502D02*
X5021660Y4703997D01*
X5006722Y4694016D01*
X4996741Y4679078D01*
X4993236Y4661457D01*
X4996741Y4643837D01*
X5006722Y4628899D01*
X5021660Y4618917D01*
X5039280Y4615412D01*
X5056901Y4618917D01*
X5071839Y4628899D01*
X5081820Y4643837D01*
X5085325Y4661457D01*
X5081820Y4679078D01*
X5071839Y4694016D01*
X5056901Y4703997D01*
X5039280Y4707502D01*
D02*
G37*
G36*
X1048200Y4658615D02*
X1030579Y4655110D01*
X1015641Y4645129D01*
X1005660Y4630191D01*
X1002155Y4612570D01*
X1005660Y4594950D01*
X1015641Y4580012D01*
X1030579Y4570031D01*
X1048200Y4566526D01*
X1065820Y4570031D01*
X1080758Y4580012D01*
X1090739Y4594950D01*
X1094244Y4612570D01*
X1090739Y4630191D01*
X1080758Y4645129D01*
X1065820Y4655110D01*
X1048200Y4658615D01*
D02*
G37*
G36*
X5672059Y4658615D02*
X5654438Y4655110D01*
X5639500Y4645128D01*
X5629519Y4630190D01*
X5626014Y4612570D01*
X5629519Y4594949D01*
X5639500Y4580011D01*
X5654438Y4570030D01*
X5672059Y4566525D01*
X5689679Y4570030D01*
X5704617Y4580011D01*
X5714598Y4594949D01*
X5718103Y4612570D01*
X5714598Y4630190D01*
X5704617Y4645128D01*
X5689679Y4655110D01*
X5672059Y4658615D01*
D02*
G37*
G36*
X4733292Y4646055D02*
X4715671Y4642550D01*
X4700733Y4632569D01*
X4690752Y4617631D01*
X4687247Y4600010D01*
X4690752Y4582390D01*
X4700733Y4567452D01*
X4715671Y4557470D01*
X4733292Y4553965D01*
X4750912Y4557470D01*
X4765850Y4567452D01*
X4775831Y4582390D01*
X4779336Y4600010D01*
X4775831Y4617631D01*
X4765850Y4632569D01*
X4750912Y4642550D01*
X4733292Y4646055D01*
D02*
G37*
G36*
X4599963D02*
X4582342Y4642550D01*
X4567404Y4632569D01*
X4557423Y4617631D01*
X4553918Y4600010D01*
X4557423Y4582390D01*
X4567404Y4567452D01*
X4582342Y4557470D01*
X4599963Y4553965D01*
X4617583Y4557470D01*
X4632521Y4567452D01*
X4642503Y4582390D01*
X4646007Y4600010D01*
X4642503Y4617631D01*
X4632521Y4632569D01*
X4617583Y4642550D01*
X4599963Y4646055D01*
D02*
G37*
G36*
X4466633D02*
X4449012Y4642550D01*
X4434074Y4632569D01*
X4424093Y4617631D01*
X4420588Y4600010D01*
X4424093Y4582390D01*
X4434074Y4567452D01*
X4449012Y4557470D01*
X4466633Y4553965D01*
X4484253Y4557470D01*
X4499191Y4567452D01*
X4509173Y4582390D01*
X4512678Y4600010D01*
X4509173Y4617631D01*
X4499191Y4632569D01*
X4484253Y4642550D01*
X4466633Y4646055D01*
D02*
G37*
G36*
X4333303D02*
X4315683Y4642550D01*
X4300745Y4632569D01*
X4290763Y4617631D01*
X4287258Y4600010D01*
X4290763Y4582390D01*
X4300745Y4567452D01*
X4315683Y4557470D01*
X4333303Y4553965D01*
X4350923Y4557470D01*
X4365861Y4567452D01*
X4375843Y4582390D01*
X4379348Y4600010D01*
X4375843Y4617631D01*
X4365861Y4632569D01*
X4350923Y4642550D01*
X4333303Y4646055D01*
D02*
G37*
G36*
X4199973D02*
X4182353Y4642550D01*
X4167415Y4632569D01*
X4157433Y4617631D01*
X4153928Y4600010D01*
X4157433Y4582390D01*
X4167415Y4567452D01*
X4182353Y4557470D01*
X4199973Y4553965D01*
X4217594Y4557470D01*
X4232532Y4567452D01*
X4242513Y4582390D01*
X4246018Y4600010D01*
X4242513Y4617631D01*
X4232532Y4632569D01*
X4217594Y4642550D01*
X4199973Y4646055D01*
D02*
G37*
G36*
X4066643D02*
X4049023Y4642550D01*
X4034085Y4632569D01*
X4024103Y4617631D01*
X4020599Y4600010D01*
X4024103Y4582390D01*
X4034085Y4567452D01*
X4049023Y4557470D01*
X4066643Y4553965D01*
X4084264Y4557470D01*
X4099202Y4567452D01*
X4109183Y4582390D01*
X4112688Y4600010D01*
X4109183Y4617631D01*
X4099202Y4632569D01*
X4084264Y4642550D01*
X4066643Y4646055D01*
D02*
G37*
G36*
X3933313D02*
X3915693Y4642550D01*
X3900755Y4632569D01*
X3890774Y4617631D01*
X3887269Y4600010D01*
X3890774Y4582390D01*
X3900755Y4567452D01*
X3915693Y4557470D01*
X3933313Y4553965D01*
X3950934Y4557470D01*
X3965872Y4567452D01*
X3975853Y4582390D01*
X3979358Y4600010D01*
X3975853Y4617631D01*
X3965872Y4632569D01*
X3950934Y4642550D01*
X3933313Y4646055D01*
D02*
G37*
G36*
X3799983D02*
X3782363Y4642550D01*
X3767425Y4632569D01*
X3757444Y4617631D01*
X3753939Y4600010D01*
X3757444Y4582390D01*
X3767425Y4567452D01*
X3782363Y4557470D01*
X3799983Y4553965D01*
X3817604Y4557470D01*
X3832542Y4567452D01*
X3842523Y4582390D01*
X3846028Y4600010D01*
X3842523Y4617631D01*
X3832542Y4632569D01*
X3817604Y4642550D01*
X3799983Y4646055D01*
D02*
G37*
G36*
X3666653D02*
X3649033Y4642550D01*
X3634095Y4632569D01*
X3624114Y4617631D01*
X3620609Y4600010D01*
X3624114Y4582390D01*
X3634095Y4567452D01*
X3649033Y4557470D01*
X3666653Y4553965D01*
X3684274Y4557470D01*
X3699212Y4567452D01*
X3709193Y4582390D01*
X3712698Y4600010D01*
X3709193Y4617631D01*
X3699212Y4632569D01*
X3684274Y4642550D01*
X3666653Y4646055D01*
D02*
G37*
G36*
X3533323D02*
X3515703Y4642550D01*
X3500765Y4632569D01*
X3490784Y4617631D01*
X3487279Y4600010D01*
X3490784Y4582390D01*
X3500765Y4567452D01*
X3515703Y4557470D01*
X3533323Y4553965D01*
X3550944Y4557470D01*
X3565882Y4567452D01*
X3575863Y4582390D01*
X3579368Y4600010D01*
X3575863Y4617631D01*
X3565882Y4632569D01*
X3550944Y4642550D01*
X3533323Y4646055D01*
D02*
G37*
G36*
X3399993D02*
X3382373Y4642550D01*
X3367435Y4632569D01*
X3357454Y4617631D01*
X3353949Y4600010D01*
X3357454Y4582390D01*
X3367435Y4567452D01*
X3382373Y4557470D01*
X3399993Y4553965D01*
X3417614Y4557470D01*
X3432552Y4567452D01*
X3442533Y4582390D01*
X3446038Y4600010D01*
X3442533Y4617631D01*
X3432552Y4632569D01*
X3417614Y4642550D01*
X3399993Y4646055D01*
D02*
G37*
G36*
X3266663D02*
X3249043Y4642550D01*
X3234105Y4632569D01*
X3224124Y4617631D01*
X3220619Y4600010D01*
X3224124Y4582390D01*
X3234105Y4567452D01*
X3249043Y4557470D01*
X3266663Y4553965D01*
X3284284Y4557470D01*
X3299222Y4567452D01*
X3309203Y4582390D01*
X3312708Y4600010D01*
X3309203Y4617631D01*
X3299222Y4632569D01*
X3284284Y4642550D01*
X3266663Y4646055D01*
D02*
G37*
G36*
X3133333D02*
X3115713Y4642550D01*
X3100775Y4632569D01*
X3090794Y4617631D01*
X3087289Y4600010D01*
X3090794Y4582390D01*
X3100775Y4567452D01*
X3115713Y4557470D01*
X3133333Y4553965D01*
X3150954Y4557470D01*
X3165892Y4567452D01*
X3175873Y4582390D01*
X3179378Y4600010D01*
X3175873Y4617631D01*
X3165892Y4632569D01*
X3150954Y4642550D01*
X3133333Y4646055D01*
D02*
G37*
G36*
X3000003D02*
X2982383Y4642550D01*
X2967445Y4632569D01*
X2957464Y4617631D01*
X2953959Y4600010D01*
X2957464Y4582390D01*
X2967445Y4567452D01*
X2982383Y4557470D01*
X3000003Y4553965D01*
X3017624Y4557470D01*
X3032562Y4567452D01*
X3042543Y4582390D01*
X3046048Y4600010D01*
X3042543Y4617631D01*
X3032562Y4632569D01*
X3017624Y4642550D01*
X3000003Y4646055D01*
D02*
G37*
G36*
X2866673D02*
X2849053Y4642550D01*
X2834115Y4632569D01*
X2824134Y4617631D01*
X2820629Y4600010D01*
X2824134Y4582390D01*
X2834115Y4567452D01*
X2849053Y4557470D01*
X2866673Y4553965D01*
X2884294Y4557470D01*
X2899232Y4567452D01*
X2909213Y4582390D01*
X2912718Y4600010D01*
X2909213Y4617631D01*
X2899232Y4632569D01*
X2884294Y4642550D01*
X2866673Y4646055D01*
D02*
G37*
G36*
X2733344D02*
X2715723Y4642550D01*
X2700785Y4632569D01*
X2690804Y4617631D01*
X2687299Y4600010D01*
X2690804Y4582390D01*
X2700785Y4567452D01*
X2715723Y4557470D01*
X2733344Y4553965D01*
X2750964Y4557470D01*
X2765902Y4567452D01*
X2775883Y4582390D01*
X2779388Y4600010D01*
X2775883Y4617631D01*
X2765902Y4632569D01*
X2750964Y4642550D01*
X2733344Y4646055D01*
D02*
G37*
G36*
X2600014D02*
X2582393Y4642550D01*
X2567455Y4632569D01*
X2557474Y4617631D01*
X2553969Y4600010D01*
X2557474Y4582390D01*
X2567455Y4567452D01*
X2582393Y4557470D01*
X2600014Y4553965D01*
X2617634Y4557470D01*
X2632572Y4567452D01*
X2642553Y4582390D01*
X2646058Y4600010D01*
X2642553Y4617631D01*
X2632572Y4632569D01*
X2617634Y4642550D01*
X2600014Y4646055D01*
D02*
G37*
G36*
X2466683D02*
X2449063Y4642550D01*
X2434125Y4632569D01*
X2424144Y4617631D01*
X2420639Y4600010D01*
X2424144Y4582390D01*
X2434125Y4567452D01*
X2449063Y4557470D01*
X2466683Y4553965D01*
X2484304Y4557470D01*
X2499242Y4567452D01*
X2509223Y4582390D01*
X2512728Y4600010D01*
X2509223Y4617631D01*
X2499242Y4632569D01*
X2484304Y4642550D01*
X2466683Y4646055D01*
D02*
G37*
G36*
X2333353D02*
X2315733Y4642550D01*
X2300795Y4632569D01*
X2290814Y4617631D01*
X2287309Y4600010D01*
X2290814Y4582390D01*
X2300795Y4567452D01*
X2315733Y4557470D01*
X2333353Y4553965D01*
X2350974Y4557470D01*
X2365912Y4567452D01*
X2375893Y4582390D01*
X2379398Y4600010D01*
X2375893Y4617631D01*
X2365912Y4632569D01*
X2350974Y4642550D01*
X2333353Y4646055D01*
D02*
G37*
G36*
X2200024D02*
X2182403Y4642550D01*
X2167465Y4632569D01*
X2157484Y4617631D01*
X2153979Y4600010D01*
X2157484Y4582390D01*
X2167465Y4567452D01*
X2182403Y4557470D01*
X2200024Y4553965D01*
X2217644Y4557470D01*
X2232582Y4567452D01*
X2242563Y4582390D01*
X2246068Y4600010D01*
X2242563Y4617631D01*
X2232582Y4632569D01*
X2217644Y4642550D01*
X2200024Y4646055D01*
D02*
G37*
G36*
X2066694D02*
X2049073Y4642550D01*
X2034135Y4632569D01*
X2024154Y4617631D01*
X2020649Y4600010D01*
X2024154Y4582390D01*
X2034135Y4567452D01*
X2049073Y4557470D01*
X2066694Y4553965D01*
X2084314Y4557470D01*
X2099252Y4567452D01*
X2109233Y4582390D01*
X2112738Y4600010D01*
X2109233Y4617631D01*
X2099252Y4632569D01*
X2084314Y4642550D01*
X2066694Y4646055D01*
D02*
G37*
G36*
X1933363D02*
X1915743Y4642550D01*
X1900805Y4632569D01*
X1890824Y4617631D01*
X1887319Y4600010D01*
X1890824Y4582390D01*
X1900805Y4567452D01*
X1915743Y4557470D01*
X1933363Y4553965D01*
X1950984Y4557470D01*
X1965922Y4567452D01*
X1975903Y4582390D01*
X1979408Y4600010D01*
X1975903Y4617631D01*
X1965922Y4632569D01*
X1950984Y4642550D01*
X1933363Y4646055D01*
D02*
G37*
G36*
X1800033D02*
X1782413Y4642550D01*
X1767475Y4632569D01*
X1757494Y4617631D01*
X1753989Y4600010D01*
X1757494Y4582390D01*
X1767475Y4567452D01*
X1782413Y4557470D01*
X1800033Y4553965D01*
X1817654Y4557470D01*
X1832592Y4567452D01*
X1842573Y4582390D01*
X1846078Y4600010D01*
X1842573Y4617631D01*
X1832592Y4632569D01*
X1817654Y4642550D01*
X1800033Y4646055D01*
D02*
G37*
G36*
X1666704D02*
X1649083Y4642550D01*
X1634145Y4632569D01*
X1624164Y4617631D01*
X1620659Y4600010D01*
X1624164Y4582390D01*
X1634145Y4567452D01*
X1649083Y4557470D01*
X1666704Y4553965D01*
X1684324Y4557470D01*
X1699262Y4567452D01*
X1709243Y4582390D01*
X1712748Y4600010D01*
X1709243Y4617631D01*
X1699262Y4632569D01*
X1684324Y4642550D01*
X1666704Y4646055D01*
D02*
G37*
G36*
X1533374D02*
X1515753Y4642550D01*
X1500815Y4632569D01*
X1490834Y4617631D01*
X1487329Y4600010D01*
X1490834Y4582390D01*
X1500815Y4567452D01*
X1515753Y4557470D01*
X1533374Y4553965D01*
X1550994Y4557470D01*
X1565932Y4567452D01*
X1575913Y4582390D01*
X1579418Y4600010D01*
X1575913Y4617631D01*
X1565932Y4632569D01*
X1550994Y4642550D01*
X1533374Y4646055D01*
D02*
G37*
G36*
X1400043D02*
X1382423Y4642550D01*
X1367485Y4632569D01*
X1357504Y4617631D01*
X1353999Y4600010D01*
X1357504Y4582390D01*
X1367485Y4567452D01*
X1382423Y4557470D01*
X1400043Y4553965D01*
X1417664Y4557470D01*
X1432602Y4567452D01*
X1442583Y4582390D01*
X1446088Y4600010D01*
X1442583Y4617631D01*
X1432602Y4632569D01*
X1417664Y4642550D01*
X1400043Y4646055D01*
D02*
G37*
G36*
X1267510Y4606055D02*
X1249890Y4602550D01*
X1234952Y4592569D01*
X1224970Y4577631D01*
X1221465Y4560010D01*
X1224970Y4542390D01*
X1234952Y4527452D01*
X1249890Y4517471D01*
X1267510Y4513966D01*
X1285131Y4517471D01*
X1300069Y4527452D01*
X1310050Y4542390D01*
X1313555Y4560010D01*
X1310050Y4577631D01*
X1300069Y4592569D01*
X1285131Y4602550D01*
X1267510Y4606055D01*
D02*
G37*
G36*
X4819993Y4578553D02*
X4802373Y4575049D01*
X4787435Y4565067D01*
X4777454Y4550129D01*
X4773949Y4532509D01*
X4777454Y4514888D01*
X4787435Y4499950D01*
X4802373Y4489969D01*
X4819993Y4486464D01*
X4837614Y4489969D01*
X4852552Y4499950D01*
X4862533Y4514888D01*
X4866038Y4532509D01*
X4862533Y4550129D01*
X4852552Y4565067D01*
X4837614Y4575049D01*
X4819993Y4578553D01*
D02*
G37*
G36*
X795020Y4541535D02*
X777400Y4538030D01*
X762462Y4528049D01*
X752480Y4513111D01*
X748975Y4495490D01*
X752480Y4477870D01*
X762462Y4462932D01*
X767399Y4459633D01*
Y4449447D01*
X762462Y4446148D01*
X752480Y4431210D01*
X748975Y4413590D01*
X752480Y4395969D01*
X762462Y4381031D01*
X777400Y4371050D01*
X795020Y4367545D01*
X812640Y4371050D01*
X827578Y4381031D01*
X837560Y4395969D01*
X841065Y4413590D01*
X837560Y4431210D01*
X827578Y4446148D01*
X822641Y4449447D01*
Y4459633D01*
X827578Y4462932D01*
X837560Y4477870D01*
X841065Y4495490D01*
X837560Y4513111D01*
X827578Y4528049D01*
X812640Y4538030D01*
X795020Y4541535D01*
D02*
G37*
G36*
X5530075Y4455006D02*
X5512455Y4451501D01*
X5497517Y4441520D01*
X5487535Y4426582D01*
X5484030Y4408962D01*
X5487535Y4391341D01*
X5497517Y4376403D01*
X5512455Y4366422D01*
X5530075Y4362917D01*
X5547696Y4366422D01*
X5562634Y4376403D01*
X5572615Y4391341D01*
X5576120Y4408962D01*
X5572615Y4426582D01*
X5562634Y4441520D01*
X5547696Y4451501D01*
X5530075Y4455006D01*
D02*
G37*
G36*
X5295000Y4478196D02*
X5277380Y4474691D01*
X5262442Y4464709D01*
X5252461Y4449771D01*
X5248956Y4432151D01*
X5252461Y4414530D01*
X5262442Y4399592D01*
X5267379Y4396293D01*
Y4386108D01*
X5262442Y4382809D01*
X5252461Y4367871D01*
X5248956Y4350250D01*
X5252461Y4332630D01*
X5262442Y4317692D01*
X5277380Y4307711D01*
X5295000Y4304206D01*
X5312621Y4307711D01*
X5327559Y4317692D01*
X5337540Y4332630D01*
X5341045Y4350250D01*
X5337540Y4367871D01*
X5327559Y4382809D01*
X5322622Y4386108D01*
Y4396293D01*
X5327559Y4399592D01*
X5337540Y4414530D01*
X5341045Y4432151D01*
X5337540Y4449771D01*
X5327559Y4464709D01*
X5312621Y4474691D01*
X5295000Y4478196D01*
D02*
G37*
G36*
X5039280Y4279215D02*
X5021660Y4275710D01*
X5006722Y4265729D01*
X4996741Y4250791D01*
X4993236Y4233170D01*
X4996741Y4215550D01*
X5006722Y4200612D01*
X5021660Y4190630D01*
X5039280Y4187125D01*
X5056901Y4190630D01*
X5071839Y4200612D01*
X5081820Y4215550D01*
X5085325Y4233170D01*
X5081820Y4250791D01*
X5071839Y4265729D01*
X5056901Y4275710D01*
X5039280Y4279215D01*
D02*
G37*
G36*
X492215Y4045540D02*
X474594Y4042035D01*
X459656Y4032053D01*
X449675Y4017115D01*
X446170Y3999495D01*
X449675Y3981874D01*
X459656Y3966936D01*
X474594Y3956955D01*
X492215Y3953450D01*
X509835Y3956955D01*
X524773Y3966936D01*
X534754Y3981874D01*
X538259Y3999495D01*
X534754Y4017115D01*
X524773Y4032053D01*
X509835Y4042035D01*
X492215Y4045540D01*
D02*
G37*
G36*
X1680971Y4019044D02*
X1663351Y4015539D01*
X1648413Y4005558D01*
X1638432Y3990620D01*
X1634927Y3973000D01*
X1638432Y3955379D01*
X1648413Y3940441D01*
X1663351Y3930460D01*
X1680971Y3926955D01*
X1698592Y3930460D01*
X1713530Y3940441D01*
X1723511Y3955379D01*
X1727016Y3973000D01*
X1723511Y3990620D01*
X1713530Y4005558D01*
X1698592Y4015539D01*
X1680971Y4019044D01*
D02*
G37*
G36*
X695211Y3984398D02*
X677591Y3980893D01*
X662653Y3970912D01*
X652672Y3955974D01*
X649167Y3938353D01*
X652672Y3920733D01*
X662653Y3905795D01*
X677591Y3895813D01*
X695211Y3892308D01*
X712832Y3895813D01*
X727770Y3905795D01*
X737751Y3920733D01*
X741256Y3938353D01*
X737751Y3955974D01*
X727770Y3970912D01*
X712832Y3980893D01*
X695211Y3984398D01*
D02*
G37*
G36*
X5313887Y3874269D02*
X5296266Y3870764D01*
X5281328Y3860783D01*
X5271347Y3845845D01*
X5267842Y3828224D01*
X5271347Y3810604D01*
X5281328Y3795666D01*
X5296266Y3785685D01*
X5313887Y3782180D01*
X5331507Y3785685D01*
X5346445Y3795666D01*
X5356426Y3810604D01*
X5359931Y3828224D01*
X5356426Y3845845D01*
X5346445Y3860783D01*
X5331507Y3870764D01*
X5313887Y3874269D01*
D02*
G37*
G36*
X5421556Y3851865D02*
X5403936Y3848360D01*
X5388998Y3838379D01*
X5379017Y3823441D01*
X5375512Y3805821D01*
X5379017Y3788200D01*
X5388998Y3773262D01*
X5403936Y3763281D01*
X5421556Y3759776D01*
X5439177Y3763281D01*
X5454115Y3773262D01*
X5464096Y3788200D01*
X5467601Y3805821D01*
X5464096Y3823441D01*
X5454115Y3838379D01*
X5439177Y3848360D01*
X5421556Y3851865D01*
D02*
G37*
G36*
X3000000Y3846460D02*
X2982380Y3842955D01*
X2967442Y3832974D01*
X2957460Y3818036D01*
X2953955Y3800415D01*
X2957460Y3782795D01*
X2967442Y3767857D01*
X2982380Y3757876D01*
X3000000Y3754371D01*
X3017621Y3757876D01*
X3032559Y3767857D01*
X3042540Y3782795D01*
X3046045Y3800415D01*
X3042540Y3818036D01*
X3032559Y3832974D01*
X3017621Y3842955D01*
X3000000Y3846460D01*
D02*
G37*
G36*
X3265000Y3852922D02*
X3215000D01*
X3197990Y3850682D01*
X3182139Y3844117D01*
X3168528Y3833672D01*
X3158083Y3820061D01*
X3151517Y3804210D01*
X3149278Y3787200D01*
X3151517Y3770190D01*
X3158083Y3754339D01*
X3168528Y3740727D01*
X3182139Y3730283D01*
X3197990Y3723717D01*
X3215000Y3721477D01*
X3265000D01*
X3282010Y3723717D01*
X3297861Y3730283D01*
X3311473Y3740727D01*
X3321917Y3754339D01*
X3328483Y3770190D01*
X3330722Y3787200D01*
X3328483Y3804210D01*
X3321917Y3820061D01*
X3311473Y3833672D01*
X3297861Y3844117D01*
X3282010Y3850682D01*
X3265000Y3852922D01*
D02*
G37*
G36*
X2785000Y3850422D02*
X2735000D01*
X2717990Y3848182D01*
X2702139Y3841617D01*
X2688528Y3831172D01*
X2678083Y3817561D01*
X2671517Y3801710D01*
X2669278Y3784700D01*
X2671517Y3767689D01*
X2678083Y3751838D01*
X2688528Y3738227D01*
X2702139Y3727782D01*
X2717990Y3721217D01*
X2735000Y3718977D01*
X2785000D01*
X2802010Y3721217D01*
X2817861Y3727782D01*
X2831473Y3738227D01*
X2841917Y3751838D01*
X2848483Y3767689D01*
X2850722Y3784700D01*
X2848483Y3801710D01*
X2841917Y3817561D01*
X2831473Y3831172D01*
X2817861Y3841617D01*
X2802010Y3848182D01*
X2785000Y3850422D01*
D02*
G37*
G36*
X5118070Y3644125D02*
X5100450Y3640620D01*
X5085512Y3630638D01*
X5075530Y3615700D01*
X5072025Y3598080D01*
X5075530Y3580459D01*
X5085512Y3565521D01*
X5100450Y3555540D01*
X5118070Y3552035D01*
X5135691Y3555540D01*
X5150629Y3565521D01*
X5160610Y3580459D01*
X5164115Y3598080D01*
X5160610Y3615700D01*
X5150629Y3630638D01*
X5135691Y3640620D01*
X5118070Y3644125D01*
D02*
G37*
G36*
X3375000Y3613146D02*
X3359330Y3610030D01*
X3346046Y3601153D01*
X3337170Y3587869D01*
X3334053Y3572200D01*
X3337170Y3556530D01*
X3346046Y3543246D01*
X3359330Y3534370D01*
X3375000Y3531253D01*
X3390670Y3534370D01*
X3403954Y3543246D01*
X3412830Y3556530D01*
X3415947Y3572200D01*
X3412830Y3587869D01*
X3403954Y3601153D01*
X3390670Y3610030D01*
X3375000Y3613146D01*
D02*
G37*
G36*
X2625000D02*
X2609330Y3610030D01*
X2596046Y3601153D01*
X2587170Y3587869D01*
X2584053Y3572200D01*
X2587170Y3556530D01*
X2596046Y3543246D01*
X2609330Y3534370D01*
X2625000Y3531253D01*
X2640670Y3534370D01*
X2653954Y3543246D01*
X2662830Y3556530D01*
X2665947Y3572200D01*
X2662830Y3587869D01*
X2653954Y3601153D01*
X2640670Y3610030D01*
X2625000Y3613146D01*
D02*
G37*
G36*
X755033Y3546005D02*
X737412Y3542500D01*
X722474Y3532519D01*
X712493Y3517581D01*
X708988Y3499960D01*
X712493Y3482340D01*
X722474Y3467402D01*
X737412Y3457421D01*
X755033Y3453916D01*
X772653Y3457421D01*
X787591Y3467402D01*
X797572Y3482340D01*
X801077Y3499960D01*
X797572Y3517581D01*
X787591Y3532519D01*
X772653Y3542500D01*
X755033Y3546005D01*
D02*
G37*
G36*
X939593Y3482450D02*
X921972Y3478946D01*
X907034Y3468964D01*
X897053Y3454026D01*
X893548Y3436406D01*
X897053Y3418785D01*
X907034Y3403847D01*
X921972Y3393866D01*
X939593Y3390361D01*
X957213Y3393866D01*
X972151Y3403847D01*
X982132Y3418785D01*
X985637Y3436406D01*
X982132Y3454026D01*
X972151Y3468964D01*
X957213Y3478946D01*
X939593Y3482450D01*
D02*
G37*
G36*
X3265000Y3425422D02*
X3215000D01*
X3197990Y3423182D01*
X3182139Y3416617D01*
X3168528Y3406172D01*
X3158083Y3392561D01*
X3151517Y3376710D01*
X3149278Y3359700D01*
X3151517Y3342690D01*
X3158083Y3326838D01*
X3168528Y3313227D01*
X3182139Y3302783D01*
X3197990Y3296217D01*
X3215000Y3293977D01*
X3265000D01*
X3282010Y3296217D01*
X3297861Y3302783D01*
X3311473Y3313227D01*
X3321917Y3326838D01*
X3328483Y3342690D01*
X3330722Y3359700D01*
X3328483Y3376710D01*
X3321917Y3392561D01*
X3311473Y3406172D01*
X3297861Y3416617D01*
X3282010Y3423182D01*
X3265000Y3425422D01*
D02*
G37*
G36*
X2785000D02*
X2735000D01*
X2717990Y3423182D01*
X2702139Y3416617D01*
X2688528Y3406172D01*
X2678083Y3392561D01*
X2671517Y3376710D01*
X2669278Y3359700D01*
X2671517Y3342690D01*
X2678083Y3326838D01*
X2688528Y3313227D01*
X2702139Y3302783D01*
X2717990Y3296217D01*
X2735000Y3293977D01*
X2785000D01*
X2802010Y3296217D01*
X2817861Y3302783D01*
X2831473Y3313227D01*
X2841917Y3326838D01*
X2848483Y3342690D01*
X2850722Y3359700D01*
X2848483Y3376710D01*
X2841917Y3392561D01*
X2831473Y3406172D01*
X2817861Y3416617D01*
X2802010Y3423182D01*
X2785000Y3425422D01*
D02*
G37*
G36*
X5120356Y3374491D02*
X5102735Y3370986D01*
X5087797Y3361005D01*
X5077816Y3346067D01*
X5074311Y3328446D01*
X5077816Y3310826D01*
X5087797Y3295888D01*
X5102735Y3285907D01*
X5120356Y3282402D01*
X5137976Y3285907D01*
X5152914Y3295888D01*
X5162895Y3310826D01*
X5166400Y3328446D01*
X5162895Y3346067D01*
X5152914Y3361005D01*
X5137976Y3370986D01*
X5120356Y3374491D01*
D02*
G37*
G36*
X1809707Y3270411D02*
X1792086Y3266906D01*
X1777148Y3256925D01*
X1767167Y3241987D01*
X1765077Y3231481D01*
X1764160Y3226871D01*
X1753776D01*
X1752864Y3231450D01*
X1750809Y3241784D01*
X1740828Y3256722D01*
X1725890Y3266703D01*
X1708269Y3270208D01*
X1690649Y3266703D01*
X1675711Y3256722D01*
X1665730Y3241784D01*
X1662225Y3224163D01*
X1663689Y3216804D01*
X1661333Y3212999D01*
X1655250Y3207017D01*
X1653652Y3206699D01*
X1646450Y3213902D01*
X1647366Y3218506D01*
X1643861Y3236127D01*
X1633880Y3251065D01*
X1618942Y3261046D01*
X1601321Y3264551D01*
X1583701Y3261046D01*
X1568763Y3251065D01*
X1558781Y3236127D01*
X1555936Y3221825D01*
X1546184Y3222620D01*
X1542679Y3240240D01*
X1532698Y3255178D01*
X1517760Y3265160D01*
X1500139Y3268665D01*
X1482519Y3265160D01*
X1467581Y3255178D01*
X1457600Y3240240D01*
X1454095Y3222620D01*
X1457600Y3204999D01*
X1467581Y3190061D01*
X1482519Y3180080D01*
X1499173Y3176768D01*
X1500305Y3176355D01*
X1506933Y3167542D01*
X1504615Y3155888D01*
X1508120Y3138268D01*
X1518101Y3123330D01*
X1533039Y3113349D01*
X1550659Y3109844D01*
X1568280Y3113349D01*
X1583218Y3123330D01*
X1593199Y3138268D01*
X1596704Y3155888D01*
X1595232Y3163288D01*
X1597924Y3167344D01*
X1603313Y3168802D01*
X1611646Y3161745D01*
X1612033Y3160949D01*
X1615426Y3143892D01*
X1625407Y3128954D01*
X1640345Y3118973D01*
X1657965Y3115468D01*
X1675586Y3118973D01*
X1690524Y3128954D01*
X1700505Y3143892D01*
X1703217Y3157529D01*
X1713602D01*
X1716294Y3143998D01*
X1726275Y3129060D01*
X1741213Y3119079D01*
X1758834Y3115574D01*
X1776454Y3119079D01*
X1791392Y3129060D01*
X1801373Y3143998D01*
X1804878Y3161618D01*
X1810286Y3167540D01*
X1815584Y3163163D01*
X1819089Y3145542D01*
X1829070Y3130604D01*
X1844008Y3120623D01*
X1861628Y3117118D01*
X1879249Y3120623D01*
X1894187Y3130604D01*
X1904168Y3145542D01*
X1907673Y3163163D01*
X1904168Y3180783D01*
X1894187Y3195721D01*
X1879249Y3205703D01*
X1861628Y3209207D01*
X1861360Y3209154D01*
X1854158Y3216356D01*
X1855751Y3224367D01*
X1852246Y3241987D01*
X1842265Y3256925D01*
X1827327Y3266906D01*
X1809707Y3270411D01*
D02*
G37*
G36*
X2098040Y3157545D02*
X2080420Y3154040D01*
X2065482Y3144058D01*
X2055500Y3129120D01*
X2051995Y3111500D01*
X2055500Y3093880D01*
X2065482Y3078942D01*
X2080420Y3068960D01*
X2098040Y3065455D01*
X2115660Y3068960D01*
X2130598Y3078942D01*
X2140580Y3093880D01*
X2144085Y3111500D01*
X2140580Y3129120D01*
X2130598Y3144058D01*
X2115660Y3154040D01*
X2098040Y3157545D01*
D02*
G37*
G36*
X2891535Y3045115D02*
X2873915Y3041610D01*
X2858977Y3031628D01*
X2848996Y3016690D01*
X2846906Y3006185D01*
X2845989Y3001575D01*
X2835604D01*
X2834693Y3006154D01*
X2832638Y3016487D01*
X2822657Y3031425D01*
X2807719Y3041406D01*
X2790098Y3044911D01*
X2772478Y3041406D01*
X2757540Y3031425D01*
X2747558Y3016487D01*
X2744053Y2998867D01*
X2745517Y2991507D01*
X2743162Y2987703D01*
X2737079Y2981721D01*
X2735481Y2981403D01*
X2728279Y2988605D01*
X2729194Y2993210D01*
X2725689Y3010830D01*
X2715708Y3025768D01*
X2700770Y3035749D01*
X2683150Y3039254D01*
X2665529Y3035749D01*
X2650591Y3025768D01*
X2640610Y3010830D01*
X2637765Y2996529D01*
X2628013Y2997323D01*
X2624508Y3014944D01*
X2614527Y3029882D01*
X2599589Y3039863D01*
X2581968Y3043368D01*
X2564348Y3039863D01*
X2549410Y3029882D01*
X2539428Y3014944D01*
X2535924Y2997323D01*
X2539428Y2979703D01*
X2549410Y2964765D01*
X2564348Y2954784D01*
X2581002Y2951471D01*
X2582134Y2951059D01*
X2588761Y2942245D01*
X2586443Y2930592D01*
X2589948Y2912971D01*
X2599930Y2898033D01*
X2614868Y2888052D01*
X2632488Y2884547D01*
X2650108Y2888052D01*
X2665046Y2898033D01*
X2675028Y2912971D01*
X2678533Y2930592D01*
X2677061Y2937991D01*
X2679753Y2942047D01*
X2685141Y2943505D01*
X2693475Y2936449D01*
X2693861Y2935652D01*
X2697254Y2918596D01*
X2707235Y2903658D01*
X2722173Y2893676D01*
X2739794Y2890172D01*
X2757414Y2893676D01*
X2772352Y2903658D01*
X2782334Y2918596D01*
X2785046Y2932233D01*
X2795431D01*
X2798123Y2918701D01*
X2808104Y2903763D01*
X2823042Y2893782D01*
X2840662Y2890277D01*
X2858283Y2893782D01*
X2873221Y2903763D01*
X2883202Y2918701D01*
X2885688Y2931201D01*
X2896073D01*
X2898603Y2918483D01*
X2908584Y2903545D01*
X2923522Y2893564D01*
X2941143Y2890059D01*
X2958763Y2893564D01*
X2973701Y2903545D01*
X2983682Y2918483D01*
X2987187Y2936103D01*
X2983682Y2953724D01*
X2973701Y2968662D01*
X2958763Y2978643D01*
X2943707Y2981638D01*
X2941143Y2982148D01*
X2936079Y2991526D01*
X2937580Y2999070D01*
X2934075Y3016690D01*
X2924094Y3031628D01*
X2909156Y3041610D01*
X2891535Y3045115D01*
D02*
G37*
G36*
X994874Y3081044D02*
X977254Y3077539D01*
X962316Y3067558D01*
X952335Y3052620D01*
X948830Y3035000D01*
X952335Y3017379D01*
X962316Y3002441D01*
X977254Y2992460D01*
X994874Y2988955D01*
X1012495Y2992460D01*
X1027433Y3002441D01*
X1037414Y3017379D01*
X1040919Y3035000D01*
X1037414Y3052620D01*
X1027433Y3067558D01*
X1012495Y3077539D01*
X994874Y3081044D01*
D02*
G37*
G36*
X1858576Y3037682D02*
X1840956Y3034177D01*
X1826018Y3024196D01*
X1816036Y3009258D01*
X1812532Y2991638D01*
X1816036Y2974017D01*
X1826018Y2959079D01*
X1840956Y2949098D01*
X1858576Y2945593D01*
X1876197Y2949098D01*
X1891135Y2959079D01*
X1901116Y2974017D01*
X1904621Y2991638D01*
X1901116Y3009258D01*
X1891135Y3024196D01*
X1876197Y3034177D01*
X1858576Y3037682D01*
D02*
G37*
G36*
X4272280Y3020385D02*
X4254660Y3016880D01*
X4239722Y3006898D01*
X4229740Y2991960D01*
X4226235Y2974340D01*
X4229740Y2956720D01*
X4239722Y2941782D01*
X4254660Y2931800D01*
X4272280Y2928295D01*
X4289900Y2931800D01*
X4304838Y2941782D01*
X4314820Y2956720D01*
X4318325Y2974340D01*
X4314820Y2991960D01*
X4304838Y3006898D01*
X4289900Y3016880D01*
X4272280Y3020385D01*
D02*
G37*
G36*
X3052628Y2990693D02*
X3035008Y2987188D01*
X3020070Y2977207D01*
X3010088Y2962269D01*
X3006584Y2944649D01*
X3010088Y2927028D01*
X3020070Y2912090D01*
X3035008Y2902109D01*
X3052628Y2898604D01*
X3070249Y2902109D01*
X3085187Y2912090D01*
X3095168Y2927028D01*
X3098673Y2944649D01*
X3095168Y2962269D01*
X3085187Y2977207D01*
X3070249Y2987188D01*
X3052628Y2990693D01*
D02*
G37*
G36*
X4136700Y2989784D02*
X4119080Y2986279D01*
X4104142Y2976298D01*
X4094160Y2961360D01*
X4090656Y2943739D01*
X4094160Y2926119D01*
X4104142Y2911181D01*
X4119080Y2901200D01*
X4136700Y2897695D01*
X4154321Y2901200D01*
X4169259Y2911181D01*
X4179240Y2926119D01*
X4182745Y2943739D01*
X4179240Y2961360D01*
X4169259Y2976298D01*
X4154321Y2986279D01*
X4136700Y2989784D01*
D02*
G37*
G36*
X5097500Y2958545D02*
X5079880Y2955040D01*
X5064942Y2945058D01*
X5054960Y2930120D01*
X5051455Y2912500D01*
X5054960Y2894879D01*
X5064942Y2879941D01*
X5079880Y2869960D01*
X5097500Y2866455D01*
X5115121Y2869960D01*
X5130059Y2879941D01*
X5140040Y2894879D01*
X5143545Y2912500D01*
X5140040Y2930120D01*
X5130059Y2945058D01*
X5115121Y2955040D01*
X5097500Y2958545D01*
D02*
G37*
G36*
X4026988Y2951891D02*
X4009368Y2948386D01*
X3994430Y2938405D01*
X3984449Y2923467D01*
X3980944Y2905847D01*
X3984449Y2888226D01*
X3994430Y2873288D01*
X4009368Y2863307D01*
X4026988Y2859802D01*
X4044609Y2863307D01*
X4059547Y2873288D01*
X4069528Y2888226D01*
X4073033Y2905847D01*
X4069528Y2923467D01*
X4059547Y2938405D01*
X4044609Y2948386D01*
X4026988Y2951891D01*
D02*
G37*
G36*
X3154289Y2946165D02*
X3136668Y2942660D01*
X3121730Y2932679D01*
X3111749Y2917741D01*
X3108244Y2900121D01*
X3111749Y2882500D01*
X3121730Y2867562D01*
X3136668Y2857581D01*
X3154289Y2854076D01*
X3171909Y2857581D01*
X3186847Y2867562D01*
X3196829Y2882500D01*
X3200333Y2900121D01*
X3196829Y2917741D01*
X3186847Y2932679D01*
X3171909Y2942660D01*
X3154289Y2946165D01*
D02*
G37*
G36*
X3241978Y2880296D02*
X3224358Y2876791D01*
X3209420Y2866810D01*
X3199438Y2851872D01*
X3195933Y2834251D01*
X3199438Y2816631D01*
X3209420Y2801693D01*
X3224358Y2791711D01*
X3241978Y2788207D01*
X3259599Y2791711D01*
X3274537Y2801693D01*
X3284518Y2816631D01*
X3288023Y2834251D01*
X3284518Y2851872D01*
X3274537Y2866810D01*
X3259599Y2876791D01*
X3241978Y2880296D01*
D02*
G37*
G36*
X3829600Y2839282D02*
X3811979Y2835777D01*
X3797041Y2825796D01*
X3787060Y2810858D01*
X3783555Y2793237D01*
X3787060Y2775617D01*
X3797041Y2760679D01*
X3811979Y2750698D01*
X3829600Y2747193D01*
X3847220Y2750698D01*
X3862158Y2760679D01*
X3872140Y2775617D01*
X3875645Y2793237D01*
X3872140Y2810858D01*
X3862158Y2825796D01*
X3847220Y2835777D01*
X3829600Y2839282D01*
D02*
G37*
G36*
X3359032Y2819336D02*
X3341412Y2815831D01*
X3326474Y2805850D01*
X3316493Y2790912D01*
X3312988Y2773291D01*
X3316493Y2755671D01*
X3326474Y2740733D01*
X3341412Y2730751D01*
X3359032Y2727247D01*
X3376653Y2730751D01*
X3391591Y2740733D01*
X3401572Y2755671D01*
X3405077Y2773291D01*
X3401572Y2790912D01*
X3391591Y2805850D01*
X3376653Y2815831D01*
X3359032Y2819336D01*
D02*
G37*
G36*
X4673011Y2813301D02*
X4655391Y2809796D01*
X4640453Y2799815D01*
X4630472Y2784877D01*
X4626967Y2767256D01*
X4630472Y2749636D01*
X4640453Y2734698D01*
X4655391Y2724717D01*
X4673011Y2721212D01*
X4690632Y2724717D01*
X4705570Y2734698D01*
X4715551Y2749636D01*
X4719056Y2767256D01*
X4715551Y2784877D01*
X4705570Y2799815D01*
X4690632Y2809796D01*
X4673011Y2813301D01*
D02*
G37*
G36*
X3954641Y2809793D02*
X3937021Y2806289D01*
X3922083Y2796307D01*
X3912101Y2781369D01*
X3908596Y2763749D01*
X3912101Y2746128D01*
X3922083Y2731190D01*
X3937021Y2721209D01*
X3954641Y2717704D01*
X3972262Y2721209D01*
X3987200Y2731190D01*
X3997181Y2746128D01*
X4000686Y2763749D01*
X3997181Y2781369D01*
X3987200Y2796307D01*
X3972262Y2806289D01*
X3954641Y2809793D01*
D02*
G37*
G36*
X3726366Y2800966D02*
X3708746Y2797462D01*
X3693808Y2787480D01*
X3683827Y2772542D01*
X3680322Y2754922D01*
X3683827Y2737301D01*
X3693808Y2722363D01*
X3708746Y2712382D01*
X3726366Y2708877D01*
X3743987Y2712382D01*
X3758925Y2722363D01*
X3768906Y2737301D01*
X3772411Y2754922D01*
X3768906Y2772542D01*
X3758925Y2787480D01*
X3743987Y2797462D01*
X3726366Y2800966D01*
D02*
G37*
G36*
X3492329Y2789140D02*
X3474708Y2785635D01*
X3459770Y2775654D01*
X3449789Y2760716D01*
X3446284Y2743096D01*
X3449789Y2725475D01*
X3459770Y2710537D01*
X3474708Y2700556D01*
X3492329Y2697051D01*
X3509949Y2700556D01*
X3524887Y2710537D01*
X3534868Y2725475D01*
X3538373Y2743096D01*
X3534868Y2760716D01*
X3524887Y2775654D01*
X3509949Y2785635D01*
X3492329Y2789140D01*
D02*
G37*
G36*
X3599838Y2741027D02*
X3582217Y2737522D01*
X3567279Y2727540D01*
X3557298Y2712602D01*
X3553793Y2694982D01*
X3557298Y2677361D01*
X3567279Y2662423D01*
X3582217Y2652442D01*
X3599838Y2648937D01*
X3617458Y2652442D01*
X3632396Y2662423D01*
X3642377Y2677361D01*
X3645882Y2694982D01*
X3642377Y2712602D01*
X3632396Y2727540D01*
X3617458Y2737522D01*
X3599838Y2741027D01*
D02*
G37*
G36*
X4257159Y2656578D02*
X4239539Y2653073D01*
X4224601Y2643092D01*
X4214619Y2628154D01*
X4211115Y2610534D01*
X4214619Y2592913D01*
X4224601Y2577975D01*
X4239539Y2567994D01*
X4257159Y2564489D01*
X4274780Y2567994D01*
X4289718Y2577975D01*
X4299699Y2592913D01*
X4303204Y2610534D01*
X4299699Y2628154D01*
X4289718Y2643092D01*
X4274780Y2653073D01*
X4257159Y2656578D01*
D02*
G37*
G36*
X4585000Y2588545D02*
X4567379Y2585040D01*
X4552441Y2575059D01*
X4542460Y2560121D01*
X4538955Y2542500D01*
X4542460Y2524880D01*
X4552441Y2509942D01*
X4567379Y2499960D01*
X4585000Y2496456D01*
X4602620Y2499960D01*
X4617558Y2509942D01*
X4627540Y2524880D01*
X4631045Y2542500D01*
X4627540Y2560121D01*
X4617558Y2575059D01*
X4602620Y2585040D01*
X4585000Y2588545D01*
D02*
G37*
G36*
X2260600Y2178817D02*
X2242980Y2175312D01*
X2228042Y2165331D01*
X2218060Y2150393D01*
X2214555Y2132773D01*
X2218060Y2115152D01*
X2228042Y2100214D01*
X2242980Y2090233D01*
X2260600Y2086728D01*
X2278220Y2090233D01*
X2293158Y2100214D01*
X2303140Y2115152D01*
X2306645Y2132773D01*
X2303140Y2150393D01*
X2293158Y2165331D01*
X2278220Y2175312D01*
X2260600Y2178817D01*
D02*
G37*
G36*
X2865120Y1818250D02*
X2847500Y1814745D01*
X2832562Y1804764D01*
X2822580Y1789826D01*
X2819075Y1772206D01*
X2822580Y1754585D01*
X2832562Y1739647D01*
X2837490Y1736354D01*
Y1726169D01*
X2832562Y1722876D01*
X2822580Y1707938D01*
X2819075Y1690317D01*
X2822580Y1672697D01*
X2832562Y1657759D01*
X2837490Y1654466D01*
Y1644280D01*
X2832562Y1640987D01*
X2822580Y1626049D01*
X2819075Y1608429D01*
X2822580Y1590808D01*
X2832562Y1575870D01*
X2837490Y1572577D01*
Y1562392D01*
X2832562Y1559098D01*
X2822580Y1544160D01*
X2819075Y1526540D01*
X2822580Y1508920D01*
X2832562Y1493982D01*
X2847500Y1484000D01*
X2865120Y1480495D01*
X2882740Y1484000D01*
X2897678Y1493982D01*
X2907660Y1508920D01*
X2911165Y1526540D01*
X2907660Y1544160D01*
X2897678Y1559098D01*
X2892750Y1562392D01*
Y1572577D01*
X2897678Y1575870D01*
X2907660Y1590808D01*
X2911165Y1608429D01*
X2907660Y1626049D01*
X2897678Y1640987D01*
X2892750Y1644280D01*
Y1654466D01*
X2897678Y1657759D01*
X2907660Y1672697D01*
X2911165Y1690317D01*
X2907660Y1707938D01*
X2897678Y1722876D01*
X2892750Y1726169D01*
Y1736354D01*
X2897678Y1739647D01*
X2907660Y1754585D01*
X2911165Y1772206D01*
X2907660Y1789826D01*
X2897678Y1804764D01*
X2882740Y1814745D01*
X2865120Y1818250D01*
D02*
G37*
G36*
X3632500Y1468545D02*
X3614879Y1465040D01*
X3599941Y1455059D01*
X3589960Y1440121D01*
X3586455Y1422500D01*
X3589960Y1404880D01*
X3599941Y1389942D01*
X3614879Y1379960D01*
X3632500Y1376455D01*
X3650120Y1379960D01*
X3665058Y1389942D01*
X3675040Y1404880D01*
X3678545Y1422500D01*
X3675040Y1440121D01*
X3665058Y1455059D01*
X3650120Y1465040D01*
X3632500Y1468545D01*
D02*
G37*
G36*
X3000000Y1393525D02*
X2981685Y1391114D01*
X2964618Y1384044D01*
X2949962Y1372798D01*
X2938716Y1358142D01*
X2931646Y1341075D01*
X2929235Y1322760D01*
X2931646Y1304444D01*
X2938716Y1287377D01*
X2949962Y1272721D01*
X2964618Y1261476D01*
X2981685Y1254406D01*
X3000000Y1251995D01*
X3018316Y1254406D01*
X3035383Y1261476D01*
X3050039Y1272721D01*
X3061284Y1287377D01*
X3068354Y1304444D01*
X3070765Y1322760D01*
X3068354Y1341075D01*
X3061284Y1358142D01*
X3050039Y1372798D01*
X3035383Y1384044D01*
X3018316Y1391114D01*
X3000000Y1393525D01*
D02*
G37*
G36*
X2877289Y1308767D02*
X2859668Y1305262D01*
X2844730Y1295281D01*
X2834749Y1280343D01*
X2831244Y1262723D01*
X2834749Y1245102D01*
X2844730Y1230164D01*
X2859668Y1220183D01*
X2877289Y1216678D01*
X2894909Y1220183D01*
X2909847Y1230164D01*
X2919828Y1245102D01*
X2923333Y1262723D01*
X2919828Y1280343D01*
X2909847Y1295281D01*
X2894909Y1305262D01*
X2877289Y1308767D01*
D02*
G37*
G36*
X1264920Y1280485D02*
X1247300Y1276980D01*
X1232362Y1266998D01*
X1222380Y1252060D01*
X1218875Y1234440D01*
X1222380Y1216820D01*
X1232362Y1201882D01*
X1247300Y1191900D01*
X1264920Y1188395D01*
X1282540Y1191900D01*
X1297478Y1201882D01*
X1307460Y1216820D01*
X1310965Y1234440D01*
X1307460Y1252060D01*
X1297478Y1266998D01*
X1282540Y1276980D01*
X1264920Y1280485D01*
D02*
G37*
G36*
X2877289Y1198585D02*
X2859668Y1195080D01*
X2844730Y1185098D01*
X2834749Y1170160D01*
X2831244Y1152540D01*
X2834749Y1134919D01*
X2844730Y1119982D01*
X2859668Y1110000D01*
X2877289Y1106495D01*
X2894909Y1110000D01*
X2909847Y1119982D01*
X2919828Y1134919D01*
X2923333Y1152540D01*
X2919828Y1170160D01*
X2909847Y1185098D01*
X2894909Y1195080D01*
X2877289Y1198585D01*
D02*
G37*
G36*
X2700942Y1114805D02*
X2683321Y1111300D01*
X2668383Y1101319D01*
X2658402Y1086381D01*
X2654897Y1068760D01*
X2658402Y1051140D01*
X2668383Y1036202D01*
X2683321Y1026221D01*
X2700942Y1022716D01*
X2718562Y1026221D01*
X2733500Y1036202D01*
X2743481Y1051140D01*
X2746986Y1068760D01*
X2743481Y1086381D01*
X2733500Y1101319D01*
X2718562Y1111300D01*
X2700942Y1114805D01*
D02*
G37*
G36*
X5388720Y1100145D02*
X5371100Y1096640D01*
X5356162Y1086658D01*
X5346181Y1071720D01*
X5342676Y1054100D01*
X5346181Y1036480D01*
X5356162Y1021542D01*
X5371100Y1011560D01*
X5388720Y1008055D01*
X5406341Y1011560D01*
X5421279Y1021542D01*
X5431260Y1036480D01*
X5434765Y1054100D01*
X5431260Y1071720D01*
X5421279Y1086658D01*
X5406341Y1096640D01*
X5388720Y1100145D01*
D02*
G37*
G36*
X3000000Y1139526D02*
X2981685Y1137114D01*
X2964618Y1130045D01*
X2949962Y1118799D01*
X2938716Y1104143D01*
X2931646Y1087076D01*
X2929235Y1068760D01*
X2931646Y1050445D01*
X2938716Y1033378D01*
X2949962Y1018722D01*
X2964618Y1007476D01*
X2981685Y1000406D01*
X3000000Y997995D01*
X3018316Y1000406D01*
X3035383Y1007476D01*
X3050039Y1018722D01*
X3061284Y1033378D01*
X3068354Y1050445D01*
X3070765Y1068760D01*
X3068354Y1087076D01*
X3061284Y1104143D01*
X3050039Y1118799D01*
X3035383Y1130045D01*
X3018316Y1137114D01*
X3000000Y1139526D01*
D02*
G37*
G36*
X2500080Y1000852D02*
X2482459Y997347D01*
X2467521Y987366D01*
X2457540Y972428D01*
X2454035Y954808D01*
X2457540Y937187D01*
X2467521Y922249D01*
X2482459Y912268D01*
X2500080Y908763D01*
X2517700Y912268D01*
X2532638Y922249D01*
X2542620Y937187D01*
X2546124Y954808D01*
X2542620Y972428D01*
X2532638Y987366D01*
X2517700Y997347D01*
X2500080Y1000852D01*
D02*
G37*
G36*
X1776500Y500869D02*
X1771500D01*
X1749922Y498028D01*
X1729813Y489699D01*
X1712546Y476449D01*
X1699297Y459182D01*
X1690968Y439074D01*
X1688127Y417496D01*
X1690968Y395917D01*
X1699297Y375809D01*
X1712546Y358542D01*
X1729813Y345292D01*
X1749922Y336964D01*
X1771500Y334123D01*
X1776500D01*
X1798078Y336964D01*
X1818187Y345292D01*
X1835454Y358542D01*
X1848703Y375809D01*
X1857032Y395917D01*
X1859873Y417496D01*
X1857032Y439074D01*
X1848703Y459182D01*
X1835454Y476449D01*
X1818187Y489699D01*
X1798078Y498028D01*
X1776500Y500869D01*
D02*
G37*
G36*
X1522500D02*
X1517500D01*
X1495922Y498028D01*
X1475813Y489699D01*
X1458546Y476449D01*
X1445297Y459182D01*
X1436968Y439074D01*
X1434127Y417496D01*
X1436968Y395917D01*
X1445297Y375809D01*
X1458546Y358542D01*
X1475813Y345292D01*
X1495922Y336964D01*
X1517500Y334123D01*
X1522500D01*
X1544078Y336964D01*
X1564187Y345292D01*
X1581454Y358542D01*
X1594703Y375809D01*
X1603032Y395917D01*
X1605873Y417496D01*
X1603032Y439074D01*
X1594703Y459182D01*
X1581454Y476449D01*
X1564187Y489699D01*
X1544078Y498028D01*
X1522500Y500869D01*
D02*
G37*
G36*
X1268500D02*
X1263500D01*
X1241922Y498028D01*
X1221813Y489699D01*
X1204546Y476449D01*
X1191297Y459182D01*
X1182968Y439074D01*
X1180127Y417496D01*
X1182968Y395917D01*
X1191297Y375809D01*
X1204546Y358542D01*
X1221813Y345292D01*
X1241922Y336964D01*
X1263500Y334123D01*
X1268500D01*
X1290078Y336964D01*
X1310187Y345292D01*
X1327454Y358542D01*
X1340703Y375809D01*
X1349032Y395917D01*
X1351873Y417496D01*
X1349032Y439074D01*
X1340703Y459182D01*
X1327454Y476449D01*
X1310187Y489699D01*
X1290078Y498028D01*
X1268500Y500869D01*
D02*
G37*
G36*
X5500000Y811119D02*
X5451330Y807289D01*
X5403859Y795892D01*
X5358755Y777209D01*
X5317129Y751701D01*
X5280005Y719994D01*
X5248299Y682871D01*
X5222791Y641245D01*
X5204108Y596141D01*
X5192711Y548670D01*
X5188881Y500000D01*
X5192711Y451330D01*
X5204108Y403859D01*
X5222791Y358755D01*
X5248299Y317129D01*
X5280005Y280006D01*
X5317129Y248299D01*
X5358755Y222791D01*
X5403859Y204108D01*
X5451330Y192711D01*
X5500000Y188881D01*
X5548670Y192711D01*
X5596141Y204108D01*
X5641245Y222791D01*
X5682871Y248299D01*
X5719994Y280006D01*
X5751700Y317129D01*
X5777209Y358755D01*
X5795892Y403859D01*
X5807289Y451330D01*
X5811119Y500000D01*
X5807289Y548670D01*
X5795892Y596141D01*
X5777209Y641245D01*
X5751700Y682871D01*
X5719994Y719994D01*
X5682871Y751701D01*
X5641245Y777209D01*
X5596141Y795892D01*
X5548670Y807289D01*
X5500000Y811119D01*
D02*
G37*
G36*
X500000D02*
X451330Y807289D01*
X403859Y795892D01*
X358755Y777209D01*
X317129Y751701D01*
X280006Y719994D01*
X248299Y682871D01*
X222791Y641245D01*
X204108Y596141D01*
X192711Y548670D01*
X188881Y500000D01*
X192711Y451330D01*
X204108Y403859D01*
X222791Y358755D01*
X248299Y317129D01*
X280006Y280006D01*
X317129Y248299D01*
X358755Y222791D01*
X403859Y204108D01*
X451330Y192711D01*
X500000Y188881D01*
X548670Y192711D01*
X596141Y204108D01*
X641245Y222791D01*
X682871Y248299D01*
X719994Y280006D01*
X751701Y317129D01*
X777209Y358755D01*
X795892Y403859D01*
X807289Y451330D01*
X811119Y500000D01*
X807289Y548670D01*
X795892Y596141D01*
X777209Y641245D01*
X751701Y682871D01*
X719994Y719994D01*
X682871Y751701D01*
X641245Y777209D01*
X596141Y795892D01*
X548670Y807289D01*
X500000Y811119D01*
D02*
G37*
G36*
X1776500Y246869D02*
X1771500D01*
X1749922Y244028D01*
X1729813Y235699D01*
X1712546Y222449D01*
X1699297Y205182D01*
X1690968Y185074D01*
X1688127Y163496D01*
X1690968Y141917D01*
X1699297Y121809D01*
X1712546Y104542D01*
X1729813Y91292D01*
X1749922Y82964D01*
X1771500Y80123D01*
X1776500D01*
X1798078Y82964D01*
X1818187Y91292D01*
X1835454Y104542D01*
X1848703Y121809D01*
X1857032Y141917D01*
X1859873Y163496D01*
X1857032Y185074D01*
X1848703Y205182D01*
X1835454Y222449D01*
X1818187Y235699D01*
X1798078Y244028D01*
X1776500Y246869D01*
D02*
G37*
G36*
X1268500D02*
X1263500D01*
X1241922Y244028D01*
X1221813Y235699D01*
X1204546Y222449D01*
X1191297Y205182D01*
X1182968Y185074D01*
X1180127Y163496D01*
X1182968Y141917D01*
X1191297Y121809D01*
X1204546Y104542D01*
X1221813Y91292D01*
X1241922Y82964D01*
X1263500Y80123D01*
X1268500D01*
X1290078Y82964D01*
X1310187Y91292D01*
X1327454Y104542D01*
X1340703Y121809D01*
X1349032Y141917D01*
X1351873Y163496D01*
X1349032Y185074D01*
X1340703Y205182D01*
X1327454Y222449D01*
X1310187Y235699D01*
X1290078Y244028D01*
X1268500Y246869D01*
D02*
G37*
%LPD*%
D45*
X4352019Y217157D02*
D03*
X2870780Y493192D02*
D03*
X5204597Y2581446D02*
D03*
X5713979Y3580767D02*
D03*
X5819115Y6557493D02*
D03*
X4895026Y7818601D02*
D03*
X1102827Y7850202D02*
D03*
X181851Y6107055D02*
D03*
X142422Y3779830D02*
D03*
X5783580Y2981960D02*
D03*
Y2727960D02*
D03*
Y2473960D02*
D03*
D46*
X955700Y5736200D02*
D03*
Y5826200D02*
D03*
Y5394159D02*
D03*
Y5304160D02*
D03*
Y4863697D02*
D03*
Y4953697D02*
D03*
Y4525410D02*
D03*
Y4435410D02*
D03*
X5131780Y4410331D02*
D03*
Y4320331D02*
D03*
Y4748618D02*
D03*
Y4838617D02*
D03*
Y5279080D02*
D03*
Y5189080D02*
D03*
Y5621121D02*
D03*
Y5711120D02*
D03*
D47*
X3000000Y1322760D02*
D03*
Y1068760D02*
D03*
D48*
X2625000Y3572200D02*
D03*
X3375000D02*
D03*
D49*
X2760000Y3359700D02*
D03*
X3240000D02*
D03*
X2760000Y3784700D02*
D03*
X3240000Y3787200D02*
D03*
D50*
X1451080Y1945480D02*
D03*
X1591080D02*
D03*
Y2225480D02*
D03*
X1451080D02*
D03*
X1661080Y2295480D02*
D03*
X1521080D02*
D03*
X1381080D02*
D03*
X1731080Y1945480D02*
D03*
Y2085480D02*
D03*
Y2225480D02*
D03*
X1381080Y1875480D02*
D03*
X1661080D02*
D03*
X1521080D02*
D03*
X1311080Y1945480D02*
D03*
Y2225480D02*
D03*
Y2085480D02*
D03*
X1661080Y2015480D02*
D03*
Y2155480D02*
D03*
X1521080Y2015480D02*
D03*
Y2155480D02*
D03*
X1381080Y2015480D02*
D03*
Y2155480D02*
D03*
X1591080Y2085480D02*
D03*
X1451080D02*
D03*
D51*
X1520000Y163496D02*
D03*
D52*
Y417496D02*
D03*
X1774000D02*
D03*
X1266000Y163496D02*
D03*
X1774000D02*
D03*
X1266000Y417496D02*
D03*
D53*
X500000Y500000D02*
D03*
X5500000D02*
D03*
Y7500000D02*
D03*
X500000D02*
D03*
D54*
X2741217Y7109000D02*
D03*
X3581217D02*
D03*
X4007460Y6809040D02*
D03*
X3492540D02*
D03*
X1048200Y5913360D02*
D03*
X567565Y6358584D02*
D03*
X469095Y6171519D02*
D03*
X622974Y6018262D02*
D03*
X3332080Y6461760D02*
D03*
X2938828Y6487160D02*
D03*
X3656165Y6406523D02*
D03*
X3528506Y6454365D02*
D03*
X3447200Y6450041D02*
D03*
X795020Y5364240D02*
D03*
Y5282339D02*
D03*
Y4923777D02*
D03*
Y4841877D02*
D03*
Y4495490D02*
D03*
Y4413590D02*
D03*
X5295000Y4350250D02*
D03*
Y4432151D02*
D03*
Y4778537D02*
D03*
Y4860438D02*
D03*
Y5219000D02*
D03*
Y5300900D02*
D03*
X5039280Y4233170D02*
D03*
X2670000Y6921500D02*
D03*
X1830000D02*
D03*
X1829803Y6453536D02*
D03*
X5295000Y5732941D02*
D03*
Y5651040D02*
D03*
X4819993Y4532509D02*
D03*
X5039280Y4661457D02*
D03*
X5044360Y5101920D02*
D03*
X5039280Y5533960D02*
D03*
X795020Y5714379D02*
D03*
X435285Y5572557D02*
D03*
X795020Y5796280D02*
D03*
X1048200Y4612570D02*
D03*
Y5040857D02*
D03*
Y5481320D02*
D03*
X4272280Y2974340D02*
D03*
X1680971Y3973000D02*
D03*
X1005608Y3817735D02*
D03*
Y3970777D02*
D03*
X4873625Y3263458D02*
D03*
X3057871Y3027966D02*
D03*
X1005608Y4047298D02*
D03*
X3199339Y7539729D02*
D03*
X1528027Y6887945D02*
D03*
X3688165Y6303664D02*
D03*
X3792593Y6191009D02*
D03*
X4514863Y7107189D02*
D03*
X3579928Y6269502D02*
D03*
X3721945Y6230487D02*
D03*
X3800596Y6110848D02*
D03*
X4257159Y2610534D02*
D03*
X3954641Y2763749D02*
D03*
X4614277Y418293D02*
D03*
X3224841Y611270D02*
D03*
X3356623Y1405658D02*
D03*
X2500080Y954808D02*
D03*
X3052628Y2944649D02*
D03*
X2098040Y3111500D02*
D03*
X2865120Y1772206D02*
D03*
Y1690317D02*
D03*
Y1608429D02*
D03*
Y1526540D02*
D03*
X2700942Y1068760D02*
D03*
X3359615Y3325751D02*
D03*
X3172841Y2082387D02*
D03*
X5147455Y1725982D02*
D03*
X4253719D02*
D03*
X4402675D02*
D03*
X4551631D02*
D03*
X4700587D02*
D03*
X4849543D02*
D03*
X4998499D02*
D03*
X3545933Y2071942D02*
D03*
X3426549Y2073430D02*
D03*
X3299695Y2077908D02*
D03*
X2941143Y2936103D02*
D03*
X5812060Y5912317D02*
D03*
X5730240Y5709920D02*
D03*
X3516255Y771510D02*
D03*
X3542576Y1126095D02*
D03*
X3479803Y971167D02*
D03*
X4646391Y1220632D02*
D03*
X4558324Y902421D02*
D03*
X4511385Y732927D02*
D03*
X4444930Y582681D02*
D03*
X3990000Y837500D02*
D03*
X4100000D02*
D03*
X3990000Y947500D02*
D03*
X4100000D02*
D03*
X3990000Y1057500D02*
D03*
X4100000D02*
D03*
X4224117Y1202831D02*
D03*
X1275774Y3242683D02*
D03*
X2717795Y648421D02*
D03*
X5388720Y1054100D02*
D03*
X2877289Y1152540D02*
D03*
X3606730Y1319647D02*
D03*
X2608766Y676235D02*
D03*
X1264920Y1234440D02*
D03*
X4164173Y6278735D02*
D03*
X3533753Y5481029D02*
D03*
X4552732Y6359389D02*
D03*
X5742973Y1204025D02*
D03*
X2080462Y1613808D02*
D03*
X2400543Y1468885D02*
D03*
X4136700Y2943739D02*
D03*
X753745Y3835832D02*
D03*
X1087643Y3755804D02*
D03*
X1005608Y3894256D02*
D03*
X939593Y3436406D02*
D03*
X2718730Y3221981D02*
D03*
X3353080Y2853401D02*
D03*
X716535Y6440759D02*
D03*
X879645Y6671553D02*
D03*
X1273515Y7075873D02*
D03*
X1499961Y7244967D02*
D03*
X1742841Y7389466D02*
D03*
X1999495Y7507785D02*
D03*
X2267111Y7598629D02*
D03*
X365102Y5896938D02*
D03*
X327942Y5387430D02*
D03*
X305781Y5176588D02*
D03*
Y4823411D02*
D03*
X492215Y3999495D02*
D03*
X755033Y3499960D02*
D03*
X5120356Y3328446D02*
D03*
X5421556Y3805821D02*
D03*
X5672059Y4612570D02*
D03*
X5694219Y5176588D02*
D03*
X5672059Y5387430D02*
D03*
X5507786Y6000505D02*
D03*
X5244968Y6500039D02*
D03*
X5075873Y6726485D02*
D03*
X4884034Y6934015D02*
D03*
X4440759Y7283465D02*
D03*
X4194179Y7421556D02*
D03*
X3934516Y7533116D02*
D03*
X3664614Y7616923D02*
D03*
X2542756Y7661001D02*
D03*
X2823412Y7694219D02*
D03*
X3387430Y7672058D02*
D03*
X4905988Y6571782D02*
D03*
X3289039Y1030022D02*
D03*
X3141077Y518104D02*
D03*
X3145068Y765504D02*
D03*
X3636308Y600652D02*
D03*
X2743260Y6462940D02*
D03*
X3876068Y6082598D02*
D03*
X4008900Y5997000D02*
D03*
X4142077Y5911999D02*
D03*
X4275254Y5826999D02*
D03*
X4408354Y5741921D02*
D03*
X4542100Y5658973D02*
D03*
X1858576Y2991638D02*
D03*
X4633508Y6921733D02*
D03*
X3307522Y2390510D02*
D03*
X3176548Y2276557D02*
D03*
X3057180Y2081338D02*
D03*
X3000000Y3800415D02*
D03*
X1612900Y6068060D02*
D03*
X4704080Y5897880D02*
D03*
X4242787Y3519116D02*
D03*
X824135Y4078767D02*
D03*
X4265940Y4496752D02*
D03*
X2260600Y2132773D02*
D03*
X2768620Y7482085D02*
D03*
X2520504Y6490285D02*
D03*
X1222997Y5293325D02*
D03*
Y5159995D02*
D03*
X1222996Y5026665D02*
D03*
X1222997Y4893335D02*
D03*
X1222996Y4760005D02*
D03*
X1222997Y4626675D02*
D03*
X1211143Y2694508D02*
D03*
X2877289Y1262723D02*
D03*
X4215997Y392218D02*
D03*
X4162775Y491973D02*
D03*
X3855260Y1041702D02*
D03*
X4585000Y2542500D02*
D03*
X3359032Y2773291D02*
D03*
X4084827Y2848329D02*
D03*
X3829600Y2793237D02*
D03*
X3882131Y2723499D02*
D03*
X4388705Y3658942D02*
D03*
X4006433Y2615145D02*
D03*
X3673851Y2071942D02*
D03*
X3423062Y2434662D02*
D03*
X3674331Y2662230D02*
D03*
X4026988Y2905847D02*
D03*
X3492329Y2743096D02*
D03*
X3599838Y2694982D02*
D03*
X3545144Y2609390D02*
D03*
X3439342Y2659296D02*
D03*
X3307400Y2711754D02*
D03*
X3241978Y2834251D02*
D03*
X3154289Y2900121D02*
D03*
X3161267Y2980441D02*
D03*
X1574438Y2917230D02*
D03*
X2016024Y2937517D02*
D03*
X2005230Y3091925D02*
D03*
X2827401Y2275923D02*
D03*
X2405297Y2223347D02*
D03*
X3671868Y2370264D02*
D03*
X3903093Y2514780D02*
D03*
X3184415Y7729695D02*
D03*
X3108253Y7699999D02*
D03*
X430462Y5105320D02*
D03*
X5589019Y5278170D02*
D03*
X1087120Y7018020D02*
D03*
X1207491Y7172742D02*
D03*
X3645980Y1097062D02*
D03*
X3248936Y2914304D02*
D03*
X994874Y3035000D02*
D03*
X5157772Y3512931D02*
D03*
X4766872Y5473673D02*
D03*
X4871577Y5445997D02*
D03*
X4864806Y5132516D02*
D03*
X4865188Y4999567D02*
D03*
X4865042Y4866137D02*
D03*
X4864823Y4732537D02*
D03*
X4866253Y4599523D02*
D03*
X4432300Y2857500D02*
D03*
X4688217Y2857798D02*
D03*
X5540609Y3802686D02*
D03*
X5728967Y4015087D02*
D03*
X5623653Y4326893D02*
D03*
X5542617Y4862390D02*
D03*
X4957498Y6752313D02*
D03*
X393789Y5269863D02*
D03*
X403754Y4303525D02*
D03*
X1053799Y3466748D02*
D03*
X4691306Y2978637D02*
D03*
X4633687Y7306586D02*
D03*
X2445442Y2926797D02*
D03*
X5387030Y6011438D02*
D03*
X448417Y4692364D02*
D03*
X749080Y1178330D02*
D03*
Y942630D02*
D03*
X3777955Y2692182D02*
D03*
X4196538Y3030721D02*
D03*
X1181100Y6830060D02*
D03*
X4236065Y1305000D02*
D03*
X2891535Y2999070D02*
D03*
X2840662Y2936322D02*
D03*
X2790098Y2998867D02*
D03*
X2739794Y2936216D02*
D03*
X2683150Y2993210D02*
D03*
X2632488Y2930592D02*
D03*
X2581968Y2997323D02*
D03*
X1500139Y3222620D02*
D03*
X1550659Y3155888D02*
D03*
X1601321Y3218506D02*
D03*
X1657965Y3161513D02*
D03*
X1708269Y3224163D02*
D03*
X1758834Y3161619D02*
D03*
X1809707Y3224367D02*
D03*
X1861628Y3163163D02*
D03*
X3658717Y2198934D02*
D03*
X588454Y2910289D02*
D03*
X5540000Y5129074D02*
D03*
X5311903Y6078339D02*
D03*
X5252720Y6418580D02*
D03*
X4951126Y7226305D02*
D03*
X4962529Y7016587D02*
D03*
X4741131Y7225899D02*
D03*
X1302621Y7179781D02*
D03*
X1766437Y2581397D02*
D03*
X1403977Y2688744D02*
D03*
X1066405Y2917132D02*
D03*
X905219Y3343584D02*
D03*
X661891Y3536917D02*
D03*
X551180Y3761740D02*
D03*
X210820Y4201160D02*
D03*
X726440Y6131560D02*
D03*
X931822Y6359519D02*
D03*
X1342383Y4492298D02*
D03*
X1257616Y5443567D02*
D03*
X4455976Y7191802D02*
D03*
X4522431Y7271757D02*
D03*
X4276989Y7418671D02*
D03*
X4017991Y7539420D02*
D03*
X3746637Y7631421D02*
D03*
X3464978Y7694901D02*
D03*
X2896067Y7730989D02*
D03*
X2610571Y7706760D02*
D03*
X2330854Y7652334D02*
D03*
X2057582Y7568006D02*
D03*
X1826804Y7384940D02*
D03*
X1658205Y7104637D02*
D03*
X1595709Y7239928D02*
D03*
X1369246Y7084886D02*
D03*
X1254528Y6906282D02*
D03*
X1094479Y6858326D02*
D03*
X796149Y6690979D02*
D03*
X714414Y6534287D02*
D03*
X751193Y6347043D02*
D03*
X601264Y6462899D02*
D03*
X552374Y6238778D02*
D03*
X538345Y5855567D02*
D03*
X381694Y5662738D02*
D03*
X270503Y5103507D02*
D03*
X356197Y4901015D02*
D03*
X343931Y4582828D02*
D03*
X4907690Y6856863D02*
D03*
X5083710Y6631076D02*
D03*
X5282642Y6597003D02*
D03*
X5391233Y6193578D02*
D03*
X5582590Y6057304D02*
D03*
X5645932Y5912406D02*
D03*
X5570861Y5701070D02*
D03*
X5561587Y5447761D02*
D03*
X5735738Y5102833D02*
D03*
X5688165Y4871266D02*
D03*
X5722717Y4527842D02*
D03*
X5547753Y4049346D02*
D03*
X5370018Y3915462D02*
D03*
X5301890Y3467626D02*
D03*
X5036649Y3363945D02*
D03*
X4766929Y3060494D02*
D03*
X4453887Y2722320D02*
D03*
X2948346Y2378262D02*
D03*
X2830904Y2414903D02*
D03*
X2298700Y2382520D02*
D03*
X2036157Y2495533D02*
D03*
X2079715Y2646389D02*
D03*
X1547274Y2691361D02*
D03*
X5530075Y4408962D02*
D03*
X530111Y5758982D02*
D03*
X5313887Y3828224D02*
D03*
X4673011Y2767256D02*
D03*
X695211Y3938353D02*
D03*
X4440931Y1198304D02*
D03*
X3661765Y1569429D02*
D03*
X1242620Y3339000D02*
D03*
X1382974Y3245487D02*
D03*
X1382283Y3422645D02*
D03*
X1178352Y3754885D02*
D03*
X4960148Y6506254D02*
D03*
X4388705Y4193529D02*
D03*
X5742973Y2057465D02*
D03*
X1461328Y7092234D02*
D03*
X1009466Y6657998D02*
D03*
X3632500Y1422500D02*
D03*
X749080Y2698684D02*
D03*
Y2922555D02*
D03*
X596076Y3155000D02*
D03*
X513392Y3036598D02*
D03*
X3726366Y2754922D02*
D03*
X2109447Y249255D02*
D03*
X2459439Y553624D02*
D03*
X2214233Y347620D02*
D03*
X2331130Y450268D02*
D03*
X4333733Y5481029D02*
D03*
X4200402D02*
D03*
X4067072D02*
D03*
X3933742D02*
D03*
X3800413D02*
D03*
X3667083D02*
D03*
X3400423D02*
D03*
X3267093D02*
D03*
X3133763D02*
D03*
X4665930Y4496752D02*
D03*
X4532600D02*
D03*
X4399270D02*
D03*
X4132611D02*
D03*
X3999281D02*
D03*
X3865951D02*
D03*
X3732621D02*
D03*
X3599291D02*
D03*
X3465961D02*
D03*
X3332631D02*
D03*
X3199301D02*
D03*
X3065971D02*
D03*
X2932641D02*
D03*
X1466011D02*
D03*
X1599341D02*
D03*
X1732671D02*
D03*
X1866001D02*
D03*
X1999331D02*
D03*
X2132661D02*
D03*
X2265991D02*
D03*
X2399321D02*
D03*
X2532651D02*
D03*
X2665981D02*
D03*
X2799311D02*
D03*
X432917Y3884730D02*
D03*
X439094Y5442144D02*
D03*
X548684Y4129399D02*
D03*
X278753Y4404727D02*
D03*
X416612Y6094408D02*
D03*
X1245000Y6620000D02*
D03*
X5366784Y4107771D02*
D03*
X5493824Y5919030D02*
D03*
X5455000Y3630000D02*
D03*
X5097500Y2912500D02*
D03*
X1571503Y7138523D02*
D03*
X1376354Y7005037D02*
D03*
X4467063Y5481029D02*
D03*
X3000003Y5480705D02*
D03*
X4664630Y5552570D02*
D03*
X3550920Y6376164D02*
D03*
X4599963Y5603497D02*
D03*
X4466632Y5685997D02*
D03*
X4333456Y5770998D02*
D03*
X4200279Y5855998D02*
D03*
X3933926Y6026000D02*
D03*
X4067102Y5940999D02*
D03*
X3750165Y1643028D02*
D03*
X4377501Y1358642D02*
D03*
X4302501D02*
D03*
X4152769Y1465512D02*
D03*
X3837801Y1567884D02*
D03*
X2725000Y3572200D02*
D03*
X3275000D02*
D03*
X3220000Y3482200D02*
D03*
X3330000D02*
D03*
X3220000Y3662200D02*
D03*
X3330000D02*
D03*
X2670000Y3482200D02*
D03*
X2780001D02*
D03*
Y3662200D02*
D03*
X2670000D02*
D03*
X3535460Y646271D02*
D03*
X3199441Y859198D02*
D03*
X3438846Y1095314D02*
D03*
X3443057Y867592D02*
D03*
X3748287Y385415D02*
D03*
X3839085Y479821D02*
D03*
X4348709Y414660D02*
D03*
X4798311Y1230881D02*
D03*
X4853645Y734198D02*
D03*
X4852834Y518966D02*
D03*
X4548456Y604521D02*
D03*
X4607775Y790189D02*
D03*
X4570085Y1006061D02*
D03*
X4819993Y5332489D02*
D03*
X1933363Y5399990D02*
D03*
X3666653D02*
D03*
Y5266660D02*
D03*
X1933363D02*
D03*
X3666653Y5133330D02*
D03*
X1933363D02*
D03*
X3666653Y5000000D02*
D03*
X1933363D02*
D03*
X3666653Y4866670D02*
D03*
X1933363D02*
D03*
X3666653Y4733340D02*
D03*
X1933363D02*
D03*
X3666653Y4600010D02*
D03*
X1933363D02*
D03*
X1267510Y5359990D02*
D03*
Y5226660D02*
D03*
X4819994Y5199159D02*
D03*
X1267510Y5093330D02*
D03*
X4819993Y5065829D02*
D03*
X1267510Y4960000D02*
D03*
X4819992Y4932499D02*
D03*
X1267510Y4826670D02*
D03*
X4819993Y4799169D02*
D03*
X1267510Y4693340D02*
D03*
X4819993Y4665839D02*
D03*
X1267510Y4560010D02*
D03*
X5118070Y3598080D02*
D03*
X1400043Y5399990D02*
D03*
X3133333D02*
D03*
Y5266660D02*
D03*
X1400043D02*
D03*
X3133333Y5133330D02*
D03*
X1400043D02*
D03*
X3133333Y5000000D02*
D03*
X1400043D02*
D03*
X3133333Y4866670D02*
D03*
X1400043D02*
D03*
X3133333Y4733340D02*
D03*
X1400043D02*
D03*
X3133333Y4600010D02*
D03*
X1400043D02*
D03*
X1533374Y5399990D02*
D03*
X3266663D02*
D03*
Y5266660D02*
D03*
X1533374D02*
D03*
X3266663Y5133330D02*
D03*
X1533374D02*
D03*
X3266663Y5000000D02*
D03*
X1533374D02*
D03*
X3266663Y4866670D02*
D03*
X1533374D02*
D03*
X3266663Y4733340D02*
D03*
X1533374D02*
D03*
X3266663Y4600010D02*
D03*
X1533374D02*
D03*
X1666704Y5399990D02*
D03*
X3399993D02*
D03*
Y5266660D02*
D03*
X1666704D02*
D03*
X3399993Y5133330D02*
D03*
X1666704D02*
D03*
X3399993Y5000000D02*
D03*
X1666704D02*
D03*
X3399993Y4866670D02*
D03*
X1666704D02*
D03*
X3399993Y4733340D02*
D03*
X1666704D02*
D03*
X3399993Y4600010D02*
D03*
X1666704D02*
D03*
X1800033Y5399990D02*
D03*
X3533323D02*
D03*
Y5266660D02*
D03*
X1800033D02*
D03*
X3533323Y5133330D02*
D03*
X1800033D02*
D03*
X3533323Y5000000D02*
D03*
X1800033D02*
D03*
X3533323Y4866670D02*
D03*
X1800033D02*
D03*
X3533323Y4733340D02*
D03*
X1800033D02*
D03*
X3533323Y4600010D02*
D03*
X1800033D02*
D03*
X2066694Y5399990D02*
D03*
X3799983D02*
D03*
Y5266660D02*
D03*
X2066694D02*
D03*
X3799983Y5133330D02*
D03*
X2066694D02*
D03*
X3799983Y5000000D02*
D03*
X2066694D02*
D03*
X3799983Y4866670D02*
D03*
X2066694D02*
D03*
X3799983Y4733340D02*
D03*
X2066694D02*
D03*
X3799983Y4600010D02*
D03*
X2066694D02*
D03*
X4364741Y7142214D02*
D03*
X2200024Y5399990D02*
D03*
X3933313D02*
D03*
Y5266660D02*
D03*
X2200024D02*
D03*
X3933313Y5133330D02*
D03*
X2200024D02*
D03*
X3933313Y5000000D02*
D03*
X2200024D02*
D03*
X3933313Y4866670D02*
D03*
X2200024D02*
D03*
X3933313Y4733340D02*
D03*
X2200024D02*
D03*
X3933313Y4600010D02*
D03*
X2200024D02*
D03*
X2333353Y5399990D02*
D03*
X4066643D02*
D03*
Y5266660D02*
D03*
X2333353D02*
D03*
X4066643Y5133330D02*
D03*
X2333353D02*
D03*
X4066643Y5000000D02*
D03*
X2333353D02*
D03*
X4066643Y4866670D02*
D03*
X2333353D02*
D03*
X4066643Y4733340D02*
D03*
X2333353D02*
D03*
X4066643Y4600010D02*
D03*
X2333353D02*
D03*
X2466683Y5399990D02*
D03*
X4199973D02*
D03*
Y5266660D02*
D03*
X2466683D02*
D03*
X4199973Y5133330D02*
D03*
X2466683D02*
D03*
X4199973Y5000000D02*
D03*
X2466683D02*
D03*
X4199973Y4866670D02*
D03*
X2466683D02*
D03*
X4199973Y4733340D02*
D03*
X2466683D02*
D03*
X4199973Y4600010D02*
D03*
X2466683D02*
D03*
X2600014Y5399990D02*
D03*
X4333303D02*
D03*
Y5266660D02*
D03*
X2600014D02*
D03*
X4333303Y5133330D02*
D03*
X2600014D02*
D03*
X4333303Y5000000D02*
D03*
X2600014D02*
D03*
X4333303Y4866670D02*
D03*
X2600014D02*
D03*
X4333303Y4733340D02*
D03*
X2600014D02*
D03*
X4333303Y4600010D02*
D03*
X2600014D02*
D03*
X2733344Y5399990D02*
D03*
X4466633D02*
D03*
Y5266660D02*
D03*
X2733344D02*
D03*
X4466633Y5133330D02*
D03*
X2733344D02*
D03*
X4466633Y5000000D02*
D03*
X2733344D02*
D03*
X4466633Y4866670D02*
D03*
X2733344D02*
D03*
X4466633Y4733340D02*
D03*
X2733344D02*
D03*
X4466633Y4600010D02*
D03*
X2733344D02*
D03*
X2866673Y5399990D02*
D03*
X4599963D02*
D03*
Y5266660D02*
D03*
X2866673D02*
D03*
X4599963Y5133330D02*
D03*
X2866673D02*
D03*
X4599963Y5000000D02*
D03*
X2866673D02*
D03*
X4599963Y4866670D02*
D03*
X2866673D02*
D03*
X4599963Y4733340D02*
D03*
X2866673D02*
D03*
X4599963Y4600010D02*
D03*
X2866673D02*
D03*
X3000003Y5399990D02*
D03*
Y5266660D02*
D03*
Y5133330D02*
D03*
Y5000000D02*
D03*
Y4866670D02*
D03*
Y4733340D02*
D03*
Y4600010D02*
D03*
X4733293Y5399990D02*
D03*
Y5266660D02*
D03*
Y5133330D02*
D03*
X4733292Y5000000D02*
D03*
Y4866670D02*
D03*
Y4733340D02*
D03*
Y4600010D02*
D03*
X3110793Y7537582D02*
D03*
X5582931Y4569921D02*
D03*
X1933363Y5480705D02*
D03*
X1800033D02*
D03*
X2200024D02*
D03*
X2066694D02*
D03*
X2866673D02*
D03*
X2466683D02*
D03*
X2333353D02*
D03*
X2738083Y5486312D02*
D03*
X2600014Y5480705D02*
D03*
X1666704D02*
D03*
X1533374D02*
D03*
X1400043D02*
D03*
%TF.MD5,586b6602421635a4957b3c2b28befa9e*%
M02*
