%TF.GenerationSoftware,Altium Limited,Altium Designer,25.4.2 (15)*%
G04 Layer_Color=255*
%FSLAX45Y45*%
%MOMM*%
%TF.SameCoordinates,52231E29-AEC0-440B-8235-CA5FF8BA2509*%
%TF.FilePolarity,Positive*%
%TF.FileFunction,Pads,Bot*%
%TF.Part,Single*%
G01*
G75*
%TA.AperFunction,ComponentPad*%
%ADD45C,0.70000*%
%ADD46C,1.20000*%
%ADD47C,0.32500*%
%ADD48O,1.60000X1.10000*%
%ADD49C,0.56000*%
G04:AMPARAMS|DCode=50|XSize=1.5mm|YSize=1.45mm|CornerRadius=0.3625mm|HoleSize=0mm|Usage=FLASHONLY|Rotation=180.000|XOffset=0mm|YOffset=0mm|HoleType=Round|Shape=RoundedRectangle|*
%AMROUNDEDRECTD50*
21,1,1.50000,0.72500,0,0,180.0*
21,1,0.77500,1.45000,0,0,180.0*
1,1,0.72500,-0.38750,0.36250*
1,1,0.72500,0.38750,0.36250*
1,1,0.72500,0.38750,-0.36250*
1,1,0.72500,-0.38750,-0.36250*
%
%ADD50ROUNDEDRECTD50*%
%ADD51O,1.50000X1.45000*%
%TA.AperFunction,WasherPad*%
%ADD52C,6.00000*%
%TA.AperFunction,SMDPad,CuDef*%
G04:AMPARAMS|DCode=55|XSize=0.45mm|YSize=0.25mm|CornerRadius=0.0125mm|HoleSize=0mm|Usage=FLASHONLY|Rotation=0.000|XOffset=0mm|YOffset=0mm|HoleType=Round|Shape=RoundedRectangle|*
%AMROUNDEDRECTD55*
21,1,0.45000,0.22500,0,0,0.0*
21,1,0.42500,0.25000,0,0,0.0*
1,1,0.02500,0.21250,-0.11250*
1,1,0.02500,-0.21250,-0.11250*
1,1,0.02500,-0.21250,0.11250*
1,1,0.02500,0.21250,0.11250*
%
%ADD55ROUNDEDRECTD55*%
G04:AMPARAMS|DCode=56|XSize=0.9mm|YSize=1.7mm|CornerRadius=0.045mm|HoleSize=0mm|Usage=FLASHONLY|Rotation=180.000|XOffset=0mm|YOffset=0mm|HoleType=Round|Shape=RoundedRectangle|*
%AMROUNDEDRECTD56*
21,1,0.90000,1.61000,0,0,180.0*
21,1,0.81000,1.70000,0,0,180.0*
1,1,0.09000,-0.40500,0.80500*
1,1,0.09000,0.40500,0.80500*
1,1,0.09000,0.40500,-0.80500*
1,1,0.09000,-0.40500,-0.80500*
%
%ADD56ROUNDEDRECTD56*%
G04:AMPARAMS|DCode=57|XSize=1.85mm|YSize=0.85mm|CornerRadius=0.0425mm|HoleSize=0mm|Usage=FLASHONLY|Rotation=0.000|XOffset=0mm|YOffset=0mm|HoleType=Round|Shape=RoundedRectangle|*
%AMROUNDEDRECTD57*
21,1,1.85000,0.76500,0,0,0.0*
21,1,1.76500,0.85000,0,0,0.0*
1,1,0.08500,0.88250,-0.38250*
1,1,0.08500,-0.88250,-0.38250*
1,1,0.08500,-0.88250,0.38250*
1,1,0.08500,0.88250,0.38250*
%
%ADD57ROUNDEDRECTD57*%
G04:AMPARAMS|DCode=58|XSize=1.85mm|YSize=0.85mm|CornerRadius=0.0425mm|HoleSize=0mm|Usage=FLASHONLY|Rotation=90.000|XOffset=0mm|YOffset=0mm|HoleType=Round|Shape=RoundedRectangle|*
%AMROUNDEDRECTD58*
21,1,1.85000,0.76500,0,0,90.0*
21,1,1.76500,0.85000,0,0,90.0*
1,1,0.08500,0.38250,0.88250*
1,1,0.08500,0.38250,-0.88250*
1,1,0.08500,-0.38250,-0.88250*
1,1,0.08500,-0.38250,0.88250*
%
%ADD58ROUNDEDRECTD58*%
%ADD59C,0.60000*%
G04:AMPARAMS|DCode=60|XSize=0.5mm|YSize=0.55mm|CornerRadius=0.025mm|HoleSize=0mm|Usage=FLASHONLY|Rotation=90.000|XOffset=0mm|YOffset=0mm|HoleType=Round|Shape=RoundedRectangle|*
%AMROUNDEDRECTD60*
21,1,0.50000,0.50000,0,0,90.0*
21,1,0.45000,0.55000,0,0,90.0*
1,1,0.05000,0.25000,0.22500*
1,1,0.05000,0.25000,-0.22500*
1,1,0.05000,-0.25000,-0.22500*
1,1,0.05000,-0.25000,0.22500*
%
%ADD60ROUNDEDRECTD60*%
G04:AMPARAMS|DCode=61|XSize=0.5mm|YSize=0.55mm|CornerRadius=0.025mm|HoleSize=0mm|Usage=FLASHONLY|Rotation=0.000|XOffset=0mm|YOffset=0mm|HoleType=Round|Shape=RoundedRectangle|*
%AMROUNDEDRECTD61*
21,1,0.50000,0.50000,0,0,0.0*
21,1,0.45000,0.55000,0,0,0.0*
1,1,0.05000,0.22500,-0.25000*
1,1,0.05000,-0.22500,-0.25000*
1,1,0.05000,-0.22500,0.25000*
1,1,0.05000,0.22500,0.25000*
%
%ADD61ROUNDEDRECTD61*%
%ADD62R,2.20000X3.42000*%
%ADD63O,1.20000X0.32500*%
G04:AMPARAMS|DCode=64|XSize=0.85mm|YSize=0.6mm|CornerRadius=0.03mm|HoleSize=0mm|Usage=FLASHONLY|Rotation=0.000|XOffset=0mm|YOffset=0mm|HoleType=Round|Shape=RoundedRectangle|*
%AMROUNDEDRECTD64*
21,1,0.85000,0.54000,0,0,0.0*
21,1,0.79000,0.60000,0,0,0.0*
1,1,0.06000,0.39500,-0.27000*
1,1,0.06000,-0.39500,-0.27000*
1,1,0.06000,-0.39500,0.27000*
1,1,0.06000,0.39500,0.27000*
%
%ADD64ROUNDEDRECTD64*%
G04:AMPARAMS|DCode=65|XSize=0.85mm|YSize=0.6mm|CornerRadius=0.03mm|HoleSize=0mm|Usage=FLASHONLY|Rotation=90.000|XOffset=0mm|YOffset=0mm|HoleType=Round|Shape=RoundedRectangle|*
%AMROUNDEDRECTD65*
21,1,0.85000,0.54000,0,0,90.0*
21,1,0.79000,0.60000,0,0,90.0*
1,1,0.06000,0.27000,0.39500*
1,1,0.06000,0.27000,-0.39500*
1,1,0.06000,-0.27000,-0.39500*
1,1,0.06000,-0.27000,0.39500*
%
%ADD65ROUNDEDRECTD65*%
G04:AMPARAMS|DCode=66|XSize=1.65mm|YSize=0.95mm|CornerRadius=0.0475mm|HoleSize=0mm|Usage=FLASHONLY|Rotation=270.000|XOffset=0mm|YOffset=0mm|HoleType=Round|Shape=RoundedRectangle|*
%AMROUNDEDRECTD66*
21,1,1.65000,0.85500,0,0,270.0*
21,1,1.55500,0.95000,0,0,270.0*
1,1,0.09500,-0.42750,-0.77750*
1,1,0.09500,-0.42750,0.77750*
1,1,0.09500,0.42750,0.77750*
1,1,0.09500,0.42750,-0.77750*
%
%ADD66ROUNDEDRECTD66*%
%ADD67C,1.50000*%
G04:AMPARAMS|DCode=68|XSize=1.65mm|YSize=0.95mm|CornerRadius=0.0475mm|HoleSize=0mm|Usage=FLASHONLY|Rotation=0.000|XOffset=0mm|YOffset=0mm|HoleType=Round|Shape=RoundedRectangle|*
%AMROUNDEDRECTD68*
21,1,1.65000,0.85500,0,0,0.0*
21,1,1.55500,0.95000,0,0,0.0*
1,1,0.09500,0.77750,-0.42750*
1,1,0.09500,-0.77750,-0.42750*
1,1,0.09500,-0.77750,0.42750*
1,1,0.09500,0.77750,0.42750*
%
%ADD68ROUNDEDRECTD68*%
G04:AMPARAMS|DCode=69|XSize=0.35mm|YSize=0.85mm|CornerRadius=0.0175mm|HoleSize=0mm|Usage=FLASHONLY|Rotation=180.000|XOffset=0mm|YOffset=0mm|HoleType=Round|Shape=RoundedRectangle|*
%AMROUNDEDRECTD69*
21,1,0.35000,0.81500,0,0,180.0*
21,1,0.31500,0.85000,0,0,180.0*
1,1,0.03500,-0.15750,0.40750*
1,1,0.03500,0.15750,0.40750*
1,1,0.03500,0.15750,-0.40750*
1,1,0.03500,-0.15750,-0.40750*
%
%ADD69ROUNDEDRECTD69*%
G04:AMPARAMS|DCode=70|XSize=0.25mm|YSize=0.85mm|CornerRadius=0.0125mm|HoleSize=0mm|Usage=FLASHONLY|Rotation=180.000|XOffset=0mm|YOffset=0mm|HoleType=Round|Shape=RoundedRectangle|*
%AMROUNDEDRECTD70*
21,1,0.25000,0.82500,0,0,180.0*
21,1,0.22500,0.85000,0,0,180.0*
1,1,0.02500,-0.11250,0.41250*
1,1,0.02500,0.11250,0.41250*
1,1,0.02500,0.11250,-0.41250*
1,1,0.02500,-0.11250,-0.41250*
%
%ADD70ROUNDEDRECTD70*%
G04:AMPARAMS|DCode=71|XSize=0.24mm|YSize=0.85mm|CornerRadius=0.012mm|HoleSize=0mm|Usage=FLASHONLY|Rotation=180.000|XOffset=0mm|YOffset=0mm|HoleType=Round|Shape=RoundedRectangle|*
%AMROUNDEDRECTD71*
21,1,0.24000,0.82600,0,0,180.0*
21,1,0.21600,0.85000,0,0,180.0*
1,1,0.02400,-0.10800,0.41300*
1,1,0.02400,0.10800,0.41300*
1,1,0.02400,0.10800,-0.41300*
1,1,0.02400,-0.10800,-0.41300*
%
%ADD71ROUNDEDRECTD71*%
%TA.AperFunction,BGAPad,CuDef*%
%ADD72R,0.90000X0.90000*%
%TA.AperFunction,SMDPad,CuDef*%
G04:AMPARAMS|DCode=73|XSize=0.9mm|YSize=1.5mm|CornerRadius=0.225mm|HoleSize=0mm|Usage=FLASHONLY|Rotation=270.000|XOffset=0mm|YOffset=0mm|HoleType=Round|Shape=RoundedRectangle|*
%AMROUNDEDRECTD73*
21,1,0.90000,1.05000,0,0,270.0*
21,1,0.45000,1.50000,0,0,270.0*
1,1,0.45000,-0.52500,-0.22500*
1,1,0.45000,-0.52500,0.22500*
1,1,0.45000,0.52500,0.22500*
1,1,0.45000,0.52500,-0.22500*
%
%ADD73ROUNDEDRECTD73*%
G04:AMPARAMS|DCode=74|XSize=1.5mm|YSize=0.9mm|CornerRadius=0.225mm|HoleSize=0mm|Usage=FLASHONLY|Rotation=270.000|XOffset=0mm|YOffset=0mm|HoleType=Round|Shape=RoundedRectangle|*
%AMROUNDEDRECTD74*
21,1,1.50000,0.45000,0,0,270.0*
21,1,1.05000,0.90000,0,0,270.0*
1,1,0.45000,-0.22500,-0.52500*
1,1,0.45000,-0.22500,0.52500*
1,1,0.45000,0.22500,0.52500*
1,1,0.45000,0.22500,-0.52500*
%
%ADD74ROUNDEDRECTD74*%
G04:AMPARAMS|DCode=75|XSize=1mm|YSize=2.15mm|CornerRadius=0.05mm|HoleSize=0mm|Usage=FLASHONLY|Rotation=270.000|XOffset=0mm|YOffset=0mm|HoleType=Round|Shape=RoundedRectangle|*
%AMROUNDEDRECTD75*
21,1,1.00000,2.05000,0,0,270.0*
21,1,0.90000,2.15000,0,0,270.0*
1,1,0.10000,-1.02500,-0.45000*
1,1,0.10000,-1.02500,0.45000*
1,1,0.10000,1.02500,0.45000*
1,1,0.10000,1.02500,-0.45000*
%
%ADD75ROUNDEDRECTD75*%
G04:AMPARAMS|DCode=76|XSize=3.25mm|YSize=2.15mm|CornerRadius=0.1075mm|HoleSize=0mm|Usage=FLASHONLY|Rotation=270.000|XOffset=0mm|YOffset=0mm|HoleType=Round|Shape=RoundedRectangle|*
%AMROUNDEDRECTD76*
21,1,3.25000,1.93500,0,0,270.0*
21,1,3.03500,2.15000,0,0,270.0*
1,1,0.21500,-0.96750,-1.51750*
1,1,0.21500,-0.96750,1.51750*
1,1,0.21500,0.96750,1.51750*
1,1,0.21500,0.96750,-1.51750*
%
%ADD76ROUNDEDRECTD76*%
D45*
X955700Y5826200D02*
D03*
Y5736200D02*
D03*
Y5304160D02*
D03*
Y5394159D02*
D03*
Y4953697D02*
D03*
Y4863697D02*
D03*
Y4435410D02*
D03*
Y4525410D02*
D03*
X5131780Y4320331D02*
D03*
Y4410331D02*
D03*
Y4838617D02*
D03*
Y4748618D02*
D03*
Y5189080D02*
D03*
Y5279080D02*
D03*
Y5711120D02*
D03*
Y5621121D02*
D03*
D46*
X3000000Y1322760D02*
D03*
Y1068760D02*
D03*
D47*
X2625000Y3572200D02*
D03*
X3375000D02*
D03*
D48*
X2760000Y3359700D02*
D03*
X3240000D02*
D03*
X2760000Y3784700D02*
D03*
X3240000Y3787200D02*
D03*
D49*
X1451080Y1945480D02*
D03*
X1591080D02*
D03*
Y2225480D02*
D03*
X1451080D02*
D03*
X1661080Y2295480D02*
D03*
X1521080D02*
D03*
X1381080D02*
D03*
X1731080Y1945480D02*
D03*
Y2085480D02*
D03*
Y2225480D02*
D03*
X1381080Y1875480D02*
D03*
X1661080D02*
D03*
X1521080D02*
D03*
X1311080Y1945480D02*
D03*
Y2225480D02*
D03*
Y2085480D02*
D03*
X1661080Y2015480D02*
D03*
Y2155480D02*
D03*
X1521080Y2015480D02*
D03*
Y2155480D02*
D03*
X1381080Y2015480D02*
D03*
Y2155480D02*
D03*
X1591080Y2085480D02*
D03*
X1451080D02*
D03*
D50*
X1494600Y163496D02*
D03*
D51*
Y417496D02*
D03*
X1748600D02*
D03*
X1240600Y163496D02*
D03*
X1748600D02*
D03*
X1240600Y417496D02*
D03*
D52*
X500000Y500000D02*
D03*
X5500000D02*
D03*
Y7500000D02*
D03*
X500000D02*
D03*
D55*
X863200Y5756200D02*
D03*
Y5706200D02*
D03*
Y5806200D02*
D03*
Y5856200D02*
D03*
X1048200Y5756200D02*
D03*
Y5706200D02*
D03*
Y5806200D02*
D03*
Y5856200D02*
D03*
Y5424160D02*
D03*
Y5374159D02*
D03*
Y5274159D02*
D03*
Y5324160D02*
D03*
X863200Y5424160D02*
D03*
Y5374159D02*
D03*
Y5274159D02*
D03*
Y5324160D02*
D03*
Y4883697D02*
D03*
Y4833697D02*
D03*
Y4933697D02*
D03*
Y4983697D02*
D03*
X1048200Y4883697D02*
D03*
Y4833697D02*
D03*
Y4933697D02*
D03*
Y4983697D02*
D03*
Y4555410D02*
D03*
Y4505410D02*
D03*
Y4405410D02*
D03*
Y4455410D02*
D03*
X863200Y4555410D02*
D03*
Y4505410D02*
D03*
Y4405410D02*
D03*
Y4455410D02*
D03*
X5224280Y4390331D02*
D03*
Y4440331D02*
D03*
Y4340331D02*
D03*
Y4290331D02*
D03*
X5039280Y4390331D02*
D03*
Y4440331D02*
D03*
Y4340331D02*
D03*
Y4290331D02*
D03*
Y4718617D02*
D03*
Y4768618D02*
D03*
Y4868618D02*
D03*
Y4818617D02*
D03*
X5224280Y4718617D02*
D03*
Y4768618D02*
D03*
Y4868618D02*
D03*
Y4818617D02*
D03*
Y5259080D02*
D03*
Y5309080D02*
D03*
Y5209080D02*
D03*
Y5159080D02*
D03*
X5039280Y5259080D02*
D03*
Y5309080D02*
D03*
Y5209080D02*
D03*
Y5159080D02*
D03*
Y5591120D02*
D03*
Y5641121D02*
D03*
Y5741121D02*
D03*
Y5691120D02*
D03*
X5224280Y5591120D02*
D03*
Y5641121D02*
D03*
Y5741121D02*
D03*
Y5691120D02*
D03*
D56*
X955700Y5781200D02*
D03*
Y5349159D02*
D03*
Y4908697D02*
D03*
Y4480410D02*
D03*
X5131780Y4365331D02*
D03*
Y4793618D02*
D03*
Y5234080D02*
D03*
Y5666120D02*
D03*
D57*
X2580003Y5608960D02*
D03*
X3420003D02*
D03*
X2580003Y6058960D02*
D03*
X3420003D02*
D03*
X3420000Y7559000D02*
D03*
X2580000D02*
D03*
X3420000Y7109000D02*
D03*
X2580000D02*
D03*
X4170000Y6809040D02*
D03*
X3330000D02*
D03*
X4170000Y6359040D02*
D03*
X3330000D02*
D03*
X2670000Y6809040D02*
D03*
X1830000D02*
D03*
X2670000Y6359040D02*
D03*
X1830000D02*
D03*
D58*
X5838720Y1217184D02*
D03*
Y2057184D02*
D03*
X5388720Y1217184D02*
D03*
Y2057184D02*
D03*
X4840342Y3504696D02*
D03*
Y4344695D02*
D03*
X4390342Y3504696D02*
D03*
Y4344695D02*
D03*
D59*
X612140Y5468620D02*
D03*
X4828567Y1971216D02*
D03*
X5097500Y1967437D02*
D03*
X695211Y4184930D02*
D03*
X5383110Y4573873D02*
D03*
X659703Y5631780D02*
D03*
X1009466Y6221262D02*
D03*
X3938202Y1967437D02*
D03*
X3197160Y1912982D02*
D03*
X3062934D02*
D03*
X5364570Y5056739D02*
D03*
X5387030Y5839565D02*
D03*
X2358745Y758754D02*
D03*
X2294722Y607765D02*
D03*
X2230699Y456775D02*
D03*
X2166676Y305785D02*
D03*
X3599838Y1912982D02*
D03*
X4683323Y1967437D02*
D03*
X4534299D02*
D03*
X4385274D02*
D03*
X4236250D02*
D03*
X4087226D02*
D03*
X4928294Y4093303D02*
D03*
X5118070Y4040393D02*
D03*
X5372755Y4952245D02*
D03*
X5379784Y5387430D02*
D03*
X4819993Y6024776D02*
D03*
X1162910Y4309703D02*
D03*
X624502Y4692364D02*
D03*
X606658Y5176588D02*
D03*
X1193490Y6134036D02*
D03*
X3019856Y564450D02*
D03*
X3093658Y641959D02*
D03*
X3465612Y1912982D02*
D03*
X3331386D02*
D03*
D60*
X4755160Y486271D02*
D03*
Y586271D02*
D03*
X3348700Y611270D02*
D03*
Y711270D02*
D03*
X1153219Y3033080D02*
D03*
Y3133080D02*
D03*
X4681269Y769432D02*
D03*
Y669432D02*
D03*
X4780585Y792618D02*
D03*
Y892618D02*
D03*
X4690680Y1062435D02*
D03*
Y962435D02*
D03*
X4487479Y1265985D02*
D03*
X4487479Y1165985D02*
D03*
X3272500Y951578D02*
D03*
X3462400Y520871D02*
D03*
X3430960Y794432D02*
D03*
X3377620Y1041714D02*
D03*
X3381743Y1234498D02*
D03*
X4540743Y520909D02*
D03*
X4540743Y420909D02*
D03*
X3118367Y3121045D02*
D03*
X3272500Y851578D02*
D03*
X3462400Y620871D02*
D03*
X3381743Y1334498D02*
D03*
X3377620Y1141715D02*
D03*
X3430960Y894432D02*
D03*
X3118367Y3221045D02*
D03*
D61*
X1702055Y863309D02*
D03*
X1602055D02*
D03*
X2595272Y892304D02*
D03*
X2695272D02*
D03*
X4733053Y1157298D02*
D03*
X4633053D02*
D03*
X3667844Y462320D02*
D03*
X3523518Y1245939D02*
D03*
X4436008Y487719D02*
D03*
X4082500Y1465000D02*
D03*
X4336009Y487719D02*
D03*
X2789443Y3221041D02*
D03*
X3767844Y462320D02*
D03*
X3623518Y1245939D02*
D03*
X3982500Y1465000D02*
D03*
X2889443Y3221041D02*
D03*
D62*
X4045000Y947500D02*
D03*
D63*
X3750000Y590000D02*
D03*
Y655000D02*
D03*
Y720000D02*
D03*
Y785000D02*
D03*
Y850000D02*
D03*
Y915000D02*
D03*
Y980000D02*
D03*
Y1045000D02*
D03*
Y1110000D02*
D03*
Y1175000D02*
D03*
Y1240000D02*
D03*
Y1305000D02*
D03*
X4340000Y590000D02*
D03*
Y655000D02*
D03*
Y720000D02*
D03*
Y785000D02*
D03*
Y850000D02*
D03*
Y915000D02*
D03*
Y980000D02*
D03*
Y1045000D02*
D03*
Y1110000D02*
D03*
Y1175000D02*
D03*
Y1240000D02*
D03*
Y1305000D02*
D03*
D64*
X1274436Y3021780D02*
D03*
Y3166780D02*
D03*
X3750000Y1422500D02*
D03*
Y1567500D02*
D03*
D65*
X2717772Y782858D02*
D03*
X2572772D02*
D03*
D66*
X1107100Y4023800D02*
D03*
X1387100D02*
D03*
X876078Y3035000D02*
D03*
X596078D02*
D03*
D67*
X4797588Y2648331D02*
D03*
X1102827Y7850202D02*
D03*
X5699760Y3576320D02*
D03*
X858520Y4203700D02*
D03*
X220183Y6803682D02*
D03*
X5771932Y6815215D02*
D03*
X4895026Y7818601D02*
D03*
X4560470Y5948397D02*
D03*
X1483656Y6005976D02*
D03*
X215900Y3147060D02*
D03*
X5311140Y2372360D02*
D03*
X4371340Y236220D02*
D03*
X2806700Y599440D02*
D03*
D68*
X1127600Y3845100D02*
D03*
Y3565100D02*
D03*
D69*
X3275000Y3662200D02*
D03*
X2725000D02*
D03*
Y3482200D02*
D03*
X3275000D02*
D03*
D70*
X3125000Y3662200D02*
D03*
X2875001D02*
D03*
Y3482200D02*
D03*
X3125000D02*
D03*
D71*
X3075000Y3662200D02*
D03*
X3025000D02*
D03*
X2975000D02*
D03*
X2925000D02*
D03*
Y3482200D02*
D03*
X2975000D02*
D03*
X3025000D02*
D03*
X3075000D02*
D03*
D72*
X1381080Y2225480D02*
D03*
Y2085480D02*
D03*
Y1945480D02*
D03*
X1521080Y2085480D02*
D03*
Y2225480D02*
D03*
Y1945480D02*
D03*
X1661080Y2225480D02*
D03*
Y2085480D02*
D03*
Y1945480D02*
D03*
D73*
X2525080Y1236980D02*
D03*
Y1363980D02*
D03*
Y1490980D02*
D03*
Y1617980D02*
D03*
Y1744980D02*
D03*
Y1871980D02*
D03*
Y1998980D02*
D03*
Y2125980D02*
D03*
Y2252980D02*
D03*
Y2379980D02*
D03*
Y2506980D02*
D03*
Y2633980D02*
D03*
D74*
X749080Y1060480D02*
D03*
X876080D02*
D03*
X1003080D02*
D03*
X1130080D02*
D03*
X1257080D02*
D03*
X1384080D02*
D03*
X1511080D02*
D03*
X1638080D02*
D03*
X1765080D02*
D03*
X1892080D02*
D03*
X2019080D02*
D03*
X2146080D02*
D03*
X2273080D02*
D03*
X2400080D02*
D03*
Y2810480D02*
D03*
X2273080D02*
D03*
X2146080D02*
D03*
X2019080D02*
D03*
X1892080D02*
D03*
X1765080D02*
D03*
X1638080D02*
D03*
X1511080D02*
D03*
X1384080D02*
D03*
X1257080D02*
D03*
X1130080D02*
D03*
X1003080D02*
D03*
X876080D02*
D03*
X749080D02*
D03*
D75*
X1387101Y3565100D02*
D03*
X1387100Y3335100D02*
D03*
Y3795100D02*
D03*
D76*
X1972100Y3565100D02*
D03*
%TF.MD5,b5d87fd98a199734a30c519f6b6f5262*%
M02*
