%TF.GenerationSoftware,Altium Limited,Altium Designer,25.4.2 (15)*%
G04 Layer_Color=0*
%FSLAX45Y45*%
%MOMM*%
%TF.SameCoordinates,88735674-A620-4C43-A40F-CE2730E2E2F5*%
%TF.FilePolarity,Positive*%
%TF.FileFunction,Plated,1,4,PTH,Drill*%
%TF.Part,Single*%
G01*
G75*
%TA.AperFunction,ComponentDrill*%
%ADD160O,1.00000X0.50000*%
%ADD161C,0.40000*%
%TA.AperFunction,OtherDrill,Pad Free-4 (43.52mm,2.172mm)*%
%ADD162C,0.90000*%
%TA.AperFunction,OtherDrill,Pad Free-3 (28.708mm,4.932mm)*%
%ADD163C,0.90000*%
%TA.AperFunction,OtherDrill,Pad Free-5 (52.046mm,25.814mm)*%
%ADD164C,0.90000*%
%TA.AperFunction,OtherDrill,Pad Free-5 (59.083mm,33.643mm)*%
%ADD165C,0.90000*%
%TA.AperFunction,OtherDrill,Pad Free-10 (58.919mm,65.015mm)*%
%ADD166C,0.90000*%
%TA.AperFunction,OtherDrill,Pad Free-9 (49.834mm,77.997mm)*%
%ADD167C,0.90000*%
%TA.AperFunction,OtherDrill,Pad Free-11 (9.155mm,79.071mm)*%
%ADD168C,0.90000*%
%TA.AperFunction,OtherDrill,Pad Free-11 (1.045mm,61.032mm)*%
%ADD169C,0.90000*%
%TA.AperFunction,OtherDrill,Pad Free-6 (0.994mm,36.57mm)*%
%ADD170C,0.90000*%
%TA.AperFunction,ComponentDrill*%
%ADD171C,0.80000*%
%ADD172C,0.30000*%
%ADD173C,0.95000*%
%TA.AperFunction,ViaDrill,NotFilled*%
%ADD174C,0.30000*%
%ADD175C,0.90000*%
D160*
X3240000Y3787200D02*
D03*
X2760000Y3784700D02*
D03*
X3240000Y3359700D02*
D03*
X2760000D02*
D03*
D161*
X955700Y5736200D02*
D03*
Y5826200D02*
D03*
Y5394159D02*
D03*
Y5304160D02*
D03*
Y4863697D02*
D03*
Y4953697D02*
D03*
Y4525410D02*
D03*
Y4435410D02*
D03*
X5131780Y4410331D02*
D03*
Y4320331D02*
D03*
Y4748618D02*
D03*
Y4838617D02*
D03*
Y5279080D02*
D03*
Y5189080D02*
D03*
Y5621121D02*
D03*
Y5711120D02*
D03*
D162*
X4352019Y217157D02*
D03*
D163*
X2870780Y493192D02*
D03*
D164*
X5204597Y2581446D02*
D03*
D165*
X5908320Y3364327D02*
D03*
D166*
X5891942Y6501548D02*
D03*
D167*
X4983435Y7799728D02*
D03*
D168*
X915525Y7907090D02*
D03*
D169*
X104489Y6103195D02*
D03*
D170*
X99392Y3656967D02*
D03*
D171*
X3000000Y1322760D02*
D03*
Y1068760D02*
D03*
D172*
X1451080Y1945480D02*
D03*
X1591080D02*
D03*
Y2225480D02*
D03*
X1451080D02*
D03*
X1661080Y2295480D02*
D03*
X1521080D02*
D03*
X1381080D02*
D03*
X1731080Y1945480D02*
D03*
Y2085480D02*
D03*
Y2225480D02*
D03*
X1381080Y1875480D02*
D03*
X1661080D02*
D03*
X1521080D02*
D03*
X1311080Y1945480D02*
D03*
Y2225480D02*
D03*
Y2085480D02*
D03*
X1661080Y2015480D02*
D03*
Y2155480D02*
D03*
X1521080Y2015480D02*
D03*
Y2155480D02*
D03*
X1381080Y2015480D02*
D03*
Y2155480D02*
D03*
X1591080Y2085480D02*
D03*
X1451080D02*
D03*
D173*
X1520000Y163496D02*
D03*
Y417496D02*
D03*
X1774000D02*
D03*
X1266000Y163496D02*
D03*
X1774000D02*
D03*
X1266000Y417496D02*
D03*
D174*
X3726366Y2754922D02*
D03*
X3829600Y2793237D02*
D03*
X3954641Y2763749D02*
D03*
X4026988Y2905847D02*
D03*
X4257159Y2610534D02*
D03*
X862500Y1370000D02*
D03*
X1307500Y5937500D02*
D03*
X125000Y6600000D02*
D03*
X2582500Y7467500D02*
D03*
X3502500Y6540000D02*
D03*
X2607750Y6543123D02*
D03*
X2055000Y7435000D02*
D03*
X2112500Y7330000D02*
D03*
X2218752Y7069346D02*
D03*
X2274502Y6813492D02*
D03*
X2580000Y3240000D02*
D03*
X892500Y7095000D02*
D03*
X1038087Y6518787D02*
D03*
X1062500Y6687500D02*
D03*
X1368051Y6592874D02*
D03*
X1351664Y6838925D02*
D03*
X1440480Y6697002D02*
D03*
X1176970Y6796033D02*
D03*
X4877291Y7317534D02*
D03*
X4657500Y7380000D02*
D03*
X1079589Y6911996D02*
D03*
X1307500Y6518787D02*
D03*
X305000Y6842500D02*
D03*
X306925Y6981547D02*
D03*
X4084592Y7336700D02*
D03*
X3755196Y7503958D02*
D03*
X3719376Y7415029D02*
D03*
X3368450Y7466171D02*
D03*
X4381767Y7033436D02*
D03*
X4475000Y7082500D02*
D03*
X5017500Y6947500D02*
D03*
X5120513Y7940789D02*
D03*
X3420000Y7005329D02*
D03*
X4945988Y5990000D02*
D03*
X5773883Y6174079D02*
D03*
X958514Y756791D02*
D03*
X5004291Y4122295D02*
D03*
X5039280Y4233170D02*
D03*
X611587Y4621850D02*
D03*
X612334Y5052252D02*
D03*
X611448Y5385013D02*
D03*
X1121984Y6088328D02*
D03*
X5402474Y5645198D02*
D03*
X5170281Y3940383D02*
D03*
X5501473Y4654525D02*
D03*
X5502797Y5210017D02*
D03*
X5044360Y5101920D02*
D03*
X3984796Y7743327D02*
D03*
X2199050Y7755243D02*
D03*
X3197526Y7943488D02*
D03*
X1640925Y7900303D02*
D03*
X4297171Y7644613D02*
D03*
X2033588Y7779660D02*
D03*
X1797364Y7708117D02*
D03*
X4282736Y7834166D02*
D03*
X1732925Y7570071D02*
D03*
X1533374Y5399990D02*
D03*
X4733292Y5399989D02*
D03*
X2741217Y7109000D02*
D03*
X4007460Y6809040D02*
D03*
X3492540D02*
D03*
X1048200Y5913360D02*
D03*
X567565Y6358584D02*
D03*
X469095Y6171519D02*
D03*
X622974Y6018262D02*
D03*
X3332080Y6461760D02*
D03*
X2938828Y6487160D02*
D03*
X3630383Y6400639D02*
D03*
X3315723Y6637432D02*
D03*
X3447200Y6450041D02*
D03*
X795020Y5364240D02*
D03*
Y5282339D02*
D03*
Y4923777D02*
D03*
Y4841877D02*
D03*
Y4495490D02*
D03*
Y4413590D02*
D03*
X5295000Y4350250D02*
D03*
Y4432151D02*
D03*
Y4778537D02*
D03*
Y4860438D02*
D03*
Y5219000D02*
D03*
Y5300900D02*
D03*
X2670000Y6921500D02*
D03*
X1830000D02*
D03*
X1829803Y6453536D02*
D03*
X5295000Y5732941D02*
D03*
Y5651040D02*
D03*
X4819993Y4532509D02*
D03*
X5039280Y4661457D02*
D03*
Y5533960D02*
D03*
X795020Y5714379D02*
D03*
X435285Y5572557D02*
D03*
X795020Y5796280D02*
D03*
X1048200Y4612570D02*
D03*
Y5040857D02*
D03*
Y5481320D02*
D03*
X4272280Y2974340D02*
D03*
X1680971Y3973000D02*
D03*
X1005608Y3817735D02*
D03*
Y3970777D02*
D03*
X4873625Y3263458D02*
D03*
X3057871Y3027966D02*
D03*
X1005608Y4047298D02*
D03*
X3199339Y7539729D02*
D03*
X1787667Y6709462D02*
D03*
X3688165Y6303664D02*
D03*
X3792593Y6191009D02*
D03*
X3579928Y6269502D02*
D03*
X3721945Y6230487D02*
D03*
X3800596Y6110848D02*
D03*
X4614277Y418293D02*
D03*
X3224841Y611270D02*
D03*
X3356623Y1405658D02*
D03*
X2500080Y954808D02*
D03*
X3052628Y2944649D02*
D03*
X2098040Y3111500D02*
D03*
X2865120Y1772206D02*
D03*
Y1690317D02*
D03*
Y1608429D02*
D03*
Y1526540D02*
D03*
X2700942Y1068760D02*
D03*
X3172841Y2082387D02*
D03*
X5161560Y1722731D02*
D03*
X4463885Y1662828D02*
D03*
X4055339Y2073714D02*
D03*
X4551631Y1725982D02*
D03*
X4700587D02*
D03*
X4849543D02*
D03*
X4893506Y1831492D02*
D03*
X3545933Y2071942D02*
D03*
X3426549Y2073430D02*
D03*
X3299695Y2077908D02*
D03*
X2941143Y2936103D02*
D03*
X5783433Y5966173D02*
D03*
X5730240Y5709920D02*
D03*
X3516255Y771510D02*
D03*
X3542576Y1126095D02*
D03*
X3479803Y971167D02*
D03*
X4646391Y1220632D02*
D03*
X4558324Y902421D02*
D03*
X4511385Y732927D02*
D03*
X4444930Y582681D02*
D03*
X3990000Y837500D02*
D03*
X4100000D02*
D03*
X3990000Y947500D02*
D03*
X4100000D02*
D03*
X3990000Y1057500D02*
D03*
X4100000D02*
D03*
X4224117Y1202831D02*
D03*
X1275774Y3242683D02*
D03*
X2717795Y648421D02*
D03*
X5388720Y1054100D02*
D03*
X2877289Y1152540D02*
D03*
X3606730Y1319647D02*
D03*
X2608766Y676235D02*
D03*
X1264920Y1234440D02*
D03*
X4164173Y6278735D02*
D03*
X3533753Y5481029D02*
D03*
X4313557Y6496387D02*
D03*
X5742973Y1204025D02*
D03*
X2940307Y1207960D02*
D03*
X4136700Y2943739D02*
D03*
X753745Y3835832D02*
D03*
X1087643Y3755804D02*
D03*
X1005608Y3894256D02*
D03*
X939593Y3436406D02*
D03*
X3353080Y2853401D02*
D03*
X716535Y6440759D02*
D03*
X879645Y6671553D02*
D03*
X1273515Y7075873D02*
D03*
X1499961Y7244967D02*
D03*
X1742841Y7389466D02*
D03*
X1999495Y7507785D02*
D03*
X2267111Y7598629D02*
D03*
X365102Y5896938D02*
D03*
X327942Y5387430D02*
D03*
X305781Y5176588D02*
D03*
Y4823411D02*
D03*
X492215Y3999495D02*
D03*
X755033Y3499960D02*
D03*
X5120356Y3328446D02*
D03*
X5421556Y3805821D02*
D03*
X5672059Y4612570D02*
D03*
X5694219Y5176588D02*
D03*
X5672059Y5387430D02*
D03*
X5507786Y6000505D02*
D03*
X5244968Y6500039D02*
D03*
X5075873Y6726485D02*
D03*
X4440759Y7283465D02*
D03*
X3934516Y7533116D02*
D03*
X3664614Y7616923D02*
D03*
X2542756Y7661001D02*
D03*
X2823412Y7694219D02*
D03*
X3387430Y7672058D02*
D03*
X3289039Y1030022D02*
D03*
X3141077Y518104D02*
D03*
X3145068Y765504D02*
D03*
X3636308Y600652D02*
D03*
X2743260Y6462940D02*
D03*
X3876068Y6082598D02*
D03*
X4008900Y5997000D02*
D03*
X4142077Y5911999D02*
D03*
X4275254Y5826999D02*
D03*
X4408354Y5741921D02*
D03*
X4542100Y5658973D02*
D03*
X1858576Y2991638D02*
D03*
X4699597Y6274216D02*
D03*
X3307522Y2390510D02*
D03*
X3176548Y2276557D02*
D03*
X3057180Y2081338D02*
D03*
X3000000Y3800415D02*
D03*
X1612900Y6068060D02*
D03*
X4709854Y5660942D02*
D03*
X824135Y4078767D02*
D03*
X4265940Y4496752D02*
D03*
X2260600Y2132773D02*
D03*
X2878925Y7541208D02*
D03*
X2520504Y6490285D02*
D03*
X1222997Y5293325D02*
D03*
Y5159995D02*
D03*
X1222996Y5026665D02*
D03*
X1222997Y4893335D02*
D03*
X1222996Y4760005D02*
D03*
X1222997Y4626675D02*
D03*
X1211143Y2694508D02*
D03*
X2877289Y1262723D02*
D03*
X4215997Y392218D02*
D03*
X4162775Y491973D02*
D03*
X3855260Y1041702D02*
D03*
X4585000Y2542500D02*
D03*
X3359032Y2773291D02*
D03*
X4084827Y2848329D02*
D03*
X3882131Y2723499D02*
D03*
X4389115Y3639126D02*
D03*
X4006433Y2615145D02*
D03*
X3673851Y2071942D02*
D03*
X3423062Y2434662D02*
D03*
X3674331Y2662230D02*
D03*
X3492329Y2743096D02*
D03*
X3599838Y2694982D02*
D03*
X3545144Y2609390D02*
D03*
X3439342Y2659296D02*
D03*
X3307400Y2711754D02*
D03*
X3241978Y2834251D02*
D03*
X3154289Y2900121D02*
D03*
X3161267Y2980441D02*
D03*
X1574438Y2917230D02*
D03*
X2016024Y2937517D02*
D03*
X2005230Y3091925D02*
D03*
X2827401Y2275923D02*
D03*
X2405297Y2223347D02*
D03*
X3671868Y2370264D02*
D03*
X3903093Y2514780D02*
D03*
X3184415Y7729695D02*
D03*
X3108253Y7699999D02*
D03*
X430462Y5105320D02*
D03*
X5589019Y5278170D02*
D03*
X823849Y6786093D02*
D03*
X3645980Y1097062D02*
D03*
X3248936Y2914304D02*
D03*
X994874Y3035000D02*
D03*
X5157772Y3512931D02*
D03*
X4766872Y5473673D02*
D03*
X4871577Y5445997D02*
D03*
X4864806Y5132516D02*
D03*
X4865188Y4999567D02*
D03*
X4865042Y4866137D02*
D03*
X4864823Y4732537D02*
D03*
X4866253Y4599523D02*
D03*
X4432300Y2857500D02*
D03*
X4688217Y2857798D02*
D03*
X5540609Y3802686D02*
D03*
X5728967Y4015087D02*
D03*
X5623653Y4326893D02*
D03*
X5542617Y4862390D02*
D03*
X4957498Y6752313D02*
D03*
X393789Y5269863D02*
D03*
X403754Y4303525D02*
D03*
X1053799Y3466748D02*
D03*
X4691306Y2978637D02*
D03*
X4708277Y7248682D02*
D03*
X2445442Y2926797D02*
D03*
X5387030Y6011438D02*
D03*
X448417Y4692364D02*
D03*
X749080Y1178330D02*
D03*
Y942630D02*
D03*
X3777955Y2692182D02*
D03*
X4189061Y2728530D02*
D03*
X4236065Y1305000D02*
D03*
X2891535Y2999070D02*
D03*
X2840662Y2936322D02*
D03*
X2790098Y2998867D02*
D03*
X2739794Y2936216D02*
D03*
X2683150Y2993210D02*
D03*
X2632488Y2930592D02*
D03*
X2581968Y2997323D02*
D03*
X1500139Y3222620D02*
D03*
X1550659Y3155888D02*
D03*
X1601321Y3218506D02*
D03*
X1657965Y3161513D02*
D03*
X1708269Y3224163D02*
D03*
X1758834Y3161619D02*
D03*
X1809707Y3224367D02*
D03*
X1861628Y3163163D02*
D03*
X3658717Y2198934D02*
D03*
X682820Y3036191D02*
D03*
X5540000Y5129074D02*
D03*
X5304791Y6040853D02*
D03*
X5252720Y6418580D02*
D03*
X5841670Y6981905D02*
D03*
X4953247Y7008995D02*
D03*
X4988401Y7665632D02*
D03*
X1264159Y7172888D02*
D03*
X1766437Y2581397D02*
D03*
X1403977Y2688744D02*
D03*
X1066405Y2917132D02*
D03*
X905219Y3343584D02*
D03*
X661891Y3536917D02*
D03*
X551180Y3761740D02*
D03*
X251532Y4150605D02*
D03*
X726440Y6131560D02*
D03*
X931822Y6359519D02*
D03*
X1342383Y4492298D02*
D03*
X1257616Y5443567D02*
D03*
X4406273Y7199304D02*
D03*
X4232984Y7346673D02*
D03*
X4017991Y7539420D02*
D03*
X3746637Y7631421D02*
D03*
X3464978Y7694901D02*
D03*
X2896067Y7730989D02*
D03*
X2610571Y7706760D02*
D03*
X2330854Y7652334D02*
D03*
X2057582Y7568006D02*
D03*
X1826804Y7384940D02*
D03*
X1634349Y7069890D02*
D03*
X1595709Y7239928D02*
D03*
X1369246Y7084886D02*
D03*
X1230379Y6859196D02*
D03*
X1099047Y6834211D02*
D03*
X796149Y6690979D02*
D03*
X714414Y6534287D02*
D03*
X751193Y6347043D02*
D03*
X601264Y6462899D02*
D03*
X552374Y6238778D02*
D03*
X538345Y5855567D02*
D03*
X381694Y5662738D02*
D03*
X270503Y5103507D02*
D03*
X356197Y4901015D02*
D03*
X343931Y4582828D02*
D03*
X4950305Y6893431D02*
D03*
X5083710Y6631076D02*
D03*
X5282642Y6597003D02*
D03*
X5500619Y6203722D02*
D03*
X5582590Y6057304D02*
D03*
X5645932Y5912406D02*
D03*
X5570861Y5701070D02*
D03*
X5561587Y5447761D02*
D03*
X5735738Y5102833D02*
D03*
X5688165Y4871266D02*
D03*
X5722717Y4527842D02*
D03*
X5547753Y4049346D02*
D03*
X5370018Y3915462D02*
D03*
X5301890Y3467626D02*
D03*
X5036649Y3363945D02*
D03*
X4766929Y3060494D02*
D03*
X4455163Y2687468D02*
D03*
X2948346Y2378262D02*
D03*
X2830904Y2414903D02*
D03*
X2298700Y2382520D02*
D03*
X2036157Y2495533D02*
D03*
X2079715Y2646389D02*
D03*
X1547274Y2691361D02*
D03*
X5530075Y4408962D02*
D03*
X530111Y5758982D02*
D03*
X5313887Y3828224D02*
D03*
X4673011Y2767256D02*
D03*
X695211Y3938353D02*
D03*
X4440931Y1198304D02*
D03*
X3661765Y1569429D02*
D03*
X1242620Y3339000D02*
D03*
X1382974Y3245487D02*
D03*
X1382283Y3422645D02*
D03*
X1178352Y3754885D02*
D03*
X4960449Y6561232D02*
D03*
X4388705Y4193529D02*
D03*
X5742973Y2057465D02*
D03*
X1461328Y7092234D02*
D03*
X3632500Y1422500D02*
D03*
X749080Y2698684D02*
D03*
Y2922555D02*
D03*
X596076Y3155000D02*
D03*
X513392Y3036598D02*
D03*
X2109447Y249255D02*
D03*
X2459439Y553624D02*
D03*
X2214233Y347620D02*
D03*
X2331130Y450268D02*
D03*
X4333733Y5481029D02*
D03*
X4200402D02*
D03*
X4067072D02*
D03*
X3933742D02*
D03*
X3800413D02*
D03*
X3667083D02*
D03*
X3400423D02*
D03*
X3267093D02*
D03*
X3133763D02*
D03*
X4665930Y4496752D02*
D03*
X4532600D02*
D03*
X4399270D02*
D03*
X4132611D02*
D03*
X3999281D02*
D03*
X3865951D02*
D03*
X3732621D02*
D03*
X3599291D02*
D03*
X3465961D02*
D03*
X3332631D02*
D03*
X3199301D02*
D03*
X3065971D02*
D03*
X2932641D02*
D03*
X1466011D02*
D03*
X1599341D02*
D03*
X1732671D02*
D03*
X1866001D02*
D03*
X1999331D02*
D03*
X2132661D02*
D03*
X2265991D02*
D03*
X2399321D02*
D03*
X2532651D02*
D03*
X2665981D02*
D03*
X2799311D02*
D03*
X432917Y3884730D02*
D03*
X439094Y5442144D02*
D03*
X548684Y4129399D02*
D03*
X278753Y4404727D02*
D03*
X416612Y6094408D02*
D03*
X896034Y6255172D02*
D03*
X5366784Y4107771D02*
D03*
X5493824Y5919030D02*
D03*
X5455000Y3630000D02*
D03*
X5097500Y2912500D02*
D03*
X1571503Y7138523D02*
D03*
X1376354Y7005037D02*
D03*
X4467063Y5481029D02*
D03*
X3000003Y5480705D02*
D03*
X4664630Y5552570D02*
D03*
X3550920Y6376164D02*
D03*
X4599963Y5603497D02*
D03*
X4466632Y5685997D02*
D03*
X4333456Y5770998D02*
D03*
X4200279Y5855998D02*
D03*
X3933926Y6026000D02*
D03*
X4067102Y5940999D02*
D03*
X3750165Y1643028D02*
D03*
X4377501Y1358642D02*
D03*
X4302501D02*
D03*
X4152769Y1465512D02*
D03*
X3837801Y1567884D02*
D03*
X2725000Y3572200D02*
D03*
X3275000D02*
D03*
X3220000Y3482200D02*
D03*
X3330000D02*
D03*
X3220000Y3662200D02*
D03*
X3330000D02*
D03*
X2670000Y3482200D02*
D03*
X2780001D02*
D03*
Y3662200D02*
D03*
X2670000D02*
D03*
X3535460Y646271D02*
D03*
X3199441Y859198D02*
D03*
X3438846Y1095314D02*
D03*
X3443057Y867592D02*
D03*
X3748287Y385415D02*
D03*
X3839085Y479821D02*
D03*
X4348709Y414660D02*
D03*
X4853645Y734198D02*
D03*
X4852834Y518966D02*
D03*
X4548456Y604521D02*
D03*
X4607775Y790189D02*
D03*
X4570085Y1006061D02*
D03*
X4819993Y5332489D02*
D03*
X1933363Y5399990D02*
D03*
X3666653D02*
D03*
Y5266660D02*
D03*
X1933363D02*
D03*
X3666653Y5133330D02*
D03*
X1933363D02*
D03*
X3666653Y5000000D02*
D03*
X1933363D02*
D03*
X3666653Y4866670D02*
D03*
X1933363D02*
D03*
X3666653Y4733340D02*
D03*
X1933363D02*
D03*
X3666653Y4600010D02*
D03*
X1933363D02*
D03*
X1267510Y5359990D02*
D03*
Y5226660D02*
D03*
X4819994Y5199159D02*
D03*
X1267510Y5093330D02*
D03*
X4819993Y5065829D02*
D03*
X1267510Y4960000D02*
D03*
X4819992Y4932499D02*
D03*
X1267510Y4826670D02*
D03*
X4819993Y4799169D02*
D03*
X1267510Y4693340D02*
D03*
X4819993Y4665839D02*
D03*
X1267510Y4560010D02*
D03*
X5118070Y3598080D02*
D03*
X1400043Y5399990D02*
D03*
X3133333D02*
D03*
Y5266660D02*
D03*
X1400043D02*
D03*
X3133333Y5133330D02*
D03*
X1400043D02*
D03*
X3133333Y5000000D02*
D03*
X1400043D02*
D03*
X3133333Y4866670D02*
D03*
X1400043D02*
D03*
X3133333Y4733340D02*
D03*
X1400043D02*
D03*
X3133333Y4600010D02*
D03*
X1400043D02*
D03*
X3266663Y5399990D02*
D03*
Y5266660D02*
D03*
X1533374D02*
D03*
X3266663Y5133330D02*
D03*
X1533374D02*
D03*
X3266663Y5000000D02*
D03*
X1533374D02*
D03*
X3266663Y4866670D02*
D03*
X1533374D02*
D03*
X3266663Y4733340D02*
D03*
X1533374D02*
D03*
X3266663Y4600010D02*
D03*
X1533374D02*
D03*
X1666704Y5399990D02*
D03*
X3399993D02*
D03*
Y5266660D02*
D03*
X1666704D02*
D03*
X3399993Y5133330D02*
D03*
X1666704D02*
D03*
X3399993Y5000000D02*
D03*
X1666704D02*
D03*
X3399993Y4866670D02*
D03*
X1666704D02*
D03*
X3399993Y4733340D02*
D03*
X1666704D02*
D03*
X3399993Y4600010D02*
D03*
X1666704D02*
D03*
X1800033Y5399990D02*
D03*
X3533323D02*
D03*
Y5266660D02*
D03*
X1800033D02*
D03*
X3533323Y5133330D02*
D03*
X1800033D02*
D03*
X3533323Y5000000D02*
D03*
X1800033D02*
D03*
X3533323Y4866670D02*
D03*
X1800033D02*
D03*
X3533323Y4733340D02*
D03*
X1800033D02*
D03*
X3533323Y4600010D02*
D03*
X1800033D02*
D03*
X2066694Y5399990D02*
D03*
X3799983D02*
D03*
Y5266660D02*
D03*
X2066694D02*
D03*
X3799983Y5133330D02*
D03*
X2066694D02*
D03*
X3799983Y5000000D02*
D03*
X2066694D02*
D03*
X3799983Y4866670D02*
D03*
X2066694D02*
D03*
X3799983Y4733340D02*
D03*
X2066694D02*
D03*
X3799983Y4600010D02*
D03*
X2066694D02*
D03*
X2200024Y5399990D02*
D03*
X3933313D02*
D03*
Y5266660D02*
D03*
X2200024D02*
D03*
X3933313Y5133330D02*
D03*
X2200024D02*
D03*
X3933313Y5000000D02*
D03*
X2200024D02*
D03*
X3933313Y4866670D02*
D03*
X2200024D02*
D03*
X3933313Y4733340D02*
D03*
X2200024D02*
D03*
X3933313Y4600010D02*
D03*
X2200024D02*
D03*
X2333353Y5399990D02*
D03*
X4066643D02*
D03*
Y5266660D02*
D03*
X2333353D02*
D03*
X4066643Y5133330D02*
D03*
X2333353D02*
D03*
X4066643Y5000000D02*
D03*
X2333353D02*
D03*
X4066643Y4866670D02*
D03*
X2333353D02*
D03*
X4066643Y4733340D02*
D03*
X2333353D02*
D03*
X4066643Y4600010D02*
D03*
X2333353D02*
D03*
X2466683Y5399990D02*
D03*
X4199973D02*
D03*
Y5266660D02*
D03*
X2466683D02*
D03*
X4199973Y5133330D02*
D03*
X2466683D02*
D03*
X4199973Y5000000D02*
D03*
X2466683D02*
D03*
X4199973Y4866670D02*
D03*
X2466683D02*
D03*
X4199973Y4733340D02*
D03*
X2466683D02*
D03*
X4199973Y4600010D02*
D03*
X2466683D02*
D03*
X2600014Y5399990D02*
D03*
X4333303D02*
D03*
Y5266660D02*
D03*
X2600014D02*
D03*
X4333303Y5133330D02*
D03*
X2600014D02*
D03*
X4333303Y5000000D02*
D03*
X2600014D02*
D03*
X4333303Y4866670D02*
D03*
X2600014D02*
D03*
X4333303Y4733340D02*
D03*
X2600014D02*
D03*
X4333303Y4600010D02*
D03*
X2600014D02*
D03*
X2733344Y5399990D02*
D03*
X4466633D02*
D03*
Y5266660D02*
D03*
X2733344D02*
D03*
X4466633Y5133330D02*
D03*
X2733344D02*
D03*
X4466633Y5000000D02*
D03*
X2733344D02*
D03*
X4466633Y4866670D02*
D03*
X2733344D02*
D03*
X4466633Y4733340D02*
D03*
X2733344D02*
D03*
X4466633Y4600010D02*
D03*
X2733344D02*
D03*
X2866673Y5399990D02*
D03*
X4599963D02*
D03*
Y5266660D02*
D03*
X2866673D02*
D03*
X4599963Y5133330D02*
D03*
X2866673D02*
D03*
X4599963Y5000000D02*
D03*
X2866673D02*
D03*
X4599963Y4866670D02*
D03*
X2866673D02*
D03*
X4599963Y4733340D02*
D03*
X2866673D02*
D03*
X4599963Y4600010D02*
D03*
X2866673D02*
D03*
X3000003Y5399990D02*
D03*
Y5266660D02*
D03*
Y5133330D02*
D03*
Y5000000D02*
D03*
Y4866670D02*
D03*
Y4733340D02*
D03*
Y4600010D02*
D03*
X4733293Y5266660D02*
D03*
Y5133330D02*
D03*
X4733292Y5000000D02*
D03*
Y4866670D02*
D03*
Y4733340D02*
D03*
Y4600010D02*
D03*
X3110793Y7537582D02*
D03*
X5582931Y4569921D02*
D03*
X1933363Y5480705D02*
D03*
X1800033D02*
D03*
X2200024D02*
D03*
X2066694D02*
D03*
X2866673D02*
D03*
X2466683D02*
D03*
X2333353D02*
D03*
X2738083Y5486312D02*
D03*
X2600014Y5480705D02*
D03*
X1666704D02*
D03*
X1533374D02*
D03*
X1400043D02*
D03*
D175*
X5783580Y2981960D02*
D03*
Y2727960D02*
D03*
Y2473960D02*
D03*
%TF.MD5,539c8d87ad2eb0dc2656c4e7a30cf7a9*%
M02*
