%TF.GenerationSoftware,Altium Limited,Altium Designer,25.4.2 (15)*%
G04 Layer_Color=128*
%FSLAX45Y45*%
%MOMM*%
%TF.SameCoordinates,4798FD96-7F20-4984-8995-BC58F9679184*%
%TF.FilePolarity,Positive*%
%TF.FileFunction,Paste,Bot*%
%TF.Part,Single*%
G01*
G75*
%TA.AperFunction,SMDPad,CuDef*%
G04:AMPARAMS|DCode=56|XSize=1.85mm|YSize=0.85mm|CornerRadius=0.0425mm|HoleSize=0mm|Usage=FLASHONLY|Rotation=0.000|XOffset=0mm|YOffset=0mm|HoleType=Round|Shape=RoundedRectangle|*
%AMROUNDEDRECTD56*
21,1,1.85000,0.76500,0,0,0.0*
21,1,1.76500,0.85000,0,0,0.0*
1,1,0.08500,0.88250,-0.38250*
1,1,0.08500,-0.88250,-0.38250*
1,1,0.08500,-0.88250,0.38250*
1,1,0.08500,0.88250,0.38250*
%
%ADD56ROUNDEDRECTD56*%
G04:AMPARAMS|DCode=57|XSize=1.85mm|YSize=0.85mm|CornerRadius=0.0425mm|HoleSize=0mm|Usage=FLASHONLY|Rotation=270.000|XOffset=0mm|YOffset=0mm|HoleType=Round|Shape=RoundedRectangle|*
%AMROUNDEDRECTD57*
21,1,1.85000,0.76500,0,0,270.0*
21,1,1.76500,0.85000,0,0,270.0*
1,1,0.08500,-0.38250,-0.88250*
1,1,0.08500,-0.38250,0.88250*
1,1,0.08500,0.38250,0.88250*
1,1,0.08500,0.38250,-0.88250*
%
%ADD57ROUNDEDRECTD57*%
G04:AMPARAMS|DCode=60|XSize=0.5mm|YSize=0.55mm|CornerRadius=0.025mm|HoleSize=0mm|Usage=FLASHONLY|Rotation=90.000|XOffset=0mm|YOffset=0mm|HoleType=Round|Shape=RoundedRectangle|*
%AMROUNDEDRECTD60*
21,1,0.50000,0.50000,0,0,90.0*
21,1,0.45000,0.55000,0,0,90.0*
1,1,0.05000,0.25000,0.22500*
1,1,0.05000,0.25000,-0.22500*
1,1,0.05000,-0.25000,-0.22500*
1,1,0.05000,-0.25000,0.22500*
%
%ADD60ROUNDEDRECTD60*%
%ADD61R,2.20000X3.42000*%
%ADD62O,1.20000X0.32500*%
G04:AMPARAMS|DCode=63|XSize=0.85mm|YSize=0.6mm|CornerRadius=0.03mm|HoleSize=0mm|Usage=FLASHONLY|Rotation=0.000|XOffset=0mm|YOffset=0mm|HoleType=Round|Shape=RoundedRectangle|*
%AMROUNDEDRECTD63*
21,1,0.85000,0.54000,0,0,0.0*
21,1,0.79000,0.60000,0,0,0.0*
1,1,0.06000,0.39500,-0.27000*
1,1,0.06000,-0.39500,-0.27000*
1,1,0.06000,-0.39500,0.27000*
1,1,0.06000,0.39500,0.27000*
%
%ADD63ROUNDEDRECTD63*%
G04:AMPARAMS|DCode=64|XSize=1.65mm|YSize=0.95mm|CornerRadius=0.0475mm|HoleSize=0mm|Usage=FLASHONLY|Rotation=270.000|XOffset=0mm|YOffset=0mm|HoleType=Round|Shape=RoundedRectangle|*
%AMROUNDEDRECTD64*
21,1,1.65000,0.85500,0,0,270.0*
21,1,1.55500,0.95000,0,0,270.0*
1,1,0.09500,-0.42750,-0.77750*
1,1,0.09500,-0.42750,0.77750*
1,1,0.09500,0.42750,0.77750*
1,1,0.09500,0.42750,-0.77750*
%
%ADD64ROUNDEDRECTD64*%
G04:AMPARAMS|DCode=66|XSize=1.65mm|YSize=0.95mm|CornerRadius=0.0475mm|HoleSize=0mm|Usage=FLASHONLY|Rotation=0.000|XOffset=0mm|YOffset=0mm|HoleType=Round|Shape=RoundedRectangle|*
%AMROUNDEDRECTD66*
21,1,1.65000,0.85500,0,0,0.0*
21,1,1.55500,0.95000,0,0,0.0*
1,1,0.09500,0.77750,-0.42750*
1,1,0.09500,-0.77750,-0.42750*
1,1,0.09500,-0.77750,0.42750*
1,1,0.09500,0.77750,0.42750*
%
%ADD66ROUNDEDRECTD66*%
G04:AMPARAMS|DCode=67|XSize=0.35mm|YSize=0.85mm|CornerRadius=0.0175mm|HoleSize=0mm|Usage=FLASHONLY|Rotation=180.000|XOffset=0mm|YOffset=0mm|HoleType=Round|Shape=RoundedRectangle|*
%AMROUNDEDRECTD67*
21,1,0.35000,0.81500,0,0,180.0*
21,1,0.31500,0.85000,0,0,180.0*
1,1,0.03500,-0.15750,0.40750*
1,1,0.03500,0.15750,0.40750*
1,1,0.03500,0.15750,-0.40750*
1,1,0.03500,-0.15750,-0.40750*
%
%ADD67ROUNDEDRECTD67*%
G04:AMPARAMS|DCode=68|XSize=0.25mm|YSize=0.85mm|CornerRadius=0.0125mm|HoleSize=0mm|Usage=FLASHONLY|Rotation=180.000|XOffset=0mm|YOffset=0mm|HoleType=Round|Shape=RoundedRectangle|*
%AMROUNDEDRECTD68*
21,1,0.25000,0.82500,0,0,180.0*
21,1,0.22500,0.85000,0,0,180.0*
1,1,0.02500,-0.11250,0.41250*
1,1,0.02500,0.11250,0.41250*
1,1,0.02500,0.11250,-0.41250*
1,1,0.02500,-0.11250,-0.41250*
%
%ADD68ROUNDEDRECTD68*%
G04:AMPARAMS|DCode=69|XSize=0.24mm|YSize=0.85mm|CornerRadius=0.012mm|HoleSize=0mm|Usage=FLASHONLY|Rotation=180.000|XOffset=0mm|YOffset=0mm|HoleType=Round|Shape=RoundedRectangle|*
%AMROUNDEDRECTD69*
21,1,0.24000,0.82600,0,0,180.0*
21,1,0.21600,0.85000,0,0,180.0*
1,1,0.02400,-0.10800,0.41300*
1,1,0.02400,0.10800,0.41300*
1,1,0.02400,0.10800,-0.41300*
1,1,0.02400,-0.10800,-0.41300*
%
%ADD69ROUNDEDRECTD69*%
%TA.AperFunction,BGAPad,CuDef*%
%ADD70R,0.90000X0.90000*%
%TA.AperFunction,SMDPad,CuDef*%
G04:AMPARAMS|DCode=71|XSize=0.9mm|YSize=1.5mm|CornerRadius=0.225mm|HoleSize=0mm|Usage=FLASHONLY|Rotation=270.000|XOffset=0mm|YOffset=0mm|HoleType=Round|Shape=RoundedRectangle|*
%AMROUNDEDRECTD71*
21,1,0.90000,1.05000,0,0,270.0*
21,1,0.45000,1.50000,0,0,270.0*
1,1,0.45000,-0.52500,-0.22500*
1,1,0.45000,-0.52500,0.22500*
1,1,0.45000,0.52500,0.22500*
1,1,0.45000,0.52500,-0.22500*
%
%ADD71ROUNDEDRECTD71*%
G04:AMPARAMS|DCode=72|XSize=1.5mm|YSize=0.9mm|CornerRadius=0.225mm|HoleSize=0mm|Usage=FLASHONLY|Rotation=270.000|XOffset=0mm|YOffset=0mm|HoleType=Round|Shape=RoundedRectangle|*
%AMROUNDEDRECTD72*
21,1,1.50000,0.45000,0,0,270.0*
21,1,1.05000,0.90000,0,0,270.0*
1,1,0.45000,-0.22500,-0.52500*
1,1,0.45000,-0.22500,0.52500*
1,1,0.45000,0.22500,0.52500*
1,1,0.45000,0.22500,-0.52500*
%
%ADD72ROUNDEDRECTD72*%
G04:AMPARAMS|DCode=73|XSize=1mm|YSize=2.15mm|CornerRadius=0.05mm|HoleSize=0mm|Usage=FLASHONLY|Rotation=270.000|XOffset=0mm|YOffset=0mm|HoleType=Round|Shape=RoundedRectangle|*
%AMROUNDEDRECTD73*
21,1,1.00000,2.05000,0,0,270.0*
21,1,0.90000,2.15000,0,0,270.0*
1,1,0.10000,-1.02500,-0.45000*
1,1,0.10000,-1.02500,0.45000*
1,1,0.10000,1.02500,0.45000*
1,1,0.10000,1.02500,-0.45000*
%
%ADD73ROUNDEDRECTD73*%
G04:AMPARAMS|DCode=74|XSize=3.25mm|YSize=2.15mm|CornerRadius=0.1075mm|HoleSize=0mm|Usage=FLASHONLY|Rotation=270.000|XOffset=0mm|YOffset=0mm|HoleType=Round|Shape=RoundedRectangle|*
%AMROUNDEDRECTD74*
21,1,3.25000,1.93500,0,0,270.0*
21,1,3.03500,2.15000,0,0,270.0*
1,1,0.21500,-0.96750,-1.51750*
1,1,0.21500,-0.96750,1.51750*
1,1,0.21500,0.96750,1.51750*
1,1,0.21500,0.96750,-1.51750*
%
%ADD74ROUNDEDRECTD74*%
G04:AMPARAMS|DCode=75|XSize=0.5mm|YSize=0.55mm|CornerRadius=0.025mm|HoleSize=0mm|Usage=FLASHONLY|Rotation=180.000|XOffset=0mm|YOffset=0mm|HoleType=Round|Shape=RoundedRectangle|*
%AMROUNDEDRECTD75*
21,1,0.50000,0.50000,0,0,180.0*
21,1,0.45000,0.55000,0,0,180.0*
1,1,0.05000,-0.22500,0.25000*
1,1,0.05000,0.22500,0.25000*
1,1,0.05000,0.22500,-0.25000*
1,1,0.05000,-0.22500,-0.25000*
%
%ADD75ROUNDEDRECTD75*%
D56*
X1830000Y6359040D02*
D03*
X2670000D02*
D03*
X1830000Y6809040D02*
D03*
X2670000D02*
D03*
X3330000Y6359040D02*
D03*
X4170000D02*
D03*
X3330000Y6809040D02*
D03*
X4170000D02*
D03*
X2580000Y7109000D02*
D03*
X3420000D02*
D03*
X2580000Y7559000D02*
D03*
X3420000D02*
D03*
X3420003Y6058960D02*
D03*
X2580003D02*
D03*
X3420003Y5608960D02*
D03*
X2580003D02*
D03*
D57*
X4390342Y4344695D02*
D03*
Y3504696D02*
D03*
X4840342Y4344695D02*
D03*
Y3504696D02*
D03*
X5388720Y2057184D02*
D03*
Y1217184D02*
D03*
X5838720Y2057184D02*
D03*
Y1217184D02*
D03*
D60*
X3297900Y611270D02*
D03*
Y711270D02*
D03*
X2497580Y746466D02*
D03*
Y846466D02*
D03*
X2608325Y746466D02*
D03*
Y846466D02*
D03*
X1153219Y3033080D02*
D03*
Y3133080D02*
D03*
X4681269Y769432D02*
D03*
Y669432D02*
D03*
X4780585Y734198D02*
D03*
Y834198D02*
D03*
X4683060Y1016715D02*
D03*
Y916715D02*
D03*
X4512879Y1265985D02*
D03*
X4512879Y1165985D02*
D03*
X3272500Y959198D02*
D03*
X3462400Y546271D02*
D03*
X3370000Y794432D02*
D03*
X3372540Y1041714D02*
D03*
X3356343Y1234498D02*
D03*
X4540743Y520909D02*
D03*
X4780560Y586271D02*
D03*
X4540743Y420909D02*
D03*
X4780560Y486271D02*
D03*
X3272500Y859198D02*
D03*
X3462400Y646271D02*
D03*
X3356343Y1334498D02*
D03*
X3372540Y1141715D02*
D03*
X3370000Y894432D02*
D03*
D61*
X4045000Y947500D02*
D03*
D62*
X3750000Y590000D02*
D03*
Y655000D02*
D03*
Y720000D02*
D03*
Y785000D02*
D03*
Y850000D02*
D03*
Y915000D02*
D03*
Y980000D02*
D03*
Y1045000D02*
D03*
Y1110000D02*
D03*
Y1175000D02*
D03*
Y1240000D02*
D03*
Y1305000D02*
D03*
X4340000Y590000D02*
D03*
Y655000D02*
D03*
Y720000D02*
D03*
Y785000D02*
D03*
Y850000D02*
D03*
Y915000D02*
D03*
Y980000D02*
D03*
Y1045000D02*
D03*
Y1110000D02*
D03*
Y1175000D02*
D03*
Y1240000D02*
D03*
Y1305000D02*
D03*
D63*
X1274436Y3021780D02*
D03*
Y3166780D02*
D03*
X2717772Y868965D02*
D03*
Y723966D02*
D03*
X3750000Y1422500D02*
D03*
Y1567500D02*
D03*
D64*
X1107100Y4023800D02*
D03*
X1387100D02*
D03*
X876078Y3035000D02*
D03*
X596078D02*
D03*
D66*
X1127600Y3845100D02*
D03*
Y3565100D02*
D03*
D67*
X3275000Y3662200D02*
D03*
X2725000D02*
D03*
Y3482200D02*
D03*
X3275000D02*
D03*
D68*
X3125000Y3662200D02*
D03*
X2875001D02*
D03*
Y3482200D02*
D03*
X3125000D02*
D03*
D69*
X3075000Y3662200D02*
D03*
X3025000D02*
D03*
X2975000D02*
D03*
X2925000D02*
D03*
Y3482200D02*
D03*
X2975000D02*
D03*
X3025000D02*
D03*
X3075000D02*
D03*
D70*
X1381080Y2225480D02*
D03*
Y2085480D02*
D03*
Y1945480D02*
D03*
X1521080Y2085480D02*
D03*
Y2225480D02*
D03*
Y1945480D02*
D03*
X1661080Y2225480D02*
D03*
Y2085480D02*
D03*
Y1945480D02*
D03*
D71*
X2525080Y1236980D02*
D03*
Y1363980D02*
D03*
Y1490980D02*
D03*
Y1617980D02*
D03*
Y1744980D02*
D03*
Y1871980D02*
D03*
Y1998980D02*
D03*
Y2125980D02*
D03*
Y2252980D02*
D03*
Y2379980D02*
D03*
Y2506980D02*
D03*
Y2633980D02*
D03*
D72*
X749080Y1060480D02*
D03*
X876080D02*
D03*
X1003080D02*
D03*
X1130080D02*
D03*
X1257080D02*
D03*
X1384080D02*
D03*
X1511080D02*
D03*
X1638080D02*
D03*
X1765080D02*
D03*
X1892080D02*
D03*
X2019080D02*
D03*
X2146080D02*
D03*
X2273080D02*
D03*
X2400080D02*
D03*
Y2810480D02*
D03*
X2273080D02*
D03*
X2146080D02*
D03*
X2019080D02*
D03*
X1892080D02*
D03*
X1765080D02*
D03*
X1638080D02*
D03*
X1511080D02*
D03*
X1384080D02*
D03*
X1257080D02*
D03*
X1130080D02*
D03*
X1003080D02*
D03*
X876080D02*
D03*
X749080D02*
D03*
D73*
X1387101Y3565100D02*
D03*
X1387100Y3335100D02*
D03*
Y3795100D02*
D03*
D74*
X1972100Y3565100D02*
D03*
D75*
X4799093Y1157298D02*
D03*
X4699093D02*
D03*
X3667844Y462320D02*
D03*
X3498118Y1245939D02*
D03*
X4448708Y487719D02*
D03*
X4082500Y1465000D02*
D03*
X4348709Y487719D02*
D03*
X3218367Y3221045D02*
D03*
X2789443Y3221041D02*
D03*
X3767844Y462320D02*
D03*
X3598118Y1245939D02*
D03*
X3982500Y1465000D02*
D03*
X2889443Y3221041D02*
D03*
X3118367Y3221045D02*
D03*
%TF.MD5,50e23bdfc48a80cc05d0d1e0a795901d*%
M02*
