%TF.GenerationSoftware,Altium Limited,Altium Designer,25.4.2 (15)*%
G04 Layer_Color=0*
%FSLAX45Y45*%
%MOMM*%
%TF.SameCoordinates,56FAF920-B6F2-42E9-838B-32D8E787A911*%
%TF.FilePolarity,Positive*%
%TF.FileFunction,Plated,1,4,PTH,Drill*%
%TF.Part,Single*%
G01*
G75*
%TA.AperFunction,ComponentDrill*%
%ADD150C,0.80000*%
%ADD151O,1.00000X0.50000*%
%ADD152C,0.30000*%
%ADD153C,0.95000*%
%TA.AperFunction,ViaDrill,NotFilled*%
%ADD154C,0.30000*%
%ADD155C,0.90000*%
D150*
X3000000Y1322760D02*
D03*
Y1068760D02*
D03*
D151*
X2760000Y3359700D02*
D03*
X3240000D02*
D03*
X2760000Y3784700D02*
D03*
X3240000Y3787200D02*
D03*
D152*
X1451080Y1945480D02*
D03*
X1591080D02*
D03*
Y2225480D02*
D03*
X1451080D02*
D03*
X1661080Y2295480D02*
D03*
X1521080D02*
D03*
X1381080D02*
D03*
X1731080Y1945480D02*
D03*
Y2085480D02*
D03*
Y2225480D02*
D03*
X1381080Y1875480D02*
D03*
X1661080D02*
D03*
X1521080D02*
D03*
X1311080Y1945480D02*
D03*
Y2225480D02*
D03*
Y2085480D02*
D03*
X1661080Y2015480D02*
D03*
Y2155480D02*
D03*
X1521080Y2015480D02*
D03*
Y2155480D02*
D03*
X1381080Y2015480D02*
D03*
Y2155480D02*
D03*
X1591080Y2085480D02*
D03*
X1451080D02*
D03*
D153*
X1494600Y163496D02*
D03*
Y417496D02*
D03*
X1748600D02*
D03*
X1240600Y163496D02*
D03*
X1748600D02*
D03*
X1240600Y417496D02*
D03*
D154*
X5073485Y5051594D02*
D03*
X4995830Y4965917D02*
D03*
X606311Y4276776D02*
D03*
X921792Y5298978D02*
D03*
X810552Y5414395D02*
D03*
X663695Y5367586D02*
D03*
X417482Y5235620D02*
D03*
X5117864Y5334513D02*
D03*
X5392420Y5166360D02*
D03*
X5629984Y5106994D02*
D03*
X5731454Y4610569D02*
D03*
X5234972Y4621428D02*
D03*
X5168607Y4743982D02*
D03*
X4973990Y4070837D02*
D03*
X890231Y5093330D02*
D03*
X336844Y4898048D02*
D03*
X435835Y5104775D02*
D03*
X5108971Y4591070D02*
D03*
X5383552Y4620078D02*
D03*
X5654133Y4186059D02*
D03*
X589280Y5331460D02*
D03*
X1060118Y4960000D02*
D03*
X277907Y3948695D02*
D03*
X815340Y4638040D02*
D03*
X662996Y4527805D02*
D03*
X744284D02*
D03*
X906861D02*
D03*
X1093252Y4372536D02*
D03*
X1143487Y4307894D02*
D03*
X1222121Y4287074D02*
D03*
X1285240Y4236720D02*
D03*
X825572Y4527805D02*
D03*
X1222997Y4626675D02*
D03*
X1222997Y4760005D02*
D03*
X1222997Y4893335D02*
D03*
X1222997Y5026665D02*
D03*
Y5159995D02*
D03*
Y5293325D02*
D03*
X979233Y4826670D02*
D03*
X448417D02*
D03*
X677898D02*
D03*
X862408Y5226660D02*
D03*
X1031240Y6098540D02*
D03*
Y5765800D02*
D03*
X5116140Y4482640D02*
D03*
X5441140Y4541520D02*
D03*
X5315377Y4174018D02*
D03*
X5293360Y4257040D02*
D03*
X4622800Y3771900D02*
D03*
X4973144Y3715505D02*
D03*
X5025294Y4590249D02*
D03*
X4819993Y4532509D02*
D03*
X5399287Y4764610D02*
D03*
X5311140Y4678680D02*
D03*
X5695732Y4851580D02*
D03*
X5587101Y4771597D02*
D03*
X5707380Y4254074D02*
D03*
X5386802Y6026075D02*
D03*
X5694219Y5176588D02*
D03*
X4754542Y4473807D02*
D03*
X4872426Y5399176D02*
D03*
X4864808Y5265846D02*
D03*
X5376140Y4482640D02*
D03*
X5311140Y4541520D02*
D03*
X5246140Y4482640D02*
D03*
X5181140Y4541520D02*
D03*
X4819993Y5332489D02*
D03*
X5051140Y4871079D02*
D03*
Y4233170D02*
D03*
X2869669Y1101740D02*
D03*
X3018198Y1465728D02*
D03*
X3047353Y1165353D02*
D03*
X3003681Y656102D02*
D03*
X3569352Y1120452D02*
D03*
X3580277Y1361686D02*
D03*
X3046426Y775039D02*
D03*
X2987040Y1592580D02*
D03*
X3520224Y1518751D02*
D03*
X3277042Y1520116D02*
D03*
X3136900Y1529080D02*
D03*
X3990677Y162472D02*
D03*
X3911364Y237656D02*
D03*
X3829047Y312840D02*
D03*
X3860000Y1162704D02*
D03*
X3805996Y1495001D02*
D03*
X3700780Y1838960D02*
D03*
X4591474Y798531D02*
D03*
X4363195Y285887D02*
D03*
X2787389Y1199223D02*
D03*
X3693781Y1495001D02*
D03*
X2865120Y1659229D02*
D03*
X3304960Y1021150D02*
D03*
X3450486Y1141587D02*
D03*
X3533140Y2192020D02*
D03*
X2476500Y3235960D02*
D03*
X2183802Y3159469D02*
D03*
X2377963Y3373918D02*
D03*
X2430780Y3309620D02*
D03*
X3066201Y3007108D02*
D03*
X2418080Y3171741D02*
D03*
X4260002Y2928016D02*
D03*
X1687771Y3973000D02*
D03*
X463225Y5572557D02*
D03*
X2866229Y1182365D02*
D03*
X4161235Y2702935D02*
D03*
X4349455Y2564422D02*
D03*
X4625542Y1013977D02*
D03*
X2120850Y2957780D02*
D03*
X1803400Y2661920D02*
D03*
Y2357120D02*
D03*
X3531050Y756710D02*
D03*
X1137920Y1325880D02*
D03*
X416474Y5942797D02*
D03*
X2741217Y7109000D02*
D03*
X3581217D02*
D03*
X4007460Y6809040D02*
D03*
X3492540D02*
D03*
X567565Y6358584D02*
D03*
X469095Y6171519D02*
D03*
X608903Y6018262D02*
D03*
X3332080Y6461760D02*
D03*
X3040428Y6487160D02*
D03*
X3656165Y6406523D02*
D03*
X3528506Y6454365D02*
D03*
X3447200Y6450041D02*
D03*
X2670000Y6921500D02*
D03*
X1830000D02*
D03*
X1829803Y6453536D02*
D03*
X1005608Y3817735D02*
D03*
Y3970777D02*
D03*
X4816542Y3254997D02*
D03*
X1005608Y4047298D02*
D03*
X3199339Y7539729D02*
D03*
X1528027Y6887945D02*
D03*
X3688165Y6303664D02*
D03*
X3792593Y6191009D02*
D03*
X4514863Y7107189D02*
D03*
X3579928Y6269502D02*
D03*
X3721945Y6230487D02*
D03*
X3800596Y6110848D02*
D03*
X3954641Y2763749D02*
D03*
X4581737Y421389D02*
D03*
X3275641Y611270D02*
D03*
X3383617Y1405332D02*
D03*
X1493714Y865809D02*
D03*
X2098040Y3111500D02*
D03*
X2865120Y1823006D02*
D03*
Y1741117D02*
D03*
Y1577340D02*
D03*
X2675586Y1068760D02*
D03*
X5127601Y1745148D02*
D03*
X4253719Y1725982D02*
D03*
X4402675D02*
D03*
X4551631D02*
D03*
X4700587D02*
D03*
X4849543D02*
D03*
X4998499D02*
D03*
X2941143Y2936103D02*
D03*
X5812060Y5912317D02*
D03*
X5730240Y5709920D02*
D03*
X4538199Y1076839D02*
D03*
X4624177Y910727D02*
D03*
X4511385Y732927D02*
D03*
X4444930Y582681D02*
D03*
X3990000Y837500D02*
D03*
X4100000D02*
D03*
X3990000Y947500D02*
D03*
X4100000D02*
D03*
X3990000Y1057500D02*
D03*
X4100000D02*
D03*
X4204512Y1189046D02*
D03*
X1275774Y3242683D02*
D03*
X2497227Y782834D02*
D03*
X5388720Y1054100D02*
D03*
X2525041Y891863D02*
D03*
X4164173Y6278735D02*
D03*
X3533753Y5481029D02*
D03*
X4552732Y6359389D02*
D03*
X5742973Y1204025D02*
D03*
X2080462Y1613808D02*
D03*
X2400543Y1468885D02*
D03*
X753745Y3835832D02*
D03*
X1087643Y3755804D02*
D03*
X1005608Y3894256D02*
D03*
X939593Y3436406D02*
D03*
X2718730Y3221981D02*
D03*
X3295436Y2904705D02*
D03*
X716535Y6440759D02*
D03*
X879645Y6671553D02*
D03*
X1273515Y7075873D02*
D03*
X1499961Y7244967D02*
D03*
X1742841Y7389466D02*
D03*
X1999495Y7507785D02*
D03*
X2267111Y7598629D02*
D03*
X330184Y5896938D02*
D03*
X327942Y5387430D02*
D03*
X305781Y4823411D02*
D03*
X755033Y3499960D02*
D03*
X5120356Y3328446D02*
D03*
X5421556Y3805821D02*
D03*
X5507786Y6000505D02*
D03*
X5244968Y6500039D02*
D03*
X5075873Y6726485D02*
D03*
X4884034Y6934015D02*
D03*
X4440759Y7283465D02*
D03*
X4194179Y7421556D02*
D03*
X3934516Y7533116D02*
D03*
X3664614Y7616923D02*
D03*
X2542756Y7661001D02*
D03*
X2823412Y7694219D02*
D03*
X3387430Y7672058D02*
D03*
X4819993Y6571782D02*
D03*
X3141077Y518104D02*
D03*
X3180075Y745631D02*
D03*
X3644607Y597799D02*
D03*
X2743260Y6462940D02*
D03*
X3876068Y6082598D02*
D03*
X4008900Y5997000D02*
D03*
X4142077Y5911999D02*
D03*
X4275254Y5826999D02*
D03*
X4408354Y5741921D02*
D03*
X4542100Y5658973D02*
D03*
X1858576Y2991638D02*
D03*
X4633508Y6921733D02*
D03*
X3307522Y2390510D02*
D03*
X3130137Y2428225D02*
D03*
X3000000Y3800415D02*
D03*
X4704773Y144222D02*
D03*
X1612900Y6068060D02*
D03*
X4704080Y5897880D02*
D03*
X5785205Y3677714D02*
D03*
X4265940Y4496752D02*
D03*
X2796108Y7466049D02*
D03*
X2520504Y6490285D02*
D03*
X1211143Y2694508D02*
D03*
X4215997Y392218D02*
D03*
X4162775Y491973D02*
D03*
X3855260Y1041702D02*
D03*
X3359032Y2773291D02*
D03*
X4109528Y2767138D02*
D03*
X3829600Y2844037D02*
D03*
X3882131Y2723499D02*
D03*
X4342810Y3630470D02*
D03*
X4006433Y2615145D02*
D03*
X3424151Y2327568D02*
D03*
X3674331Y2662230D02*
D03*
X4058018Y2905847D02*
D03*
X3492329Y2743096D02*
D03*
X3599838Y2694982D02*
D03*
X3545144Y2609390D02*
D03*
X3439342Y2659296D02*
D03*
X3307400Y2711754D02*
D03*
X3241978Y2834251D02*
D03*
X3062934Y2849321D02*
D03*
X2936240Y2852420D02*
D03*
X1574438Y2917230D02*
D03*
X2016024Y2937517D02*
D03*
X2005230Y3091925D02*
D03*
X2827401Y2275923D02*
D03*
X2405297Y2223347D02*
D03*
X3671868Y2370264D02*
D03*
X3903093Y2514780D02*
D03*
X3184415Y7729695D02*
D03*
X3108253Y7699999D02*
D03*
X1087120Y7018020D02*
D03*
X1207491Y7172742D02*
D03*
X3180953Y2950010D02*
D03*
X994874Y3035000D02*
D03*
X5157772Y3512931D02*
D03*
X4766872Y5473673D02*
D03*
X4864806Y5132516D02*
D03*
X4865188Y4999567D02*
D03*
X4865042Y4866137D02*
D03*
X4864823Y4732537D02*
D03*
X4866253Y4599523D02*
D03*
X4432300Y2857500D02*
D03*
X4688217Y2857798D02*
D03*
X5540609Y3802686D02*
D03*
X5728967Y4015087D02*
D03*
X4957498Y6752313D02*
D03*
X409988Y4315669D02*
D03*
X1053799Y3466748D02*
D03*
X4691306Y2978637D02*
D03*
X4633687Y7306586D02*
D03*
X2445442Y2926797D02*
D03*
X749080Y1178330D02*
D03*
X781730Y950538D02*
D03*
X3777955Y2692182D02*
D03*
X4247412Y2329161D02*
D03*
X1181100Y6830060D02*
D03*
X4236065Y1305000D02*
D03*
X2891535Y2999070D02*
D03*
X2840662Y2936322D02*
D03*
X2790098Y2998867D02*
D03*
X2739794Y2936216D02*
D03*
X2683150Y2993210D02*
D03*
X2632488Y2930592D02*
D03*
X2581968Y2997323D02*
D03*
X1500139Y3222620D02*
D03*
X1550659Y3155888D02*
D03*
X1601321Y3218506D02*
D03*
X1657965Y3161513D02*
D03*
X1708269Y3224163D02*
D03*
X1758834Y3161619D02*
D03*
X1809707Y3224367D02*
D03*
X1861628Y3163163D02*
D03*
X3658717Y2198934D02*
D03*
X588454Y2910289D02*
D03*
X5311903Y6078339D02*
D03*
X5252720Y6418580D02*
D03*
X4951126Y7226305D02*
D03*
X4962529Y7016587D02*
D03*
X4741131Y7225899D02*
D03*
X1302621Y7179781D02*
D03*
X1738550Y2587127D02*
D03*
X1403977Y2688744D02*
D03*
X1066405Y2917132D02*
D03*
X905219Y3343584D02*
D03*
X607165Y3591521D02*
D03*
X531266Y3703037D02*
D03*
X271405Y4029652D02*
D03*
X726440Y6131560D02*
D03*
X931822Y6359519D02*
D03*
X1342383Y4492298D02*
D03*
X1257616Y5443567D02*
D03*
X4455976Y7191802D02*
D03*
X4522431Y7271757D02*
D03*
X4276989Y7418671D02*
D03*
X4017991Y7539420D02*
D03*
X3746637Y7631421D02*
D03*
X3464978Y7694901D02*
D03*
X2896067Y7730989D02*
D03*
X2610571Y7706760D02*
D03*
X2330854Y7652334D02*
D03*
X2057582Y7568006D02*
D03*
X1826804Y7384940D02*
D03*
X1658205Y7104637D02*
D03*
X1595709Y7239928D02*
D03*
X1369246Y7084886D02*
D03*
X1254528Y6906282D02*
D03*
X1094479Y6858326D02*
D03*
X796149Y6690979D02*
D03*
X714414Y6534287D02*
D03*
X751193Y6347043D02*
D03*
X601264Y6462899D02*
D03*
X550285Y6220807D02*
D03*
X538345Y5855567D02*
D03*
X381694Y5662738D02*
D03*
X270503Y5103507D02*
D03*
X406761Y4900486D02*
D03*
X381767Y4547975D02*
D03*
X4907690Y6856863D02*
D03*
X5083710Y6631076D02*
D03*
X5282642Y6597003D02*
D03*
X5391233Y6193578D02*
D03*
X5582590Y6057304D02*
D03*
X5370018Y3915462D02*
D03*
X5301890Y3467626D02*
D03*
X5036649Y3363945D02*
D03*
X4766929Y3060494D02*
D03*
X4453887Y2722320D02*
D03*
X2948346Y2378262D02*
D03*
X2830904Y2414903D02*
D03*
X2330512Y2352748D02*
D03*
X2036157Y2495533D02*
D03*
X2079715Y2646389D02*
D03*
X1547274Y2691361D02*
D03*
X530111Y5758982D02*
D03*
X5313887Y3828224D02*
D03*
X4673011Y2767256D02*
D03*
X695211Y3938353D02*
D03*
X4443223Y1333505D02*
D03*
X3661765Y1569429D02*
D03*
X1242620Y3339000D02*
D03*
X1382974Y3245487D02*
D03*
X1382283Y3422645D02*
D03*
X1178352Y3754885D02*
D03*
X4960148Y6506254D02*
D03*
X4336381Y4180118D02*
D03*
X5742973Y2057465D02*
D03*
X1461328Y7092234D02*
D03*
X1031240Y6657998D02*
D03*
X3632500Y1422500D02*
D03*
X749080Y2698684D02*
D03*
Y2922555D02*
D03*
X596076Y3155000D02*
D03*
X513392Y3036598D02*
D03*
X3726366Y2754922D02*
D03*
X1955800Y924560D02*
D03*
X2756631Y493233D02*
D03*
X2336800Y924560D02*
D03*
X2082800D02*
D03*
X2209800D02*
D03*
X4333733Y5481029D02*
D03*
X4200402D02*
D03*
X4067072D02*
D03*
X3933742D02*
D03*
X3800413D02*
D03*
X3667083D02*
D03*
X3400423D02*
D03*
X3267093D02*
D03*
X3133763D02*
D03*
X4665930Y4496752D02*
D03*
X4532600D02*
D03*
X4399270D02*
D03*
X4132611D02*
D03*
X3999281D02*
D03*
X3865951D02*
D03*
X3732621D02*
D03*
X3599291D02*
D03*
X3465961D02*
D03*
X3332631D02*
D03*
X3199301D02*
D03*
X3065971D02*
D03*
X2932641D02*
D03*
X1466011D02*
D03*
X1599341D02*
D03*
X1732671D02*
D03*
X1866001D02*
D03*
X1999331D02*
D03*
X2132661D02*
D03*
X2265991D02*
D03*
X2399321D02*
D03*
X2532651D02*
D03*
X2665981D02*
D03*
X2799311D02*
D03*
X400730Y3858387D02*
D03*
X439094Y5442144D02*
D03*
X830140Y4079981D02*
D03*
X71270Y3998059D02*
D03*
X417270Y6060417D02*
D03*
X1245000Y6620000D02*
D03*
X5455000Y3630000D02*
D03*
X5097500Y2912500D02*
D03*
X1571503Y7138523D02*
D03*
X1376354Y7005037D02*
D03*
X4467063Y5481029D02*
D03*
X3000003Y5480705D02*
D03*
X4664630Y5552570D02*
D03*
X3550920Y6376164D02*
D03*
X4599963Y5603497D02*
D03*
X4466632Y5685997D02*
D03*
X4333456Y5770998D02*
D03*
X4200279Y5855998D02*
D03*
X3933926Y6026000D02*
D03*
X4067102Y5940999D02*
D03*
X4377501Y1358642D02*
D03*
X4302501D02*
D03*
X4152769Y1465512D02*
D03*
X3837801Y1567884D02*
D03*
X2725000Y3572200D02*
D03*
X3275000D02*
D03*
X3220000Y3482200D02*
D03*
X3330000D02*
D03*
X3220000Y3662200D02*
D03*
X3330000D02*
D03*
X2670000Y3482200D02*
D03*
X2780001D02*
D03*
Y3662200D02*
D03*
X2670000D02*
D03*
X3536073Y635928D02*
D03*
X3350649Y887026D02*
D03*
X3504309Y865674D02*
D03*
X3724635Y393315D02*
D03*
X3834664Y508367D02*
D03*
X4732271Y1230881D02*
D03*
X4711090Y837852D02*
D03*
X4658623Y491542D02*
D03*
X4548456Y589281D02*
D03*
X1933363Y5399990D02*
D03*
X3666653D02*
D03*
Y5266660D02*
D03*
X1933363D02*
D03*
X3666653Y5133330D02*
D03*
X1933363D02*
D03*
X3666653Y5000000D02*
D03*
X1933363D02*
D03*
X3666653Y4866670D02*
D03*
X1933363D02*
D03*
X3666653Y4733340D02*
D03*
X1933363D02*
D03*
X3666653Y4600010D02*
D03*
X1933363D02*
D03*
X1267510Y5359990D02*
D03*
Y5226660D02*
D03*
X4819994Y5199159D02*
D03*
X1267510Y5093330D02*
D03*
X4819993Y5065829D02*
D03*
X1267510Y4960000D02*
D03*
X4819992Y4932499D02*
D03*
X1267510Y4826670D02*
D03*
X4819993Y4799169D02*
D03*
X1267510Y4693340D02*
D03*
X4819993Y4665839D02*
D03*
X1267510Y4560010D02*
D03*
X5118070Y3598080D02*
D03*
X1400043Y5399990D02*
D03*
X3133333D02*
D03*
Y5266660D02*
D03*
X1400043D02*
D03*
X3133333Y5133330D02*
D03*
X1400043D02*
D03*
X3133333Y5000000D02*
D03*
X1400043D02*
D03*
X3133333Y4866670D02*
D03*
X1400043D02*
D03*
X3133333Y4733340D02*
D03*
X1400043D02*
D03*
X3133333Y4600010D02*
D03*
X1400043D02*
D03*
X1533374Y5399990D02*
D03*
X3266663D02*
D03*
Y5266660D02*
D03*
X1533374D02*
D03*
X3266663Y5133330D02*
D03*
X1533374D02*
D03*
X3266663Y5000000D02*
D03*
X1533374D02*
D03*
X3266663Y4866670D02*
D03*
X1533374D02*
D03*
X3266663Y4733340D02*
D03*
X1533374D02*
D03*
X3266663Y4600010D02*
D03*
X1533374D02*
D03*
X1666704Y5399990D02*
D03*
X3399993D02*
D03*
Y5266660D02*
D03*
X1666704D02*
D03*
X3399993Y5133330D02*
D03*
X1666704D02*
D03*
X3399993Y5000000D02*
D03*
X1666704D02*
D03*
X3399993Y4866670D02*
D03*
X1666704D02*
D03*
X3399993Y4733340D02*
D03*
X1666704D02*
D03*
X3399993Y4600010D02*
D03*
X1666704D02*
D03*
X1800033Y5399990D02*
D03*
X3533323D02*
D03*
Y5266660D02*
D03*
X1800033D02*
D03*
X3533323Y5133330D02*
D03*
X1800033D02*
D03*
X3533323Y5000000D02*
D03*
X1800033D02*
D03*
X3533323Y4866670D02*
D03*
X1800033D02*
D03*
X3533323Y4733340D02*
D03*
X1800033D02*
D03*
X3533323Y4600010D02*
D03*
X1800033D02*
D03*
X2066694Y5399990D02*
D03*
X3799983D02*
D03*
Y5266660D02*
D03*
X2066694D02*
D03*
X3799983Y5133330D02*
D03*
X2066694D02*
D03*
X3799983Y5000000D02*
D03*
X2066694D02*
D03*
X3799983Y4866670D02*
D03*
X2066694D02*
D03*
X3799983Y4733340D02*
D03*
X2066694D02*
D03*
X3799983Y4600010D02*
D03*
X2066694D02*
D03*
X4364741Y7142214D02*
D03*
X2200024Y5399990D02*
D03*
X3933313D02*
D03*
Y5266660D02*
D03*
X2200024D02*
D03*
X3933313Y5133330D02*
D03*
X2200024D02*
D03*
X3933313Y5000000D02*
D03*
X2200024D02*
D03*
X3933313Y4866670D02*
D03*
X2200024D02*
D03*
X3933313Y4733340D02*
D03*
X2200024D02*
D03*
X3933313Y4600010D02*
D03*
X2200024D02*
D03*
X2333353Y5399990D02*
D03*
X4066643D02*
D03*
Y5266660D02*
D03*
X2333353D02*
D03*
X4066643Y5133330D02*
D03*
X2333353D02*
D03*
X4066643Y5000000D02*
D03*
X2333353D02*
D03*
X4066643Y4866670D02*
D03*
X2333353D02*
D03*
X4066643Y4733340D02*
D03*
X2333353D02*
D03*
X4066643Y4600010D02*
D03*
X2333353D02*
D03*
X2466683Y5399990D02*
D03*
X4199973D02*
D03*
Y5266660D02*
D03*
X2466683D02*
D03*
X4199973Y5133330D02*
D03*
X2466683D02*
D03*
X4199973Y5000000D02*
D03*
X2466683D02*
D03*
X4199973Y4866670D02*
D03*
X2466683D02*
D03*
X4199973Y4733340D02*
D03*
X2466683D02*
D03*
X4199973Y4600010D02*
D03*
X2466683D02*
D03*
X2600014Y5399990D02*
D03*
X4333303D02*
D03*
Y5266660D02*
D03*
X2600014D02*
D03*
X4333303Y5133330D02*
D03*
X2600014D02*
D03*
X4333303Y5000000D02*
D03*
X2600014D02*
D03*
X4333303Y4866670D02*
D03*
X2600014D02*
D03*
X4333303Y4733340D02*
D03*
X2600014D02*
D03*
X4333303Y4600010D02*
D03*
X2600014D02*
D03*
X2733344Y5399990D02*
D03*
X4466633D02*
D03*
Y5266660D02*
D03*
X2733344D02*
D03*
X4466633Y5133330D02*
D03*
X2733344D02*
D03*
X4466633Y5000000D02*
D03*
X2733344D02*
D03*
X4466633Y4866670D02*
D03*
X2733344D02*
D03*
X4466633Y4733340D02*
D03*
X2733344D02*
D03*
X4466633Y4600010D02*
D03*
X2733344D02*
D03*
X2866673Y5399990D02*
D03*
X4599963D02*
D03*
Y5266660D02*
D03*
X2866673D02*
D03*
X4599963Y5133330D02*
D03*
X2866673D02*
D03*
X4599963Y5000000D02*
D03*
X2866673D02*
D03*
X4599963Y4866670D02*
D03*
X2866673D02*
D03*
X4599963Y4733340D02*
D03*
X2866673D02*
D03*
X4599963Y4600010D02*
D03*
X2866673D02*
D03*
X3000003Y5399990D02*
D03*
Y5266660D02*
D03*
Y5133330D02*
D03*
Y5000000D02*
D03*
Y4866670D02*
D03*
Y4733340D02*
D03*
Y4600010D02*
D03*
X4733293Y5399990D02*
D03*
Y5266660D02*
D03*
Y5133330D02*
D03*
X4733292Y5000000D02*
D03*
Y4866670D02*
D03*
Y4733340D02*
D03*
Y4600010D02*
D03*
X3110793Y7537582D02*
D03*
X1933363Y5480705D02*
D03*
X1800033D02*
D03*
X2200024D02*
D03*
X2066694D02*
D03*
X2866673D02*
D03*
X2466683D02*
D03*
X2333353D02*
D03*
X2738083Y5486312D02*
D03*
X2600014Y5480705D02*
D03*
X1666704D02*
D03*
X1533374D02*
D03*
X1400043D02*
D03*
D155*
X2920272Y1945633D02*
D03*
X5270500Y2509520D02*
D03*
X243840Y3449320D02*
D03*
X365877Y6694864D02*
D03*
X1341408Y7504844D02*
D03*
X4871715Y7583824D02*
D03*
X5635861Y6761124D02*
D03*
X5783580Y2981960D02*
D03*
Y2727960D02*
D03*
Y2473960D02*
D03*
%TF.MD5,4d32bd3290900b8ecb7a8e2d1e13d0e0*%
M02*
